<!-- Generated by IcoMoon.io -->
<svg version="1.1" xmlns="http://www.w3.org/2000/svg" width="32" height="32" viewBox="0 0 32 32">
<title>cust</title>
<path fill="#8a949c" d="M0.533 0c-0.295 0-0.533 0.239-0.533 0.533v5.867h1.067v-5.333h5.333v-1.067h-5.867z"></path>
<path fill="#8a949c" d="M31.467 0h-5.867v1.067h5.333v5.333h1.067v-5.867c0-0.295-0.239-0.533-0.533-0.533z"></path>
<path fill="#8a949c" d="M1.067 30.933v-5.333h-1.067v5.867c0 0.295 0.239 0.533 0.533 0.533h5.867v-1.067h-5.333z"></path>
<path fill="#8a949c" d="M30.933 25.6v5.333h-5.333v1.067h5.867c0.295 0 0.533-0.239 0.533-0.533v-5.867h-1.067z"></path>
<path fill="#8a949c" d="M30.92 15.467c-0.288-7.823-6.564-14.098-14.387-14.387v-1.080h-1.067v1.080c-7.823 0.288-14.098 6.564-14.387 14.387h-1.080v1.067h1.080c0.288 7.823 6.564 14.098 14.387 14.387v1.080h1.067v-1.080c7.823-0.288 14.098-6.564 14.387-14.387h1.080v-1.067h-1.080zM4.684 24c-0.35-0.494-0.668-1.011-0.951-1.547v-2.027c0-0.972 0.788-1.76 1.76-1.76h1.186l-0.774 1.935c-0.079 0.198-0.033 0.425 0.118 0.575l1.067 1.067c0.208 0.208 0.546 0.208 0.754 0l1.067-1.067c0.151-0.151 0.198-0.377 0.118-0.575l-0.775-1.935h1.186c0.972 0 1.76 0.788 1.76 1.76v3.573h-6.516zM8.202 14.077l1.906 1.144c-0.214 1.306-1.823 2.379-2.642 2.379-1.19-0.203-2.179-1.027-2.593-2.161 0.913-0.075 2.562-0.352 3.328-1.362zM4.829 14.369c0.143-1.787 0.984-2.636 2.637-2.636 1.514 0 2.347 0.716 2.585 2.209l-1.777-1.067c-0.253-0.152-0.58-0.070-0.732 0.183-0.020 0.033-0.036 0.069-0.049 0.106-0.27 0.809-1.727 1.116-2.665 1.205zM7.907 20.671l-0.441 0.441-0.441-0.441 0.441-1.102 0.441 1.102zM16.533 29.853v-1.053h-1.067v1.053c-3.835-0.147-7.437-1.881-9.945-4.787h6.212c0.295 0 0.533-0.239 0.533-0.533v-2.667h7.467v2.667c0 0.295 0.239 0.533 0.533 0.533h6.212c-2.508 2.906-6.11 4.64-9.945 4.787zM16.735 10.877l1.906 1.144c-0.214 1.306-1.823 2.379-2.642 2.379-1.19-0.203-2.179-1.027-2.593-2.161 0.913-0.075 2.562-0.352 3.328-1.362zM13.363 11.169c0.143-1.787 0.984-2.636 2.637-2.636 1.514 0 2.347 0.716 2.585 2.209l-1.777-1.067c-0.253-0.152-0.58-0.070-0.732 0.183-0.020 0.033-0.036 0.069-0.049 0.106-0.27 0.809-1.727 1.116-2.665 1.205zM16.441 17.471l-0.441 0.441-0.441-0.441 0.441-1.102 0.441 1.102zM15.212 15.467l-0.774 1.935c-0.079 0.198-0.033 0.425 0.118 0.575l1.067 1.067c0.208 0.208 0.546 0.208 0.754 0l1.067-1.067c0.151-0.151 0.198-0.377 0.118-0.575l-0.775-1.935h1.186c0.972 0 1.76 0.788 1.76 1.76v3.573h-7.467v-3.573c0-0.972 0.788-1.76 1.76-1.76h1.186zM28.267 22.453c-0.283 0.536-0.601 1.052-0.951 1.547h-6.516v-3.573c0-0.972 0.788-1.76 1.76-1.76h1.186l-0.774 1.935c-0.079 0.198-0.033 0.425 0.118 0.575l1.067 1.067c0.208 0.208 0.546 0.208 0.754 0l1.067-1.067c0.151-0.151 0.198-0.377 0.118-0.575l-0.775-1.935h1.186c0.972 0 1.76 0.788 1.76 1.76v2.027zM25.269 14.077l1.906 1.144c-0.214 1.306-1.823 2.379-2.642 2.379-1.19-0.203-2.179-1.027-2.593-2.161 0.913-0.075 2.562-0.352 3.328-1.362zM21.896 14.369c0.143-1.787 0.984-2.636 2.637-2.636 1.514 0 2.347 0.716 2.585 2.209l-1.777-1.067c-0.253-0.152-0.58-0.070-0.732 0.183-0.020 0.033-0.036 0.069-0.049 0.106-0.27 0.809-1.727 1.116-2.665 1.205zM24.974 20.671l-0.441 0.441-0.441-0.441 0.441-1.102 0.441 1.102zM29.853 16.533c-0.043 1.16-0.233 2.31-0.564 3.422-0.203-1.229-1.192-2.178-2.429-2.329 0.832-0.655 1.344-1.635 1.406-2.693 0-3.526-2.030-4.267-3.733-4.267s-3.733 0.74-3.733 4.267c0.062 1.057 0.574 2.038 1.406 2.693-0.434 0.053-0.85 0.207-1.214 0.449-0.068 0.045-0.13 0.096-0.193 0.147v-0.995c0.003-1.425-1.059-2.628-2.473-2.802 0.832-0.655 1.344-1.634 1.406-2.691 0-3.526-2.030-4.267-3.733-4.267s-3.733 0.74-3.733 4.267c0.062 1.057 0.574 2.038 1.406 2.693-1.414 0.174-2.475 1.376-2.473 2.801v0.993c-0.063-0.050-0.125-0.101-0.193-0.147-0.364-0.242-0.78-0.396-1.214-0.449 0.832-0.655 1.344-1.634 1.406-2.691 0-3.526-2.030-4.267-3.733-4.267s-3.733 0.74-3.733 4.267c0.062 1.057 0.574 2.038 1.406 2.693-1.237 0.151-2.226 1.1-2.429 2.329-0.331-1.112-0.521-2.262-0.564-3.422h1.053v-1.067h-1.053c0.287-7.234 6.086-13.033 13.32-13.32v1.053h1.067v-1.053c7.234 0.287 13.033 6.086 13.32 13.32h-1.053v1.067h1.053z"></path>
</svg>
