<!-- Generated by IcoMoon.io -->
<svg version="1.1" xmlns="http://www.w3.org/2000/svg" width="23" height="32" viewBox="0 0 23 32">
<title>expenses</title>
<path fill="#8a949c" d="M20.712 31.801h-18.611c-1.158 0-2.101-0.942-2.101-2.101v-27.599c0-1.159 0.942-2.101 2.101-2.101h18.611c1.158 0 2.101 0.942 2.101 2.101v27.599c0 1.159-0.942 2.101-2.101 2.101zM2.101 1.242c-0.473 0-0.858 0.385-0.858 0.859v27.599c0 0.474 0.385 0.859 0.858 0.859h18.611c0.473 0 0.858-0.385 0.858-0.859v-27.599c0-0.474-0.385-0.859-0.858-0.859h-18.611z"></path>
<path fill="#8a949c" d="M18.864 11.377c-0.040 0-0.081-0.004-0.121-0.013s-0.079-0.020-0.116-0.035c-0.038-0.016-0.074-0.035-0.107-0.057s-0.066-0.049-0.094-0.077c-0.116-0.116-0.182-0.276-0.182-0.439 0-0.041 0.004-0.082 0.012-0.122 0.008-0.039 0.020-0.078 0.035-0.116s0.035-0.073 0.057-0.107c0.022-0.034 0.048-0.066 0.077-0.094s0.060-0.055 0.094-0.078c0.033-0.022 0.070-0.041 0.107-0.057s0.076-0.028 0.116-0.036c0.080-0.016 0.162-0.016 0.243 0 0.039 0.008 0.078 0.021 0.116 0.036s0.073 0.034 0.107 0.057c0.034 0.023 0.066 0.049 0.095 0.078s0.055 0.060 0.078 0.094c0.022 0.033 0.041 0.070 0.057 0.107s0.027 0.077 0.035 0.116c0.008 0.040 0.012 0.081 0.012 0.122 0 0.163-0.066 0.323-0.182 0.439-0.029 0.028-0.060 0.055-0.095 0.077s-0.069 0.041-0.107 0.057c-0.038 0.016-0.077 0.027-0.116 0.035-0.040 0.008-0.081 0.013-0.122 0.013z"></path>
<path fill="#8a949c" d="M16.29 11.377h-12.341c-0.343 0-0.621-0.278-0.621-0.621s0.278-0.621 0.621-0.621h12.341c0.343 0 0.621 0.278 0.621 0.621s-0.278 0.621-0.621 0.621z"></path>
<path fill="#8a949c" d="M18.895 8.696h-14.977c-0.343 0-0.621-0.278-0.621-0.621v-4.726c0-0.343 0.278-0.621 0.621-0.621h14.977c0.343 0 0.621 0.278 0.621 0.621v4.726c0 0.343-0.278 0.621-0.621 0.621zM4.539 7.453h13.735v-3.483h-13.735v3.483z"></path>
<path fill="#8a949c" d="M10.095 20.185h-6.147c-0.343 0-0.621-0.278-0.621-0.621v-6.147c0-0.343 0.278-0.621 0.621-0.621h6.147c0.343 0 0.621 0.278 0.621 0.621v6.147c0 0.343-0.278 0.621-0.621 0.621zM4.57 18.943h4.904v-4.904h-4.904v4.904z"></path>
<path fill="#8a949c" d="M18.864 20.185h-6.146c-0.343 0-0.621-0.278-0.621-0.621v-6.147c0-0.343 0.278-0.621 0.621-0.621h6.146c0.343 0 0.621 0.278 0.621 0.621v6.147c0 0.343-0.278 0.621-0.621 0.621zM13.339 18.943h4.904v-4.904h-4.904v4.904z"></path>
<path fill="#8a949c" d="M10.095 28.954h-6.147c-0.343 0-0.621-0.278-0.621-0.621v-6.146c0-0.343 0.278-0.621 0.621-0.621h6.147c0.343 0 0.621 0.278 0.621 0.621v6.146c0 0.343-0.278 0.621-0.621 0.621zM4.57 27.712h4.904v-4.904h-4.904v4.904z"></path>
<path fill="#8a949c" d="M18.864 28.954h-6.146c-0.343 0-0.621-0.278-0.621-0.621v-6.146c0-0.343 0.278-0.621 0.621-0.621h6.146c0.343 0 0.621 0.278 0.621 0.621v6.146c0 0.343-0.278 0.621-0.621 0.621zM13.339 27.712h4.904v-4.904h-4.904v4.904z"></path>
<path fill="#8a949c" d="M8.186 15.869h-0.543v-0.543c0-0.343-0.278-0.621-0.621-0.621s-0.621 0.278-0.621 0.621v0.543h-0.543c-0.343 0-0.621 0.278-0.621 0.621s0.278 0.621 0.621 0.621h0.543v0.543c0 0.343 0.278 0.621 0.621 0.621s0.621-0.278 0.621-0.621v-0.543h0.543c0.343 0 0.621-0.278 0.621-0.621s-0.278-0.621-0.621-0.621z"></path>
<path fill="#8a949c" d="M7.9 25.26l0.384-0.384c0.243-0.242 0.243-0.636 0-0.878s-0.636-0.243-0.878 0l-0.384 0.384-0.384-0.384c-0.243-0.243-0.636-0.243-0.879 0s-0.243 0.636 0 0.878l0.384 0.384-0.384 0.384c-0.243 0.242-0.243 0.636 0 0.878 0.121 0.121 0.28 0.182 0.439 0.182s0.318-0.061 0.439-0.182l0.384-0.384 0.384 0.384c0.121 0.121 0.28 0.182 0.439 0.182s0.318-0.061 0.439-0.182c0.243-0.243 0.243-0.636 0-0.878l-0.384-0.384z"></path>
<path fill="#8a949c" d="M16.955 17.112h-2.328c-0.343 0-0.621-0.278-0.621-0.621s0.278-0.621 0.621-0.621h2.328c0.343 0 0.621 0.278 0.621 0.621s-0.278 0.621-0.621 0.621z"></path>
<path fill="#8a949c" d="M16.955 24.876h-2.328c-0.343 0-0.621-0.278-0.621-0.621s0.278-0.621 0.621-0.621h2.328c0.343 0 0.621 0.278 0.621 0.621s-0.278 0.621-0.621 0.621z"></path>
<path fill="#8a949c" d="M16.955 26.615h-2.328c-0.343 0-0.621-0.278-0.621-0.621s0.278-0.621 0.621-0.621h2.328c0.343 0 0.621 0.278 0.621 0.621s-0.278 0.621-0.621 0.621z"></path>
</svg>
