<!-- Generated by IcoMoon.io -->
<svg version="1.1" xmlns="http://www.w3.org/2000/svg" width="32" height="32" viewBox="0 0 32 32">
<title>inventory</title>
<path fill="#8a949c" d="M32.323 11.313v-1.077h-2.155v-7.542c0-0.297-0.241-0.539-0.538-0.539-0 0-0 0-0 0h-11.852c-0.297-0-0.539 0.241-0.539 0.538 0 0 0 0 0 0v7.542h-1.616v-7.542c0-0.297-0.241-0.539-0.538-0.539-0 0-0 0-0 0h-11.852c-0.297-0-0.539 0.241-0.539 0.538 0 0 0 0 0 0v7.542h-1.616v-10.236h-1.077v31.246c-0 0.297 0.241 0.539 0.538 0.539 0 0 0 0 0 0h31.785v-1.077h-2.155v-7.542c0-0.297-0.241-0.539-0.538-0.539-0 0-0 0-0 0h-11.852c-0.297-0-0.539 0.241-0.539 0.538 0 0 0 0 0 0v7.542h-1.616v-7.542c0-0.297-0.241-0.539-0.538-0.539-0 0-0 0-0 0h-11.852c-0.297-0-0.539 0.241-0.539 0.538 0 0 0 0 0 0v7.542h-1.616v-9.158h31.246v-1.077h-2.155v-7.542c0-0.297-0.241-0.539-0.538-0.539-0 0-0 0-0 0h-11.852c-0.297-0-0.539 0.241-0.539 0.538 0 0 0 0 0 0v7.542h-1.616v-7.542c0-0.297-0.241-0.539-0.538-0.539-0 0-0 0-0 0h-11.852c-0.297-0-0.539 0.241-0.539 0.538 0 0 0 0 0 0v7.542h-1.616v-9.158h31.246zM22.626 3.232h2.155v2.155h-2.155v-2.155zM18.317 3.232h3.232v2.694c-0 0.297 0.241 0.539 0.538 0.539 0 0 0 0 0 0h3.232c0.297 0 0.539-0.241 0.539-0.538 0-0 0-0 0-0v-2.694h3.232v7.003h-10.774v-7.003zM8.081 3.232h2.155v2.155h-2.155v-2.155zM3.771 3.232h3.232v2.694c-0 0.297 0.241 0.539 0.538 0.539 0 0 0 0 0 0h3.232c0.297 0 0.539-0.241 0.539-0.538 0-0 0-0 0-0v-2.694h3.232v7.003h-10.774v-7.003zM22.626 23.704h2.155v2.155h-2.155v-2.155zM18.317 23.704h3.232v2.694c-0 0.297 0.241 0.539 0.538 0.539 0 0 0 0 0 0h3.232c0.297 0 0.539-0.241 0.539-0.538 0-0 0-0 0-0v-2.694h3.232v7.003h-10.774v-7.003zM8.081 23.704h2.155v2.155h-2.155v-2.155zM3.771 23.704h3.232v2.694c-0 0.297 0.241 0.539 0.538 0.539 0 0 0 0 0 0h3.232c0.297 0 0.539-0.241 0.539-0.538 0-0 0-0 0-0v-2.694h3.232v7.003h-10.774v-7.003zM22.626 14.007h2.155v2.155h-2.155v-2.155zM18.317 13.468h3.232v3.232c-0 0.297 0.241 0.539 0.538 0.539 0 0 0 0 0 0h3.232c0.297 0 0.539-0.241 0.539-0.538 0-0 0-0 0-0v-3.232h3.232v7.003h-10.774v-7.003zM8.081 13.468h2.155v2.155h-2.155v-2.155zM3.771 13.468h3.232v2.694c-0 0.297 0.241 0.539 0.538 0.539 0 0 0 0 0 0h3.232c0.297 0 0.539-0.241 0.539-0.538 0-0 0-0 0-0v-2.694h3.232v7.003h-10.774v-7.003z"></path>
</svg>
