<!-- Generated by IcoMoon.io -->
<svg version="1.1" xmlns="http://www.w3.org/2000/svg" width="24" height="32" viewBox="0 0 24 32">
<title>invoices</title>
<path fill="#8a949c" d="M23.686 6.828l-6.634-6.634c-0.124-0.124-0.293-0.194-0.469-0.194h-13.93c-1.463 0-2.653 1.19-2.653 2.653v26.534c0 1.463 1.191 2.653 2.653 2.653h18.574c1.463 0 2.653-1.19 2.653-2.653v-21.891c0-0.176-0.070-0.345-0.194-0.469zM17.247 2.265l4.369 4.369h-3.042c-0.732 0-1.327-0.595-1.327-1.327v-3.042zM22.554 29.187c0 0.731-0.595 1.327-1.327 1.327h-18.574c-0.732 0-1.327-0.595-1.327-1.327v-26.534c0-0.731 0.595-1.327 1.327-1.327h13.267v3.98c0 1.463 1.191 2.653 2.653 2.653h3.98v21.227z"></path>
<path fill="#8a949c" d="M19.237 18.574h-14.594c-0.367 0-0.663 0.297-0.663 0.663s0.297 0.663 0.663 0.663h14.594c0.367 0 0.663-0.297 0.663-0.663s-0.297-0.663-0.663-0.663z"></path>
<path fill="#8a949c" d="M19.237 14.594h-14.594c-0.367 0-0.663 0.297-0.663 0.663s0.297 0.663 0.663 0.663h14.594c0.367 0 0.663-0.297 0.663-0.663s-0.297-0.663-0.663-0.663z"></path>
<path fill="#8a949c" d="M19.237 22.554h-14.594c-0.367 0-0.663 0.297-0.663 0.663s0.297 0.663 0.663 0.663h14.594c0.367 0 0.663-0.297 0.663-0.663s-0.297-0.663-0.663-0.663z"></path>
<path fill="#8a949c" d="M12.604 26.534h-7.96c-0.367 0-0.663 0.297-0.663 0.663s0.297 0.663 0.663 0.663h7.96c0.367 0 0.663-0.297 0.663-0.663s-0.297-0.663-0.663-0.663z"></path>
<path fill="#8a949c" d="M10.614 11.277c0 0.367 0.297 0.663 0.663 0.663h7.96c0.367 0 0.663-0.297 0.663-0.663s-0.297-0.663-0.663-0.663h-7.96c-0.367 0-0.663 0.297-0.663 0.663z"></path>
<path fill="#8a949c" d="M5.97 10.614h-1.327c-0.367 0-0.663 0.297-0.663 0.663s0.297 0.663 0.663 0.663h0.663c0 0.367 0.297 0.663 0.663 0.663s0.663-0.297 0.663-0.663v-0.122c0.77-0.275 1.327-1.004 1.327-1.868 0-1.097-0.893-1.99-1.99-1.99-0.365 0-0.663-0.297-0.663-0.663s0.298-0.663 0.663-0.663h1.327c0.367 0 0.663-0.297 0.663-0.663s-0.297-0.663-0.663-0.663h-0.663c0-0.367-0.297-0.663-0.663-0.663s-0.663 0.297-0.663 0.663v0.122c-0.77 0.275-1.327 1.004-1.327 1.868 0 1.097 0.893 1.99 1.99 1.99 0.365 0 0.663 0.297 0.663 0.663s-0.298 0.663-0.663 0.663z"></path>
</svg>
