<!-- Generated by IcoMoon.io -->
<svg version="1.1" xmlns="http://www.w3.org/2000/svg" width="32" height="32" viewBox="0 0 32 32">
<title>payments</title>
<path fill="#8a949c" d="M10.784 24.494c-0.008-0.040-0.020-0.079-0.036-0.117s-0.035-0.074-0.057-0.108c-0.023-0.034-0.049-0.066-0.078-0.095s-0.061-0.055-0.095-0.078c-0.034-0.023-0.070-0.042-0.108-0.058s-0.077-0.028-0.117-0.036c-0.081-0.016-0.164-0.016-0.244 0-0.040 0.008-0.079 0.020-0.117 0.036s-0.074 0.035-0.107 0.058c-0.034 0.023-0.066 0.049-0.095 0.078s-0.055 0.061-0.078 0.095c-0.023 0.034-0.042 0.070-0.057 0.108s-0.028 0.078-0.036 0.117c-0.008 0.040-0.012 0.081-0.012 0.122s0.004 0.082 0.012 0.122c0.008 0.040 0.020 0.079 0.036 0.117s0.034 0.074 0.057 0.108c0.023 0.034 0.049 0.066 0.078 0.095s0.061 0.055 0.095 0.078c0.034 0.023 0.070 0.042 0.107 0.058s0.078 0.028 0.117 0.036c0.040 0.008 0.081 0.012 0.122 0.012s0.082-0.004 0.122-0.012c0.040-0.008 0.079-0.020 0.117-0.036s0.074-0.035 0.108-0.058c0.034-0.023 0.066-0.049 0.095-0.078s0.055-0.061 0.078-0.095c0.023-0.034 0.042-0.070 0.057-0.108s0.027-0.077 0.036-0.117 0.012-0.081 0.012-0.122c0-0.041-0.004-0.082-0.012-0.122z"></path>
<path fill="#8a949c" d="M28.75 24.686c-0.002-0.006-0.005-0.012-0.008-0.019-0.575-1.346-1.924-1.844-3.521-1.298l-4.354 1.204c-0.252-0.762-0.88-1.411-1.768-1.741-0.006-0.002-0.011-0.004-0.017-0.006l-4.786-1.625c-0.398-0.515-1.646-1.833-3.983-1.833-1.633 0-3.077 1.12-3.904 2.341h-5.785c-0.345 0-0.625 0.28-0.625 0.625v7.88c0 0.345 0.28 0.625 0.625 0.625h3.716c0.345 0 0.625-0.28 0.625-0.625v-0.54h1.743c0.345 0 0.625-0.28 0.625-0.625v-0.18c1.016 0.089 1.35 0.281 2.283 0.819 0.717 0.414 1.802 1.039 3.755 1.917 0.009 0.004 0.018 0.008 0.027 0.012 0.375 0.147 1.107 0.379 2.011 0.379 0.629 0 1.34-0.112 2.071-0.443l9.624-3.446c0.017-0.006 0.034-0.013 0.050-0.021 0.92-0.423 2.291-1.616 1.594-3.402zM3.716 29.591h-2.466v-6.63h2.466v6.63zM6.084 28.426h-1.118v-5.465h1.118v5.465zM26.656 26.942l-9.62 3.444c-0.008 0.003-0.020 0.008-0.028 0.011s-0.017 0.007-0.025 0.011c-1.34 0.616-2.613 0.247-3.113 0.053-1.886-0.849-2.893-1.429-3.629-1.854-1.023-0.59-1.516-0.874-2.907-0.989v-5.034c0.592-0.971 1.741-1.965 2.98-1.965 2.124 0 3.024 1.382 3.060 1.437 0.076 0.124 0.194 0.218 0.332 0.265l4.967 1.686c0.793 0.298 1.213 0.977 1.020 1.655-0.089 0.313-0.294 0.572-0.579 0.731-0.282 0.157-0.607 0.196-0.918 0.11l-5.6-1.774c-0.329-0.104-0.68 0.078-0.785 0.407s0.078 0.68 0.407 0.785l5.609 1.778c0.006 0.002 0.012 0.004 0.018 0.005 0.224 0.064 0.452 0.095 0.679 0.095 0.415 0 0.825-0.106 1.198-0.313 0.576-0.321 0.992-0.847 1.172-1.481 0.014-0.051 0.027-0.101 0.038-0.152l4.693-1.3c0.678-0.232 1.567-0.315 1.964 0.597 0.41 1.071-0.656 1.66-0.933 1.792z"></path>
<path fill="#8a949c" d="M22.441 8.221c-0.008-0.040-0.020-0.079-0.036-0.117s-0.034-0.074-0.058-0.107c-0.023-0.034-0.049-0.066-0.078-0.095s-0.061-0.055-0.095-0.077c-0.034-0.022-0.070-0.042-0.108-0.058s-0.078-0.028-0.117-0.036c-0.081-0.016-0.164-0.016-0.244 0-0.040 0.008-0.079 0.020-0.117 0.036s-0.074 0.035-0.108 0.058c-0.034 0.022-0.066 0.049-0.095 0.077s-0.055 0.061-0.078 0.095c-0.023 0.034-0.042 0.070-0.058 0.107s-0.028 0.078-0.036 0.117c-0.008 0.040-0.012 0.081-0.012 0.122s0.004 0.082 0.012 0.122c0.008 0.040 0.020 0.079 0.036 0.117s0.035 0.074 0.058 0.108c0.023 0.034 0.049 0.066 0.078 0.095s0.061 0.055 0.095 0.078c0.034 0.023 0.070 0.042 0.108 0.057s0.077 0.027 0.117 0.036 0.081 0.012 0.122 0.012c0.041 0 0.082-0.004 0.122-0.012 0.039-0.008 0.079-0.020 0.117-0.036s0.074-0.035 0.108-0.057c0.034-0.023 0.066-0.049 0.095-0.078s0.055-0.061 0.078-0.095c0.023-0.034 0.042-0.070 0.058-0.108s0.028-0.077 0.036-0.117 0.012-0.081 0.012-0.122c0-0.041-0.004-0.082-0.012-0.122z"></path>
<path fill="#8a949c" d="M31.375 2.118h-3.716c-0.345 0-0.625 0.28-0.625 0.625v0.54h-1.743c-0.345 0-0.625 0.28-0.625 0.625v0.18c-1.016-0.089-1.35-0.281-2.283-0.819-0.718-0.414-1.802-1.039-3.755-1.917-0.009-0.004-0.018-0.008-0.027-0.012-0.636-0.25-2.302-0.742-4.081 0.064l-2.515 0.9-2.12-2.12c-0.244-0.244-0.64-0.244-0.884 0l-6.96 6.96c-0.225 0.225-0.268 0.616 0 0.884l11.893 11.893c0.19 0.19 0.636 0.248 0.884 0l6.354-6.354c0.165 0.014 0.337 0.022 0.514 0.022 1.633 0 3.077-1.12 3.904-2.341h5.785c0.345 0 0.625-0.28 0.625-0.625v-7.88c0-0.345-0.28-0.625-0.625-0.625zM9.443 1.51l1.425 1.425c-0.423 0.262-0.913 0.402-1.425 0.402s-1.001-0.14-1.425-0.402l1.425-1.425zM4.791 9.011l-1.425-1.425 1.425-1.425c0.262 0.423 0.402 0.913 0.402 1.425s-0.14 1.001-0.402 1.425zM14.376 18.595l-1.424-1.424c0.87-0.537 1.979-0.537 2.848 0l-1.424 1.424zM16.701 16.271c-1.381-1.002-3.268-1.002-4.649 0l-6.359-6.36c0.488-0.671 0.752-1.478 0.752-2.325s-0.263-1.654-0.752-2.325l1.426-1.426c0.671 0.488 1.478 0.752 2.325 0.752s1.654-0.263 2.325-0.752l1.352 1.352c-0.292 0.043-0.576 0.139-0.841 0.287-0.448 0.25-0.8 0.623-1.018 1.076-0.705 0.131-1.358 0.472-1.87 0.984-1.389 1.389-1.389 3.649 0 5.038 0.694 0.694 1.607 1.042 2.519 1.042s1.825-0.347 2.519-1.042c0.452-0.452 0.768-1.007 0.927-1.613l2.11 0.716c-0.238 1.101 0.006 2.258 0.662 3.168l-1.427 1.427zM12.901 10.126c0.005 0.002 0.011 0.004 0.017 0.006l1.25 0.424c-0.094 0.426-0.308 0.818-0.622 1.132-0.902 0.902-2.369 0.902-3.271 0s-0.902-2.369 0-3.271c0.217-0.218 0.474-0.388 0.754-0.503 0.115 0.96 0.807 1.816 1.873 2.212zM19.029 13.943c-0.241-0.393-0.378-0.842-0.399-1.3 0.299 0.216 0.665 0.428 1.102 0.597l-0.703 0.703zM24.666 10.374c-0.592 0.971-1.741 1.965-2.98 1.965-0.232 0-0.449-0.017-0.652-0.046-0.001-0-0.002-0-0.002-0-1.35-0.196-2.076-0.963-2.315-1.267-0.013-0.019-0.067-0.090-0.075-0.102-0.073-0.13-0.192-0.235-0.344-0.286l-4.969-1.687c-0.793-0.298-1.212-0.977-1.020-1.654 0-0 0-0.001 0-0.001s0-0.001 0-0.002c0.089-0.312 0.294-0.571 0.578-0.729 0.282-0.157 0.607-0.196 0.918-0.11l5.6 1.774c0.329 0.104 0.68-0.078 0.785-0.407s-0.078-0.68-0.407-0.785l-4.453-1.411-0.039-0.039c-0-0-0.001-0.001-0.001-0.001l-2.306-2.306 1.982-0.71c0.007-0.002 0.015-0.006 0.022-0.008 0.002-0.001 0.005-0.002 0.007-0.003 0.008-0.003 0.017-0.007 0.025-0.011 1.34-0.616 2.613-0.247 3.112-0.053 1.886 0.849 2.893 1.429 3.629 1.854 1.023 0.59 1.516 0.874 2.907 0.989v5.034zM27.034 9.998h-1.118v-5.465h1.118v5.465zM30.75 9.998h-2.466v-6.63h2.466v6.63z"></path>
</svg>
