<!-- Generated by IcoMoon.io -->
<svg version="1.1" xmlns="http://www.w3.org/2000/svg" width="35" height="32" viewBox="0 0 35 32">
<title>quotations</title>
<path fill="#8a949c" d="M34.009 0.025h-32.859c-0.635 0-1.15 0.515-1.15 1.151v21.054c0 0.636 0.515 1.151 1.15 1.151h17.598v7.479c0 0.465 0.28 0.885 0.71 1.063 0.142 0.059 0.292 0.088 0.44 0.088 0.299 0 0.594-0.117 0.814-0.337l8.35-8.293h4.947c0.636 0 1.151-0.515 1.151-1.151v-21.054c-0-0.635-0.515-1.151-1.151-1.151zM15.279 15.929c-0.934 1.189-2.331 1.818-4.040 1.818-0.679 0-1.229-0.55-1.229-1.229s0.55-1.229 1.229-1.229c0.967 0 1.636-0.279 2.107-0.878 0.456-0.581 0.688-1.415 0.784-2.305h-3.066c-0.509 0-0.922-0.413-0.922-0.922v-3.963c0-0.509 0.413-0.922 0.922-0.922h3.963c0.567 0 1.083 0.497 1.194 0.952 0.014 0.057 0.343 1.418 0.414 3.114 0.102 2.416-0.355 4.288-1.356 5.564zM23.78 15.929c-0.934 1.189-2.331 1.818-4.040 1.818-0.679 0-1.229-0.55-1.229-1.229s0.55-1.229 1.229-1.229c0.967 0 1.637-0.279 2.107-0.878 0.456-0.581 0.688-1.415 0.784-2.305h-3.066c-0.509 0-0.922-0.413-0.922-0.922v-3.963c0-0.509 0.412-0.922 0.922-0.922h3.964c0.567 0 1.083 0.497 1.194 0.952 0.014 0.057 0.343 1.418 0.414 3.114 0.101 2.416-0.355 4.288-1.357 5.564z"></path>
</svg>
