<!-- Generated by IcoMoon.io -->
<svg version="1.1" xmlns="http://www.w3.org/2000/svg" width="32" height="32" viewBox="0 0 32 32">
<title>reports</title>
<path fill="#8a949c" d="M2.661 3.26h6.919v1.064h-6.919v-1.064z"></path>
<path fill="#8a949c" d="M2.661 5.389h6.919v1.064h-6.919v-1.064z"></path>
<path fill="#8a949c" d="M2.661 7.518h4.79v1.064h-4.79v-1.064z"></path>
<path fill="#8a949c" d="M2.661 9.647h4.79v1.064h-4.79v-1.064z"></path>
<path fill="#8a949c" d="M0 30.936h31.933v1.064h-31.933v-1.064z"></path>
<path fill="#8a949c" d="M30.813 4.619l-2.129-4.258c-0.131-0.263-0.451-0.37-0.714-0.239-0 0-0 0-0 0l-4.258 2.129c-0.263 0.131-0.37 0.451-0.238 0.714s0.451 0.37 0.714 0.238l3.084-1.541-0.841 2.402c-3.698 10.533-13.225 17.923-24.347 18.887l0.090 1.064c11.541-1 21.426-8.669 25.262-19.6l0.859-2.455 1.566 3.132c0.131 0.263 0.451 0.37 0.714 0.238s0.37-0.451 0.238-0.714z"></path>
<path fill="#8a949c" d="M6.387 25.614h-3.726c-0.294 0-0.532 0.238-0.532 0.532v3.193c0 0.294 0.238 0.532 0.532 0.532h3.726c0.294 0 0.532-0.238 0.532-0.532v-3.193c0-0.294-0.238-0.532-0.532-0.532zM5.855 28.807h-2.661v-2.129h2.661v2.129z"></path>
<path fill="#8a949c" d="M12.241 24.017h-3.726c-0.294 0-0.532 0.238-0.532 0.532v4.79c0 0.294 0.238 0.532 0.532 0.532h3.726c0.294 0 0.532-0.238 0.532-0.532v-4.79c0-0.294-0.238-0.532-0.532-0.532zM11.709 28.807h-2.661v-3.726h2.661v3.726z"></path>
<path fill="#8a949c" d="M18.096 21.356h-3.726c-0.294 0-0.532 0.238-0.532 0.532v7.451c0 0.294 0.238 0.532 0.532 0.532h3.726c0.294 0 0.532-0.238 0.532-0.532v-7.451c0-0.294-0.238-0.532-0.532-0.532zM17.564 28.807h-2.661v-6.387h2.661v6.387z"></path>
<path fill="#8a949c" d="M23.95 17.63h-3.726c-0.294 0-0.532 0.238-0.532 0.532v11.177c0 0.294 0.238 0.532 0.532 0.532h3.726c0.294 0 0.532-0.238 0.532-0.532v-11.177c0-0.294-0.238-0.532-0.532-0.532zM23.418 28.807h-2.661v-10.112h2.661v10.112z"></path>
<path fill="#8a949c" d="M29.805 10.179h-3.726c-0.294 0-0.532 0.238-0.532 0.532v18.628c0 0.294 0.238 0.532 0.532 0.532h3.726c0.294 0 0.532-0.238 0.532-0.532v-18.628c0-0.294-0.238-0.532-0.532-0.532zM29.273 28.807h-2.661v-17.563h2.661v17.563z"></path>
</svg>
