<!-- Generated by IcoMoon.io -->
<svg version="1.1" xmlns="http://www.w3.org/2000/svg" width="32" height="32" viewBox="0 0 32 32">
<title>suppliers</title>
<path fill="#8a949c" d="M11.666 22.145l-3.79-2.34 0.391-1.076-0.045 0.018c-0.325 0.13-0.669 0.194-1.010 0.194-0.488 0-0.975-0.131-1.404-0.389-0.729-0.438-1.214-1.192-1.309-2.038l-0.543-4.853c-0.009-0.082-0.001-0.161-0.003-0.242l-2.26 6.213c-0.324 0.891-0.069 1.764 0.171 2.609 0.048 0.168 1.593 4.459 1.593 4.459l-3.084 4.172c-0.627 0.848-0.448 2.045 0.401 2.672 0.341 0.253 0.739 0.374 1.135 0.374 0.585 0 1.163-0.268 1.538-0.775l3.703-5.009c0.386-0.521 0.48-1.203 0.252-1.81l-0.158-0.419 1.409 0.87-0.46 5.060c-0.095 1.051 0.679 1.98 1.731 2.076 0.059 0.005 0.117 0.008 0.175 0.008 0.978 0 1.811-0.746 1.901-1.738l0.566-6.237c0.065-0.721-0.283-1.418-0.9-1.799z"></path>
<path fill="#8a949c" d="M9.383 11.054l0.145 1.296 1.195-0.476c0.393-1.603-0.459-3.277-2.046-3.854-1.515-0.552-3.163 0.087-3.945 1.433 0.424-0.432 0.985-0.735 1.634-0.808 1.504-0.171 2.849 0.911 3.017 2.41z"></path>
<path fill="#8a949c" d="M9.4 6.757c1.866 0 3.378-1.513 3.378-3.378s-1.512-3.378-3.378-3.378c-1.865 0-3.377 1.513-3.377 3.378s1.512 3.378 3.377 3.378z"></path>
<path fill="#8a949c" d="M30.885 19.79h-10.101c-0.791 0-1.433 0.642-1.433 1.433v4.027c0 0.792 0.642 1.433 1.433 1.433h10.101c0.791 0 1.433-0.642 1.433-1.433v-4.027c-0-0.792-0.642-1.433-1.433-1.433z"></path>
<path fill="#8a949c" d="M19.624 17.811h5.631c0.791 0 1.433-0.641 1.433-1.433v-3.587c0-0.792-0.642-1.433-1.433-1.433h-5.631c-0.791 0-1.433 0.642-1.433 1.433v3.587c0 0.792 0.642 1.433 1.433 1.433z"></path>
<path fill="#8a949c" d="M29.588 28.185h-12.558v-12.49c0-0.603-0.488-1.092-1.092-1.092h-1.642c0.152-0.377 0.167-0.809 0.005-1.216-0.335-0.841-1.291-1.247-2.127-0.915l-3.571 1.423-0.305-2.718c-0.1-0.9-0.912-1.55-1.81-1.446-0.899 0.101-1.546 0.911-1.445 1.81l0.543 4.853c0.057 0.508 0.347 0.96 0.785 1.223 0.258 0.155 0.549 0.233 0.842 0.233 0.205 0 0.411-0.038 0.606-0.116l3.559-1.417c0.198 0.279 0.507 0.473 0.875 0.473h2.594v12.49c0 0.603 0.488 1.092 1.092 1.092h1.333c0.167 0.826 0.897 1.448 1.772 1.448s1.605-0.622 1.772-1.448h4.099c0.167 0.826 0.897 1.448 1.772 1.448s1.605-0.622 1.772-1.448h1.128c0.604 0 1.092-0.489 1.092-1.092s-0.488-1.092-1.092-1.092z"></path>
</svg>
