<svg><defs>

<svg id="customer" width="32" height="32" viewBox="0 0 32 32">
<path  d="M0.533 0c-0.295 0-0.533 0.239-0.533 0.533v5.867h1.067v-5.333h5.333v-1.067h-5.867z"></path>
<path  d="M31.467 0h-5.867v1.067h5.333v5.333h1.067v-5.867c0-0.295-0.239-0.533-0.533-0.533z"></path>
<path  d="M1.067 30.933v-5.333h-1.067v5.867c0 0.295 0.239 0.533 0.533 0.533h5.867v-1.067h-5.333z"></path>
<path  d="M30.933 25.6v5.333h-5.333v1.067h5.867c0.295 0 0.533-0.239 0.533-0.533v-5.867h-1.067z"></path>
<path  d="M30.92 15.467c-0.288-7.823-6.564-14.098-14.387-14.387v-1.080h-1.067v1.080c-7.823 0.288-14.098 6.564-14.387 14.387h-1.080v1.067h1.080c0.288 7.823 6.564 14.098 14.387 14.387v1.080h1.067v-1.080c7.823-0.288 14.098-6.564 14.387-14.387h1.080v-1.067h-1.080zM4.684 24c-0.35-0.494-0.668-1.011-0.951-1.547v-2.027c0-0.972 0.788-1.76 1.76-1.76h1.186l-0.774 1.935c-0.079 0.198-0.033 0.425 0.118 0.575l1.067 1.067c0.208 0.208 0.546 0.208 0.754 0l1.067-1.067c0.151-0.151 0.198-0.377 0.118-0.575l-0.775-1.935h1.186c0.972 0 1.76 0.788 1.76 1.76v3.573h-6.516zM8.202 14.077l1.906 1.144c-0.214 1.306-1.823 2.379-2.642 2.379-1.19-0.203-2.179-1.027-2.593-2.161 0.913-0.075 2.562-0.352 3.328-1.362zM4.829 14.369c0.143-1.787 0.984-2.636 2.637-2.636 1.514 0 2.347 0.716 2.585 2.209l-1.777-1.067c-0.253-0.152-0.58-0.070-0.732 0.183-0.020 0.033-0.036 0.069-0.049 0.106-0.27 0.809-1.727 1.116-2.665 1.205zM7.907 20.671l-0.441 0.441-0.441-0.441 0.441-1.102 0.441 1.102zM16.533 29.853v-1.053h-1.067v1.053c-3.835-0.147-7.437-1.881-9.945-4.787h6.212c0.295 0 0.533-0.239 0.533-0.533v-2.667h7.467v2.667c0 0.295 0.239 0.533 0.533 0.533h6.212c-2.508 2.906-6.11 4.64-9.945 4.787zM16.735 10.877l1.906 1.144c-0.214 1.306-1.823 2.379-2.642 2.379-1.19-0.203-2.179-1.027-2.593-2.161 0.913-0.075 2.562-0.352 3.328-1.362zM13.363 11.169c0.143-1.787 0.984-2.636 2.637-2.636 1.514 0 2.347 0.716 2.585 2.209l-1.777-1.067c-0.253-0.152-0.58-0.070-0.732 0.183-0.020 0.033-0.036 0.069-0.049 0.106-0.27 0.809-1.727 1.116-2.665 1.205zM16.441 17.471l-0.441 0.441-0.441-0.441 0.441-1.102 0.441 1.102zM15.212 15.467l-0.774 1.935c-0.079 0.198-0.033 0.425 0.118 0.575l1.067 1.067c0.208 0.208 0.546 0.208 0.754 0l1.067-1.067c0.151-0.151 0.198-0.377 0.118-0.575l-0.775-1.935h1.186c0.972 0 1.76 0.788 1.76 1.76v3.573h-7.467v-3.573c0-0.972 0.788-1.76 1.76-1.76h1.186zM28.267 22.453c-0.283 0.536-0.601 1.052-0.951 1.547h-6.516v-3.573c0-0.972 0.788-1.76 1.76-1.76h1.186l-0.774 1.935c-0.079 0.198-0.033 0.425 0.118 0.575l1.067 1.067c0.208 0.208 0.546 0.208 0.754 0l1.067-1.067c0.151-0.151 0.198-0.377 0.118-0.575l-0.775-1.935h1.186c0.972 0 1.76 0.788 1.76 1.76v2.027zM25.269 14.077l1.906 1.144c-0.214 1.306-1.823 2.379-2.642 2.379-1.19-0.203-2.179-1.027-2.593-2.161 0.913-0.075 2.562-0.352 3.328-1.362zM21.896 14.369c0.143-1.787 0.984-2.636 2.637-2.636 1.514 0 2.347 0.716 2.585 2.209l-1.777-1.067c-0.253-0.152-0.58-0.070-0.732 0.183-0.020 0.033-0.036 0.069-0.049 0.106-0.27 0.809-1.727 1.116-2.665 1.205zM24.974 20.671l-0.441 0.441-0.441-0.441 0.441-1.102 0.441 1.102zM29.853 16.533c-0.043 1.16-0.233 2.31-0.564 3.422-0.203-1.229-1.192-2.178-2.429-2.329 0.832-0.655 1.344-1.635 1.406-2.693 0-3.526-2.030-4.267-3.733-4.267s-3.733 0.74-3.733 4.267c0.062 1.057 0.574 2.038 1.406 2.693-0.434 0.053-0.85 0.207-1.214 0.449-0.068 0.045-0.13 0.096-0.193 0.147v-0.995c0.003-1.425-1.059-2.628-2.473-2.802 0.832-0.655 1.344-1.634 1.406-2.691 0-3.526-2.030-4.267-3.733-4.267s-3.733 0.74-3.733 4.267c0.062 1.057 0.574 2.038 1.406 2.693-1.414 0.174-2.475 1.376-2.473 2.801v0.993c-0.063-0.050-0.125-0.101-0.193-0.147-0.364-0.242-0.78-0.396-1.214-0.449 0.832-0.655 1.344-1.634 1.406-2.691 0-3.526-2.030-4.267-3.733-4.267s-3.733 0.74-3.733 4.267c0.062 1.057 0.574 2.038 1.406 2.693-1.237 0.151-2.226 1.1-2.429 2.329-0.331-1.112-0.521-2.262-0.564-3.422h1.053v-1.067h-1.053c0.287-7.234 6.086-13.033 13.32-13.32v1.053h1.067v-1.053c7.234 0.287 13.033 6.086 13.32 13.32h-1.053v1.067h1.053z"></path>
</svg>
<svg id="inventory" width="32" height="32" viewBox="0 0 32 32">
<path d="M32.323 11.313v-1.077h-2.155v-7.542c0-0.297-0.241-0.539-0.538-0.539-0 0-0 0-0 0h-11.852c-0.297-0-0.539 0.241-0.539 0.538 0 0 0 0 0 0v7.542h-1.616v-7.542c0-0.297-0.241-0.539-0.538-0.539-0 0-0 0-0 0h-11.852c-0.297-0-0.539 0.241-0.539 0.538 0 0 0 0 0 0v7.542h-1.616v-10.236h-1.077v31.246c-0 0.297 0.241 0.539 0.538 0.539 0 0 0 0 0 0h31.785v-1.077h-2.155v-7.542c0-0.297-0.241-0.539-0.538-0.539-0 0-0 0-0 0h-11.852c-0.297-0-0.539 0.241-0.539 0.538 0 0 0 0 0 0v7.542h-1.616v-7.542c0-0.297-0.241-0.539-0.538-0.539-0 0-0 0-0 0h-11.852c-0.297-0-0.539 0.241-0.539 0.538 0 0 0 0 0 0v7.542h-1.616v-9.158h31.246v-1.077h-2.155v-7.542c0-0.297-0.241-0.539-0.538-0.539-0 0-0 0-0 0h-11.852c-0.297-0-0.539 0.241-0.539 0.538 0 0 0 0 0 0v7.542h-1.616v-7.542c0-0.297-0.241-0.539-0.538-0.539-0 0-0 0-0 0h-11.852c-0.297-0-0.539 0.241-0.539 0.538 0 0 0 0 0 0v7.542h-1.616v-9.158h31.246zM22.626 3.232h2.155v2.155h-2.155v-2.155zM18.317 3.232h3.232v2.694c-0 0.297 0.241 0.539 0.538 0.539 0 0 0 0 0 0h3.232c0.297 0 0.539-0.241 0.539-0.538 0-0 0-0 0-0v-2.694h3.232v7.003h-10.774v-7.003zM8.081 3.232h2.155v2.155h-2.155v-2.155zM3.771 3.232h3.232v2.694c-0 0.297 0.241 0.539 0.538 0.539 0 0 0 0 0 0h3.232c0.297 0 0.539-0.241 0.539-0.538 0-0 0-0 0-0v-2.694h3.232v7.003h-10.774v-7.003zM22.626 23.704h2.155v2.155h-2.155v-2.155zM18.317 23.704h3.232v2.694c-0 0.297 0.241 0.539 0.538 0.539 0 0 0 0 0 0h3.232c0.297 0 0.539-0.241 0.539-0.538 0-0 0-0 0-0v-2.694h3.232v7.003h-10.774v-7.003zM8.081 23.704h2.155v2.155h-2.155v-2.155zM3.771 23.704h3.232v2.694c-0 0.297 0.241 0.539 0.538 0.539 0 0 0 0 0 0h3.232c0.297 0 0.539-0.241 0.539-0.538 0-0 0-0 0-0v-2.694h3.232v7.003h-10.774v-7.003zM22.626 14.007h2.155v2.155h-2.155v-2.155zM18.317 13.468h3.232v3.232c-0 0.297 0.241 0.539 0.538 0.539 0 0 0 0 0 0h3.232c0.297 0 0.539-0.241 0.539-0.538 0-0 0-0 0-0v-3.232h3.232v7.003h-10.774v-7.003zM8.081 13.468h2.155v2.155h-2.155v-2.155zM3.771 13.468h3.232v2.694c-0 0.297 0.241 0.539 0.538 0.539 0 0 0 0 0 0h3.232c0.297 0 0.539-0.241 0.539-0.538 0-0 0-0 0-0v-2.694h3.232v7.003h-10.774v-7.003z"></path>
</svg>
<svg id="quotation" width="32" height="32" viewBox="0 0 32 32">
<path  d="M34.009 0.025h-32.859c-0.635 0-1.15 0.515-1.15 1.151v21.054c0 0.636 0.515 1.151 1.15 1.151h17.598v7.479c0 0.465 0.28 0.885 0.71 1.063 0.142 0.059 0.292 0.088 0.44 0.088 0.299 0 0.594-0.117 0.814-0.337l8.35-8.293h4.947c0.636 0 1.151-0.515 1.151-1.151v-21.054c-0-0.635-0.515-1.151-1.151-1.151zM15.279 15.929c-0.934 1.189-2.331 1.818-4.040 1.818-0.679 0-1.229-0.55-1.229-1.229s0.55-1.229 1.229-1.229c0.967 0 1.636-0.279 2.107-0.878 0.456-0.581 0.688-1.415 0.784-2.305h-3.066c-0.509 0-0.922-0.413-0.922-0.922v-3.963c0-0.509 0.413-0.922 0.922-0.922h3.963c0.567 0 1.083 0.497 1.194 0.952 0.014 0.057 0.343 1.418 0.414 3.114 0.102 2.416-0.355 4.288-1.356 5.564zM23.78 15.929c-0.934 1.189-2.331 1.818-4.040 1.818-0.679 0-1.229-0.55-1.229-1.229s0.55-1.229 1.229-1.229c0.967 0 1.637-0.279 2.107-0.878 0.456-0.581 0.688-1.415 0.784-2.305h-3.066c-0.509 0-0.922-0.413-0.922-0.922v-3.963c0-0.509 0.412-0.922 0.922-0.922h3.964c0.567 0 1.083 0.497 1.194 0.952 0.014 0.057 0.343 1.418 0.414 3.114 0.101 2.416-0.355 4.288-1.357 5.564z"></path>
</svg>
<svg id="invoices" width="32" height="32" viewBox="0 0 32 32">
<path  d="M23.686 6.828l-6.634-6.634c-0.124-0.124-0.293-0.194-0.469-0.194h-13.93c-1.463 0-2.653 1.19-2.653 2.653v26.534c0 1.463 1.191 2.653 2.653 2.653h18.574c1.463 0 2.653-1.19 2.653-2.653v-21.891c0-0.176-0.070-0.345-0.194-0.469zM17.247 2.265l4.369 4.369h-3.042c-0.732 0-1.327-0.595-1.327-1.327v-3.042zM22.554 29.187c0 0.731-0.595 1.327-1.327 1.327h-18.574c-0.732 0-1.327-0.595-1.327-1.327v-26.534c0-0.731 0.595-1.327 1.327-1.327h13.267v3.98c0 1.463 1.191 2.653 2.653 2.653h3.98v21.227z"></path>
<path  d="M19.237 18.574h-14.594c-0.367 0-0.663 0.297-0.663 0.663s0.297 0.663 0.663 0.663h14.594c0.367 0 0.663-0.297 0.663-0.663s-0.297-0.663-0.663-0.663z"></path>
<path  d="M19.237 14.594h-14.594c-0.367 0-0.663 0.297-0.663 0.663s0.297 0.663 0.663 0.663h14.594c0.367 0 0.663-0.297 0.663-0.663s-0.297-0.663-0.663-0.663z"></path>
<path  d="M19.237 22.554h-14.594c-0.367 0-0.663 0.297-0.663 0.663s0.297 0.663 0.663 0.663h14.594c0.367 0 0.663-0.297 0.663-0.663s-0.297-0.663-0.663-0.663z"></path>
<path  d="M12.604 26.534h-7.96c-0.367 0-0.663 0.297-0.663 0.663s0.297 0.663 0.663 0.663h7.96c0.367 0 0.663-0.297 0.663-0.663s-0.297-0.663-0.663-0.663z"></path>
<path  d="M10.614 11.277c0 0.367 0.297 0.663 0.663 0.663h7.96c0.367 0 0.663-0.297 0.663-0.663s-0.297-0.663-0.663-0.663h-7.96c-0.367 0-0.663 0.297-0.663 0.663z"></path>
<path  d="M5.97 10.614h-1.327c-0.367 0-0.663 0.297-0.663 0.663s0.297 0.663 0.663 0.663h0.663c0 0.367 0.297 0.663 0.663 0.663s0.663-0.297 0.663-0.663v-0.122c0.77-0.275 1.327-1.004 1.327-1.868 0-1.097-0.893-1.99-1.99-1.99-0.365 0-0.663-0.297-0.663-0.663s0.298-0.663 0.663-0.663h1.327c0.367 0 0.663-0.297 0.663-0.663s-0.297-0.663-0.663-0.663h-0.663c0-0.367-0.297-0.663-0.663-0.663s-0.663 0.297-0.663 0.663v0.122c-0.77 0.275-1.327 1.004-1.327 1.868 0 1.097 0.893 1.99 1.99 1.99 0.365 0 0.663 0.297 0.663 0.663s-0.298 0.663-0.663 0.663z"></path>
</svg>
<svg id="expenses" width="32" height="32" viewBox="0 0 32 32">
<path  d="M20.712 31.801h-18.611c-1.158 0-2.101-0.942-2.101-2.101v-27.599c0-1.159 0.942-2.101 2.101-2.101h18.611c1.158 0 2.101 0.942 2.101 2.101v27.599c0 1.159-0.942 2.101-2.101 2.101zM2.101 1.242c-0.473 0-0.858 0.385-0.858 0.859v27.599c0 0.474 0.385 0.859 0.858 0.859h18.611c0.473 0 0.858-0.385 0.858-0.859v-27.599c0-0.474-0.385-0.859-0.858-0.859h-18.611z"></path>
<path  d="M18.864 11.377c-0.040 0-0.081-0.004-0.121-0.013s-0.079-0.020-0.116-0.035c-0.038-0.016-0.074-0.035-0.107-0.057s-0.066-0.049-0.094-0.077c-0.116-0.116-0.182-0.276-0.182-0.439 0-0.041 0.004-0.082 0.012-0.122 0.008-0.039 0.020-0.078 0.035-0.116s0.035-0.073 0.057-0.107c0.022-0.034 0.048-0.066 0.077-0.094s0.060-0.055 0.094-0.078c0.033-0.022 0.070-0.041 0.107-0.057s0.076-0.028 0.116-0.036c0.080-0.016 0.162-0.016 0.243 0 0.039 0.008 0.078 0.021 0.116 0.036s0.073 0.034 0.107 0.057c0.034 0.023 0.066 0.049 0.095 0.078s0.055 0.060 0.078 0.094c0.022 0.033 0.041 0.070 0.057 0.107s0.027 0.077 0.035 0.116c0.008 0.040 0.012 0.081 0.012 0.122 0 0.163-0.066 0.323-0.182 0.439-0.029 0.028-0.060 0.055-0.095 0.077s-0.069 0.041-0.107 0.057c-0.038 0.016-0.077 0.027-0.116 0.035-0.040 0.008-0.081 0.013-0.122 0.013z"></path>
<path  d="M16.29 11.377h-12.341c-0.343 0-0.621-0.278-0.621-0.621s0.278-0.621 0.621-0.621h12.341c0.343 0 0.621 0.278 0.621 0.621s-0.278 0.621-0.621 0.621z"></path>
<path  d="M18.895 8.696h-14.977c-0.343 0-0.621-0.278-0.621-0.621v-4.726c0-0.343 0.278-0.621 0.621-0.621h14.977c0.343 0 0.621 0.278 0.621 0.621v4.726c0 0.343-0.278 0.621-0.621 0.621zM4.539 7.453h13.735v-3.483h-13.735v3.483z"></path>
<path  d="M10.095 20.185h-6.147c-0.343 0-0.621-0.278-0.621-0.621v-6.147c0-0.343 0.278-0.621 0.621-0.621h6.147c0.343 0 0.621 0.278 0.621 0.621v6.147c0 0.343-0.278 0.621-0.621 0.621zM4.57 18.943h4.904v-4.904h-4.904v4.904z"></path>
<path  d="M18.864 20.185h-6.146c-0.343 0-0.621-0.278-0.621-0.621v-6.147c0-0.343 0.278-0.621 0.621-0.621h6.146c0.343 0 0.621 0.278 0.621 0.621v6.147c0 0.343-0.278 0.621-0.621 0.621zM13.339 18.943h4.904v-4.904h-4.904v4.904z"></path>
<path  d="M10.095 28.954h-6.147c-0.343 0-0.621-0.278-0.621-0.621v-6.146c0-0.343 0.278-0.621 0.621-0.621h6.147c0.343 0 0.621 0.278 0.621 0.621v6.146c0 0.343-0.278 0.621-0.621 0.621zM4.57 27.712h4.904v-4.904h-4.904v4.904z"></path>
<path  d="M18.864 28.954h-6.146c-0.343 0-0.621-0.278-0.621-0.621v-6.146c0-0.343 0.278-0.621 0.621-0.621h6.146c0.343 0 0.621 0.278 0.621 0.621v6.146c0 0.343-0.278 0.621-0.621 0.621zM13.339 27.712h4.904v-4.904h-4.904v4.904z"></path>
<path  d="M8.186 15.869h-0.543v-0.543c0-0.343-0.278-0.621-0.621-0.621s-0.621 0.278-0.621 0.621v0.543h-0.543c-0.343 0-0.621 0.278-0.621 0.621s0.278 0.621 0.621 0.621h0.543v0.543c0 0.343 0.278 0.621 0.621 0.621s0.621-0.278 0.621-0.621v-0.543h0.543c0.343 0 0.621-0.278 0.621-0.621s-0.278-0.621-0.621-0.621z"></path>
<path  d="M7.9 25.26l0.384-0.384c0.243-0.242 0.243-0.636 0-0.878s-0.636-0.243-0.878 0l-0.384 0.384-0.384-0.384c-0.243-0.243-0.636-0.243-0.879 0s-0.243 0.636 0 0.878l0.384 0.384-0.384 0.384c-0.243 0.242-0.243 0.636 0 0.878 0.121 0.121 0.28 0.182 0.439 0.182s0.318-0.061 0.439-0.182l0.384-0.384 0.384 0.384c0.121 0.121 0.28 0.182 0.439 0.182s0.318-0.061 0.439-0.182c0.243-0.243 0.243-0.636 0-0.878l-0.384-0.384z"></path>
<path  d="M16.955 17.112h-2.328c-0.343 0-0.621-0.278-0.621-0.621s0.278-0.621 0.621-0.621h2.328c0.343 0 0.621 0.278 0.621 0.621s-0.278 0.621-0.621 0.621z"></path>
<path  d="M16.955 24.876h-2.328c-0.343 0-0.621-0.278-0.621-0.621s0.278-0.621 0.621-0.621h2.328c0.343 0 0.621 0.278 0.621 0.621s-0.278 0.621-0.621 0.621z"></path>
<path  d="M16.955 26.615h-2.328c-0.343 0-0.621-0.278-0.621-0.621s0.278-0.621 0.621-0.621h2.328c0.343 0 0.621 0.278 0.621 0.621s-0.278 0.621-0.621 0.621z"></path>
</svg>

<svg id="payments" width="32" height="32" viewBox="0 0 32 32">
<path d="M10.784 24.494c-0.008-0.040-0.020-0.079-0.036-0.117s-0.035-0.074-0.057-0.108c-0.023-0.034-0.049-0.066-0.078-0.095s-0.061-0.055-0.095-0.078c-0.034-0.023-0.070-0.042-0.108-0.058s-0.077-0.028-0.117-0.036c-0.081-0.016-0.164-0.016-0.244 0-0.040 0.008-0.079 0.020-0.117 0.036s-0.074 0.035-0.107 0.058c-0.034 0.023-0.066 0.049-0.095 0.078s-0.055 0.061-0.078 0.095c-0.023 0.034-0.042 0.070-0.057 0.108s-0.028 0.078-0.036 0.117c-0.008 0.040-0.012 0.081-0.012 0.122s0.004 0.082 0.012 0.122c0.008 0.040 0.020 0.079 0.036 0.117s0.034 0.074 0.057 0.108c0.023 0.034 0.049 0.066 0.078 0.095s0.061 0.055 0.095 0.078c0.034 0.023 0.070 0.042 0.107 0.058s0.078 0.028 0.117 0.036c0.040 0.008 0.081 0.012 0.122 0.012s0.082-0.004 0.122-0.012c0.040-0.008 0.079-0.020 0.117-0.036s0.074-0.035 0.108-0.058c0.034-0.023 0.066-0.049 0.095-0.078s0.055-0.061 0.078-0.095c0.023-0.034 0.042-0.070 0.057-0.108s0.027-0.077 0.036-0.117 0.012-0.081 0.012-0.122c0-0.041-0.004-0.082-0.012-0.122z"></path>
<path d="M28.75 24.686c-0.002-0.006-0.005-0.012-0.008-0.019-0.575-1.346-1.924-1.844-3.521-1.298l-4.354 1.204c-0.252-0.762-0.88-1.411-1.768-1.741-0.006-0.002-0.011-0.004-0.017-0.006l-4.786-1.625c-0.398-0.515-1.646-1.833-3.983-1.833-1.633 0-3.077 1.12-3.904 2.341h-5.785c-0.345 0-0.625 0.28-0.625 0.625v7.88c0 0.345 0.28 0.625 0.625 0.625h3.716c0.345 0 0.625-0.28 0.625-0.625v-0.54h1.743c0.345 0 0.625-0.28 0.625-0.625v-0.18c1.016 0.089 1.35 0.281 2.283 0.819 0.717 0.414 1.802 1.039 3.755 1.917 0.009 0.004 0.018 0.008 0.027 0.012 0.375 0.147 1.107 0.379 2.011 0.379 0.629 0 1.34-0.112 2.071-0.443l9.624-3.446c0.017-0.006 0.034-0.013 0.050-0.021 0.92-0.423 2.291-1.616 1.594-3.402zM3.716 29.591h-2.466v-6.63h2.466v6.63zM6.084 28.426h-1.118v-5.465h1.118v5.465zM26.656 26.942l-9.62 3.444c-0.008 0.003-0.020 0.008-0.028 0.011s-0.017 0.007-0.025 0.011c-1.34 0.616-2.613 0.247-3.113 0.053-1.886-0.849-2.893-1.429-3.629-1.854-1.023-0.59-1.516-0.874-2.907-0.989v-5.034c0.592-0.971 1.741-1.965 2.98-1.965 2.124 0 3.024 1.382 3.060 1.437 0.076 0.124 0.194 0.218 0.332 0.265l4.967 1.686c0.793 0.298 1.213 0.977 1.020 1.655-0.089 0.313-0.294 0.572-0.579 0.731-0.282 0.157-0.607 0.196-0.918 0.11l-5.6-1.774c-0.329-0.104-0.68 0.078-0.785 0.407s0.078 0.68 0.407 0.785l5.609 1.778c0.006 0.002 0.012 0.004 0.018 0.005 0.224 0.064 0.452 0.095 0.679 0.095 0.415 0 0.825-0.106 1.198-0.313 0.576-0.321 0.992-0.847 1.172-1.481 0.014-0.051 0.027-0.101 0.038-0.152l4.693-1.3c0.678-0.232 1.567-0.315 1.964 0.597 0.41 1.071-0.656 1.66-0.933 1.792z"></path>
<path d="M22.441 8.221c-0.008-0.040-0.020-0.079-0.036-0.117s-0.034-0.074-0.058-0.107c-0.023-0.034-0.049-0.066-0.078-0.095s-0.061-0.055-0.095-0.077c-0.034-0.022-0.070-0.042-0.108-0.058s-0.078-0.028-0.117-0.036c-0.081-0.016-0.164-0.016-0.244 0-0.040 0.008-0.079 0.020-0.117 0.036s-0.074 0.035-0.108 0.058c-0.034 0.022-0.066 0.049-0.095 0.077s-0.055 0.061-0.078 0.095c-0.023 0.034-0.042 0.070-0.058 0.107s-0.028 0.078-0.036 0.117c-0.008 0.040-0.012 0.081-0.012 0.122s0.004 0.082 0.012 0.122c0.008 0.040 0.020 0.079 0.036 0.117s0.035 0.074 0.058 0.108c0.023 0.034 0.049 0.066 0.078 0.095s0.061 0.055 0.095 0.078c0.034 0.023 0.070 0.042 0.108 0.057s0.077 0.027 0.117 0.036 0.081 0.012 0.122 0.012c0.041 0 0.082-0.004 0.122-0.012 0.039-0.008 0.079-0.020 0.117-0.036s0.074-0.035 0.108-0.057c0.034-0.023 0.066-0.049 0.095-0.078s0.055-0.061 0.078-0.095c0.023-0.034 0.042-0.070 0.058-0.108s0.028-0.077 0.036-0.117 0.012-0.081 0.012-0.122c0-0.041-0.004-0.082-0.012-0.122z"></path>
<path d="M31.375 2.118h-3.716c-0.345 0-0.625 0.28-0.625 0.625v0.54h-1.743c-0.345 0-0.625 0.28-0.625 0.625v0.18c-1.016-0.089-1.35-0.281-2.283-0.819-0.718-0.414-1.802-1.039-3.755-1.917-0.009-0.004-0.018-0.008-0.027-0.012-0.636-0.25-2.302-0.742-4.081 0.064l-2.515 0.9-2.12-2.12c-0.244-0.244-0.64-0.244-0.884 0l-6.96 6.96c-0.225 0.225-0.268 0.616 0 0.884l11.893 11.893c0.19 0.19 0.636 0.248 0.884 0l6.354-6.354c0.165 0.014 0.337 0.022 0.514 0.022 1.633 0 3.077-1.12 3.904-2.341h5.785c0.345 0 0.625-0.28 0.625-0.625v-7.88c0-0.345-0.28-0.625-0.625-0.625zM9.443 1.51l1.425 1.425c-0.423 0.262-0.913 0.402-1.425 0.402s-1.001-0.14-1.425-0.402l1.425-1.425zM4.791 9.011l-1.425-1.425 1.425-1.425c0.262 0.423 0.402 0.913 0.402 1.425s-0.14 1.001-0.402 1.425zM14.376 18.595l-1.424-1.424c0.87-0.537 1.979-0.537 2.848 0l-1.424 1.424zM16.701 16.271c-1.381-1.002-3.268-1.002-4.649 0l-6.359-6.36c0.488-0.671 0.752-1.478 0.752-2.325s-0.263-1.654-0.752-2.325l1.426-1.426c0.671 0.488 1.478 0.752 2.325 0.752s1.654-0.263 2.325-0.752l1.352 1.352c-0.292 0.043-0.576 0.139-0.841 0.287-0.448 0.25-0.8 0.623-1.018 1.076-0.705 0.131-1.358 0.472-1.87 0.984-1.389 1.389-1.389 3.649 0 5.038 0.694 0.694 1.607 1.042 2.519 1.042s1.825-0.347 2.519-1.042c0.452-0.452 0.768-1.007 0.927-1.613l2.11 0.716c-0.238 1.101 0.006 2.258 0.662 3.168l-1.427 1.427zM12.901 10.126c0.005 0.002 0.011 0.004 0.017 0.006l1.25 0.424c-0.094 0.426-0.308 0.818-0.622 1.132-0.902 0.902-2.369 0.902-3.271 0s-0.902-2.369 0-3.271c0.217-0.218 0.474-0.388 0.754-0.503 0.115 0.96 0.807 1.816 1.873 2.212zM19.029 13.943c-0.241-0.393-0.378-0.842-0.399-1.3 0.299 0.216 0.665 0.428 1.102 0.597l-0.703 0.703zM24.666 10.374c-0.592 0.971-1.741 1.965-2.98 1.965-0.232 0-0.449-0.017-0.652-0.046-0.001-0-0.002-0-0.002-0-1.35-0.196-2.076-0.963-2.315-1.267-0.013-0.019-0.067-0.090-0.075-0.102-0.073-0.13-0.192-0.235-0.344-0.286l-4.969-1.687c-0.793-0.298-1.212-0.977-1.020-1.654 0-0 0-0.001 0-0.001s0-0.001 0-0.002c0.089-0.312 0.294-0.571 0.578-0.729 0.282-0.157 0.607-0.196 0.918-0.11l5.6 1.774c0.329 0.104 0.68-0.078 0.785-0.407s-0.078-0.68-0.407-0.785l-4.453-1.411-0.039-0.039c-0-0-0.001-0.001-0.001-0.001l-2.306-2.306 1.982-0.71c0.007-0.002 0.015-0.006 0.022-0.008 0.002-0.001 0.005-0.002 0.007-0.003 0.008-0.003 0.017-0.007 0.025-0.011 1.34-0.616 2.613-0.247 3.112-0.053 1.886 0.849 2.893 1.429 3.629 1.854 1.023 0.59 1.516 0.874 2.907 0.989v5.034zM27.034 9.998h-1.118v-5.465h1.118v5.465zM30.75 9.998h-2.466v-6.63h2.466v6.63z"></path>
</svg>

<svg id="suppliers" width="32" height="32" viewBox="0 0 32 32">
<path  d="M11.666 22.145l-3.79-2.34 0.391-1.076-0.045 0.018c-0.325 0.13-0.669 0.194-1.010 0.194-0.488 0-0.975-0.131-1.404-0.389-0.729-0.438-1.214-1.192-1.309-2.038l-0.543-4.853c-0.009-0.082-0.001-0.161-0.003-0.242l-2.26 6.213c-0.324 0.891-0.069 1.764 0.171 2.609 0.048 0.168 1.593 4.459 1.593 4.459l-3.084 4.172c-0.627 0.848-0.448 2.045 0.401 2.672 0.341 0.253 0.739 0.374 1.135 0.374 0.585 0 1.163-0.268 1.538-0.775l3.703-5.009c0.386-0.521 0.48-1.203 0.252-1.81l-0.158-0.419 1.409 0.87-0.46 5.060c-0.095 1.051 0.679 1.98 1.731 2.076 0.059 0.005 0.117 0.008 0.175 0.008 0.978 0 1.811-0.746 1.901-1.738l0.566-6.237c0.065-0.721-0.283-1.418-0.9-1.799z"></path>
<path  d="M9.383 11.054l0.145 1.296 1.195-0.476c0.393-1.603-0.459-3.277-2.046-3.854-1.515-0.552-3.163 0.087-3.945 1.433 0.424-0.432 0.985-0.735 1.634-0.808 1.504-0.171 2.849 0.911 3.017 2.41z"></path>
<path  d="M9.4 6.757c1.866 0 3.378-1.513 3.378-3.378s-1.512-3.378-3.378-3.378c-1.865 0-3.377 1.513-3.377 3.378s1.512 3.378 3.377 3.378z"></path>
<path  d="M30.885 19.79h-10.101c-0.791 0-1.433 0.642-1.433 1.433v4.027c0 0.792 0.642 1.433 1.433 1.433h10.101c0.791 0 1.433-0.642 1.433-1.433v-4.027c-0-0.792-0.642-1.433-1.433-1.433z"></path>
<path  d="M19.624 17.811h5.631c0.791 0 1.433-0.641 1.433-1.433v-3.587c0-0.792-0.642-1.433-1.433-1.433h-5.631c-0.791 0-1.433 0.642-1.433 1.433v3.587c0 0.792 0.642 1.433 1.433 1.433z"></path>
<path  d="M29.588 28.185h-12.558v-12.49c0-0.603-0.488-1.092-1.092-1.092h-1.642c0.152-0.377 0.167-0.809 0.005-1.216-0.335-0.841-1.291-1.247-2.127-0.915l-3.571 1.423-0.305-2.718c-0.1-0.9-0.912-1.55-1.81-1.446-0.899 0.101-1.546 0.911-1.445 1.81l0.543 4.853c0.057 0.508 0.347 0.96 0.785 1.223 0.258 0.155 0.549 0.233 0.842 0.233 0.205 0 0.411-0.038 0.606-0.116l3.559-1.417c0.198 0.279 0.507 0.473 0.875 0.473h2.594v12.49c0 0.603 0.488 1.092 1.092 1.092h1.333c0.167 0.826 0.897 1.448 1.772 1.448s1.605-0.622 1.772-1.448h4.099c0.167 0.826 0.897 1.448 1.772 1.448s1.605-0.622 1.772-1.448h1.128c0.604 0 1.092-0.489 1.092-1.092s-0.488-1.092-1.092-1.092z"></path>
</svg>

<svg id="reports" width="32" height="32" viewBox="0 0 32 32">
<path d="M2.661 3.26h6.919v1.064h-6.919v-1.064z"></path>
<path  d="M2.661 5.389h6.919v1.064h-6.919v-1.064z"></path>
<path  d="M2.661 7.518h4.79v1.064h-4.79v-1.064z"></path>
<path  d="M2.661 9.647h4.79v1.064h-4.79v-1.064z"></path>
<path  d="M0 30.936h31.933v1.064h-31.933v-1.064z"></path>
<path  d="M30.813 4.619l-2.129-4.258c-0.131-0.263-0.451-0.37-0.714-0.239-0 0-0 0-0 0l-4.258 2.129c-0.263 0.131-0.37 0.451-0.238 0.714s0.451 0.37 0.714 0.238l3.084-1.541-0.841 2.402c-3.698 10.533-13.225 17.923-24.347 18.887l0.090 1.064c11.541-1 21.426-8.669 25.262-19.6l0.859-2.455 1.566 3.132c0.131 0.263 0.451 0.37 0.714 0.238s0.37-0.451 0.238-0.714z"></path>
<path  d="M6.387 25.614h-3.726c-0.294 0-0.532 0.238-0.532 0.532v3.193c0 0.294 0.238 0.532 0.532 0.532h3.726c0.294 0 0.532-0.238 0.532-0.532v-3.193c0-0.294-0.238-0.532-0.532-0.532zM5.855 28.807h-2.661v-2.129h2.661v2.129z"></path>
<path  d="M12.241 24.017h-3.726c-0.294 0-0.532 0.238-0.532 0.532v4.79c0 0.294 0.238 0.532 0.532 0.532h3.726c0.294 0 0.532-0.238 0.532-0.532v-4.79c0-0.294-0.238-0.532-0.532-0.532zM11.709 28.807h-2.661v-3.726h2.661v3.726z"></path>
<path  d="M18.096 21.356h-3.726c-0.294 0-0.532 0.238-0.532 0.532v7.451c0 0.294 0.238 0.532 0.532 0.532h3.726c0.294 0 0.532-0.238 0.532-0.532v-7.451c0-0.294-0.238-0.532-0.532-0.532zM17.564 28.807h-2.661v-6.387h2.661v6.387z"></path>
<path  d="M23.95 17.63h-3.726c-0.294 0-0.532 0.238-0.532 0.532v11.177c0 0.294 0.238 0.532 0.532 0.532h3.726c0.294 0 0.532-0.238 0.532-0.532v-11.177c0-0.294-0.238-0.532-0.532-0.532zM23.418 28.807h-2.661v-10.112h2.661v10.112z"></path>
<path  d="M29.805 10.179h-3.726c-0.294 0-0.532 0.238-0.532 0.532v18.628c0 0.294 0.238 0.532 0.532 0.532h3.726c0.294 0 0.532-0.238 0.532-0.532v-18.628c0-0.294-0.238-0.532-0.532-0.532zM29.273 28.807h-2.661v-17.563h2.661v17.563z"></path>
</svg>


<svg id="import_export" viewBox="0 0 24 24">

<path d="M15.984 17.016h3l-3.984 3.984-3.984-3.984h3v-7.031h1.969v7.031zM9 3l3.984 3.984h-3v7.031h-1.969v-7.031h-3z"></path>
</svg>
<svg id="upload" viewBox="0 0 32 32">
<path d="M0 28h32v2h-32zM32 24v2h-32v-2l4-8h8v4h8v-4h8zM7 10l9-9 9 9h-7v8h-4v-8z"></path>
</svg>
<symbol id="download" viewBox="0 0 32 32">
<path d="M28 16h-5l-7 7-7-7h-5l-4 8v2h32v-2l-4-8zM0 28h32v2h-32v-2zM18 10v-8h-4v8h-7l9 9 9-9h-7z"></path>
</symbol>
</defs></svg>