<?xml version="1.0" standalone="no"?>
<!DOCTYPE svg PUBLIC "-//W3C//DTD SVG 20010904//EN"
 "http://www.w3.org/TR/2001/REC-SVG-20010904/DTD/svg10.dtd">
<svg xmlns="http://www.w3.org/2000/svg" viewBox="0 0 1024 1024">
	<path d="M604.987 3.541c0 1.576-1.183 2.76-3.417 3.284-5.65 1.446-32.588 28.909-45.727 46.779-12.483 16.951-23.389 34.032-25.098 39.421-0.524 1.708-3.548 7.358-6.701 12.483-3.154 5.256-5.782 10.381-5.782 11.432s-0.524 2.365-1.183 3.022c-0.657 0.789-2.497 5.782-4.073 11.169-3.679 12.483-6.57 21.154-7.885 23.784-1.183 2.233-4.993 16.162-6.57 24.177-0.657 2.89-1.708 6.964-2.497 8.936-0.789 2.103-1.446 5.256-1.446 6.964 0 2.365-2.365 5.782-7.753 11.169-4.336 4.336-8.015 9.066-8.279 10.775-0.263 1.971-1.314 2.89-3.154 2.89-1.708 0-5.519 3.548-11.301 10.645-11.169 13.665-16.819 19.579-20.234 21.418-3.811 1.84-7.096-1.314-16.819-16.031-6.044-9.329-7.753-13.141-9.329-21.024-2.76-14.454-1.051-17.87 18.397-37.975 16.819-17.345 19.316-20.234 30.353-34.688 9.198-11.958 11.563-18.658 9.461-26.017-2.103-7.49-5.782-11.301-11.037-11.301-2.233 0-4.862 0.92-5.782 1.971s-2.497 1.971-3.548 1.971c-3.154 0-10.381 6.307-17.87 15.505-3.942 4.862-8.279 9.986-9.593 11.432-6.307 6.701-19.71 22.601-21.154 24.966-0.92 1.446-2.89 5.256-4.336 8.541-1.576 3.284-3.942 8.015-5.387 10.512s-3.417 6.439-4.468 8.672c-0.92 2.103-5.65 8.015-10.512 13.141-4.73 4.993-9.066 10.775-9.593 13.009-0.789 2.76-2.103 4.073-4.468 4.599-1.971 0.394-5.125 2.103-7.227 3.942-7.358 6.57-11.037 8.279-17.87 8.015-7.227-0.133-9.066-1.708-11.563-9.329-3.417-11.169-6.439-23.258-6.439-26.542 0-6.964-4.993-17.345-9.986-20.498-7.621-4.862-10.25-3.942-20.762 6.57-5.125 5.256-13.272 12.877-17.87 16.819-15.768 13.402-16.951 16.294-11.694 28.12l2.629 6.176 7.096-6.439c11.563-10.512 14.715-9.986 22.732 3.417 3.022 5.125 5.519 9.723 5.519 10.25 0 0.394 1.84 4.599 4.073 9.066 3.548 7.358 4.599 8.409 10.775 10.906 8.672 3.679 15.111 3.679 22.994 0.133 5.519-2.497 15.111-8.541 19.579-12.351 0.789-0.789 3.417-2.76 5.914-4.599 2.365-1.84 7.227-6.044 10.906-9.461 8.279-7.885 10.512-8.015 11.694-1.051 0.394 3.022 1.314 6.439 1.971 7.621 0.524 1.183 2.233 4.599 3.548 7.49 2.89 6.044 6.57 11.563 15.111 22.47 8.672 11.169 9.461 13.009 7.49 16.819-0.92 1.708-3.811 5.519-6.307 8.279-12.614 13.534-25.623 32.718-31.273 45.99-2.497 5.782-2.89 9.198-2.89 22.732 0 19.841 1.051 22.206 12.089 26.413 6.044 2.233 9.329 2.629 15.111 2.103 4.073-0.394 8.015-1.446 8.672-2.103 0.789-0.789 2.497-1.446 3.942-1.446 6.57 0 23.914-11.169 36.529-23.653 19.841-19.71 26.28-39.551 19.71-61.756-3.284-11.037-6.701-17.74-12.483-24.309-2.629-2.89-4.73-5.914-4.73-6.701 0-2.365 19.053-28.777 26.805-37.054 6.833-7.358 11.169-4.205 7.358 5.519-1.183 3.154-0.789 6.57 2.76 26.937 1.446 8.409 4.862 12.746 11.169 13.929s12.22-2.103 20.498-11.037c6.439-6.964 18.133-22.863 18.133-24.703 0-2.103 13.929-17.475 15.898-17.475 1.314 0 4.599 3.548 7.885 8.409 4.73 7.096 6.701 8.804 12.614 11.301 6.833 2.76 7.358 2.89 12.614 0.789 3.154-1.183 7.227-2.103 9.329-2.103 7.753 0 20.367-9.723 45.333-34.821 13.272-13.402 24.572-24.309 25.228-24.309 2.365 0 2.497 2.89 0.524 6.964-1.314 2.233-2.76 8.015-3.284 12.746-0.657 4.73-2.103 13.009-3.284 18.397s-2.76 12.22-3.284 15.111c-0.657 2.89-1.183 10.25-1.314 16.162 0 15.637 3.548 22.076 13.665 24.703 3.679 0.92 4.468 3.679 1.84 5.387-0.92 0.524-4.993 4.862-8.936 9.593-3.942 4.599-8.147 9.461-9.198 10.512-1.183 1.183-5.519 6.439-9.854 11.826s-8.672 10.645-9.593 11.694c-0.92 0.92-5.387 6.57-9.723 12.483-4.468 5.782-8.804 11.301-9.593 12.089-0.657 0.789-2.233 2.89-3.284 4.468s-2.629 3.679-3.417 4.468c-0.789 0.789-3.679 4.73-6.439 8.672s-5.387 7.49-5.782 7.885c-1.708 1.446-16.688 23.258-36.529 53.217-9.066 13.665-17.608 26.673-19.053 28.645-3.679 5.387-32.718 53.611-34.032 56.765-0.657 1.446-1.971 3.811-2.76 5.256-3.679 5.519-7.885 12.877-12.483 21.418-2.497 4.862-6.176 11.432-8.015 14.715s-7.885 14.848-13.534 25.754c-5.519 11.037-10.775 21.024-11.563 22.338-0.657 1.446-5.256 10.775-10.118 20.893-4.73 10.118-10.381 21.812-12.483 26.017-2.103 4.073-3.811 8.279-3.811 9.198 0 0.789-1.446 3.284-3.022 5.387l-3.154 3.811-3.942-7.096c-2.233-3.942-7.49-13.665-11.563-21.549-4.205-8.015-11.169-21.287-15.505-29.565s-10.512-20.105-13.665-26.28c-8.541-16.294-22.863-43.756-43.756-83.44-3.417-6.57-8.804-16.688-11.826-22.601l-5.519-10.775-4.862 3.022c-2.629 1.576-5.65 3.417-6.701 3.811-1.051 0.524-3.679 2.103-5.914 3.548-2.103 1.446-5.387 3.284-7.227 4.073-1.84 0.657-4.993 2.76-7.227 4.336-2.103 1.708-5.256 3.417-6.833 3.942-1.708 0.524-3.022 1.576-3.022 2.233s-0.657 1.183-1.446 1.183c-1.446 0-16.951 8.804-18.265 10.512-0.394 0.394-2.103 1.446-3.942 2.233-7.753 3.548-149.009 89.222-149.402 90.667-0.263 0.789 1.446 1.84 3.811 2.365s5.125 1.446 6.307 2.103c1.051 0.524 4.993 2.365 8.541 3.942 9.986 4.468 23.52 10.906 24.309 11.694 0.394 0.394 3.942 2.365 7.885 4.336 9.854 5.125 18.002 9.723 24.703 14.191 3.154 2.103 5.914 3.811 6.044 3.811 1.051 0 41.654 27.857 47.437 32.456 0.789 0.657 7.885 6.176 15.768 12.22 12.877 9.854 46.253 37.318 47.96 39.421 0.394 0.394 7.227 6.57 15.111 13.665 21.549 19.316 54.794 52.56 77.263 77 10.906 11.958 20.234 21.944 20.63 22.338 0.524 0.394 5.782 6.57 11.826 13.797 5.914 7.227 11.301 13.402 11.826 13.797s1.576 1.971 2.365 3.417c1.183 2.365 1.051 3.417-0.92 5.914-3.942 5.387-6.701 11.826-9.329 22.994-2.233 9.066-2.629 15.374-2.629 40.603 0 31.142 1.708 44.15 7.358 55.975 2.76 5.65 13.534 16.951 16.294 16.951 1.183 0 2.89 0.789 3.811 1.576 2.103 2.233 17.87 2.233 19.973 0.133 0.92-0.92 2.629-1.708 3.811-1.708 2.76 0 13.534-11.301 16.294-17.082 1.183-2.497 2.76-6.701 3.417-9.198s1.708-6.964 2.497-9.854c2.103-8.279 3.022-44.544 1.576-59.787-1.314-14.323-3.811-24.966-7.621-32.85-2.76-5.914-13.272-17.082-16.162-17.082-1.183 0-2.89-0.789-3.811-1.576-2.103-2.233-17.87-2.233-19.973 0-1.84 1.708-7.753 2.233-7.621 0.524 0-0.524 3.284-5.914 7.096-12.089 3.942-6.176 10.25-16.162 13.929-22.338 3.811-6.176 7.227-11.432 7.753-11.826 0.394-0.394 2.233-3.022 3.942-5.914s3.417-5.519 3.811-5.914c0.524-0.394 3.154-4.205 6.044-8.541s5.782-8.541 6.307-9.198c0.524-0.789 3.942-5.519 7.49-10.512 3.548-5.125 7.227-10.25 8.147-11.432s2.629-3.417 3.679-4.993c3.942-5.782 22.863-30.879 24.572-32.588 0.92-0.92 1.708-2.233 1.708-2.629 0-0.524 1.314-2.365 3.022-4.205 2.233-2.629 15.637-19.447 22.206-28.251 0.524-0.789 3.417-4.205 6.439-7.753 2.89-3.548 8.672-10.645 12.746-15.768 4.073-4.993 8.279-10.118 9.461-11.301 1.051-1.183 4.336-4.993 7.227-8.541 5.519-6.833 21.812-25.754 22.994-26.937 0.394-0.394 2.365-2.76 4.468-5.256s7.096-8.147 11.169-12.483c4.073-4.468 14.059-15.374 22.338-24.309 16.162-17.608 57.027-58.735 71.221-71.614 20.893-19.053 27.725-25.098 37.318-32.85 3.548-2.89 7.49-6.176 8.672-7.49 2.233-2.103 27.069-20.893 32.718-24.703 1.576-1.051 5.125-3.417 7.753-5.256 14.323-10.118 42.967-25.098 53.874-28.251 8.804-2.629 11.958-4.599 10.775-6.964-8.804-18.133-17.87-50.064-22.076-77.789-2.629-18.002-3.811-74.636-1.708-87.645 0.789-5.125 1.971-16.424 2.629-24.966 1.446-18.002 3.417-36.529 5.387-49.669 0.789-5.125 1.708-16.162 2.103-24.703 0.789-14.848 0.657-15.374-1.971-15.374-1.446 0-3.548 0.789-4.468 1.708s-3.154 2.365-4.993 3.154c-1.84 0.92-6.176 3.417-9.854 5.519-3.548 2.233-8.015 4.73-9.854 5.387-1.708 0.789-3.548 1.971-3.942 2.497s-4.468 3.284-9.198 6.044c-4.73 2.89-9.066 5.65-9.854 6.176-1.576 1.314-22.994 16.688-26.937 19.447-7.096 4.993-40.865 33.113-49.669 41.392-10.906 10.25-13.665 10.906-15.111 3.417-0.524-2.629-1.708-4.073-3.022-4.073-1.971 0-9.461 5.387-17.475 12.614-9.723 8.936-14.059 7.49-13.797-4.862 0.133-8.672 2.89-26.413 5.65-36.661 0.92-3.284 2.497-9.198 3.417-13.141 5.519-22.338 9.198-35.872 11.958-43.756 1.051-2.629 1.84-6.307 1.84-7.885 0-4.336 5.256-8.804 10.25-8.804 5.65 0 7.885-3.811 8.936-15.374 0.789-8.147 0.524-10.118-1.971-14.98-3.022-5.65-3.022-12.877 0-16.424 0.657-0.789 1.576-4.073 1.971-7.358 0.789-5.256 0.394-6.307-2.629-9.329-4.205-4.205-5.125-4.336-10.645-0.92-2.89 1.84-5.914 6.044-9.723 13.665-3.154 6.044-7.227 12.877-9.066 15.243l-3.548 4.073h-31.142l-31.142-0.133-2.103 3.154c-1.314 1.971-2.233 6.57-2.365 12.746l-0.263 9.593 5.256 3.022c4.862 2.76 6.701 3.022 27.069 3.022 11.958 0 22.076 0.263 22.47 0.789 0.394 0.394-0.657 3.154-2.365 6.176s-3.548 6.439-4.073 7.49c-1.576 3.417-14.848 25.228-21.024 34.558-7.885 11.958-13.534 18.922-27.069 33.638-8.672 9.329-11.432 13.272-11.432 16.031 0 4.73-2.103 6.044-3.942 2.497-1.314-2.497-1.708-2.497-4.336-0.657-4.862 3.417-12.746 2.497-18.265-1.971-4.73-3.942-6.439-7.358-10.906-22.994-4.599-16.162-6.701-18.133-15.505-13.929-7.49 3.679-12.746 9.461-17.345 19.316-16.294 35.346-25.885 50.457-31.799 50.457-4.336 0-4.993-4.993-2.497-19.579 4.205-24.309 6.176-30.615 11.169-36.792 2.629-3.154 7.096-8.804 9.986-12.483 2.76-3.679 5.782-7.358 6.57-8.015 2.233-1.971 24.703-32.061 28.645-38.238 1.84-2.89 4.336-6.439 5.782-7.753 2.629-2.76 5.125-6.701 6.439-10.25 0.394-1.183 1.314-2.233 1.84-2.233 0.657 0 1.576-1.314 2.103-2.89 0.394-1.446 3.417-7.096 6.57-12.22 3.154-5.256 5.782-10.118 5.782-10.906s0.394-1.576 1.051-1.84c1.051-0.524 5.65-9.723 8.804-18.133 1.314-3.284 3.942-9.329 6.044-13.534 2.103-4.073 3.811-9.723 3.811-12.483 0-2.629 0.92-6.044 1.971-7.358 1.314-1.708 1.971-5.782 1.971-11.958 0-8.147-0.394-9.723-3.022-12.22-1.708-1.576-4.468-2.89-6.044-2.89-1.84 0-3.284-0.92-3.679-2.629-0.92-3.548-6.964-3.679-6.964-0.133zM604.725 40.596c0.657 3.417-23.258 53.217-31.273 65.175-2.233 3.154-3.942 6.044-3.942 6.439 0 1.971-26.149 34.821-30.879 38.894-3.811 3.154-5.387 0.789-3.022-4.468 1.183-2.365 3.022-7.358 4.336-10.906 1.183-3.679 2.76-7.753 3.417-9.198 1.84-4.336 5.256-14.191 6.044-17.608 1.183-4.73 37.448-58.472 46.384-68.725 2.365-2.76 8.409-2.497 8.936 0.394zM482.784 228.499c0 1.314-0.92 2.497-1.971 2.497-1.971 0-2.76-4.073-1.183-5.65 1.446-1.314 3.154 0.394 3.154 3.154zM624.697 228.368c0 1.446-0.92 2.629-1.971 2.629s-1.971-1.183-1.971-2.629c0-1.446 0.92-2.629 1.971-2.629s1.971 1.183 1.971 2.629zM437.321 299.585c2.365 2.497 5.519 8.672 8.147 15.768 4.599 13.009 0 26.413-13.797 40.471-10.645 10.906-21.418 17.082-29.433 17.082-8.541 0-10.512-2.103-9.723-9.986 0.789-8.936 2.89-13.534 13.665-30.091 21.812-33.507 26.149-38.238 31.142-33.245zM472.534 892.332c8.541 11.826 8.541 88.433 0 100.26-1.708 2.365-3.548 3.022-7.49 3.022-7.49 0-9.198-2.89-11.301-20.234-3.284-28.382-1.051-76.082 3.942-83.045 3.022-4.205 11.694-4.205 14.848 0z M143.115 7.221c-1.446 0.394-3.154 1.183-3.811 1.84-0.789 0.657-2.103 1.183-2.89 1.183-2.233 0-12.351 6.833-15.768 10.775-1.446 1.576-4.073 5.256-5.782 8.147-3.022 4.993-3.022 5.125-1.971 36.134 1.183 35.478 0.789 86.2-0.657 90.272-0.657 1.576-4.336 4.862-8.279 7.49-6.439 4.336-10.118 9.461-10.118 14.059 0 0.524 3.154 4.468 7.096 8.672 5.125 5.387 7.358 8.936 7.885 12.22 0.789 4.993-0.789 21.287-3.022 32.324-0.789 3.548-2.103 12.614-2.89 19.841-1.314 11.432-1.314 14.059 0.394 18.397 4.073 10.25 16.819 12.351 16.819 2.76 0-2.365 0.657-6.439 1.314-9.066 0.789-2.629 1.971-8.541 2.629-13.141 1.708-11.958 4.73-27.2 6.57-32.981 1.183-4.205 1.971-4.862 5.387-4.862 3.811 0 13.929 6.701 23.52 15.374 1.84 1.708 3.679 3.022 4.205 3.022 0.394 0 1.708 0.789 2.629 1.708s5.519 4.073 10.25 6.833c9.198 5.65 19.053 12.483 31.010 21.549 4.205 3.284 10.906 7.49 14.98 9.461 8.015 3.942 18.002 8.409 21.024 9.593 1.051 0.394 3.022 1.314 4.336 2.103 1.183 0.657 3.284 1.971 4.599 2.629 1.183 0.789 3.022 1.576 3.942 1.971 0.789 0.394 2.365 0.92 3.284 1.314 0.789 0.394 3.942 2.103 6.833 3.811s5.65 2.89 6.307 2.497c0.524-0.263 0.92-4.73 0.92-9.854 0-10.118-2.76-16.688-8.279-19.71-1.576-0.789-7.49-4.862-13.009-9.198-5.519-4.205-10.512-7.621-10.906-7.621-0.92 0-21.812-15.637-22.994-17.082-1.051-1.446-20.762-17.082-32.85-26.28-17.74-13.402-29.565-24.835-33.638-32.324-2.103-3.811-2.103-4.468-0.263-7.358 1.183-1.576 4.993-4.073 8.409-5.519 7.621-2.89 22.732-9.723 25.492-11.432 1.051-0.657 2.89-1.576 3.942-1.971s2.89-1.314 3.942-1.971c1.051-0.657 3.417-1.84 5.256-2.629 1.708-0.657 6.439-3.548 10.512-6.176 3.942-2.76 10.381-6.439 14.191-8.147 3.679-1.84 6.833-3.679 6.833-4.205 0-0.657 0.657-1.051 1.446-1.051 1.708 0 20.63-14.454 24.966-19.184 6.964-7.49 9.066-13.402 9.066-25.098 0-8.804-0.524-11.826-3.284-17.213-7.49-14.98-30.879-31.536-56.501-39.814-2.89-0.92-6.176-2.497-7.358-3.417-1.051-0.92-4.468-1.708-7.358-1.708s-7.096-0.92-9.066-1.971c-2.103-1.051-4.993-1.971-6.439-1.971-1.576 0-3.417-0.657-4.336-1.576-1.708-1.708-23.653-2.76-28.514-1.446zM155.336 43.356c0.789 0.789 6.176 1.708 11.958 2.103 6.701 0.394 11.169 1.314 12.089 2.365 0.789 1.051 3.417 1.84 5.914 1.84 2.365 0 4.599 0.524 5.125 1.183 0.394 0.657 2.629 1.708 4.993 2.103 2.233 0.524 5.65 1.708 7.49 2.629 1.84 1.051 6.044 3.022 9.461 4.599 7.753 3.548 17.345 11.826 19.447 17.082 2.233 5.387-0.133 13.534-5.65 19.841-3.811 4.205-18.265 15.637-19.841 15.637-1.051 0-12.483 7.885-13.272 9.198-1.446 2.365-46.91 23.784-48.88 23.127-3.417-1.314-1.576-13.141 9.198-58.209 1.84-7.621 1.708-8.541-0.394-12.483-1.971-3.811-3.022-4.336-8.147-4.73-4.336-0.263-6.57 0.263-8.804 2.365-5.256 4.468-7.753 3.417-8.804-3.417-0.394-3.284-0.524-8.147-0.133-10.775 1.051-6.439 7.621-12.089 14.059-12.089 2.497 0 5.782-0.92 7.096-1.971 3.154-2.365 4.993-2.497 7.096-0.394z M331.149 67.929c-2.497 1.183-5.782 3.679-7.227 5.65-1.576 1.971-4.862 4.73-7.358 6.307s-6.964 6.176-9.854 10.118c-4.599 6.439-5.256 8.279-5.256 14.454 0 9.593 2.76 12.22 12.614 12.22 5.256 0 8.804-0.789 12.22-2.89 5.914-3.548 12.877-10.906 13.929-14.586 0.524-1.576 1.314-4.073 1.971-5.519 1.971-4.599 5.256-17.345 5.256-20.762 0-6.439-7.885-8.804-16.294-4.993z M539.287 805.346c-12.22 6.701-11.958 23.653 0.263 30.091 6.701 3.417 11.301 2.629 17.475-3.284 4.205-3.811 4.599-4.993 4.599-11.432 0-8.409-2.629-12.614-9.723-16.031-5.65-2.629-6.833-2.629-12.614 0.657z M132.473 808.235c-0.394 1.051-0.524 6.176-0.263 11.563l0.394 9.723 15.111 0.789v161.359l-15.111 0.789v22.338h57.816v-22.338l-14.454-1.314-0.394-79.893c-0.263-88.959-1.183-81.207 9.198-81.601l5.65-0.133v-22.338l-28.645-0.394c-23.127-0.263-28.645 0-29.302 1.446z M258.090 868.418c-3.284 1.446-7.753 4.468-10.118 6.701-4.336 4.205-4.862 4.073-5.914-2.233-0.394-2.497-1.446-2.629-17.475-2.629h-17.082v22.338l10.512 1.314v97.237l-10.512 1.314v22.338h45.99v-22.338l-11.169-0.789v-92.504l4.336-4.993c3.417-4.073 5.125-4.993 9.329-5.125 3.942-0.133 5.65 0.524 7.49 3.022 2.233 2.89 2.497 7.096 2.76 62.941l0.394 59.787h34.165v-22.338l-10.512-1.314-0.657-53.217c-0.657-51.245-0.789-53.348-3.417-58.472-3.154-5.65-5.387-8.015-11.958-11.563-5.256-2.89-8.936-2.76-16.162 0.524z M616.813 866.578c-10.25 3.417-17.082 9.198-20.367 17.082-0.92 2.233-3.022 8.804-4.468 14.715-2.497 9.329-2.76 14.323-2.76 42.311 0 24.309 0.524 33.902 2.103 41.128 4.336 19.184 12.614 30.615 25.754 35.084 8.936 3.154 14.586 3.154 23.389 0 13.272-4.73 21.812-15.768 25.098-32.85 1.446-7.753 1.446-8.541-0.789-10.118-1.314-1.051-3.154-1.84-3.811-1.84-0.789 0-4.336-1.446-8.015-3.154-7.621-3.811-8.541-3.154-8.541 6.439 0 6.833-3.417 15.898-6.964 18.79-1.051 0.92-4.468 1.84-7.49 1.971-11.694 0.394-15.505-10.381-16.688-47.041-1.183-35.741 3.548-59.393 11.958-60.050 12.877-0.92 17.475 4.468 19.053 22.601l0.789 8.541 7.885 0.394c14.715 0.789 13.797 2.497 13.797-25.36s0.92-26.149-13.797-25.36c-6.701 0.394-7.885 0.789-8.279 3.022-1.051 6.307-1.576 6.439-6.57 1.84-8.409-7.885-14.98-10.381-21.287-8.147z M718.648 866.578c-1.446 0.394-3.154 1.183-3.811 1.84-0.789 0.657-2.233 1.183-3.417 1.183-5.256 0-19.71 20.367-19.71 27.725 0 1.446-0.657 3.942-1.446 5.387-3.942 7.358-3.942 77.657 0.133 81.733 0.657 0.657 1.314 2.629 1.314 4.336 0 7.885 14.059 26.673 19.973 26.673 1.051 0 2.629 0.789 3.417 1.708 2.233 2.103 18.002 2.103 20.234-0.133 0.789-0.789 2.629-1.576 3.942-1.576 3.811 0 14.98-12.483 19.447-21.812 4.468-9.461 4.599-12.746 0.657-13.402-1.446-0.263-3.548-1.314-4.599-2.233s-4.599-1.971-7.753-2.233l-5.782-0.394-1.576 7.096c-3.154 13.402-13.272 18.133-20.367 9.461-2.76-3.284-4.073-6.964-5.782-17.213-1.183-7.096-2.103-15.768-2.103-19.053 0-5.256 0.394-6.176 3.548-7.358 1.971-0.789 12.746-1.314 24.045-1.183 11.169 0.133 21.154 0.133 22.076 0.133 1.446-0.133 1.708-4.862 1.314-24.177-0.263-14.586-0.92-24.966-1.84-26.542-0.92-1.446-2.89-5.519-4.599-9.198-3.284-7.096-13.272-17.74-16.819-17.74-1.183 0-2.89-0.657-3.548-1.314-1.576-1.576-13.141-2.76-16.951-1.708zM732.709 891.546c4.993 5.782 6.307 10.645 6.307 24.045v13.272l-26.937-0.789-0.394-5.65c-0.524-7.227 3.284-26.149 6.176-30.091 2.76-3.811 11.826-4.205 14.848-0.789z M805.374 866.841c-6.307 2.103-9.854 4.73-13.534 9.854-8.015 11.169-10.512 29.696-6.044 43.23 3.942 11.826 9.066 18.397 23.258 29.565 4.862 3.942 11.432 10.118 14.715 13.797l5.914 6.833v10.645c0 12.22-1.708 14.98-9.461 14.98-6.57 0-9.723-4.073-11.694-15.111-0.92-5.125-2.233-9.986-2.89-10.775-1.314-1.708-14.715-2.365-18.527-0.92-1.84 0.657-2.103 3.942-2.103 22.994 0 25.36-0.789 24.045 13.272 23.258 6.701-0.394 7.096-0.657 7.49-3.942 0.524-4.73 2.76-4.599 7.49 0.263 2.103 2.233 4.468 3.942 5.387 3.942 0.789 0 2.233 0.92 3.154 1.971 5.387 6.57 23.127-3.417 29.17-16.424 2.233-4.862 2.76-8.541 2.76-21.681 0.133-14.323-0.133-16.424-3.284-22.994-4.073-8.409-12.089-17.475-21.418-23.784-9.593-6.439-18.527-16.294-19.579-21.024-1.576-7.885-0.92-16.556 1.576-19.447 2.233-2.76 4.599-3.417 10.512-3.022 4.073 0.394 7.096 7.49 8.147 18.658l0.657 8.541 7.885 0.394c14.715 0.789 13.797 2.233 13.797-23.389s0.92-24.177-13.797-23.389c-7.49 0.394-7.885 0.524-8.279 3.942-0.524 4.599-2.103 4.599-6.176 0.263-3.548-3.811-11.563-8.541-14.059-8.279-0.92 0.133-2.89 0.524-4.336 1.051z M305.92 871.308c-0.394 1.051-0.524 6.176-0.263 11.563l0.394 9.723 3.942 0.263c2.233 0 4.599 0.263 5.519 0.263 1.971 0.133 4.73 9.329 9.593 31.536 0.789 3.284 1.84 7.753 2.497 9.854 1.971 6.833 5.125 18.133 7.096 26.413 1.183 4.336 3.022 11.694 4.205 16.424s3.022 11.826 3.942 15.768c1.051 3.942 2.497 9.986 3.417 13.402 0.789 3.417 2.233 6.833 3.154 7.621 1.051 0.789 6.044 1.314 12.089 1.051 9.854-0.394 10.25-0.524 10.645-3.679 0.263-1.84 1.183-5.65 2.233-8.541 1.576-4.993 3.022-10.118 7.621-28.909 1.183-4.336 3.022-11.563 4.073-16.162 1.183-4.468 3.022-11.694 4.073-16.031 5.125-20.762 6.176-24.703 7.885-30.879 0.92-3.679 2.103-8.804 2.629-11.563 0.789-5.256 1.183-5.519 8.936-6.833l4.862-0.789v-10.25c0-9.593-0.263-10.381-2.89-11.169-3.942-1.051-39.682-1.051-42.311 0-1.708 0.657-2.103 2.89-2.103 11.037 0 10.906 0.524 11.826 7.358 11.826 3.154 0 3.154 0.263 2.497 6.833-0.524 3.811-1.708 9.198-2.76 11.958-1.051 2.629-1.84 6.439-1.84 8.409s-0.524 5.256-1.314 7.49c-2.365 7.621-6.57 28.251-6.57 32.061 0 4.205-4.73 11.301-6.701 10.118-0.657-0.524-1.183-3.284-1.183-6.307-0.133-3.022-0.92-7.885-1.971-10.775s-1.971-6.57-1.971-8.279c0-1.576-0.92-6.307-1.971-10.512-1.051-4.073-2.76-12.22-3.942-18.002s-2.629-12.614-3.284-15.111c-1.84-6.964-1.708-7.227 3.548-7.885l4.993-0.657v-22.338l-22.732-0.394c-18.133-0.263-22.732 0-23.389 1.446z M525.227 870.521c-1.183 0.394-1.708 3.942-1.708 10.906 0 9.198 0.263 10.381 2.629 11.169 1.446 0.394 3.022 0.524 3.679 0.133 0.524-0.263 1.708-0.133 2.629 0.394 2.365 1.446 2.365 97.368 0 98.813-0.789 0.524-2.103 0.657-2.629 0.394-0.657-0.394-2.233-0.263-3.679 0.133-2.365 0.789-2.629 1.971-2.629 11.169 0 8.147 0.394 10.381 2.103 11.037 2.629 1.051 35.741 1.051 39.682 0 2.629-0.789 2.89-1.576 2.89-11.037v-10.118l-4.205-1.183-4.336-1.314-0.394-59.654c-0.263-45.727-0.657-59.919-1.971-60.704-1.708-1.051-29.433-1.314-32.061-0.133z" fill="#FFF">
		</path>
	</svg>