<?xml version="1.0" standalone="no"?>
<!DOCTYPE svg PUBLIC "-//W3C//DTD SVG 20010904//EN"
 "http://www.w3.org/TR/2001/REC-SVG-20010904/DTD/svg10.dtd">
<svg version="1.0" xmlns="http://www.w3.org/2000/svg"
 width="200.000000pt" height="49.000000pt" viewBox="0 0 200.000000 49.000000"
 preserveAspectRatio="xMidYMid meet">
<metadata>
Created by potrace 1.10, written by Peter Selinger 2001-2011
</metadata>
<g transform="translate(0.000000,49.000000) scale(0.050000,-0.050000)"
fill="#009688" stroke="none">
<path d="M2959 929 c-40 -49 27 -111 72 -67 33 34 20 98 -21 98 -14 0 -37 -14
-51 -31z"/>
<path d="M1720 900 c0 -22 13 -40 30 -40 25 0 30 -41 30 -250 0 -209 -5 -250
-30 -250 -16 0 -30 -13 -30 -30 0 -23 24 -30 100 -30 76 0 100 7 100 30 0 17
-9 30 -20 30 -35 0 -26 477 10 513 52 52 33 67 -80 67 -97 0 -110 -5 -110 -40z"/>
<path d="M121 861 c-12 -21 -21 -101 -21 -178 0 -90 -8 -142 -24 -148 -15 -5
-17 -21 -6 -46 9 -22 14 -78 11 -126 -6 -110 46 -108 55 2 l6 72 154 -99 c127
-81 155 -92 161 -64 4 18 -9 45 -30 59 -56 40 -149 112 -205 159 l-50 43 119
57 c196 95 209 195 36 269 -115 49 -180 49 -206 0z m214 -92 c54 -38 41 -76
-44 -129 -96 -59 -115 -52 -108 35 5 52 -1 73 -18 70 -14 -3 -25 9 -25 25 0
41 136 40 195 -1z"/>
<path d="M1159 854 c-64 -54 -129 -165 -177 -303 -47 -133 -118 -219 -155
-188 -43 35 -30 102 34 176 61 72 78 142 34 140 -14 0 -52 -37 -85 -81 -170
-225 -202 -245 -223 -138 -17 83 -39 91 -97 37 -54 -51 -66 -102 -22 -93 15 3
46 -16 69 -44 41 -50 41 -50 107 -13 l65 36 46 -53 46 -53 -51 -60 c-95 -114
-53 -230 63 -174 86 42 122 120 92 201 -20 53 -20 70 3 93 24 23 30 21 41 -15
19 -59 62 -52 114 18 37 50 48 55 62 30 28 -50 80 -34 151 45 l67 75 -14 -105
c-10 -75 -7 -105 9 -105 37 0 142 85 142 114 0 33 -25 33 -56 2 -19 -19 -24
-13 -24 24 0 59 43 185 70 204 31 22 32 176 0 176 -14 0 -31 -22 -38 -50 -11
-43 -24 -50 -94 -50 -67 0 -80 -6 -74 -35 5 -24 24 -34 62 -31 67 4 67 1 -1
-90 -106 -143 -136 -157 -157 -73 -17 67 -50 53 -93 -37 -42 -87 -82 -99 -62
-19 7 30 19 60 25 65 83 70 233 342 215 390 -16 40 -33 37 -94 -16z m0 -141
c-50 -107 -103 -163 -84 -89 11 46 110 198 121 187 4 -4 -13 -48 -37 -98z
m-299 -528 c0 -40 -57 -105 -93 -105 -38 0 -33 35 15 102 42 60 78 61 78 3z"/>
<path d="M553 723 c-41 -45 -43 -83 -4 -83 28 0 91 73 91 104 0 29 -54 16 -87
-21z"/>
<path d="M1960 720 c0 -22 9 -40 20 -40 12 0 20 -67 20 -160 0 -93 -8 -160
-20 -160 -11 0 -20 -13 -20 -30 0 -21 21 -30 70 -30 49 0 70 9 70 30 0 17 -9
30 -20 30 -32 0 -25 291 7 317 44 37 53 5 53 -190 l0 -187 60 0 c40 0 60 10
60 30 0 17 -9 30 -19 30 -11 0 -22 82 -25 183 -7 203 -35 252 -116 202 -24
-15 -40 -17 -40 -5 0 11 -22 20 -50 20 -37 0 -50 -11 -50 -40z"/>
<path d="M2260 722 c0 -21 10 -42 23 -46 23 -8 94 -251 96 -331 1 -34 13 -45
48 -45 43 0 52 17 94 190 26 105 54 190 63 190 9 0 16 18 16 40 0 33 -13 40
-72 40 -70 0 -73 -2 -61 -60 14 -70 -5 -240 -27 -240 -23 0 -60 209 -38 217
60 21 14 83 -62 83 -66 0 -80 -7 -80 -38z"/>
<path d="M2679 718 c-64 -119 -36 -404 41 -428 105 -33 160 46 160 232 0 204
-129 330 -201 196z m112 -84 c24 -95 1 -263 -36 -270 -31 -6 -35 12 -35 155 0
163 42 231 71 115z"/>
<path d="M2950 530 l0 -230 57 0 c50 0 56 6 46 45 -7 25 -13 128 -13 230 0
178 -2 185 -45 185 -44 0 -45 -5 -45 -230z"/>
<path d="M3158 716 c-64 -120 -31 -397 51 -428 96 -37 218 88 140 145 -35 26
-40 25 -50 -17 -19 -82 -73 -68 -89 23 -28 166 30 323 75 203 38 -99 95 -83
95 26 l0 88 -100 1 c-81 1 -104 -7 -122 -41z"/>
<path d="M3468 709 c-119 -181 26 -539 159 -392 41 45 43 103 3 103 -16 0 -30
-14 -30 -31 0 -64 -70 -21 -76 46 -6 63 -4 65 71 65 l77 0 -12 105 c-18 167
-116 220 -192 104z m132 -89 c0 -47 -9 -60 -40 -60 -31 0 -40 13 -40 60 0 47
9 60 40 60 31 0 40 -13 40 -60z"/>
<path d="M3761 721 c-39 -71 -23 -139 51 -220 39 -44 68 -94 65 -111 -10 -46
-46 -39 -53 9 -12 75 -84 52 -84 -26 0 -102 180 -127 211 -29 23 72 -9 167
-71 213 -58 43 -79 109 -41 132 10 6 24 -7 31 -29 18 -58 70 -51 70 10 0 28 0
57 0 65 1 37 -159 24 -179 -14z"/>
</g>
</svg>
