<svg xmlns="http://www.w3.org/2000/svg" width="101" height="43" viewBox="0 0 101 43">
    <g fill="none" fill-rule="nonzero">
        <path fill="#666" d="M39.427 16.246v-3.953h1.786l2.04 3.953h2.407v-.104l-2.354-4.413c.652-.291 1.14-.683 1.46-1.175.322-.492.483-1.106.483-1.843 0-1.038-.35-1.842-1.047-2.41-.697-.569-1.689-.853-2.974-.853h-4.044v10.798h2.243zm1.808-5.755h-1.808V7.25h1.8c.604 0 1.05.146 1.342.437.292.292.438.693.438 1.202 0 .5-.155.891-.464 1.175-.309.285-.745.427-1.308.427zm7.792-3.234c.364 0 .656-.104.878-.311.222-.208.333-.475.333-.801 0-.322-.11-.586-.33-.794-.218-.207-.512-.311-.881-.311-.374 0-.669.104-.886.311a1.051 1.051 0 0 0-.325.794c0 .326.111.593.333.8.222.208.514.312.878.312zm1.084 8.989V8.22h-2.168v8.025h2.168zm5.99 3.16c.782 0 1.465-.137 2.048-.409a3.088 3.088 0 0 0 1.356-1.186c.322-.52.483-1.13.483-1.832V8.22h-1.959l-.09.757c-.493-.603-1.183-.905-2.07-.905-1.001 0-1.797.376-2.387 1.127-.59.752-.886 1.743-.886 2.974v.09c0 1.245.3 2.245.9 3 .6.753 1.387 1.13 2.359 1.13.812 0 1.467-.28 1.965-.838v.43c0 .559-.16.99-.478 1.294-.32.304-.765.456-1.338.456-.767 0-1.42-.299-1.958-.897l-.957 1.305c.29.371.715.674 1.278.909a4.464 4.464 0 0 0 1.734.352zm.307-4.747c-.514 0-.917-.207-1.211-.62-.294-.412-.441-.982-.441-1.709 0-.836.148-1.463.445-1.884.296-.42.703-.63 1.222-.63.642 0 1.108.245 1.397.734v3.375c-.284.489-.755.734-1.412.734zm8.367 1.587v-5.703c.284-.485.742-.727 1.375-.727.463 0 .795.11.994.33.2.22.299.56.299 1.02v5.08h2.16v-5.14c-.025-2.022-.914-3.033-2.668-3.033-.867 0-1.587.341-2.16 1.023V4.854h-2.16v11.392h2.16zm10.22.148c.449 0 .885-.064 1.308-.193v-1.624a3.47 3.47 0 0 1-.635.052c-.324 0-.543-.064-.658-.193-.114-.128-.172-.34-.172-.638V9.794h1.383V8.22h-1.383V6.25h-2.16V8.22h-1.18v1.573h1.18v4.323c.03 1.518.803 2.277 2.317 2.277zM39.57 35.774V24.976h-2.243v10.798h2.243zm5.07 0v-5.659c.305-.514.76-.77 1.369-.77.463 0 .794.102.994.307.199.205.299.535.299.99v5.132h2.16V30.59c-.01-.994-.225-1.74-.643-2.24-.419-.5-1.057-.749-1.914-.749-.971 0-1.746.359-2.324 1.076l-.067-.927H42.48v8.024h2.16zm11.537 0l2.728-8.024h-2.257l-1.502 5.406-1.503-5.406h-2.257l2.728 8.024h2.063zm8.083.148c1.166 0 2.095-.372 2.788-1.116.692-.744 1.039-1.732 1.039-2.963l-.015-.548c-.08-1.138-.465-2.037-1.155-2.7-.69-.663-1.58-.994-2.672-.994-.767 0-1.441.17-2.022.512a3.376 3.376 0 0 0-1.334 1.446c-.309.623-.463 1.333-.463 2.129v.096c0 1.276.348 2.284 1.043 3.026s1.625 1.112 2.791 1.112zm0-1.728c-.538 0-.952-.201-1.24-.604-.29-.403-.434-.985-.434-1.747 0-.855.144-1.487.433-1.895.29-.407.698-.611 1.226-.611.533 0 .947.205 1.24.615.295.41.442.989.442 1.736 0 .875-.147 1.511-.441 1.91-.294.397-.703.596-1.226.596zm7.373-7.409c.364 0 .657-.103.878-.311.222-.208.333-.475.333-.801 0-.321-.11-.586-.329-.794-.22-.207-.513-.311-.882-.311-.373 0-.669.104-.885.311a1.051 1.051 0 0 0-.326.794c0 .326.111.593.333.801.222.208.514.311.878.311zm1.084 8.989V27.75h-2.167v8.024h2.167zm6.2.148c.618 0 1.182-.125 1.693-.374.51-.25.913-.6 1.207-1.053.293-.453.443-.95.448-1.495h-2.025c-.01.361-.14.65-.39.868-.248.218-.572.326-.97.326-.519 0-.905-.18-1.16-.541-.253-.361-.38-.954-.38-1.78v-.222c0-.816.128-1.406.385-1.77.256-.363.636-.544 1.14-.544.408 0 .737.13.986.389.249.26.379.597.389 1.012h2.025c-.01-.949-.32-1.71-.93-2.28-.61-.571-1.422-.857-2.433-.857-1.156 0-2.066.369-2.728 1.105-.663.737-.994 1.723-.994 2.96v.14c0 1.286.334 2.293 1.001 3.022.668.73 1.58 1.094 2.736 1.094zm9.324 0c.672 0 1.285-.127 1.838-.382.553-.254.992-.609 1.315-1.064l-1.06-1.179c-.47.598-1.12.897-1.951.897-.539 0-.983-.158-1.335-.474-.35-.317-.561-.737-.631-1.261h5.15v-.875c0-1.27-.318-2.252-.954-2.944-.635-.693-1.506-1.039-2.612-1.039-.737 0-1.394.172-1.969.516a3.438 3.438 0 0 0-1.334 1.468c-.314.635-.47 1.356-.47 2.162v.208c0 1.201.372 2.163 1.116 2.885.745.721 1.71 1.082 2.897 1.082zm1.203-4.924h-3.005c.075-.534.246-.944.512-1.231.267-.287.614-.43 1.043-.43.458 0 .812.13 1.061.389.25.26.379.627.389 1.101v.17zm7.448 4.924c1.001 0 1.818-.226 2.451-.678.633-.453.95-1.045.95-1.776 0-1.024-.571-1.743-1.712-2.159a9.428 9.428 0 0 0-1.36-.36c-.539-.106-.921-.232-1.148-.378-.226-.145-.34-.337-.34-.574 0-.252.1-.46.3-.623.198-.163.48-.245.844-.245.423 0 .735.1.934.3.2.2.299.454.299.76h2.16c0-.766-.308-1.389-.923-1.868-.616-.48-1.436-.72-2.463-.72-.961 0-1.74.239-2.335.716-.596.477-.893 1.072-.893 1.784 0 1.22.961 2.032 2.884 2.432.578.119.998.253 1.26.404.261.151.392.357.392.62a.725.725 0 0 1-.318.611c-.211.156-.524.234-.937.234-.444 0-.798-.101-1.062-.304-.264-.203-.406-.495-.426-.875H93.4c0 .484.15.935.449 1.353.299.418.711.747 1.237.987.525.24 1.127.36 1.805.36z"/>
        <path fill="#FFDE00" d="M9.3 7.44L27.184 0v28.337L9.3 34.754z"/>
        <path fill="#4CBAEF" d="M0 15.404l17.885-7.44v28.337L0 42.718z"/>
        <path fill="#94C850" d="M17.885 7.964l-.001 24.266-9.3 3.248v-23.75l9.3-3.764z"/>
        <path fill="#FFF" d="M18.108 15.111l2.727 2.343L9.649 30.79l-2.727-2.343.027-.033-4.893-4.275 2.338-2.74 4.87 4.255 8.844-10.542z"/>
    </g>
</svg>
