<svg xmlns="http://www.w3.org/2000/svg" width="35" height="35" viewBox="0 0 35 35">
    <g fill="none" fill-rule="nonzero">
        <path fill="#F2F2F2" d="M32.083 0H2.917A2.917 2.917 0 0 0 0 2.917v15.708a2.917 2.917 0 0 0 2.917 2.917h29.166A2.917 2.917 0 0 0 35 18.625V2.917A2.917 2.917 0 0 0 32.083 0"/>
        <g fill="#334A5E">
            <path d="M2.618 2.62H4.7v16.303H2.618zM5.988 2.62h1v16.303h-1zM13.55 2.62h1v16.303h-1zM8.036 2.62H9.36v16.303H8.036zM23.162 2.62h1.324v16.303h-1.324zM20.699 2.62h1.208v16.303h-1.208zM18.536 2.62h1v16.303h-1zM15.496 2.618h1.532v16.305h-1.532zM27.667 2.62h1.324v16.303h-1.324zM30.39 2.62h1.993v16.303H30.39zM10.87 2.618h1v16.305h-1zM25.508 2.618h1v16.305h-1z"/>
        </g>
        <path fill="#F1543F" d="M8.442 18.317h18.114v4.845H8.442z"/>
        <path fill="#FF7058" d="M26.556 23.161l-2.365 5.754a15.99 15.99 0 0 0-1.201 6.081V35H12.016c0-2.09-.41-4.157-1.205-6.09l-2.367-5.75h18.112v.001z"/>
        <path fill="#84DBFF" d="M.044 10.355l8.4 8.09h18.112l8.402-8.09z"/>
        <g fill="#54C0EB">
            <path d="M4.7 14.867v-4.512H2.618v2.512zM6.371 16.473v-6.118h-.384v5.748zM13.55 10.355h1v8.11h-1zM8.446 18.465h.916v-8.11H8.038v7.717zM23.162 10.355h1.324v8.11h-1.324zM20.699 10.355h1.208v8.11h-1.208zM18.537 10.355h1v8.11h-1zM15.496 10.355h1.532v8.11h-1.532zM28.992 16.125v-5.77h-1.325v7.044zM32.382 12.868v-2.515h-1.993v4.43zM10.87 10.355h1v8.11h-1zM25.508 10.209h1v8.11h-1z"/>
        </g>
    </g>
</svg>
