<?xml version="1.0" encoding="UTF-8"?>
<svg width="35px" height="35px" viewBox="0 0 35 35" version="1.1" xmlns="http://www.w3.org/2000/svg" xmlns:xlink="http://www.w3.org/1999/xlink">
    <!-- Generator: Sketch 62 (91390) - https://sketch.com -->
    <title>Icon/Menu/Creditnote-2@3x</title>
    <desc>Created with Sketch.</desc>
    <g id="Icon/Menu/Creditnote-2" stroke="none" stroke-width="1" fill="none" fill-rule="evenodd">
        <g id="Group-3" transform="translate(4.000000, 0.000000)" fill-rule="nonzero">
            <g id="invoice-(2)">
                <path d="M22.4407153,2.56005859 L13.4804377,2.56005859 C13.4804377,3.26695668 12.9073065,3.84008789 12.2004084,3.84008789 C11.4935103,3.84008789 10.9203791,3.26695668 10.9203791,2.56005859 L1.960029,2.56005859 C0.899609375,2.56005859 0.0399488045,3.41971916 0.0399488045,4.48013879 L0.0399488045,31.361044 C0.0399488045,32.4214637 0.899609375,33.2811242 1.960029,33.2811242 L22.4407153,33.2811242 C23.5011349,33.2811242 24.3607955,32.4214637 24.3607955,31.361044 L24.3607955,4.48013879 C24.3607955,3.41971916 23.5011349,2.56005859 22.4407153,2.56005859 Z" id="Path" fill="#05AAF3"></path>
                <path d="M23.7207446,23.0407449 C23.5046875,23.0407449 23.2923281,23.0555353 23.0806937,23.0730809 L23.0806937,4.48013879 C23.0806937,4.12668975 22.7940918,3.84008789 22.4406428,3.84008789 L19.2405333,3.84008789 C18.8870842,3.84008789 18.6004824,3.55348603 18.6004824,3.20003699 L18.6004824,2.56005859 L13.4802927,2.56005859 C13.4802927,3.26695668 12.9071615,3.84008789 12.2002634,3.84008789 C11.4933653,3.84008789 10.9202341,3.26695668 10.9202341,2.56005859 L5.80018939,2.56005859 L5.80018939,3.20010949 C5.80018939,3.55355853 5.51358754,3.84016039 5.16013849,3.84016039 L1.960029,3.84016039 C1.60657996,3.84016039 1.3199781,4.12676225 1.3199781,4.48021129 L1.3199781,31.3611165 C1.3199781,31.7145656 1.60657996,32.0011674 1.960029,32.0011674 L16.1523674,32.0011674 C16.2284949,32.4412568 16.3410186,32.8690208 16.4869658,33.2811967 L22.4407878,33.2811967 C23.5012074,33.2811967 24.360868,32.4215362 24.360868,31.3611165 L24.360868,23.0730809 C24.149161,23.0555353 23.9368741,23.0407449 23.7207446,23.0407449 Z" id="Path" fill="#0081BD"></path>
                <path d="M21.160686,30.7209931 L3.2401308,30.7209931 C2.88668176,30.7209931 2.6000799,30.4343913 2.6000799,30.0809422 L2.6000799,5.76016809 C2.6000799,5.40671905 2.88668176,5.12011719 3.2401308,5.12011719 L21.160686,5.12011719 C21.514135,5.12011719 21.8007369,5.40671905 21.8007369,5.76016809 L21.8007369,30.0809422 C21.8007369,30.4344638 21.514135,30.7209931 21.160686,30.7209931 Z" id="Path" fill="#F1F4FB"></path>
                <g id="rupee-sign-solid" transform="translate(4.640152, 9.280303)" fill="#A0D755">
                    <path d="M4.46614583,0.928030303 C4.56224047,0.928030303 4.64015152,0.850119259 4.64015152,0.754024621 L4.64015152,0.174005682 C4.64015152,0.077911044 4.56224047,0 4.46614583,0 L0.174005682,0 C0.077911044,0 0,0.077911044 0,0.174005682 L0,0.822872869 C0,0.918967507 0.077911044,0.996878551 0.174005682,0.996878551 L1.41060606,0.996878551 C1.80658499,0.996878551 2.11041341,1.14127427 2.29469993,1.39204545 L0.174005682,1.39204545 C0.077911044,1.39204545 0,1.4699565 0,1.56605114 L0,2.14607008 C0,2.24216471 0.077911044,2.32007576 0.174005682,2.32007576 L2.47605735,2.32007576 C2.38590791,2.84333984 1.99810724,3.17026752 1.39204545,3.17026752 L0.174005682,3.17026752 C0.077911044,3.17026752 0,3.24817856 0,3.3442732 L0,4.1129723 C0,4.16153439 0.0203006629,4.2078924 0.0559863281,4.24083748 L2.44931848,6.45007161 C2.48146143,6.47973747 2.52359732,6.49621212 2.56733783,6.49621212 L3.76452592,6.49621212 C3.9229291,6.49621212 3.99894058,6.30178977 3.88254528,6.19434126 L1.69468484,4.17477332 C2.80395656,4.14084221 3.59633493,3.40052054 3.70036133,2.32007576 L4.46614583,2.32007576 C4.56224047,2.32007576 4.64015152,2.24216471 4.64015152,2.14607008 L4.64015152,1.56605114 C4.64015152,1.4699565 4.56224047,1.39204545 4.46614583,1.39204545 L3.61511304,1.39204545 C3.56456439,1.22469549 3.49504912,1.06946792 3.4084523,0.928030303 L4.46614583,0.928030303 Z" id="Path"></path>
                </g>
                <path d="M16.0404963,1.2800293 L14.4054229,1.2800293 C13.9619984,0.518029415 13.1455492,0 12.2004084,0 C11.2552675,0 10.4388184,0.518029415 9.99539388,1.2800293 L8.36024799,1.2800293 C7.65334991,1.2800293 7.08021869,1.85308801 7.08021869,2.56005859 L7.08021869,5.12011719 C7.08021869,5.47356623 7.36682055,5.76016809 7.72026959,5.76016809 L16.6805472,5.76016809 C17.0339962,5.76016809 17.3205981,5.47356623 17.3205981,5.12011719 L17.3205981,2.56005859 C17.3205981,1.85308801 16.7473944,1.2800293 16.0404963,1.2800293 Z M12.2004084,3.52013494 C11.6701986,3.52013494 11.2404045,3.09026841 11.2404045,2.5601311 C11.2404045,2.02999379 11.6702711,1.60012725 12.2004084,1.60012725 C12.7305457,1.60012725 13.1604122,2.02999379 13.1604122,2.5601311 C13.1604122,3.09026841 12.7305457,3.52013494 12.2004084,3.52013494 Z" id="Shape" fill="#9E9D9D"></path>
                <path d="M7.72026959,5.76016809 L16.6805472,5.76016809 C17.0339962,5.76016809 17.3205981,5.47356623 17.3205981,5.12011719 L17.3205981,5.12011719 C17.3205981,4.76666815 17.0339962,4.48006629 16.6805472,4.48006629 L7.72026959,4.48006629 C7.36682055,4.48006629 7.08021869,4.76666815 7.08021869,5.12011719 L7.08021869,5.12011719 C7.08021869,5.47363873 7.36682055,5.76016809 7.72026959,5.76016809 Z" id="Path" fill="#747272"></path>
                <g id="Group" transform="translate(13.224432, 9.193300)" fill="#A0D755">
                    <path d="M4.73614465,1.68705759 L1.53603516,1.68705759 C1.18229611,1.68705759 0.895984257,1.40081824 0.895984257,1.04700669 C0.895984257,0.693195135 1.1822236,0.406955788 1.53603516,0.406955788 L4.73614465,0.406955788 C5.0898837,0.406955788 5.37619555,0.693195135 5.37619555,1.04700669 C5.37619555,1.40081824 5.0899562,1.68705759 4.73614465,1.68705759 Z" id="Path"></path>
                </g>
                <g id="Group" transform="translate(14.065459, 12.107895)" fill="#959CB5">
                    <path d="M2.61508789,1.33252101 L0.695007694,1.33252101 C0.341268643,1.33252101 0.0549567945,1.04628166 0.0549567945,0.692470111 C0.0549567945,0.338731061 0.341196141,0.0524192116 0.695007694,0.0524192116 L2.61508789,0.0524192116 C2.96882694,0.0524192116 3.25513879,0.338658558 3.25513879,0.692470111 C3.25513879,1.04628166 2.96882694,1.33252101 2.61508789,1.33252101 Z" id="Path"></path>
                    <path d="M3.89511719,3.89265211 L0.695007694,3.89265211 C0.341268643,3.89265211 0.0549567945,3.60641276 0.0549567945,3.25260121 C0.0549567945,2.89886216 0.341196141,2.61255031 0.695007694,2.61255031 L3.89511719,2.61255031 C4.24885624,2.61255031 4.53516809,2.89878965 4.53516809,3.25260121 C4.53516809,3.60641276 4.24892874,3.89265211 3.89511719,3.89265211 Z" id="Path"></path>
                </g>
                <g id="Group" transform="translate(5.800189, 20.445668)" fill="#B4E66E">
                    <path d="M1.9200802,1.31504794 L0.6400509,1.31504794 C0.286311849,1.31504794 0,1.02880859 0,0.674997041 C0,0.32125799 0.286239347,0.0349461411 0.6400509,0.0349461411 L1.9200802,0.0349461411 C2.27381925,0.0349461411 2.5601311,0.321185488 2.5601311,0.674997041 C2.56005859,1.02880859 2.27381925,1.31504794 1.9200802,1.31504794 Z" id="Path"></path>
                    <path d="M1.9200802,6.43523763 L0.6400509,6.43523763 C0.286311849,6.43523763 0,6.14899828 0,5.79518673 C0,5.44137518 0.286239347,5.15513583 0.6400509,5.15513583 L1.9200802,5.15513583 C2.27381925,5.15513583 2.5601311,5.44137518 2.5601311,5.79518673 C2.5601311,6.14899828 2.27381925,6.43523763 1.9200802,6.43523763 Z" id="Path"></path>
                    <path d="M1.9200802,3.87510653 L0.6400509,3.87510653 C0.286311849,3.87510653 0,3.58886719 0,3.23505563 C0,2.88131658 0.286239347,2.59500473 0.6400509,2.59500473 L1.9200802,2.59500473 C2.27381925,2.59500473 2.5601311,2.88124408 2.5601311,3.23505563 C2.56005859,3.58886719 2.27381925,3.87510653 1.9200802,3.87510653 Z" id="Path"></path>
                </g>
                <g id="Group" transform="translate(9.570312, 20.445668)" fill="#959CB5">
                    <path d="M8.39026397,1.31504794 L0.710015684,1.31504794 C0.356276634,1.31504794 0.0699647846,1.02880859 0.0699647846,0.674997041 C0.0699647846,0.32125799 0.356204131,0.0349461411 0.710015684,0.0349461411 L8.39026397,0.0349461411 C8.74400302,0.0349461411 9.03031487,0.321185488 9.03031487,0.674997041 C9.03031487,1.02880859 8.74407552,1.31504794 8.39026397,1.31504794 Z" id="Path"></path>
                    <path d="M6.47018377,6.43523763 L0.710015684,6.43523763 C0.356276634,6.43523763 0.0699647846,6.14899828 0.0699647846,5.79518673 C0.0699647846,5.44137518 0.356204131,5.15513583 0.710015684,5.15513583 L6.47018377,5.15513583 C6.82392282,5.15513583 7.11023467,5.44137518 7.11023467,5.79518673 C7.11023467,6.14899828 6.82399532,6.43523763 6.47018377,6.43523763 Z" id="Path"></path>
                    <path d="M8.39026397,3.87510653 L0.710015684,3.87510653 C0.356276634,3.87510653 0.0699647846,3.58886719 0.0699647846,3.23505563 C0.0699647846,2.88131658 0.356204131,2.59500473 0.710015684,2.59500473 L8.39026397,2.59500473 C8.74400302,2.59500473 9.03031487,2.88124408 9.03031487,3.23505563 C9.03031487,3.58886719 8.74407552,3.87510653 8.39026397,3.87510653 Z" id="Path"></path>
                </g>
            </g>
            <g id="Group-2" transform="translate(11.000000, 15.000000)">
                <path d="M9.52388054,1.97372982e-14 L9.52388054,1.97372982e-14 C4.26504215,1.97372982e-14 2.36847579e-14,4.26504215 2.36847579e-14,9.52388054 L2.36847579e-14,9.52388054 C2.36847579e-14,14.7827189 4.26504215,19.0477611 9.52388054,19.0477611 L9.52388054,19.0477611 C14.7827189,19.0477611 19.0477611,14.7827189 19.0477611,9.52388054 L19.0477611,9.52388054 C19.0477611,4.26504215 14.7827189,1.97372982e-14 9.52388054,1.97372982e-14 Z" id="Path" fill="#18D2A6"></path>
                <path d="M9.52388054,2.15322517 L9.52388054,2.15322517 C5.46587927,2.15322517 2.15322517,5.46587927 2.15322517,9.52388054 L2.15322517,9.52388054 C2.15322517,13.5818818 5.46587927,16.8945359 9.52388054,16.8945359 L9.52388054,16.8945359 C13.5818818,16.8945359 16.8945359,13.5818818 16.8945359,9.52388054 L16.8945359,9.52388054 C16.8531277,5.46587927 13.5818818,2.15322517 9.52388054,2.15322517 Z" id="Path" fill="#FFFFFF"></path>
                <path d="M9.2340233,5.17602203 L8.90275789,10.4762686 C8.86134972,10.807534 9.10979878,11.1387994 9.48247236,11.1387994 C9.85514595,11.1387994 10.103595,10.8489422 10.103595,10.5176768 L9.7723296,5.17602203 C9.7723296,5.0517975 9.64810507,4.92757297 9.52388054,4.92757297 L9.52388054,4.92757297 C9.35824783,4.96898115 9.27543148,5.0517975 9.2340233,5.17602203 Z" id="Path" fill="#2B3B4E"></path>
                <path d="M13.1678,8.81994154 L8.32304343,9.15120695 C7.99177802,9.19261513 7.74332896,9.44106419 7.78473714,9.73092142 C7.82614531,10.0621868 8.11600255,10.2692277 8.44726796,10.2278195 L13.2506164,9.27543148 C13.3748409,9.2340233 13.4576573,9.15120695 13.4162491,9.02698242 L13.4162491,9.02698242 C13.3748409,8.90275789 13.2920246,8.81994154 13.1678,8.81994154 Z" id="Path" fill="#324A5E"></path>
                <circle id="Oval" fill="#FF7058" cx="9.52388054" cy="9.52388054" r="1"></circle>
                <g id="Group" transform="translate(2.774348, 2.670827)" fill="#E6E9EE">
                    <circle id="Oval" cx="6.74953273" cy="0.641826732" r="1"></circle>
                    <circle id="Oval" cx="6.74953273" cy="12.7744224" r="1"></circle>
                    <circle id="Oval" cx="12.7951265" cy="6.68742046" r="1"></circle>
                    <circle id="Oval" cx="0.66253082" cy="6.68742046" r="1"></circle>
                    <circle id="Oval" cx="11.0145749" cy="2.42237831" r="1"></circle>
                    <circle id="Oval" cx="2.4430824" cy="10.9938708" r="1"></circle>
                    <circle id="Oval" cx="11.0145749" cy="10.9938708" r="1"></circle>
                    <circle id="Oval" cx="2.4430824" cy="2.42237831" r="1"></circle>
                </g>
            </g>
        </g>
    </g>
</svg>