<svg xmlns="http://www.w3.org/2000/svg" width="35" height="36" viewBox="0 0 35 36">
    <g fill="none" fill-rule="nonzero">
        <path fill="#FFCE54" d="M17.5 1.167a7.175 7.175 0 0 0-7.172 7.172A7.175 7.175 0 0 0 17.5 15.51a7.175 7.175 0 0 0 7.172-7.172A7.175 7.175 0 0 0 17.5 1.167z"/>
        <g fill="#656D78">
            <path d="M18.36 6.33h1.722v1.722h-1.721zM20.082 8.052h1.721v1.721h-1.721zM14.912 6.33h1.722v1.722h-1.722zM16.64 8.052h1.72v1.721h-1.72zM13.191 8.052h1.721v1.721h-1.721z"/>
        </g>
        <path fill="#F5F7FA" d="M28.115 27.273c.82 0 1.606-.195 2.295-.539v2.26l-1.148.574-1.147-.573-1.148.573-1.147-.573v-2.26a5.146 5.146 0 0 0 2.295.538z"/>
        <path fill="#EAC6BB" d="M33.279 20.405v1.704a5.167 5.167 0 0 1-7.46 4.625 5.16 5.16 0 0 1-2.868-4.596V20.405l1.721-1.165s1.727.574 3.73.574c2.002 0 3.155-.574 3.155-.574l1.722 1.165z"/>
        <path fill="#D3B1A9" d="M31.557 19.24l-.001.002v2.867a5.167 5.167 0 0 1-2.87 4.625 5.15 5.15 0 0 1-1.433.459c.282.048.568.08.862.08a5.166 5.166 0 0 0 5.164-5.164v-1.704l-1.722-1.165z"/>
        <path fill="#E6E9ED" d="M29.262 29.568l1.148-.573h1.721A2.87 2.87 0 0 1 35 31.863v1.722H21.23v-1.722a2.866 2.866 0 0 1 2.868-2.868h1.722l1.147.573 1.148-.573 1.147.573z"/>
        <path fill="#CCD1D9" d="M32.131 28.995H30.41a2.87 2.87 0 0 1 2.867 2.868v1.722H35v-1.722a2.87 2.87 0 0 0-2.869-2.868z"/>
        <path fill="#965353" d="M33.279 18.667v1.738l-1.722-1.165s-1.153.574-3.155.574c-2.003 0-3.73-.574-3.73-.574l-1.721 1.165v-1.738a4.589 4.589 0 0 1 4.59-4.59h3.443v2.295a2.294 2.294 0 0 1 2.295 2.295z"/>
        <path fill="#844747" d="M30.984 18.093c.316 0 .573.258.573.574v.573l1.722 1.165v-1.738a2.294 2.294 0 0 0-2.295-2.295v-2.295h-1.722v2.295c0 .95.77 1.72 1.722 1.72z"/>
        <path fill="#545C66" d="M12.05 19.527v.861c-1.114-1.451-1.917-1.79-2.858-1.705l1.71-2.5a5.398 5.398 0 0 1 1.147 3.344z"/>
        <path fill="#656D78" d="M10.902 16.182l-1.71 2.501c-1.526.144-3.39 1.435-7.47.925a31.868 31.868 0 0 1-.574-.081 5.448 5.448 0 0 1 9.754-3.345z"/>
        <path fill="#87BCF4" d="M6.885 27.273c.82 0 1.607-.195 2.295-.539v2.26l-1.147.574-1.148-.573-1.147.573-1.148-.573v-2.26a5.146 5.146 0 0 0 2.295.538z"/>
        <path fill="#EAC6BB" d="M12.05 20.388v1.721a5.167 5.167 0 0 1-7.46 4.625 5.166 5.166 0 0 1-2.869-4.625V19.608c4.08.51 5.945-.78 7.47-.924.942-.086 1.745.253 2.858 1.704z"/>
        <path fill="#D3B1A9" d="M10.326 18.853v3.256a5.167 5.167 0 0 1-2.869 4.625 5.15 5.15 0 0 1-1.434.459c.282.048.568.08.862.08a5.166 5.166 0 0 0 5.164-5.164v-1.72c-.65-.85-1.194-1.31-1.723-1.536z"/>
        <path fill="#5D9CEC" d="M8.033 29.568l1.147-.573h1.722a2.866 2.866 0 0 1 2.868 2.868v1.722H0v-1.722a2.87 2.87 0 0 1 2.869-2.868H4.59l1.148.573 1.147-.573 1.148.573z"/>
        <path fill="#4A89DC" d="M10.902 28.995H9.18a2.867 2.867 0 0 1 2.867 2.868v1.722h1.723v-1.722a2.866 2.866 0 0 0-2.868-2.868z"/>
        <path fill="#CCD1D9" d="M28.114 12.93a.574.574 0 0 1-.574-.575l.003-3.836a.574.574 0 0 1 1.148.001l-.004 3.836a.573.573 0 0 1-.573.574z"/>
        <path fill="#CCD1D9" d="M28.115 8.914h-1.722a.574.574 0 1 1 0-1.147h1.722a.573.573 0 1 1 0 1.147zM6.888 12.93a.573.573 0 0 1-.574-.574L6.31 8.52a.573.573 0 1 1 1.148-.001l.003 3.836a.574.574 0 0 1-.573.575z"/>
        <path fill="#CCD1D9" d="M8.608 8.914H6.886a.574.574 0 1 1 0-1.147h1.722a.573.573 0 1 1 0 1.147z"/>
    </g>
</svg>
