<svg xmlns="http://www.w3.org/2000/svg" width="37" height="36" viewBox="0 0 37 36">
    <g fill="none" fill-rule="nonzero" transform="translate(.5)">
        <path fill="#18D2A6" d="M.384 18.436h24.582v-2.304a.768.768 0 0 0-.768-.768H1.152a.768.768 0 0 0-.768.768v2.304z"/>
        <path fill="#E6E5E4" d="M1.152 34.568h23.046a.768.768 0 0 0 .768-.768V18.436H.384V33.8c0 .424.344.768.768.768z"/>
        <path fill="#6EBAED" d="M4.225 13.827H.385a.384.384 0 1 1 0-.768h3.563l1.065-3.194a.384.384 0 0 1 .708-.05l1.137 2.274 1.23-3.386a.384.384 0 0 1 .362-.253h.005a.384.384 0 0 1 .36.263l1.064 3.194h3.18a.384.384 0 1 1 0 .768H9.602a.384.384 0 0 1-.364-.263l-.804-2.41-1.16 3.188a.384.384 0 0 1-.704.04L5.45 10.988l-.86 2.577a.385.385 0 0 1-.364.263z"/>
        <path fill="#C9C7C6" d="M33.01 12.685c-.18 4.545-3.455 8.312-7.816 9.323v-5.876a.775.775 0 0 0-.783-.768H13.168a9.75 9.75 0 0 1-.493-3.073c0-5.384 4.338-9.772 9.77-9.979.22-.008.401.17.401.387v9.208c0 .212.176.384.392.384h9.379c.22 0 .402.178.393.394z"/>
        <path fill="#252424" d="M20.836 7.875c.09 0 .164-.073.164-.164v-.547A.164.164 0 0 0 20.836 7h-4.047a.164.164 0 0 0-.164.164v.612c0 .09.073.164.164.164h1.166c.373 0 .66.136.834.372h-2a.164.164 0 0 0-.164.165v.546c0 .091.073.165.164.165h2.17c-.084.493-.45.801-1.022.801H16.79a.164.164 0 0 0-.164.164v.725c0 .046.02.09.053.12l2.256 2.083c.03.028.07.044.112.044h1.128c.15 0 .221-.183.112-.285l-2.063-1.904c1.046-.032 1.793-.73 1.89-1.748h.723c.09 0 .164-.074.164-.165v-.546a.164.164 0 0 0-.164-.165h-.802a1.873 1.873 0 0 0-.195-.437h.997z"/>
        <path fill="#FFD702" d="M35.322 9.986C35.322 4.466 30.69 0 24.966 0v9.602c0 .212.178.384.398.384h9.958z"/>
        <g fill="#C9C7C6">
            <path d="M3.073 18.436h.768v16.132h-.768zM5.761 18.436h.768v16.132h-.768zM8.45 18.436h.768v16.132H8.45zM11.139 18.436h.768v16.132h-.768zM13.827 18.436h.768v16.132h-.768zM16.516 18.436h.768v16.132h-.768zM19.204 18.436h.769v16.132h-.769zM21.893 18.436h.768v16.132h-.768z"/>
            <path d="M.384 20.74h24.582v.769H.384zM.384 23.43h24.582v.768H.384zM.384 26.118h24.582v.768H.384zM.384 28.807h24.582v.768H.384zM.384 31.495h24.582v.768H.384z"/>
        </g>
        <path fill="#3BA1E3" d="M26.104 34.568h-3.443v-4.993c0-.425.385-.768.86-.768h2.583v5.76z"/>
        <path fill="#6EBAED" d="M22.661 34.568h-3.073v-3.073c0-.424.344-.768.769-.768h2.304v3.84zM29.177 34.568h-3.073v-8.834c0-.425.344-.768.768-.768h2.305v9.602z"/>
        <path fill="#3BA1E3" d="M32.25 34.568h-3.073V23.429c0-.424.344-.768.768-.768h1.536c.425 0 .769.344.769.768v11.139z"/>
        <path fill="#6EBAED" d="M35.322 34.568H32.25V27.27h2.304c.425 0 .768.344.768.768v6.53z"/>
        <path fill="#316596" d="M1.536 11.135a.384.384 0 0 1-.34-.562l4.225-8.06a.383.383 0 1 1 .68.357l-4.224 8.06a.384.384 0 0 1-.341.205zM9.986 6.91a.384.384 0 0 1-.302-.621L13.91.918a.385.385 0 0 1 .604.475l-4.225 5.37a.383.383 0 0 1-.302.148z"/>
        <path fill="#316596" d="M9.98 6.914a.382.382 0 0 1-.258-.1L5.508 2.971a.384.384 0 1 1 .518-.567l4.213 3.84a.384.384 0 0 1-.259.669z"/>
        <circle cx="1.536" cy="10.754" r="1.152" fill="#6EBAED"/>
        <circle cx="5.761" cy="2.689" r="1.152" fill="#6EBAED"/>
        <circle cx="9.986" cy="6.529" r="1.152" fill="#6EBAED"/>
        <circle cx="14.211" cy="1.152" r="1.152" fill="#6EBAED"/>
        <path fill="#316596" d="M27.64 8.066a.383.383 0 0 1-.27-.656l3.072-3.072a.384.384 0 1 1 .543.543l-3.073 3.072a.383.383 0 0 1-.271.113z"/>
        <circle cx="28.025" cy="4.993" r="1" fill="#316596"/>
        <circle cx="30.329" cy="7.298" r="1" fill="#316596"/>
        <circle cx="11.139" cy="16.9" r="1" fill="#FFF"/>
        <circle cx="12.675" cy="16.9" r="1" fill="#FFF"/>
        <circle cx="14.211" cy="16.9" r="1" fill="#FFF"/>
    </g>
</svg>
