<svg xmlns="http://www.w3.org/2000/svg" width="35" height="36" viewBox="0 0 35 36">
    <g fill="none" fill-rule="nonzero">
        <path fill="#2D7DBF" d="M19.344 1.806H35v24.086H19.344z"/>
        <path fill="#348FD9" d="M3.688 1.806h15.656v24.086H3.688z"/>
        <path fill="#4EB9C7" d="M6.097 2.409H32.59v21.075H6.097z"/>
        <path fill="#5AC6D4" d="M28.978 21.075h-7.225a2.409 2.409 0 0 0-2.409 2.409V2.409A2.409 2.409 0 0 1 21.753 0H32.59v17.462l-3.613 3.613z"/>
        <path fill="#60D1E0" d="M19.344 23.484a2.409 2.409 0 0 0-2.409-2.409H6.097V0h10.838a2.409 2.409 0 0 1 2.41 2.409v21.075z"/>
        <path fill="#57BFCC" d="M7.903 3.613h6.022v1.204H7.903v1.205h6.022v1.204H7.903V8.43h6.022v1.204H7.903v1.205h6.022v1.204H7.903v1.204h6.022v1.205H7.903v1.204h6.022v1.204H7.903v1.205h9.635V16.86h-2.409v-1.204h2.409v-1.204h-2.409v-1.205h2.409v-1.204h-2.409v-1.204h2.409V9.634h-2.409V8.43h2.409V7.226h-2.409V6.022h2.409V4.817h-2.409V3.613h2.409V2.409H7.903z"/>
        <path fill="#4EB9C7" d="M30.785 3.613V2.409H21.15v1.204h6.021v1.204h-6.021v1.205h6.021v1.204h-6.021V8.43h6.021v1.204h-6.021v1.205h6.021v1.204h-6.021v1.204h6.021v1.205h-6.021v1.204h9.634v-1.204h-2.409v-1.205h2.409v-1.204h-2.409v-1.204h2.409V9.634h-2.409V8.43h2.409V7.226h-2.409V6.022h2.409V4.817h-2.409V3.613zM21.15 16.86h6.022v1.205h-6.021z"/>
        <path fill="#A0DDE5" d="M28.978 17.462h3.613l-3.613 3.613z"/>
        <path fill="#FCAC1F" d="M10.914 16.258H7.301l-1.806-4.817h7.225z"/>
        <path fill="#FFB531" d="M18.14 33.221a1.703 1.703 0 0 1-1.704 1.704H1.78a1.703 1.703 0 0 1-1.205-2.908 2.405 2.405 0 0 0 .705-1.703v-6.83a7.828 7.828 0 1 1 15.656 0v6.83c.001.639.255 1.251.706 1.703.32.32.5.753.499 1.204z"/>
        <path fill="#FCAC1F" d="M18.14 33.221a1.703 1.703 0 0 1-1.704 1.704H1.78a1.703 1.703 0 0 1-1.205-2.908c.08-.08.154-.165.222-.256 5.65-2.319 11.1-6.068 15.312-11.784.546 1.088.83 2.29.827 3.507v6.83c.001.639.255 1.251.706 1.703.32.32.5.753.499 1.204z"/>
        <path fill="#FFC361" d="M6.35 18.132a6.04 6.04 0 0 0-1.362.963l.825.878a4.839 4.839 0 0 1 1.09-.772l-.553-1.07zM3.086 23.484v3.01H4.29v-3.01a4.785 4.785 0 0 1 .828-2.697l-.996-.676a5.985 5.985 0 0 0-1.036 3.373z"/>
        <path fill="#F1F4FB" d="M12.863 22.4a.263.263 0 0 0 .262-.262v-.876a.263.263 0 0 0-.262-.262H6.388a.263.263 0 0 0-.263.262v.98c0 .144.118.262.263.262h1.865c.597 0 1.056.218 1.334.596h-3.2a.263.263 0 0 0-.262.262v.876c0 .144.118.262.263.262H9.86c-.136.79-.72 1.283-1.635 1.283H6.388a.263.263 0 0 0-.263.262v1.16c0 .073.03.143.084.193L9.82 30.73c.048.045.112.07.178.07h1.806a.263.263 0 0 0 .178-.455l-3.3-3.047c1.673-.051 2.868-1.168 3.025-2.798h1.155a.263.263 0 0 0 .263-.262v-.875a.263.263 0 0 0-.262-.263h-1.284a2.996 2.996 0 0 0-.312-.7h1.596z"/>
        <path fill="#92563A" d="M35 29.505a1.203 1.203 0 0 1-1.204 1.205H21.15l-1.807-1.205 1.807-1.204h12.645c.665 0 1.204.54 1.204 1.204z"/>
        <path fill="#E0E0DE" d="M31.387 33.72h-6.021v-1.204h6.021c.333 0 .602-.27.602-.602v-3.613h1.205v3.613a1.808 1.808 0 0 1-1.807 1.806z"/>
        <path fill="#7A432A" d="M21.15 28.301v2.409l-1.806-1.205z"/>
    </g>
</svg>
