<?xml version="1.0" encoding="UTF-8"?>
<svg width="35px" height="35px" viewBox="0 0 35 35" version="1.1" xmlns="http://www.w3.org/2000/svg" xmlns:xlink="http://www.w3.org/1999/xlink">
    <!-- Generator: Sketch 62 (91390) - https://sketch.com -->
    <title>Icon/Menu/Goods return@3x</title>
    <desc>Created with Sketch.</desc>
    <g id="Icon/Menu/Goods-return" stroke="none" stroke-width="1" fill="none" fill-rule="evenodd">
        <rect id="Rectangle" fill="#D8D8D8" opacity="0" x="0" y="0" width="35" height="35"></rect>
        <g id="return-(2)" fill-rule="nonzero">
            <path d="M13.3583831,15.3063583 L2.85026547,15.3063583 L2.85026547,32.5310516 C2.85026547,33.4277344 3.57738493,34.1548538 4.47406771,34.1548538 L13.3583831,34.1548538 L16.4420319,23.0368424 L13.3583831,15.3063583 Z" id="Path" fill="#FECC2E"></path>
            <path d="M13.3583831,15.3063583 L13.3583831,34.1545868 L30.5259323,34.1545868 C31.4228821,34.1545868 32.1497345,33.4277344 32.1497345,32.5310516 L32.1497345,15.3063583 L13.3583831,15.3063583 Z" id="Path" fill="#FEDD60"></path>
            <path d="M34.9246979,22.2632599 L32.1497345,15.3063583 L13.3583831,15.3063583 L16.4420319,23.0368424 C16.6001129,23.4333801 16.9841003,23.6937332 17.4113464,23.6937332 L33.9551163,23.6937332 C34.6931839,23.6937332 35.1981354,22.9487228 34.9246979,22.2632599 L34.9246979,22.2632599 Z" id="Path" fill="#FECC2E"></path>
            <path d="M0.0753020898,22.2632599 L2.85026547,15.3063583 L13.3583831,15.3063583 L10.2747345,23.0368424 C10.1166535,23.4333801 9.732399,23.6937332 9.30515291,23.6937332 L1.0446167,23.6937332 C0.306816084,23.6937332 -0.19813541,22.9487228 0.0753020898,22.2632599 L0.0753020898,22.2632599 Z" id="Path" fill="#FEDD60"></path>
            <g id="Group" transform="translate(17.910156, 26.933594)" fill="#3A484A">
                <path d="M0.577049238,2.00004574 C0.285453779,2.00004574 0.0488662891,1.76345825 0.0488662891,1.47186279 L0.0488662891,0.543937666 C0.0488662891,0.252342207 0.285453779,0.0157547168 0.577049238,0.0157547168 C0.868644697,0.0157547168 1.10523226,0.252342207 1.10523226,0.543937666 L1.10523226,1.47186279 C1.10523226,1.76345825 0.868644697,2.00004574 0.577049238,2.00004574 Z" id="Path"></path>
                <path d="M10.8301545,2.00004574 C10.5382919,2.00004574 10.3019714,1.76345825 10.3019714,1.47186279 L10.3019714,0.543937666 C10.3019714,0.252342207 10.5382919,0.0157547168 10.8301545,0.0157547168 C11.1217498,0.0157547168 11.3583374,0.252342207 11.3583374,0.543937666 L11.3583374,1.47186279 C11.3583374,1.76345825 11.1217498,2.00004574 10.8301545,2.00004574 Z" id="Path"></path>
                <path d="M5.70346834,2.4953842 C5.05805973,2.4953842 4.4519043,2.22541813 4.04067993,1.75491333 C3.8486862,1.53541568 3.87111662,1.20162964 4.09061434,1.00963591 C4.31037906,0.817642246 4.64389803,0.840072598 4.83589176,1.05983732 C5.04657747,1.30069734 5.36300659,1.43901823 5.70346834,1.43901823 C6.0441971,1.43901823 6.36062622,1.30069734 6.57131193,1.05983732 C6.76303865,0.840072598 7.09682463,0.817642246 7.31658936,1.00963591 C7.53608707,1.20162964 7.55851742,1.53541568 7.36652376,1.75491333 C6.95529939,2.22541813 6.34914396,2.4953842 5.70346834,2.4953842 L5.70346834,2.4953842 Z" id="Path"></path>
            </g>
            <path d="M22.4597931,13.5036468 C22.8843689,13.4844207 23.2149505,13.1236649 23.1919861,12.699089 C23.1919861,12.6966858 23.1917191,12.6940155 23.1917191,12.6913452 C23.1249618,11.5084076 22.8344345,10.2993011 22.3436356,9.2199707 C21.3270569,6.98387143 19.5635986,5.36434172 17.481842,4.1301346 C16.2719345,3.41262817 14.9445343,3.01048275 13.6109924,2.59712223 C13.5252762,2.57041928 13.4411621,2.55146028 13.3583831,2.53223421 L13.3583831,0.756492598 C13.3583831,0.10841373 12.5954819,-0.238456709 12.1070862,0.187454258 L7.33234407,4.34909822 C6.98707584,4.65003971 6.98707584,5.18650057 7.33234407,5.48744205 L12.1070862,9.64935303 C12.5957489,10.0749969 13.3583831,9.72812654 13.3583831,9.08004761 L13.3583831,7.70698551 C13.3730697,7.70725252 13.3872223,7.70751953 13.4019089,7.70805355 C14.9522782,7.74169922 16.5587235,8.09364322 17.9285812,8.83598324 C19.5507813,9.71504215 20.7783127,11.243248 21.3436126,12.9920197 C21.4501571,13.3215332 21.7687225,13.5354233 22.1145248,13.5196686 L22.4597931,13.5036468 Z" id="Path" fill="#94DC7E"></path>
        </g>
    </g>
</svg>