<svg xmlns="http://www.w3.org/2000/svg" width="35" height="36" viewBox="0 0 35 36">
    <g fill="none" fill-rule="nonzero" transform="translate(3.5)">
        <path fill="#9B735A" d="M21.158 2.414H12.71a1.207 1.207 0 0 1-2.414 0H1.848c-1 0-1.81.81-1.81 1.81V29.57c0 1 .81 1.81 1.81 1.81h19.31c1 0 1.81-.81 1.81-1.81V4.224c0-1-.81-1.81-1.81-1.81z"/>
        <path fill="#8C5F50" d="M22.365 21.724c-.203 0-.404.014-.603.03V4.225a.604.604 0 0 0-.604-.603h-3.017a.604.604 0 0 1-.603-.604v-.603H12.71a1.207 1.207 0 0 1-2.414 0H5.47v.603c0 .333-.27.604-.604.604H1.848a.604.604 0 0 0-.603.603V29.57c0 .333.27.604.603.604h13.381c.072.414.178.818.316 1.206h5.613c1 0 1.81-.81 1.81-1.81v-7.814c-.199-.017-.399-.03-.603-.03z"/>
        <path fill="#F1F4FB" d="M19.952 28.966H3.055a.604.604 0 0 1-.603-.604V5.431c0-.333.27-.603.603-.603h16.897c.333 0 .603.27.603.603v22.931c0 .333-.27.604-.603.604z"/>
        <path fill="#A0D755" d="M8.586 9.625c.09 0 .164-.073.164-.164v-.547a.164.164 0 0 0-.164-.164H4.539a.164.164 0 0 0-.164.164v.612c0 .09.073.164.164.164h1.166c.373 0 .66.136.834.373h-2a.164.164 0 0 0-.164.164v.546c0 .091.073.165.164.165h2.17c-.084.493-.45.801-1.021.801H4.538a.164.164 0 0 0-.164.164v.725c0 .046.02.09.053.12l2.256 2.083c.03.028.07.044.112.044h1.128c.15 0 .221-.183.112-.285l-2.063-1.904c1.046-.032 1.793-.73 1.89-1.748h.723c.09 0 .164-.074.164-.165v-.546a.164.164 0 0 0-.164-.165h-.802a1.873 1.873 0 0 0-.195-.437h.997z"/>
        <path fill="#E4EAF8" d="M20.555 28.362v-6.4c-3.122.804-5.431 3.63-5.431 7.004h4.828c.333 0 .603-.27.603-.604z"/>
        <path fill="#FFF082" d="M15.124 1.207h-1.542A2.403 2.403 0 0 0 11.503 0c-.89 0-1.66.488-2.079 1.207H7.883c-.667 0-1.207.54-1.207 1.207v2.414c0 .333.27.603.603.603h8.448c.334 0 .604-.27.604-.603V2.414c0-.667-.54-1.207-1.207-1.207zm-3.62 2.112a.905.905 0 1 1 0-1.81.905.905 0 0 1 0 1.81z"/>
        <path fill="#FFDC64" d="M7.28 5.431h8.447a.604.604 0 0 0 0-1.207H7.28a.603.603 0 0 0 0 1.207z"/>
        <circle cx="22.365" cy="28.966" r="6.034" fill="#B4E66E"/>
        <path fill="#A0D755" d="M25.383 33.793a6.034 6.034 0 0 1-6.035-6.034c0-1.957.935-3.69 2.379-4.793A6.035 6.035 0 0 0 22.365 35a6 6 0 0 0 3.656-1.241c-.21.022-.423.034-.638.034z"/>
        <path fill="#FFF" d="M21.158 31.983a.601.601 0 0 1-.426-.177l-2.414-2.414a.603.603 0 1 1 .853-.853l1.987 1.987 3.798-3.797a.603.603 0 1 1 .853.853l-4.224 4.224a.602.602 0 0 1-.427.177z"/>
        <path fill="#A0D755" d="M16.934 10.259h-3.017a.603.603 0 1 1 0-1.207h3.017a.603.603 0 1 1 0 1.207z"/>
        <g fill="#959CB5">
            <path d="M15.727 12.672h-1.81a.603.603 0 1 1 0-1.207h1.81a.603.603 0 1 1 0 1.207zM16.934 15.086h-3.017a.603.603 0 1 1 0-1.207h3.017a.603.603 0 1 1 0 1.207z"/>
        </g>
        <g fill="#B4E66E">
            <path d="M7.28 20.517H6.071a.603.603 0 1 1 0-1.207H7.28a.603.603 0 1 1 0 1.207zM7.28 25.345H6.071a.603.603 0 1 1 0-1.207H7.28a.603.603 0 1 1 0 1.207zM7.28 22.931H6.071a.603.603 0 1 1 0-1.207H7.28a.603.603 0 1 1 0 1.207z"/>
        </g>
        <g fill="#959CB5">
            <path d="M16.934 20.517H9.693a.603.603 0 1 1 0-1.207h7.241a.603.603 0 1 1 0 1.207zM15.124 25.345H9.693a.603.603 0 1 1 0-1.207h5.43a.603.603 0 1 1 0 1.207zM16.934 22.931H9.693a.603.603 0 1 1 0-1.207h7.241a.603.603 0 1 1 0 1.207z"/>
        </g>
    </g>
</svg>
