<svg xmlns="http://www.w3.org/2000/svg" width="35" height="35" viewBox="0 0 35 35">
    <g fill="none" fill-rule="nonzero">
        <g fill="#88B337">
            <path d="M28.959 22.73c0-.264-.073-.522-.212-.747l-1.345-2.166a2.372 2.372 0 0 1-.253-1.074V12.07a7.843 7.843 0 0 0-7.843-7.843h-3.62a7.843 7.843 0 0 0-7.843 7.843v6.673a2.37 2.37 0 0 1-.254 1.074l-1.345 2.166a1.411 1.411 0 0 0 1.195 2.154h20.114a1.411 1.411 0 0 0 1.406-1.406z"/>
            <path d="M19.306 4.227L22.322.004H12.67l3.017 4.223v1.207h3.62z"/>
        </g>
        <path fill="#6B962A" d="M28.747 21.983l-1.345-2.166a2.372 2.372 0 0 1-.253-1.074V12.07a7.84 7.84 0 0 0-1.647-4.826c-1.611 8.875-7.282 13.99-12.61 16.892h14.66a1.412 1.412 0 0 0 1.207-2.153h-.012z"/>
        <g fill="#FDB62F">
            <path d="M29.562 6.037a2.932 2.932 0 0 0-2.413-2.413 2.932 2.932 0 0 0 2.413-2.413 2.932 2.932 0 0 0 2.413 2.413 2.932 2.932 0 0 0-2.413 2.413zM2.413 18.103A2.932 2.932 0 0 0 0 15.69a2.932 2.932 0 0 0 2.413-2.413 2.932 2.932 0 0 0 2.413 2.413 2.932 2.932 0 0 0-2.413 2.413z"/>
        </g>
        <path fill="#F1F4FB" d="M20.738 8.4A.263.263 0 0 0 21 8.137v-.875A.263.263 0 0 0 20.738 7h-6.476a.263.263 0 0 0-.262.263v.978c0 .145.118.263.262.263h1.866c.597 0 1.056.218 1.334.596h-3.2a.263.263 0 0 0-.262.263v.875c0 .144.118.262.262.262h3.473c-.136.79-.72 1.283-1.635 1.283h-1.838a.263.263 0 0 0-.262.262v1.16c0 .073.03.143.084.193l3.611 3.332c.048.045.112.07.178.07h1.806a.263.263 0 0 0 .178-.455l-3.3-3.047c1.673-.051 2.868-1.168 3.025-2.798h1.155a.263.263 0 0 0 .263-.262v-.875a.263.263 0 0 0-.262-.263h-1.284a2.996 2.996 0 0 0-.312-.7h1.596z"/>
        <path fill="#FEC9A3" d="M34.732 21.054a1.81 1.81 0 0 0-2.413-.67l-8.561 3.656a1.21 1.21 0 0 1-.477.096H12.67a1.206 1.206 0 1 1 0-2.413h4.827c2 0 3.62-1.62 3.62-3.62h-10.04A5.485 5.485 0 0 0 6.8 20.161L3.016 24.74l4.26 7.806 16.392-3.94a8.706 8.706 0 0 0 2.039-.747l8.446-4.326a1.81 1.81 0 0 0 .58-2.48z"/>
        <path fill="#F7BB8F" d="M5.918 30.06l1.358 2.486 16.392-3.94a8.706 8.706 0 0 0 2.039-.747l4.567-2.347c-7.59 2.323-17.665 3.77-24.356 4.549z"/>
        <path fill="#4398D1" d="M0 24.136v10.86h7.843l1.81-1.81-7.24-10.86z"/>
        <path fill="#3E8CC7" d="M0 34.996h7.843l1.81-1.81-1.327-1.991A42.666 42.666 0 0 1 0 33.675v1.32z"/>
        <circle cx="5.43" cy="31.981" r="1.207" fill="#D9D9D9"/>
    </g>
</svg>
