<svg xmlns="http://www.w3.org/2000/svg" width="35" height="35" viewBox="0 0 35 35">
    <g fill="none" fill-rule="nonzero">
        <path fill="#F44336" d="M33.329 17.468l1.532-3.997a1.093 1.093 0 0 0-.332-1.24l-3.323-2.694-.672-4.23a1.091 1.091 0 0 0-.908-.905l-4.23-.673L22.706.404a1.093 1.093 0 0 0-1.238-.332l-4 1.535L13.47.074a1.089 1.089 0 0 0-1.238.332L9.538 3.731l-4.23.673a1.094 1.094 0 0 0-.905.906L3.73 9.539.405 12.233c-.366.297-.5.797-.331 1.238l1.532 3.997-1.532 3.998c-.17.44-.035.94.331 1.238l3.325 2.692.673 4.229c.074.467.439.834.906.908l4.229.672 2.694 3.323c.3.371.8.502 1.24.332l3.995-1.53 3.998 1.532a1.096 1.096 0 0 0 1.24-.334l2.692-3.323 4.229-.672c.467-.074.834-.441.908-.908l.672-4.23 3.323-2.691c.37-.3.5-.797.332-1.238l-1.532-3.998z"/>
        <g fill="#FAFAFA">
            <path d="M14.193 15.285a3.279 3.279 0 0 1-3.275-3.275 3.279 3.279 0 0 1 3.275-3.275 3.279 3.279 0 0 1 3.274 3.275 3.279 3.279 0 0 1-3.274 3.275zm0-4.366a1.092 1.092 0 1 0 0 2.184 1.092 1.092 0 0 0 0-2.184zM20.742 26.201a3.279 3.279 0 0 1-3.275-3.275 3.279 3.279 0 0 1 3.275-3.274 3.279 3.279 0 0 1 3.275 3.274 3.279 3.279 0 0 1-3.275 3.275zm0-4.366c-.6 0-1.091.491-1.091 1.091s.49 1.092 1.091 1.092c.6 0 1.092-.491 1.092-1.092 0-.6-.491-1.091-1.092-1.091zM12.01 26.201a1.091 1.091 0 0 1-.886-1.727L22.038 9.192a1.091 1.091 0 1 1 1.777 1.268L12.9 25.743c-.216.299-.55.458-.89.458z"/>
        </g>
    </g>
</svg>
