<svg xmlns="http://www.w3.org/2000/svg" width="35" height="36" viewBox="0 0 35 36">
    <g fill="none" fill-rule="nonzero" transform="translate(0 2.625)">
        <path fill="#A5C3DC" d="M31.5 0A3.5 3.5 0 0 0 28 3.5v4.905c.18-.14.396-.238.7-.238 1.05 0 1.05 1.166 2.1 1.166s1.05-1.166 2.1-1.166 1.05 1.166 2.1 1.166V3.5A3.5 3.5 0 0 0 31.5 0z"/>
        <path fill="#D7E6F0" d="M7 26.833a3.5 3.5 0 0 1-3.5 3.5h21a3.5 3.5 0 0 0 3.5-3.5V3.5A3.5 3.5 0 0 1 31.5 0h-21A3.5 3.5 0 0 0 7 3.5v23.333z"/>
        <path fill="#A5C3DC" d="M21 26.833v-3.5c-1.05 0-1.05 1.167-2.1 1.167s-1.05-1.167-2.1-1.167-1.05 1.167-2.1 1.167-1.05-1.167-2.1-1.167-1.05 1.167-2.101 1.167c-1.05 0-1.05-1.167-2.1-1.167s-1.05 1.167-2.1 1.167-1.05-1.167-2.1-1.167S3.15 24.5 2.1 24.5c-1.05 0-1.05-1.167-2.1-1.167v3.5a3.5 3.5 0 0 0 3.5 3.5h21a3.5 3.5 0 0 1-3.5-3.5z"/>
        <g fill="#A5C3DC">
            <path d="M10.5 5.833h8.167a1.167 1.167 0 1 1 0 2.334H10.53c-.646 0-1.192-.512-1.197-1.158A1.166 1.166 0 0 1 10.5 5.833zM25.667 6.99A1.166 1.166 0 0 1 24.5 8.168h-1.167a1.167 1.167 0 1 1 0-2.334h1.137c.646 0 1.192.512 1.197 1.158zM10.5 11.667h8.167a1.167 1.167 0 1 1 0 2.333H10.53c-.646 0-1.192-.512-1.197-1.157a1.166 1.166 0 0 1 1.167-1.176zM25.667 12.824A1.166 1.166 0 0 1 24.5 14h-1.167a1.167 1.167 0 1 1 0-2.333h1.137c.646 0 1.192.511 1.197 1.157zM10.5 17.5h8.167a1.167 1.167 0 1 1 0 2.333H10.53c-.646 0-1.192-.511-1.197-1.157A1.166 1.166 0 0 1 10.5 17.5zM25.667 18.657a1.166 1.166 0 0 1-1.167 1.176h-1.167a1.167 1.167 0 1 1 0-2.333h1.137c.646 0 1.192.512 1.197 1.157z"/>
        </g>
        <circle cx="7" cy="7" r="7" fill="#FF6E91"/>
        <g fill="#FFF">
            <path d="M9.428 4.55a.197.197 0 0 0 .197-.197v-.656a.197.197 0 0 0-.197-.197H4.572a.197.197 0 0 0-.197.197v.734c0 .109.088.197.197.197H5.97c.448 0 .792.163 1 .447h-2.4a.197.197 0 0 0-.196.197v.656c0 .109.088.197.197.197h2.604c-.102.592-.54.962-1.226.962H4.572a.197.197 0 0 0-.197.197v.87c0 .054.023.107.063.144l2.708 2.5a.197.197 0 0 0 .134.052h1.354c.18 0 .266-.22.134-.342L6.292 8.223c1.255-.038 2.152-.876 2.27-2.098h.866a.197.197 0 0 0 .197-.197v-.656a.197.197 0 0 0-.197-.197h-.963a2.247 2.247 0 0 0-.234-.525h1.197z"/>
        </g>
    </g>
</svg>
