<svg xmlns="http://www.w3.org/2000/svg" width="35" height="35" viewBox="0 0 35 35">
    <g fill="none" fill-rule="nonzero">
        <path fill="#656D78" d="M27.555 0H3.423A2.517 2.517 0 0 0 .909 2.514v2.68A2.517 2.517 0 0 0 3.423 7.71h24.132a2.517 2.517 0 0 0 2.514-2.514V2.514A2.517 2.517 0 0 0 27.555 0z"/>
        <g fill="#515760">
            <path d="M27.555 0h-2.011a2.517 2.517 0 0 1 2.514 2.514v2.68a2.517 2.517 0 0 1-2.514 2.515h2.011a2.517 2.517 0 0 0 2.514-2.514V2.514A2.517 2.517 0 0 0 27.555 0z"/>
            <path d="M26.885 4.357H4.093a.503.503 0 1 1 0-1.005h22.792a.503.503 0 1 1 0 1.005z"/>
        </g>
        <g fill="#E6E9ED">
            <path d="M28.56 34.224h.163c.034 0 .049-.005.05-.014-.07.009-.14.014-.212.014zM26.047 32.054V4.357a.503.503 0 0 0-.503-.502H5.434a.503.503 0 0 0-.503.502v27.837c0 1.111.9 2.011 2.01 2.011h19.106v-2.01-.141z"/>
            <path d="M26.047 32.311V4.475a.503.503 0 0 0-.503-.503H5.434a.503.503 0 0 0-.503.503V32.31c0 1.111.9 2.012 2.01 2.012h21.117c-1.11 0-2.011-.9-2.011-2.012z"/>
        </g>
        <path fill="#DADDE1" d="M26.047 32.194V4.357a.503.503 0 0 0-.503-.502h-2.01c.277 0 .502.225.502.502v27.837c0 1.111.9 2.011 2.01 2.011h2.012c-1.11 0-2.011-.9-2.011-2.01z"/>
        <path fill="#CCD1D9" d="M30.07 19.457h-4.023v12.737a2.011 2.011 0 0 0 4.022 0V21.47c0-1.111.9-2.012 2.011-2.012h-2.01z"/>
        <path fill="#AAB2BC" d="M32.08 19.457c-1.11 0-2.01.9-2.01 2.012v6.033h3.519A.503.503 0 0 0 34.09 27v-5.532c0-1.11-.9-2.01-2.01-2.01z"/>
        <path fill="#48CFAD" d="M19.884 16.425l.016-.017.011-.015.018-.024.007-.012.018-.03.006-.011.015-.032.008-.022.008-.024a.497.497 0 0 0 .023-.148l-.001-.02c0-.01 0-.02-.002-.03v-.001-.002l-.67-6.701a.502.502 0 0 0-.037-.147l-.012-.024-.01-.02a.477.477 0 0 0-.018-.03l-.007-.01c-.006-.01-.013-.02-.02-.028l-.009-.012-.02-.022-.012-.013-.02-.017-.016-.016-.017-.012-.022-.017-.016-.01-.026-.015-.018-.009-.025-.012a.506.506 0 0 0-.04-.014l-.006-.003a.5.5 0 0 0-.15-.022h-6.703a.502.502 0 0 0-.15.022l-.004.002a.478.478 0 0 0-.041.015l-.018.009-.026.012-.018.011-.023.014-.015.011-.024.018-.01.009a.483.483 0 0 0-.026.024l-.005.005-.028.03v.002a.51.51 0 0 0-.054.079l-.002.003a.508.508 0 0 0-.056.186l-.67 6.702v.002c-.002.01-.002.02-.002.03l-.001.02c0 .052.008.102.022.15l.008.021.009.024.015.031.006.013.017.029.008.012.017.024.012.015.015.017.018.02.012.01.024.022.008.007.03.022.008.005.034.02.013.007.03.014a.515.515 0 0 0 .197.04h8.043c.017 0 .034 0 .051-.002a.5.5 0 0 0 .146-.038l.03-.014.014-.007a.465.465 0 0 0 .033-.02l.008-.005a.494.494 0 0 0 .03-.022l.01-.007.023-.022.012-.01.017-.02z"/>
        <path fill="#656D78" d="M15.489 6.201a1.846 1.846 0 0 0-1.844 1.844v2.01a.503.503 0 1 0 1.006 0v-2.01a.839.839 0 0 1 1.676 0v2.01a.503.503 0 1 0 1.005 0v-2.01A1.846 1.846 0 0 0 15.49 6.2z"/>
        <path fill="#CCD1D9" d="M22.863 20.06H8.115a.503.503 0 1 1 0-1.005h14.748a.503.503 0 0 1 0 1.006z"/>
        <path fill="#656D78" d="M15.489 23.413H8.115a.503.503 0 1 1 0-1.006h7.374a.503.503 0 1 1 0 1.006z"/>
        <path fill="#ED5565" d="M22.863 23.413h-1.34a.503.503 0 1 1 0-1.006h1.34a.503.503 0 0 1 0 1.006z"/>
        <path fill="#656D78" d="M12.807 26.765H8.115a.503.503 0 1 1 0-1.006h4.692a.503.503 0 1 1 0 1.006z"/>
        <path fill="#ED5565" d="M22.863 26.765h-1.34a.503.503 0 1 1 0-1.006h1.34a.503.503 0 0 1 0 1.006z"/>
        <path fill="#656D78" d="M16.83 30.116H8.115a.503.503 0 1 1 0-1.005h8.715a.503.503 0 1 1 0 1.005z"/>
        <path fill="#ED5565" d="M22.863 30.116h-1.34a.503.503 0 1 1 0-1.005h1.34a.503.503 0 0 1 0 1.005z"/>
    </g>
</svg>
