<svg xmlns="http://www.w3.org/2000/svg" width="90" height="40" viewBox="0 0 110 45">
    <g fill="none" fill-rule="nonzero">
        <path fill="#FFF" d="M44.616 18.817V14.6h1.906l2.178 4.216h2.57v-.111l-2.514-4.707c.697-.31 1.217-.729 1.56-1.253.343-.525.515-1.18.515-1.966 0-1.107-.373-1.964-1.117-2.57-.745-.607-1.803-.91-3.176-.91h-4.316v11.517h2.394zm1.93-6.139h-1.93V9.222h1.922c.644 0 1.121.155 1.432.466.312.311.467.739.467 1.282 0 .532-.165.95-.494 1.254-.33.303-.796.454-1.397.454zm8.318-3.448c.388 0 .7-.111.937-.333.237-.221.355-.506.355-.854 0-.343-.117-.625-.35-.846-.235-.222-.549-.333-.942-.333-.399 0-.714.111-.946.333a1.12 1.12 0 0 0-.347.846c0 .348.119.633.355.854.237.222.55.333.938.333zm1.157 9.587v-8.56h-2.314v8.56h2.314zm6.394 3.37c.836 0 1.564-.146 2.187-.436a3.296 3.296 0 0 0 1.448-1.265c.343-.554.514-1.205.514-1.954v-8.274h-2.09l-.096.807c-.526-.644-1.263-.965-2.21-.965-1.069 0-1.919.4-2.549 1.202-.63.802-.945 1.859-.945 3.172v.095c0 1.329.32 2.395.961 3.2.641.804 1.48 1.206 2.517 1.206.867 0 1.567-.298 2.098-.894v.459c0 .596-.17 1.056-.51 1.38-.34.324-.817.487-1.428.487-.82 0-1.516-.32-2.09-.958L59.2 20.842c.309.395.764.718 1.365.969.6.25 1.218.375 1.85.375zm.328-5.063c-.548 0-.98-.22-1.293-.66-.314-.44-.47-1.049-.47-1.824 0-.891.158-1.56.474-2.01.317-.447.751-.671 1.305-.671.686 0 1.183.26 1.491.783v3.599c-.303.522-.805.783-1.507.783zm8.931 1.693v-6.083c.304-.517.793-.775 1.468-.775.495 0 .849.117 1.062.352.212.234.319.597.319 1.087v5.419h2.305v-5.482c-.026-2.157-.976-3.235-2.848-3.235-.925 0-1.694.364-2.306 1.091V6.667H69.37v12.15h2.305zm10.91.158c.48 0 .945-.069 1.397-.206v-1.732a3.708 3.708 0 0 1-.678.055c-.346 0-.58-.068-.702-.205-.123-.138-.184-.364-.184-.68v-4.272h1.476v-1.677h-1.476V8.154h-2.305v2.104H78.85v1.677h1.26v4.611c.033 1.62.857 2.429 2.474 2.429zM44.768 36.217V24.699h-2.393v11.518h2.393zm5.414 0V30.18c.324-.548.81-.822 1.46-.822.494 0 .848.109 1.06.328.214.219.32.57.32 1.056v5.474h2.306v-5.53c-.011-1.06-.24-1.856-.686-2.388-.447-.533-1.128-.8-2.043-.8-1.037 0-1.864.383-2.481 1.148l-.072-.99h-2.17v8.56h2.306zm12.314 0l2.912-8.56h-2.41l-1.603 5.767-1.603-5.766h-2.41l2.912 8.559h2.202zm8.629.158c1.245 0 2.236-.397 2.976-1.19.74-.794 1.109-1.848 1.109-3.16l-.016-.586c-.085-1.213-.496-2.173-1.233-2.88-.736-.706-1.687-1.06-2.852-1.06-.82 0-1.538.183-2.158.546a3.602 3.602 0 0 0-1.424 1.543c-.33.664-.495 1.421-.495 2.27v.103c0 1.36.371 2.436 1.113 3.227.742.791 1.735 1.187 2.98 1.187zm0-1.843c-.574 0-1.016-.215-1.324-.645-.309-.43-.463-1.05-.463-1.863 0-.912.154-1.586.463-2.02.308-.436.744-.653 1.308-.653.57 0 1.01.218 1.324.656.314.438.471 1.055.471 1.851 0 .934-.157 1.613-.47 2.037-.314.425-.75.637-1.31.637zm7.87-7.902c.389 0 .701-.111.938-.333.237-.221.355-.506.355-.854 0-.343-.117-.625-.35-.846-.235-.222-.549-.333-.942-.333-.4 0-.714.111-.946.333a1.12 1.12 0 0 0-.347.846c0 .348.119.633.355.854.237.222.55.333.938.333zm1.157 9.587v-8.56h-2.313v8.56h2.313zm6.619.158c.66 0 1.262-.133 1.807-.4a3.15 3.15 0 0 0 1.288-1.123 2.914 2.914 0 0 0 .479-1.594h-2.162c-.01.385-.15.694-.415.926-.266.232-.612.348-1.037.348-.553 0-.966-.193-1.237-.578-.271-.385-.407-1.017-.407-1.898v-.237c0-.87.137-1.5.411-1.887.274-.388.68-.581 1.217-.581.436 0 .787.138 1.053.415.266.277.404.637.415 1.08h2.162c-.01-1.013-.342-1.824-.993-2.433-.652-.609-1.518-.913-2.597-.913-1.234 0-2.205.393-2.912 1.178-.708.786-1.061 1.838-1.061 3.156v.15c0 1.372.356 2.446 1.069 3.224.712.778 1.686 1.167 2.92 1.167zm9.953 0a4.64 4.64 0 0 0 1.962-.408 3.455 3.455 0 0 0 1.404-1.135l-1.132-1.257c-.5.638-1.195.957-2.083.957-.574 0-1.049-.169-1.424-.506-.375-.338-.6-.786-.674-1.345h5.497v-.934c0-1.355-.34-2.402-1.017-3.14-.678-.738-1.608-1.107-2.789-1.107-.787 0-1.488.183-2.102.55a3.669 3.669 0 0 0-1.424 1.566c-.335.677-.503 1.446-.503 2.305v.222c0 1.281.398 2.307 1.193 3.077s1.826 1.155 3.092 1.155zm1.284-5.252H94.8c.08-.57.262-1.008.546-1.314.285-.305.656-.458 1.113-.458.49 0 .867.138 1.133.415.266.277.405.668.415 1.175v.182zm7.95 5.252c1.07 0 1.942-.241 2.618-.724.675-.482 1.013-1.114 1.013-1.894 0-1.092-.61-1.86-1.827-2.302-.394-.143-.878-.27-1.452-.384-.575-.113-.983-.248-1.225-.403-.242-.156-.363-.36-.363-.613 0-.27.106-.49.32-.665.212-.174.512-.26.9-.26.453 0 .785.106.998.32.213.213.32.483.32.81h2.305c0-.817-.329-1.482-.986-1.993-.656-.512-1.533-.767-2.628-.767-1.027 0-1.858.254-2.493.763-.636.509-.954 1.143-.954 1.902 0 1.303 1.027 2.168 3.08 2.595.617.126 1.065.27 1.344.431.28.16.419.381.419.66a.773.773 0 0 1-.34.653c-.225.166-.559.25-1 .25-.474 0-.851-.109-1.133-.325-.282-.216-.434-.527-.455-.933h-2.186c0 .516.16.998.479 1.443.319.446.759.796 1.32 1.052s1.203.384 1.927.384z"/>
        <path fill="#FFDE00" d="M10 7.85L28.889 0v29.896L10 36.666z"/>
        <path fill="#4CBAEF" d="M0 15.627l18.889-7.85v29.897L0 44.444z"/>
        <path fill="#94C850" d="M18.889 7.778l-.001 25.479-10 3.41V11.73l10-3.952z"/>
        <path fill="#FFF" d="M19.307 16.16l2.322 1.982-11.34 13.785-2.322-1.982.038-.048-5.194-4.628 1.996-2.323 5.145 4.584 9.355-11.37z"/>
    </g>
</svg>
