<svg xmlns="http://www.w3.org/2000/svg" width="35" height="35" viewBox="0 0 35 35">
    <g fill="none" fill-rule="nonzero">
        <path fill="#FEDBAB" d="M34.592 19.824l-5.947 8.613a6.177 6.177 0 0 1-4.922 2.461H6.154L5.088 20.111l1.066-.963c1.559-1.375 2.584-2.318 4.594-2.79 2.4-.553 4.785.123 6.364 1.559.41.349.657.677 1.17.677h5.441c1.128 0 2.05.923 2.05 2.05 0 1.129-.922 2.051-2.05 2.051h-4.17c-.575 0-1.026.451-1.026 1.026 0 .574.451 1.025 1.026 1.025H24.4c.39 0 1.127-.246 1.517-.656l5.537-6.89a2.044 2.044 0 0 1 2.707-.267 2.066 2.066 0 0 1 .43 2.891z"/>
        <g fill="#FEC478">
            <path d="M18.527 23.72v-5.126h5.196c1.128 0 2.05.923 2.05 2.05 0 1.128-.922 2.051-2.05 2.051h-4.17c-.575 0-1.026.451-1.026 1.026z"/>
            <path d="M34.592 19.824l-5.947 8.613a6.177 6.177 0 0 1-4.922 2.461h-5.196v-7.177c0 .574.451 1.025 1.026 1.025H24.4c.39 0 1.127-.246 1.517-.656l5.537-6.89a2.044 2.044 0 0 1 2.707-.267 2.067 2.067 0 0 1 .43 2.891z"/>
        </g>
        <path fill="#17ACE8" d="M6.262 34.433L.11 22.13a1.025 1.025 0 0 1 .459-1.376l2.267-1.134a3.08 3.08 0 0 1 4.127 1.376l4.318 8.636a3.075 3.075 0 0 1-1.376 4.127l-2.267 1.134a1.026 1.026 0 0 1-1.376-.459z"/>
        <path fill="#1689FC" d="M18.527 6.152c-3.383 0-6.22 2.837-6.22 6.221v1.094c0 .574.45 1.025 1.025 1.025h10.39c.575 0 1.026-.45 1.026-1.025v-1.094c0-3.384-2.837-6.22-6.22-6.22z"/>
        <path fill="#136EF1" d="M24.748 12.373v1.094c0 .574-.451 1.025-1.025 1.025h-5.196v-8.34c3.384 0 6.221 2.837 6.221 6.221z"/>
        <path fill="#17ACE8" d="M18.527 0c-2.255 0-4.17 1.846-4.17 4.102 0 2.255 1.915 4.101 4.17 4.101 2.256 0 4.17-1.846 4.17-4.101 0-2.256-1.914-4.102-4.17-4.102z"/>
        <path fill="#1689FC" d="M22.697 4.102c0 2.255-1.914 4.101-4.17 4.101V0c2.256 0 4.17 1.846 4.17 4.102z"/>
    </g>
</svg>
