<svg xmlns="http://www.w3.org/2000/svg" width="35" height="35" viewBox="0 0 35 35">
    <g fill="none" fill-rule="nonzero">
        <path fill="#F29C1F" d="M11.667 3.5H7a.583.583 0 0 1-.583-.583V.583C6.417.261 6.678 0 7 0h4.667c.322 0 .583.26.583.583v2.334a.583.583 0 0 1-.583.583z"/>
        <path fill="#E57E25" d="M16.333 3.5h-4.666a.583.583 0 0 1-.584-.583V.583c0-.322.262-.583.584-.583h4.666c.322 0 .584.26.584.583v2.334a.583.583 0 0 1-.584.583z"/>
        <path fill="#D25627" d="M9.333 5.833H4.667a.583.583 0 0 1-.584-.583V2.917c0-.323.262-.584.584-.584h4.666c.322 0 .584.261.584.584V5.25a.583.583 0 0 1-.584.583z"/>
        <path fill="#E64C3C" d="M14 5.833H9.333a.583.583 0 0 1-.583-.583V2.917c0-.323.261-.584.583-.584H14c.322 0 .583.261.583.584V5.25a.583.583 0 0 1-.583.583z"/>
        <g fill="#F29C1F">
            <path d="M18.667 5.833H14a.583.583 0 0 1-.583-.583V2.917c0-.323.261-.584.583-.584h4.667c.322 0 .583.261.583.584V5.25a.583.583 0 0 1-.583.583zM7 8.167H2.333a.583.583 0 0 1-.583-.584V5.25c0-.323.261-.583.583-.583H7c.322 0 .583.26.583.583v2.333A.583.583 0 0 1 7 8.167z"/>
        </g>
        <path fill="#E57E25" d="M11.667 8.167H7a.583.583 0 0 1-.583-.584V5.25c0-.323.261-.583.583-.583h4.667c.322 0 .583.26.583.583v2.333a.583.583 0 0 1-.583.584z"/>
        <path fill="#D25627" d="M16.333 8.167h-4.666a.583.583 0 0 1-.584-.584V5.25c0-.323.262-.583.584-.583h4.666c.322 0 .584.26.584.583v2.333a.583.583 0 0 1-.584.584z"/>
        <path fill="#E57E25" d="M21 8.167h-4.667a.583.583 0 0 1-.583-.584V5.25c0-.323.261-.583.583-.583H21c.322 0 .583.26.583.583v2.333a.583.583 0 0 1-.583.584z"/>
        <path fill="#E64C3C" d="M26.833 8.167H24.5a.583.583 0 0 1-.583-.584v-5.25c0-.322.261-.583.583-.583h2.333c.322 0 .584.26.584.583v5.25a.583.583 0 0 1-.584.584z"/>
        <path fill="#F0C419" d="M31.5 8.167h-2.333a.583.583 0 0 1-.584-.584v-5.25c0-.322.262-.583.584-.583H31.5c.322 0 .583.26.583.583v5.25a.583.583 0 0 1-.583.584z"/>
        <path fill="#24AE5F" d="M29.167 8.167h-2.334a.583.583 0 0 1-.583-.584v-7c0-.322.261-.583.583-.583h2.334c.322 0 .583.26.583.583v7a.583.583 0 0 1-.583.584z"/>
        <g fill="#3D6659">
            <path d="M30.917 15.167a.583.583 0 0 1-.584-.584V12.25a.583.583 0 1 1 1.167 0v2.333a.583.583 0 0 1-.583.584zM25.083 15.167a.583.583 0 0 1-.583-.584V12.25a.583.583 0 1 1 1.167 0v2.333a.583.583 0 0 1-.584.584zM19.25 15.167a.583.583 0 0 1-.583-.584V12.25a.583.583 0 1 1 1.166 0v2.333a.583.583 0 0 1-.583.584z"/>
        </g>
        <g fill="#ABC8D9">
            <path d="M12.833 15.167H10.5a.583.583 0 0 1-.583-.584v-1.166c0-.965.785-1.75 1.75-1.75s1.75.785 1.75 1.75v1.166a.583.583 0 0 1-.584.584zM5.833 15.167H3.5a.583.583 0 0 1-.583-.584v-1.166c0-.965.785-1.75 1.75-1.75s1.75.785 1.75 1.75v1.166a.583.583 0 0 1-.584.584z"/>
        </g>
        <g fill="#D0E8F9">
            <path d="M14 19.833H9.333a.583.583 0 0 1-.583-.583v-4.667c0-.322.261-.583.583-.583H14c.322 0 .583.26.583.583v4.667a.583.583 0 0 1-.583.583zM7 19.833H2.333a.583.583 0 0 1-.583-.583v-4.667c0-.322.261-.583.583-.583H7c.322 0 .583.26.583.583v4.667a.583.583 0 0 1-.583.583z"/>
        </g>
        <g fill="#ABC8D9">
            <path d="M32.083 26.833H29.75a.583.583 0 0 1-.583-.583v-1.167c0-.965.785-1.75 1.75-1.75s1.75.785 1.75 1.75v1.167a.583.583 0 0 1-.584.583zM12.833 26.833H10.5a.583.583 0 0 1-.583-.583v-1.167c0-.965.785-1.75 1.75-1.75s1.75.785 1.75 1.75v1.167a.583.583 0 0 1-.584.583zM5.833 26.833H3.5a.583.583 0 0 1-.583-.583v-1.167c0-.965.785-1.75 1.75-1.75s1.75.785 1.75 1.75v1.167a.583.583 0 0 1-.584.583z"/>
        </g>
        <path fill="#D75E72" d="M20.417 31.5h-3.5a.583.583 0 0 1-.584-.583v-2.334c0-.322.262-.583.584-.583h3.5c.322 0 .583.26.583.583v2.334a.583.583 0 0 1-.583.583z"/>
        <path fill="#E64C3C" d="M26.25 31.5h-3.5a.583.583 0 0 1-.583-.583v-2.334c0-.322.261-.583.583-.583h3.5c.322 0 .583.26.583.583v2.334a.583.583 0 0 1-.583.583z"/>
        <g fill="#D0E8F9">
            <path d="M33.25 31.5h-4.667a.583.583 0 0 1-.583-.583V26.25c0-.323.261-.583.583-.583h4.667c.322 0 .583.26.583.583v4.667a.583.583 0 0 1-.583.583zM14 31.5H9.333a.583.583 0 0 1-.583-.583V26.25c0-.323.261-.583.583-.583H14c.322 0 .583.26.583.583v4.667A.583.583 0 0 1 14 31.5zM7 31.5H2.333a.583.583 0 0 1-.583-.583V26.25c0-.323.261-.583.583-.583H7c.322 0 .583.26.583.583v4.667A.583.583 0 0 1 7 31.5z"/>
        </g>
        <g fill="#527F72">
            <path d="M32.667 19.833h-3.5a.583.583 0 0 1-.584-.583v-2.917A2.336 2.336 0 0 1 30.917 14a2.336 2.336 0 0 1 2.333 2.333v2.917a.583.583 0 0 1-.583.583zM26.833 19.833h-3.5a.583.583 0 0 1-.583-.583v-2.917A2.336 2.336 0 0 1 25.083 14a2.336 2.336 0 0 1 2.334 2.333v2.917a.583.583 0 0 1-.584.583zM21 19.833h-3.5a.583.583 0 0 1-.583-.583v-2.917A2.336 2.336 0 0 1 19.25 14a2.336 2.336 0 0 1 2.333 2.333v2.917a.583.583 0 0 1-.583.583z"/>
        </g>
        <g fill="#BDC3C7">
            <path d="M2.917 35a.583.583 0 0 1-.584-.583V33.25a.583.583 0 1 1 1.167 0v1.167a.583.583 0 0 1-.583.583zM32.083 35a.583.583 0 0 1-.583-.583V33.25a.583.583 0 1 1 1.167 0v1.167a.583.583 0 0 1-.584.583z"/>
        </g>
        <g fill="#8697CB">
            <path d="M34.417 33.833H.583A.583.583 0 0 1 0 33.25v-2.333c0-.323.261-.584.583-.584h33.834c.322 0 .583.261.583.584v2.333a.583.583 0 0 1-.583.583zM34.417 22.167H.583A.583.583 0 0 1 0 21.583V19.25c0-.323.261-.583.583-.583h33.834c.322 0 .583.26.583.583v2.333a.583.583 0 0 1-.583.584zM34.417 10.5H.583A.583.583 0 0 1 0 9.917V7.583C0 7.261.261 7 .583 7h33.834c.322 0 .583.26.583.583v2.334a.583.583 0 0 1-.583.583z"/>
        </g>
        <path fill="#F0C419" d="M23.917 28H19.25a.583.583 0 0 1-.583-.583v-2.334c0-.322.261-.583.583-.583h4.667c.322 0 .583.26.583.583v2.334a.583.583 0 0 1-.583.583z"/>
    </g>
</svg>
