<svg xmlns="http://www.w3.org/2000/svg" width="35" height="35" viewBox="0 0 35 35">
    <g fill="none" fill-rule="nonzero">
        <path fill="#EFEFEF" d="M14.778 12.056H0V.778C0 .348.348 0 .778 0H14c.43 0 .778.348.778.778v11.278z"/>
        <path fill="#F2BE07" d="M22.944 15.556V9.722l-4.053-7a.778.778 0 0 0-.673-.389h-3.44v9.723H0v3.5c0 .43.348.777.778.777h21.389c.43 0 .777-.348.777-.777z"/>
        <circle cx="31.5" cy="4.667" r="2.333" fill="#6EBAED"/>
        <path fill="#6EBAED" d="M32.667 7h-2.334A2.333 2.333 0 0 0 28 9.333V10.5c0 .43.348.778.778.778h5.444c.43 0 .778-.348.778-.778V9.333A2.333 2.333 0 0 0 32.667 7z"/>
        <path fill="#EFEFEF" d="M22.042 8.167H17.5a.389.389 0 0 1-.389-.39v-3.5c0-.214.174-.388.389-.388h2.069l2.473 4.278z"/>
        <path fill="#DFDDDC" d="M8.556 25.667h-3.5a.778.778 0 0 0-.778.777V35h4.278v-9.333z"/>
        <path fill="#E6E5E4" d="M14.778 35H8.556V22.556c0-.43.348-.778.777-.778H14c.43 0 .778.348.778.778V35z"/>
        <path fill="#C9C7C6" d="M25.667 27.222v-8.944c0-.215.174-.39.389-.39h.777c.215 0 .39.175.39.39v8.944h-1.556z"/>
        <path fill="#EF6662" d="M28.389 35H14.778v-8.167l2.058-2.058a.389.389 0 0 1 .664.275v1.783l2.058-2.058a.389.389 0 0 1 .664.275v1.783l2.059-2.058a.389.389 0 0 1 .663.275v1.783l2.059-2.058a.389.389 0 0 1 .664.275v1.783l2.058-2.058a.389.389 0 0 1 .664.275V35z"/>
        <path fill="#DFDDDC" d="M35 35h-6.611v-6.611h5.833c.43 0 .778.348.778.778V35z"/>
        <path fill="#9C9B9A" d="M12.444 32.667H10.89a.389.389 0 0 0-.389.389V35h2.333v-1.944a.389.389 0 0 0-.389-.39zM30.722 33.056h1.945V35h-1.945z"/>
        <path fill="#316596" d="M1.167 33.056h.777V35h-.777z"/>
        <path fill="#F2BE07" d="M1.556 33.444A1.401 1.401 0 0 1 .226 31.6l.96-2.882a.389.389 0 0 1 .738 0l.96 2.882a1.401 1.401 0 0 1-1.328 1.844z"/>
        <path fill="#DFDDDC" d="M14.778 3.889H0V.778C0 .348.348 0 .778 0H14c.43 0 .778.348.778.778v3.11z"/>
        <path fill="#F2BE07" d="M5.444 0v6.061c0 .347.42.52.664.275L7.114 5.33a.388.388 0 0 1 .55 0l1.005 1.006a.389.389 0 0 0 .664-.275V0H5.444z"/>
        <circle cx="3.889" cy="16.333" r="2.333" fill="#9C9B9A"/>
        <circle cx="8.556" cy="16.333" r="2.333" fill="#9C9B9A"/>
        <circle cx="17.889" cy="16.333" r="2.333" fill="#9C9B9A"/>
        <circle cx="8.556" cy="16.333" r="1" fill="#C9C7C6"/>
        <circle cx="17.889" cy="16.333" r="1" fill="#C9C7C6"/>
        <circle cx="3.889" cy="16.333" r="1" fill="#C9C7C6"/>
        <circle cx="1.556" cy="10.5" r="1" fill="#DFDDDC"/>
        <circle cx="3.111" cy="10.5" r="1" fill="#DFDDDC"/>
        <circle cx="4.667" cy="10.5" r="1" fill="#DFDDDC"/>
        <path fill="#316596" d="M17.889 10.5h-1.556a.389.389 0 1 1 0-.778h1.556a.389.389 0 1 1 0 .778z"/>
        <path fill="#E05551" d="M16.722 29.556h-.389a.389.389 0 1 1 0-.778h.39a.389.389 0 1 1 0 .778zM18.667 29.556h-.39a.389.389 0 1 1 0-.778h.39a.389.389 0 1 1 0 .778zM20.611 29.556h-.389a.389.389 0 1 1 0-.778h.39a.389.389 0 1 1 0 .778zM22.556 29.556h-.39a.389.389 0 1 1 0-.778h.39a.389.389 0 1 1 0 .778zM24.5 29.556h-.389a.389.389 0 1 1 0-.778h.389a.389.389 0 1 1 0 .778zM26.444 29.556h-.388a.389.389 0 1 1 0-.778h.388a.389.389 0 1 1 0 .778zM16.722 31.111h-.389a.389.389 0 1 1 0-.778h.39a.389.389 0 1 1 0 .778zM18.667 31.111h-.39a.389.389 0 1 1 0-.778h.39a.389.389 0 1 1 0 .778zM20.611 31.111h-.389a.389.389 0 1 1 0-.778h.39a.389.389 0 1 1 0 .778zM22.556 31.111h-.39a.389.389 0 1 1 0-.778h.39a.389.389 0 1 1 0 .778zM24.5 31.111h-.389a.389.389 0 1 1 0-.778h.389a.389.389 0 1 1 0 .778zM26.444 31.111h-.388a.389.389 0 1 1 0-.778h.388a.389.389 0 1 1 0 .778zM16.722 32.667h-.389a.389.389 0 1 1 0-.778h.39a.389.389 0 1 1 0 .778zM18.667 32.667h-.39a.389.389 0 1 1 0-.778h.39a.389.389 0 1 1 0 .778zM20.611 32.667h-.389a.389.389 0 1 1 0-.778h.39a.389.389 0 1 1 0 .778z"/>
        <g fill="#EFEFEF">
            <path d="M10.889 24.111H10.5a.389.389 0 1 1 0-.778h.389a.389.389 0 1 1 0 .778zM12.833 24.111h-.389a.389.389 0 1 1 0-.778h.39a.389.389 0 1 1 0 .778zM10.889 25.667H10.5a.389.389 0 1 1 0-.778h.389a.389.389 0 1 1 0 .778zM12.833 25.667h-.389a.389.389 0 1 1 0-.778h.39a.389.389 0 1 1 0 .778zM10.889 27.222H10.5a.389.389 0 1 1 0-.778h.389a.389.389 0 1 1 0 .778zM7 27.611H5.833a.389.389 0 1 1 0-.778H7a.389.389 0 1 1 0 .778zM7 29.167H5.833a.389.389 0 1 1 0-.778H7a.389.389 0 1 1 0 .778zM7 30.722H5.833a.389.389 0 1 1 0-.778H7a.389.389 0 1 1 0 .778zM7 32.278H5.833a.389.389 0 1 1 0-.778H7a.389.389 0 1 1 0 .778zM7 33.833H5.833a.389.389 0 1 1 0-.777H7a.389.389 0 1 1 0 .777zM12.833 27.222h-.389a.389.389 0 1 1 0-.778h.39a.389.389 0 1 1 0 .778zM10.889 28.778H10.5a.389.389 0 1 1 0-.778h.389a.389.389 0 1 1 0 .778zM12.833 28.778h-.389a.389.389 0 1 1 0-.778h.39a.389.389 0 1 1 0 .778zM10.889 30.333H10.5a.389.389 0 1 1 0-.777h.389a.389.389 0 1 1 0 .777zM12.833 30.333h-.389a.389.389 0 1 1 0-.777h.39a.389.389 0 1 1 0 .777z"/>
        </g>
        <path fill="#E05551" d="M22.556 32.667h-.39a.389.389 0 1 1 0-.778h.39a.389.389 0 1 1 0 .778zM24.5 32.667h-.389a.389.389 0 1 1 0-.778h.389a.389.389 0 1 1 0 .778zM26.444 32.667h-.388a.389.389 0 1 1 0-.778h.388a.389.389 0 1 1 0 .778z"/>
        <path fill="#EFEFEF" d="M33.444 30.333h-3.5a.389.389 0 1 1 0-.777h3.5a.389.389 0 1 1 0 .777zM33.444 31.889h-3.5a.389.389 0 1 1 0-.778h3.5a.389.389 0 1 1 0 .778zM33.444 33.444h-3.5a.389.389 0 1 1 0-.777h3.5a.389.389 0 1 1 0 .777z"/>
        <g fill="#316596">
            <path d="M5.444 24.5a.389.389 0 0 1-.388-.389v-.389a.389.389 0 1 1 .777 0v.39a.389.389 0 0 1-.389.388zM5.444 22.556a.389.389 0 0 1-.388-.39v-.388a.389.389 0 1 1 .777 0v.389a.389.389 0 0 1-.389.389zM5.444 20.611a.389.389 0 0 1-.388-.389v-.389a.389.389 0 1 1 .777 0v.39a.389.389 0 0 1-.389.388zM27.611 4.278h-.389a.389.389 0 1 1 0-.778h.39a.389.389 0 1 1 0 .778zM25.667 4.278h-.39a.389.389 0 1 1 0-.778h.39a.389.389 0 1 1 0 .778zM23.722 4.278h-.389a.389.389 0 1 1 0-.778h.39a.389.389 0 1 1 0 .778zM21.778 4.278h-.39a.389.389 0 1 1 0-.778h.39a.389.389 0 1 1 0 .778zM31.889 27.222a.389.389 0 0 1-.389-.389v-.389a.389.389 0 1 1 .778 0v.39a.389.389 0 0 1-.39.388zM31.889 25.278a.389.389 0 0 1-.389-.39V24.5a.389.389 0 1 1 .778 0v.389a.389.389 0 0 1-.39.389zM31.889 23.333a.389.389 0 0 1-.389-.389v-.388a.389.389 0 1 1 .778 0v.388a.389.389 0 0 1-.39.39zM31.889 21.389A.389.389 0 0 1 31.5 21v-.389a.389.389 0 1 1 .778 0V21a.389.389 0 0 1-.39.389zM31.889 19.444a.389.389 0 0 1-.389-.388v-.39a.389.389 0 1 1 .778 0v.39a.389.389 0 0 1-.39.388zM31.889 17.5a.389.389 0 0 1-.389-.389v-.389a.389.389 0 1 1 .778 0v.39a.389.389 0 0 1-.39.388zM31.889 15.556a.389.389 0 0 1-.389-.39v-.388a.389.389 0 1 1 .778 0v.389a.389.389 0 0 1-.39.389zM31.889 13.611a.389.389 0 0 1-.389-.389v-.389a.389.389 0 1 1 .778 0v.39a.389.389 0 0 1-.39.388z"/>
        </g>
    </g>
</svg>
