<svg xmlns="http://www.w3.org/2000/svg" xmlns:xlink="http://www.w3.org/1999/xlink" width="130" height="98" viewBox="0 0 150 123">
    <defs>
        <path id="a" d="M5.87 24.72c-2.032 0-4.209-.006-5.721-.006.554-1.421 2.092-5.819 3.523-9.926l.181-.065a1.758 1.758 0 0 0 1.063-2.23l-.222-.64c.886-2.545 1.599-4.588 1.801-5.12 0 0-1.246-.523-.024-3.195C7.231 1.876 7.693.712 8.267.177l.009 5.814a1.802 1.802 0 0 0 1.8 1.798h.004l.011 7.28a1.803 1.803 0 0 0 1.31 1.73c-1.032 3.266-2.189 6.78-2.689 7.915-.844.005-1.825.007-2.841.007z"/>
        <path id="c" d="M3.715.543A5.638 5.638 0 0 0 .581 7.865a5.639 5.639 0 0 0 7.323 3.134 5.638 5.638 0 0 0 3.134-7.322A5.64 5.64 0 0 0 3.715.543"/>
    </defs>
    <g fill="none" fill-rule="evenodd">
        <path fill="#676D6A" d="M97.468 75.807a5.797 5.797 0 0 0-5.797-5.797H58.86a5.797 5.797 0 0 0-5.796 5.797v17.145a5.797 5.797 0 0 0 5.796 5.797h32.812a5.797 5.797 0 0 0 5.797-5.797V75.807"/>
        <path fill="#31322F" d="M92.558 71.768v22.209l-26.367-.419 3.104-20.163 23.263-1.627"/>
        <path fill="#31322F" d="M71.148 72.36s1.776 22.828 1.395 22.701c-.38-.126-14.847-1.142-14.847-1.142l.76-21.558h12.692"/>
        <path fill="#A6DCF4" d="M123.562 82.153H26.867c-29.185 0-26.33-17.2-26.33-38.417 0-21.218-2.855-38.418 26.33-38.418h96.695c29.185 0 26.33 17.2 26.33 38.417 0 21.218 2.855 38.418-26.33 38.418"/>
        <g transform="translate(41.553 57.393)">
            <mask id="b" fill="#fff">
                <use xlink:href="#a"/>
            </mask>
            <path fill="#87674A" d="M.149 24.72H11.4V.178H.15z" mask="url(#b)"/>
        </g>
        <path fill="#87674A" d="M103.557 82.114c-1.017 0-1.997-.002-2.841-.007-.497-1.127-1.81-4.6-3.007-7.848h.069c.994-.002 1.8-.885 1.798-1.879l-.01-5.51.06-.019.01-5.714a1.766 1.766 0 0 0-.079-.01l-.006-3.88a1.31 1.31 0 0 1 .144-.008c1.032 0 1.511 1.354 2.58 3.692 1.223 2.672-.024 3.195-.024 3.195.577 1.513 5.963 15.25 7.028 17.981-1.513 0-3.69.007-5.722.007M49.82 57.57l-.032-22.67.441-.035.088 1.387 25.477-2-.088-1.387 2.438-.192-.11-1.747 17.878-.03h.003a1.8 1.8 0 0 1 1.8 1.797l.016 10.684h-.004l-44.329.075c-.994.002-1.8.81-1.798 1.804l.018 11.12c-.334.542-.533.947-.533.947a1.55 1.55 0 0 0-.48-.084c-.298 0-.55.113-.784.33"/>
        <path fill="#6D5B43" d="M51.63 65.182a1.802 1.802 0 0 1-1.8-1.798l-.01-5.814c.234-.218.487-.331.785-.331.148 0 .307.027.48.084 0 0 .199-.405.533-.947l.015 8.806h-.003"/>
        <path fill="#FFFFFE" d="M106.767 82.49l-.049-.001a.511.511 0 0 1-.461-.557c.017-.184 1.71-18.448.265-24.777-1.078-4.717-4.415-4.639-6.409-4.592-.237.005-.461.01-.654.006a.512.512 0 0 1 .025-1.023c.173.005.378 0 .606-.006 2-.047 6.165-.144 7.429 5.387 1.483 6.488-.172 24.343-.244 25.1a.512.512 0 0 1-.508.464"/>
        <path fill="#CDCDC9" d="M51.645 72.462c.001.993.81 1.799 1.803 1.797h44.33c.994-.002 1.8-.885 1.798-1.879l-.045-27.205a1.8 1.8 0 0 0-1.804-1.798l-44.329.075c-.994.002-1.8.81-1.798 1.804l.045 27.206"/>
        <path fill="#898E92" d="M89.041 62.078h-26.82c.56-.409 1.16-.96 1.816-1.689l23.232.05c.639.704 1.225 1.24 1.772 1.639m-35.446-.547l-.026-13.077c0-.25.203-.454.453-.454h43.114c.25 0 .454.205.454.454v12.908a4.782 4.782 0 0 1-.236-.646c-.297-1.072-.711-2.312-1.704-3.972l.002-.984a.384.384 0 0 0-.382-.383l-.508-.001a29.871 29.871 0 0 0-.62-.854l-.015-.02a16.409 16.409 0 0 0-.087-.167l1.233.002c.21 0 .383-.171.383-.381l.003-1.348a.384.384 0 0 0-.382-.384l-1.61-.003a.384.384 0 0 0-.383.382l-.001.425a8.209 8.209 0 0 0-.5-.697.776.776 0 0 0-.67-.277.808.808 0 0 0-.428.163l-1.461-.003h-.001a.382.382 0 0 0-.293.137.957.957 0 0 0-.102.001.803.803 0 0 0-.478.206.675.675 0 0 0-.014 1.004c.464.436.982 1.09 1.487 1.805h-.588a25.612 25.612 0 0 0-1.466-1.598l.002-1.176a.384.384 0 0 0-.382-.383l-1.61-.004a.384.384 0 0 0-.383.382l-.002 1.348c0 .21.171.383.382.384h.414c.328.287.685.646 1.05 1.042l-1.077-.002a9.364 9.364 0 0 0-.834-.584.797.797 0 0 0-.482-.113.788.788 0 0 0-.58.319.675.675 0 0 0-.13.429.378.378 0 0 0-.198-.056l-1.61-.003a.384.384 0 0 0-.383.381l-.003 1.348c0 .21.172.383.382.384l1.61.003c.21 0 .383-.172.383-.382l.003-1.247a.74.74 0 0 0 .154.126c.282.172.591.398.913.657v.467c-.001.21.17.382.38.383l.598.001c.3.277.6.566.89.854l-25.196-.053c.29-.287.59-.576.89-.85h.322c.21 0 .383-.171.384-.381v-.241c.377-.316.741-.593 1.07-.8l-.001 1.043c0 .21.17.383.381.383l1.61.004c.21 0 .383-.172.383-.382l.003-1.348a.384.384 0 0 0-.382-.383l-1.597-.004a.68.68 0 0 0-.127-.333.788.788 0 0 0-.646-.322.797.797 0 0 0-.417.116 9.07 9.07 0 0 0-.771.535l-1.092-.002c.37-.397.73-.756 1.059-1.037h.15c.21 0 .383-.172.383-.382l.003-1.348a.384.384 0 0 0-.382-.383l-1.61-.003a.384.384 0 0 0-.383.381l-.003 1.348c0 .028.003.056.01.082-.418.424-.848.904-1.265 1.394a.38.38 0 0 0-.2-.057h-.348c.49-.69.992-1.32 1.442-1.742a.675.675 0 0 0-.014-1.004.803.803 0 0 0-.728-.187.384.384 0 0 0-.345-.22l-1.368-.002a.815.815 0 0 0-.387-.097.776.776 0 0 0-.606.28 9.412 9.412 0 0 0-.703 1.02l.002-.824a.384.384 0 0 0-.382-.384l-1.609-.003a.384.384 0 0 0-.384.382L55.4 53.87c0 .21.171.383.382.383l1.481.003-.128.244-.016.02c-.2.267-.387.525-.562.774l-.778-.002a.383.383 0 0 0-.383.382l-.003 1.348c0 .028.003.055.009.08a14.884 14.884 0 0 0-1.495 3.613 5.123 5.123 0 0 1-.312.815m36.02-1.23c-.259-.204-.54-.44-.858-.718l.001-.747c.144.148.284.293.418.434.263.335.49.796.44 1.03m-27.97 0c-.05-.234.177-.695.44-1.03l.19-.2-.001.712c-.226.193-.434.366-.629.519m28.75-2.11c-.089 0-.261-.108-.452-.311a.133.133 0 0 0-.078-.04 39.98 39.98 0 0 0-1.103-1.09l.001-.803a42.418 42.418 0 0 1 1.174 1.414c.156.196.306.388.45.572.097.175.084.258.007.259m-29.528 0c-.077 0-.09-.084.007-.26.423-.543.91-1.151 1.409-1.735l-.002.763c-.306.294-.604.592-.885.88a.133.133 0 0 0-.078.04c-.19.203-.363.312-.451.312m-2.94-1.81a.048.048 0 0 1-.019-.004c.345-.748.73-1.52 1.116-2.174a.38.38 0 0 0 .201.057h.16c-.497.679-.982 1.418-1.404 2.097a.09.09 0 0 1-.054.023m35.35-.03a34.894 34.894 0 0 0-1.357-2.032.385.385 0 0 0 .258-.215c.378.627.756 1.374 1.098 2.107v.14"/>
        <path fill="#B8B9B6" d="M69.68 72.192l-.014-8.159 11.86-.02.013 8.159-11.86.02"/>
        <path fill="#4B515D" d="M55.4 53.87c0 .211.171.384.382.384l1.61.004c.21 0 .382-.172.382-.382l.003-1.348a.384.384 0 0 0-.382-.384l-1.609-.003a.384.384 0 0 0-.384.382L55.4 53.87M58.844 53.878c0 .21.171.383.381.383l1.61.004c.21 0 .383-.172.383-.382l.003-1.348a.384.384 0 0 0-.382-.383l-1.61-.004a.384.384 0 0 0-.383.382l-.002 1.348M62.287 53.885c0 .21.172.383.382.384l1.61.003c.21 0 .383-.171.383-.382l.003-1.348a.384.384 0 0 0-.382-.383l-1.61-.003a.384.384 0 0 0-.383.381l-.003 1.348M65.731 53.892c0 .21.171.383.382.384l1.61.003c.21 0 .382-.171.383-.382l.003-1.347a.384.384 0 0 0-.382-.384l-1.61-.003a.384.384 0 0 0-.383.382l-.003 1.347M69.175 53.9c0 .21.171.383.382.383l1.61.004c.21 0 .382-.172.383-.382l.002-1.348a.384.384 0 0 0-.382-.384l-1.609-.003a.384.384 0 0 0-.383.382l-.003 1.348M72.619 53.907c0 .21.171.383.381.383l1.61.004c.21 0 .383-.172.383-.382l.003-1.348a.384.384 0 0 0-.382-.383l-1.61-.004a.384.384 0 0 0-.383.382l-.002 1.348M76.062 53.914c0 .21.172.383.382.384l1.61.003c.21 0 .383-.171.383-.382l.003-1.348a.384.384 0 0 0-.382-.383l-1.61-.003a.384.384 0 0 0-.383.381l-.003 1.348M79.506 53.921c0 .21.172.384.382.384l1.61.003c.21 0 .382-.171.383-.382l.003-1.347a.384.384 0 0 0-.382-.384l-1.61-.003a.384.384 0 0 0-.383.382l-.003 1.347M82.95 53.929c0 .21.171.383.382.383l1.61.003c.21 0 .382-.17.383-.381l.002-1.348a.384.384 0 0 0-.381-.384l-1.61-.003a.384.384 0 0 0-.383.382l-.003 1.348M86.394 53.936c0 .21.171.383.382.384l1.609.003c.21 0 .383-.172.384-.382l.002-1.348a.384.384 0 0 0-.382-.383l-1.61-.004a.384.384 0 0 0-.383.382l-.002 1.348M89.837 53.943c0 .21.172.383.382.384l1.61.003c.21 0 .383-.171.383-.382l.003-1.348a.384.384 0 0 0-.382-.383l-1.61-.003a.384.384 0 0 0-.383.381l-.003 1.348M93.281 53.95c0 .21.172.383.382.384l1.61.003c.21 0 .383-.171.383-.381l.003-1.348a.384.384 0 0 0-.382-.384l-1.61-.003a.384.384 0 0 0-.383.382l-.003 1.348M55.393 57.023c0 .21.172.383.382.384l1.61.003c.21 0 .382-.171.383-.382l.003-1.348a.384.384 0 0 0-.382-.383l-1.61-.004a.383.383 0 0 0-.383.382l-.003 1.348M58.837 57.03c0 .21.171.383.382.384l1.61.003c.21 0 .382-.171.383-.382l.002-1.348a.384.384 0 0 0-.381-.383l-1.61-.003a.384.384 0 0 0-.383.381l-.003 1.348M62.28 57.038c0 .21.172.383.383.383l1.609.004c.21 0 .383-.172.384-.382l.002-1.348a.384.384 0 0 0-.382-.384l-1.61-.003a.383.383 0 0 0-.382.382l-.003 1.348M65.725 57.045c0 .21.17.383.381.383l1.61.004c.21 0 .383-.172.383-.382l.003-1.348a.384.384 0 0 0-.382-.383l-1.61-.004a.384.384 0 0 0-.383.382l-.002 1.348M69.168 57.052c0 .21.172.383.382.383l1.61.004c.21 0 .383-.171.383-.382l.003-1.348a.384.384 0 0 0-.382-.383l-1.61-.003a.384.384 0 0 0-.383.381l-.003 1.348M72.612 57.06c0 .21.171.382.382.383l1.61.003c.21 0 .382-.171.383-.382l.003-1.348a.384.384 0 0 0-.382-.383l-1.61-.003a.384.384 0 0 0-.383.381l-.003 1.348M76.056 57.067c0 .21.171.383.382.383l1.609.003c.21 0 .383-.17.384-.381l.002-1.348a.384.384 0 0 0-.382-.384l-1.609-.003a.384.384 0 0 0-.383.382l-.003 1.348M79.5 57.074c0 .21.17.383.381.383l1.61.004c.21 0 .383-.172.383-.382l.003-1.348a.384.384 0 0 0-.382-.383l-1.61-.004a.384.384 0 0 0-.383.382l-.002 1.348M82.943 57.081c0 .21.172.383.382.384l1.61.003c.21 0 .383-.171.383-.382l.003-1.348a.384.384 0 0 0-.382-.383l-1.61-.003a.384.384 0 0 0-.383.381l-.003 1.348M86.387 57.089c0 .21.171.382.382.383l1.61.003c.21 0 .382-.171.383-.382l.003-1.347a.384.384 0 0 0-.382-.384l-1.61-.003a.384.384 0 0 0-.383.382l-.003 1.348M89.83 57.096c0 .21.172.383.383.383l1.61.003c.21 0 .382-.17.383-.381l.002-1.348a.384.384 0 0 0-.381-.384l-1.61-.003a.384.384 0 0 0-.383.382l-.003 1.348M93.275 57.103c0 .21.171.383.382.383l1.609.004c.21 0 .383-.172.383-.382l.003-1.348a.384.384 0 0 0-.382-.383l-1.61-.004a.384.384 0 0 0-.383.382l-.002 1.348M55.387 59.989c0 .21.171.382.382.383l1.61.003c.21 0 .382-.171.383-.381l.003-1.348a.384.384 0 0 0-.382-.384l-1.61-.003a.384.384 0 0 0-.383.382l-.003 1.348M58.83 59.996c0 .21.172.383.383.383l1.609.004c.21 0 .383-.172.384-.382l.002-1.348a.384.384 0 0 0-.382-.383l-1.61-.004a.384.384 0 0 0-.382.382l-.003 1.348M89.825 60.061c0 .21.171.383.382.384l1.609.003c.21 0 .383-.171.383-.382l.003-1.348a.384.384 0 0 0-.382-.383l-1.61-.004a.384.384 0 0 0-.382.382l-.003 1.348M93.269 60.068c0 .21.17.383.381.384l1.61.003c.21 0 .383-.171.383-.382l.003-1.347a.384.384 0 0 0-.382-.384l-1.61-.003a.384.384 0 0 0-.383.382l-.002 1.347M55.408 50.044c0 .21.171.383.382.384l1.609.003c.21 0 .383-.171.384-.382v-.582a.384.384 0 0 0-.381-.384l-1.61-.003a.384.384 0 0 0-.383.382l-.001.582M58.852 50.051c0 .211.17.383.381.384l1.61.003c.21 0 .383-.171.383-.381l.002-.583a.384.384 0 0 0-.382-.383l-1.61-.004a.384.384 0 0 0-.383.382l-.001.582M62.295 50.059c0 .21.172.383.382.383l1.61.004c.21 0 .383-.172.383-.382l.001-.583a.384.384 0 0 0-.382-.383l-1.61-.004a.384.384 0 0 0-.382.382l-.002.583M65.74 50.066c-.001.21.17.383.38.383l1.61.004c.21 0 .383-.171.384-.382l.001-.583a.384.384 0 0 0-.382-.383l-1.61-.003a.384.384 0 0 0-.383.381v.583M69.183 50.073c0 .21.171.383.382.384l1.609.003c.21 0 .383-.171.384-.382v-.582a.384.384 0 0 0-.381-.384l-1.61-.003a.384.384 0 0 0-.383.382l-.001.582M72.627 50.08c0 .211.17.384.382.384l1.609.003c.21 0 .383-.17.383-.382l.002-.582a.384.384 0 0 0-.382-.383l-1.61-.004a.384.384 0 0 0-.383.382l-.001.582M76.07 50.088c0 .21.172.383.382.383l1.61.004c.21 0 .383-.172.383-.382l.001-.583a.384.384 0 0 0-.381-.383l-1.61-.003a.384.384 0 0 0-.383.381l-.002.583M79.514 50.095c0 .21.171.383.382.384l1.61.003c.21 0 .382-.171.383-.382l.001-.583a.384.384 0 0 0-.382-.383l-1.61-.003a.384.384 0 0 0-.383.381v.583M82.958 50.102c0 .21.171.383.382.384l1.61.003c.21 0 .382-.171.383-.382v-.582a.384.384 0 0 0-.381-.384l-1.61-.003a.384.384 0 0 0-.383.382l-.001.582M86.402 50.11c0 .21.171.383.382.383l1.609.003c.21 0 .383-.17.383-.381l.002-.583a.384.384 0 0 0-.382-.384l-1.61-.003a.384.384 0 0 0-.383.382l-.001.583M89.846 50.117c0 .21.17.383.381.383l1.61.004c.21 0 .383-.172.383-.382l.001-.583a.384.384 0 0 0-.381-.383l-1.61-.004a.384.384 0 0 0-.383.382l-.001.583M93.29 50.124c-.001.21.17.383.381.384l1.61.003c.21 0 .383-.171.383-.382l.001-.582a.384.384 0 0 0-.382-.384l-1.61-.003a.384.384 0 0 0-.382.382l-.002.582M62.275 60.003c0 .21.17.383.381.383l25.716.055c.21 0 .383-.172.384-.382l.003-1.348a.384.384 0 0 0-.382-.383l-25.716-.054a.384.384 0 0 0-.384.381l-.002 1.348"/>
        <path fill="#E1E8E4" d="M48.866 42.352l53.544-.029.118-1.012a1.91 1.91 0 0 0-1.914-1.908H50.892c-1.055.002-1.91.881-1.908 1.937l-.118 1.012"/>
        <path fill="#00A5A8" d="M51.923 46.242l-2.074-3.348 51.477-.027-2.11 3.375H51.923"/>
        <path fill="#4B515D" d="M102.362 42.292l-53.544.029 2.785 4.495h47.93l2.83-4.524zm-2.072 1.149l-1.392 2.227H52.242l-1.363-2.2 49.41-.027z"/>
        <path fill="#94968D" d="M57.398 68.654l-5.763-1.803-.009-5.714c.078-.011.157-.017.238-.017.501 0 1.065.214 1.68.515a6.41 6.41 0 0 0 .051-.104v.093c0 .25.205.454.455.454h8.17a5.89 5.89 0 0 1-1.275.723c-.792.316-1.612.599-2.36.747-.23.074-.478.286-.721.559.682.609 1.119 1.338.718 2.1l-1.184 2.447"/>
        <path fill="#71746F" d="M62.22 62.078h-8.17a.456.456 0 0 1-.455-.454v-.093c.124-.263.236-.539.312-.815.276-.993.652-2.13 1.495-3.612.037.172.19.302.373.303l1.61.003c.21 0 .382-.172.383-.382l.003-1.348a.384.384 0 0 0-.382-.383l-.832-.002c.175-.25.362-.507.562-.773l.016-.02.128-.245h.128c.21 0 .383-.171.383-.381l.001-.524c.234-.385.47-.733.703-1.02a.776.776 0 0 1 .672-.278c.11.01.22.04.321.095h-.241-.001a.384.384 0 0 0-.383.381l-.002 1.348c0 .137.072.257.18.326a24.752 24.752 0 0 0-1.116 2.174.048.048 0 0 0 .019.003.09.09 0 0 0 .054-.023c.422-.679.907-1.418 1.403-2.096l1.45.003h.002c.21 0 .382-.172.382-.382l.003-1.348a.38.38 0 0 0-.037-.164.821.821 0 0 1 .728.187.675.675 0 0 1 .014 1.004c-.45.423-.951 1.051-1.442 1.741l-1.26-.002h-.002a.384.384 0 0 0-.382.381l-.003 1.348c0 .21.171.383.382.384l1.61.003c.21 0 .382-.171.383-.382l.002-1.348a.383.383 0 0 0-.182-.326c.417-.49.847-.97 1.264-1.394.037.172.19.301.373.302l1.46.003c-.33.281-.69.64-1.059 1.037l-.403-.001a.383.383 0 0 0-.383.382l-.001.507a49.351 49.351 0 0 0-1.409 1.736c-.096.175-.084.259-.007.259.088 0 .26-.11.45-.312a.133.133 0 0 1 .079-.04c.281-.288.58-.586.885-.88v.078c0 .21.171.383.382.383l1.286.003c-.3.274-.6.563-.89.85h-.398-.001a.384.384 0 0 0-.383.381v.416l-.191.2c-.263.334-.49.795-.44 1.03.195-.153.403-.326.629-.52v.222c0 .21.17.383.381.383l1.38.003c-.655.73-1.255 1.28-1.815 1.689m-3.005-3.812a.384.384 0 0 0-.382.382l-.003 1.348c0 .21.171.383.382.383l1.609.004c.211 0 .383-.172.384-.382l.002-1.348a.384.384 0 0 0-.382-.383l-1.61-.004m-3.444-.007a.384.384 0 0 0-.382.382l-.003 1.348c0 .21.171.382.382.383l1.61.003c.21 0 .382-.171.383-.381l.003-1.348a.384.384 0 0 0-.382-.384l-1.61-.003m8.883-1.457l.002-1.107a.384.384 0 0 0-.382-.384h-.114a9.07 9.07 0 0 1 .771-.535.797.797 0 0 1 .482-.113.788.788 0 0 1 .58.319.68.68 0 0 1 .128.333h-.012-.001a.384.384 0 0 0-.383.382v.305c-.33.207-.694.484-1.071.8"/>
        <path fill="#4A4E4E" d="M57.392 54.258h-.129c.168-.316.34-.62.512-.906v.524c0 .21-.173.382-.383.382M60.836 54.265h-.001l-1.45-.003c.485-.664.982-1.27 1.444-1.704a.768.768 0 0 1 .355-.187.38.38 0 0 1 .037.164l-.003 1.348c0 .21-.172.382-.382.382m-1.812-.061a.383.383 0 0 1-.18-.326l.002-1.348c0-.21.173-.382.383-.382h.242c.027.015.053.031.079.05.34.237.41.683.158.995a8.522 8.522 0 0 0-.684 1.01M64.129 54.272l-1.46-.003a.384.384 0 0 1-.373-.302c.385-.392.757-.736 1.098-.998a.792.792 0 0 1 .55-.16.796.796 0 0 1 .53.257.673.673 0 0 1-.093 1 6.134 6.134 0 0 0-.252.206M57.385 57.41l-1.61-.003a.384.384 0 0 1-.373-.303c.314-.552.692-1.151 1.155-1.809l.832.002c.21 0 .382.173.382.383l-.003 1.348c0 .21-.173.382-.383.382M60.829 57.417l-1.61-.003a.384.384 0 0 1-.382-.384l.003-1.348c0-.21.172-.381.382-.381h.001l1.26.002a35.215 35.215 0 0 0-1.19 1.804c-.02.09.007.146.073.146.053 0 .132-.037.232-.124.426-.549.92-1.166 1.434-1.768.11.068.183.189.182.326l-.002 1.348c0 .21-.173.382-.383.382M63.95 57.424l-1.287-.003a.384.384 0 0 1-.382-.383v-.078a22.59 22.59 0 0 1 1.88-1.649h.115c.21 0 .383.173.382.384l-.002 1.107c-.232.194-.47.404-.707.622m-1.666-1.227v-.507c0-.21.173-.382.383-.382h.404c-.26.281-.525.582-.787.889M65.727 56.002v-.305c0-.21.173-.382.383-.382h.013a.684.684 0 0 1-.336.65l-.06.037M57.379 60.375l-1.61-.003a.384.384 0 0 1-.382-.383l.003-1.348c0-.21.172-.382.382-.382h.001l1.61.003c.21 0 .382.173.382.384l-.003 1.348c0 .21-.173.381-.383.381M60.823 60.383h-.001l-1.61-.004a.384.384 0 0 1-.381-.383l.003-1.348c0-.21.172-.382.382-.382l1.61.004c.21 0 .383.173.382.383l-.002 1.348c0 .21-.173.382-.383.382M64.037 60.39l-1.38-.004a.384.384 0 0 1-.382-.383v-.221c.322-.276.683-.595 1.104-.968.19-.168.974-.427 1.256-.427l.03.001a.81.81 0 0 1 .398.142c.34.236.011.62-.24.932-.271.337-.533.646-.786.927m-1.76-1.318v-.416c0-.21.173-.381.383-.381h.4c-.272.27-.536.539-.784.797"/>
        <path fill="#6D5B43" d="M99.566 66.87l-.009-5.743.079.01-.01 5.714-.06.019"/>
        <path fill="#94968D" d="M93.864 68.654l-1.183-2.446c-.402-.763.035-1.492.717-2.101-.243-.273-.491-.485-.72-.559-.75-.148-1.57-.43-2.36-.747a5.89 5.89 0 0 1-1.277-.723h8.095c.25 0 .454-.205.454-.454v-.262c.04.093.083.184.127.273.616-.3 1.18-.515 1.681-.515.054 0 .107.002.16.007l.008 5.743-5.702 1.784"/>
        <path fill="#71746F" d="M97.136 62.078H89.04c-.547-.4-1.133-.935-1.772-1.64l1.103.003h.001c.21 0 .382-.172.383-.382v-.476c.32.277.6.514.86.718.05-.235-.177-.696-.44-1.03-.134-.142-.274-.287-.418-.435v-.125a.384.384 0 0 0-.381-.383h-.121c-.29-.289-.59-.578-.89-.855l1.012.002h.001c.21 0 .382-.171.383-.382v-.342c.383.362.756.733 1.104 1.089.03.005.056.016.078.04.19.203.363.312.451.312.077 0 .09-.084-.007-.26a66.309 66.309 0 0 0-.45-.57c.07.072.167.117.275.117l1.61.003c.21 0 .382-.171.383-.381l.002-1.348a.384.384 0 0 0-.381-.384l-1.004-.002c-.505-.715-1.023-1.37-1.487-1.805a.675.675 0 0 1 .014-1.004.803.803 0 0 1 .58-.207.38.38 0 0 0-.09.244l-.003 1.348c0 .21.172.383.382.384l1.61.003a.38.38 0 0 0 .09-.01c.48.659.948 1.372 1.357 2.03l-.001.753c0 .21.171.383.382.383l1.609.004c.21 0 .383-.172.383-.382l.001-.364c.993 1.66 1.407 2.9 1.704 3.972.06.218.143.435.236.646v.262c0 .25-.205.454-.454.454m-3.482-3.74a.384.384 0 0 0-.383.383l-.002 1.347c0 .21.17.383.381.384l1.61.003c.21 0 .383-.171.383-.382l.003-1.347a.384.384 0 0 0-.382-.384l-1.61-.003m-3.444-.008a.384.384 0 0 0-.382.382l-.003 1.348c0 .21.171.383.382.384l1.609.003c.21 0 .383-.172.383-.382l.003-1.348a.384.384 0 0 0-.382-.383l-1.61-.004m-.317-1.026a42.418 42.418 0 0 0-1.129-1.358v-.201a.384.384 0 0 0-.381-.384h-.143a14.234 14.234 0 0 0-1.05-1.042l1.195.003c.21 0 .383-.172.384-.382v-.172c.478.472.98 1.028 1.466 1.597h-.018a.384.384 0 0 0-.383.382l-.003 1.348c0 .077.023.149.062.21m-3.505-.684a8.856 8.856 0 0 0-.913-.657.74.74 0 0 1-.154-.126v-.1a.383.383 0 0 0-.184-.328.675.675 0 0 1 .13-.43.788.788 0 0 1 .645-.321c.144 0 .289.037.417.116.264.161.544.36.834.584l-.39-.001a.384.384 0 0 0-.383.382l-.002.881m6.888-.41c-.342-.734-.72-1.48-1.098-2.108a.378.378 0 0 0 .034-.156l.003-1.348a.384.384 0 0 0-.382-.383h-.148a.797.797 0 0 1 .427-.163.776.776 0 0 1 .671.277c.166.205.333.44.5.697l-.002.923c0 .21.172.382.382.383h.377l.087.167.015.02c.222.296.428.58.62.855l-1.101-.003a.384.384 0 0 0-.384.382v.456"/>
        <path fill="#4A4E4E" d="M88.386 54.323h-.001l-1.195-.003a6.565 6.565 0 0 0-.309-.254.674.674 0 0 1-.092-1 .796.796 0 0 1 .595-.259c.172 0 .343.053.484.162.282.217.586.49.9.8v.172c0 .21-.172.382-.382.382M91.83 54.33h-.001l-1.61-.003a.384.384 0 0 1-.382-.384l.003-1.348a.38.38 0 0 1 .09-.244.783.783 0 0 1 .503.207c.475.446.987 1.075 1.487 1.761a.38.38 0 0 1-.09.011m.348-.226c-.21-.348-.42-.66-.624-.911a.678.678 0 0 1 .131-.976h.148c.21 0 .382.173.382.383l-.003 1.348a.378.378 0 0 1-.034.156M94.04 54.335l-.377-.001a.384.384 0 0 1-.382-.383l.002-.923c.256.394.51.84.757 1.307M85.32 55.84a.677.677 0 0 1-.183-.43c.11.068.184.19.184.328v.101M88.38 57.475h-.002l-1.012-.002c-.33-.305-.66-.594-.978-.85l.002-.882c0-.21.173-.382.382-.382h.391c.52.403 1.068.888 1.6 1.392l-.001.342c0 .21-.173.382-.383.382m.385-1.528c-.175-.201-.35-.397-.524-.585h.143c.21 0 .382.173.382.384v.201M91.823 57.482l-1.61-.003a.381.381 0 0 1-.275-.118l-.045-.056a.382.382 0 0 1-.062-.21l.003-1.347c0-.21.172-.382.382-.382h.019c.511.6 1.004 1.216 1.429 1.763.1.087.18.124.232.124.065 0 .092-.056.072-.146a35.512 35.512 0 0 0-1.145-1.74l1.004.002c.21.001.382.173.381.384l-.002 1.348c0 .21-.173.381-.383.381M95.267 57.49h-.001l-1.61-.004a.384.384 0 0 1-.381-.383l.001-.753a.153.153 0 0 0 .005.008.09.09 0 0 0 .054.023.048.048 0 0 0 .019-.003 27.227 27.227 0 0 0-.078-.167l.001-.456c0-.21.173-.382.383-.382l1.102.003c.34.486.633.94.888 1.368v.364c-.001.21-.173.382-.383.382M91.817 60.448h-.001l-1.61-.003a.384.384 0 0 1-.381-.384l.003-1.348c0-.21.172-.382.382-.382l1.61.004c.21 0 .383.173.382.383l-.003 1.348c0 .21-.172.382-.382.382M95.26 60.455l-1.61-.003a.384.384 0 0 1-.381-.384l.002-1.347c0-.21.173-.382.383-.382l1.61.003c.21 0 .383.173.382.384l-.003 1.347c0 .21-.172.382-.383.382M88.373 60.44l-1.104-.002c-.267-.295-.544-.62-.83-.976-.251-.313-.58-.696-.24-.932a.81.81 0 0 1 .428-.143c.282 0 1.066.26 1.256.427.323.286.611.541.874.77l-.001.475c0 .21-.173.382-.383.382m.385-1.605c-.162-.168-.33-.338-.502-.509h.12c.211.001.383.173.383.384v.125"/>
        <path fill="#25383A" d="M93.312 113.88c0 3.102-8.08 5.617-18.047 5.617s-18.047-2.515-18.047-5.616c0-3.102 8.08-5.616 18.047-5.616s18.047 2.514 18.047 5.616"/>
        <path fill="#374448" d="M55.33 63.944c-1.53 0-2.505-1.05-3.25.406L43.985 80.38a4.21 4.21 0 0 0-.362 2.826l6.791 16.906c1.072 2.162 2.75 3.703 5.02 3.2a4.21 4.21 0 0 0 3.2-5.019l-6.238-16.109 7.969-15.906c-1.458 1.744-1.051-.814-3.12-1.872a4.191 4.191 0 0 0-1.914-.463M95.19 63.944c1.53 0 2.504-1.05 3.25.406l8.096 16.031a4.21 4.21 0 0 1 .362 2.826l-6.792 16.906c-1.391 2.758-2.749 3.703-5.019 3.2a4.21 4.21 0 0 1-3.2-5.019l6.238-16.109-7.969-15.906c1.458 1.744 1.05-.814 3.12-1.872a4.19 4.19 0 0 1 1.913-.463"/>
        <path fill="#D2CDB4" d="M92.704 100.07c-2.296.592-9.08 2.065-17.439 2.065-8.358 0-15.142-1.473-17.438-2.065-3.897-1.004-7.26 3.364-7.26 7.408a7.415 7.415 0 0 0 7.414 7.415H92.55a7.415 7.415 0 0 0 7.415-7.415c0-4.043-3.363-8.412-7.26-7.408"/>
        <path fill="#374448" d="M91.048 91.592s-1.974-5.238-9.233-5.238c-2.863 0-4.974 2.496-6.443 2.474-1.51-.023-3.257-2.546-6.024-2.546-7.827 0-9.061 5.537-9.061 5.537-4.12 0-11.606 3.98-9.874 8.294 2.065 5.14 15.062 13.257 25.045 13.257 9.983 0 22.727-8.419 24.58-13.147 1.697-4.328-4.87-8.631-8.99-8.631"/>
        <path fill="#FFFEFE" d="M93.68 99.585c0-4.864-7.006-11.107-17.079-11.107s-19.4 6.245-19.4 11.108 8.167 7.897 18.24 7.896c10.072 0 18.239-3.034 18.239-7.897"/>
        <path fill="#F3B787" d="M75.479 91.71a1.852 1.852 0 0 1-1.845-1.706l-.312-3.958a1.852 1.852 0 0 1 3.693-.291l.312 3.957a1.852 1.852 0 0 1-1.848 1.998M87.884 103.673a.977.977 0 0 1-.977-.977v-4.918a.977.977 0 1 1 1.954 0v4.918c0 .54-.437.977-.977.977M63.222 103.673a.977.977 0 0 1-.977-.977v-4.918a.977.977 0 1 1 1.953 0v4.918c0 .54-.437.977-.976.977"/>
        <path fill="#F3B787" d="M87.45 99.866c0-7.472-5.455-13.54-12.065-13.54-6.611 0-11.874 6.068-11.874 13.54 0 7.472 5.359 12.133 11.97 12.133 6.61 0 11.97-4.661 11.97-12.133"/>
        <path fill="#6F3E2B" d="M84.8 95.79c.037-.301.927-.21 1.263-.21.37 0 .88-.226.993.795.278 2.504.312 2.164.369 4.028.085.88.026 1.41.026 2.164 0 7.472-5.36 12.133-11.97 12.133-6.427 0-11.669-4.406-11.957-11.515-.126-1.036-.078-2.095-.05-3.153.042-1.657.057-2.282.483-3.988.128-.516.612-.411 1.002-.51.26-.066 1.154-.08 1.198.158 1.918-3.906 5.334-6.881 9.652-6.881 4.354 0 7.083 3.023 8.99 6.978"/>
        <path fill="#6F3E2B" d="M83.166 117.166c0-3.271-3.411-6.533-7.618-6.532-4.208 0-7.618 3.264-7.618 6.536 0 3.27 3.412 5.311 7.619 5.31 4.207 0 7.618-2.042 7.617-5.314"/>
        <path fill="#87674A" d="M8.952 54.14l-6.4-7.704 6.003-5.082-.807-.97 3.031-2.524a2.524 2.524 0 0 1 .369-3.5 2.507 2.507 0 0 1 1.608-.581c.701 0 1.398.292 1.897.856l3.034-2.526.808.971 2.016-1.678.104 1.634-15.641 13.02 6.084 7.322-2.106.761m3.807-19.027a1.19 1.19 0 0 0-.953 1.893l1.822-1.517a1.196 1.196 0 0 0-.87-.376"/>
        <path fill="#374448" d="M26.876 72.416l20.2-16.814-21.903-26.36-20.2 16.814 21.903 26.36"/>
        <path fill="#FFFFFE" d="M8.93 46.181l17.142 20.51 15.757-13.169-17.143-20.51L8.93 46.182"/>
        <path fill="#676867" d="M19.066 42.21l4.958-4.144 1.096 1.327-9.916 8.288-1.097-1.327 4.959-4.144"/>
        <path fill="#BFBFBB" d="M16.954 49.97l-.594-.7 10.01-8.495.594.7-10.01 8.495M18.705 50.615l-.498-.586 9.312-7.901.593.7-9.005 7.642-.402.145M21.411 49.637l7.255-6.157.594.7-5.378 4.564-2.47.893M26.187 47.911l3.627-3.078.594.7-1.751 1.486-2.47.892M30.962 46.185"/>
        <path fill="#CCDDE6" d="M15.276 35.838l-1.824 1.517a1.19 1.19 0 0 1 .196-1.62 1.192 1.192 0 0 1 1.628.103zm-5.881 4.896l3.404 4.092 9.943-8.274-3.408-4.093-3.034 2.526a2.523 2.523 0 0 0-3.505-.275 2.524 2.524 0 0 0-.369 3.5l-3.031 2.524z"/>
        <path fill="#FFFEFE" d="M58.86 70.01l1.764-3.121c.833-1.584-2.194-2.53-3.286-3.05-2.277-1.085-3.87-3.153-4.958-.88l-1.66 2.998s-.644.946 4.046 3.366c3.879 2.002 4.093.687 4.093.687"/>
        <path fill="#4BA2F4" d="M18.813 4.585l27.329-1.18L47.4 2.251 76.075 0l2.069 32.673-28.674 2.251-1.261 1.155-27.327 1.18-2.07-32.674"/>
        <path fill="#374448" d="M48.21 36.079l1.26-1.155 2.056-.161L49.457 2.09l-2.057.16-1.195 1.097 2.004 32.732"/>
        <path fill="#455457" d="M46.205 3.347l-.063.058-1.947.06 2.07 32.673 1.944-.06-2.004-32.73"/>
        <path fill="#E3D7BA" d="M48.29 4.254l25.477-2 1.827 28.848-25.476 2L48.29 4.253"/>
        <path fill="#FAF8EC" d="M48.49 7.404l25.476-2 1.828 28.848-25.477 2L48.49 7.404"/>
        <path fill="#CDCDC9" d="M48.696 13.923c-.998 0-1.916-.291-2.511-.808-.412-.357-.646-.8-.676-1.279a.458.458 0 0 1 .914-.058c.015.233.137.45.362.645.487.423 1.348.641 2.246.57 1.515-.118 2.485-.936 2.442-1.625a.458.458 0 0 1 .914-.058c.083 1.305-1.36 2.446-3.284 2.597-.137.01-.273.016-.407.016M49.893 32.825c-.998 0-1.916-.291-2.511-.808-.412-.357-.646-.8-.676-1.279a.458.458 0 0 1 .914-.057c.015.232.137.449.362.644.487.423 1.348.641 2.246.57 1.515-.118 2.486-.936 2.442-1.625a.458.458 0 0 1 .914-.058c.083 1.305-1.36 2.446-3.284 2.597-.137.01-.273.016-.407.016"/>
        <path fill="#676867" d="M68.946 8.1l.139 2.228-14.551 1.247-.14-2.228L68.946 8.1"/>
        <path fill="#BABAB1" d="M54.647 15.289l-.108-1.14 14.789-1.396.107 1.14-14.788 1.396M54.982 17.536l-.105-1.142L69.5 15.047l.105 1.14-14.624 1.349M55.154 19.83l-.105-1.142 14.624-1.348.105 1.141-14.624 1.348M56.425 22.022l-.105-1.141 13.525-1.247.106 1.14-13.526 1.248M56.048 24.366l-.105-1.141 14.075-1.298.105 1.142-14.075 1.297M60.239 28.599l-.105-1.141 10.228-.943.105 1.141-10.228.943M60.411 30.893l-.105-1.141 10.228-.943.105 1.14-10.228.944M59.484 33.288l-.105-1.141 11.327-1.045.106 1.141-11.328 1.045"/>
        <path fill="#87674A" d="M127.476 76.512a5.642 5.642 0 0 1-5.235-3.538 5.638 5.638 0 0 1 3.133-7.323 5.601 5.601 0 0 1 2.087-.403 5.642 5.642 0 0 1 5.236 3.538 5.638 5.638 0 0 1-3.134 7.322 5.602 5.602 0 0 1-2.087.404"/>
        <path fill="#FFFFFE" d="M133.212 70.805l1.299-1.246a.45.45 0 0 0 .005-.647l-.802-.793a.48.48 0 0 0-.664-.006l-1.267 1.216 1.429 1.476"/>
        <g transform="translate(123.02 68.059)">
            <mask id="d" fill="#fff">
                <use xlink:href="#c"/>
            </mask>
            <path d="M3.715.543A5.638 5.638 0 0 0 .581 7.865a5.639 5.639 0 0 0 7.323 3.134 5.638 5.638 0 0 0 3.134-7.322A5.64 5.64 0 0 0 3.715.543" mask="url(#d)"/>
        </g>
        <path fill="#7D3926" d="M129.414 69.855l.02.003c.133.02.266.045.399.08.105.026.206.06.306.095l.039.012c.098.035.194.076.288.118.026.011.052.02.078.033.084.04.163.083.243.128.037.02.074.039.11.06.067.04.13.084.194.128.047.032.095.063.141.097.05.037.096.076.144.115.056.047.113.093.167.142l.099.097c.062.061.124.122.182.188.023.025.043.052.065.077.063.075.126.15.185.231l.035.052c.057.081.115.163.168.25.206.344.353.707.448 1.078l.006.02c.02.078.032.158.047.237.01.053.022.104.03.158.006.043.008.086.013.13.054.472.028.961-.097 1.449-.061.235-.144.46-.242.673l-.024.05c-.047.1-.098.197-.153.292l-.02.035-.01.02-.007.007a3.991 3.991 0 0 1-1.369 1.367 4.025 4.025 0 0 1-5.516-1.378 4.024 4.024 0 0 1 .55-4.85c.032-.033.064-.067.098-.1.049-.047.1-.094.152-.14.027-.024.056-.047.084-.07.094-.078.192-.152.294-.222.035-.024.07-.048.107-.071.031-.02.06-.043.093-.063l.084-.045.123-.065a4.049 4.049 0 0 1 1.665-.457l.026-.001c.25-.011.501.003.755.04"/>
        <path fill="#2D4774" d="M75.546 115.512c-3.416 0-6.187-.736-7.414-1.97a.516.516 0 1 1 .733-.728c1.006 1.012 3.628 1.665 6.681 1.665h.003c3.052 0 5.675-.654 6.682-1.665a.516.516 0 1 1 .732.729c-1.227 1.233-4 1.969-7.414 1.97h-.003"/>
        <path fill="#F3B787" d="M67.829 56.646c-1.04.74-2.546 2.201-3.65 3.364-.263.334-.541.737-.49.972.472-.372 1.016-.853 1.733-1.487.196-.174 1.031-.446 1.285-.426a.81.81 0 0 1 .398.142c.34.236.012.619-.24.932-1.532 1.907-2.772 2.897-3.878 3.339-.791.316-1.611.599-2.36.747-.401.13-.862.68-1.246 1.243a.18.18 0 0 0-.076.07c-.227.415-.568.302-2.383-.493-1.573-.688-1.868-1.517-1.795-1.898.278-.467.645-1.112.823-1.754.416-1.503 1.064-3.338 3.212-6.195l.015-.02c.432-.833.895-1.615 1.344-2.17a.808.808 0 0 1 1.072-.134c.339.238.41.684.157.996-.6.74-1.25 1.992-1.8 3.185.023.009.048 0 .073-.02.837-1.344 1.915-2.923 2.848-3.8a.791.791 0 0 1 .605-.206.803.803 0 0 1 .479.205.675.675 0 0 1 .013 1.005c-.832.782-1.613 1.815-2.405 3.09-.036.165.08.216.304.023 1.092-1.407 2.407-2.812 3.57-3.707a.797.797 0 0 1 .549-.158.795.795 0 0 1 .53.256.673.673 0 0 1-.093 1c-1.03.793-2.292 2.342-3.333 3.682-.103.489.492-.088.521-.093 1.102-1.128 2.288-2.222 3.364-2.88a.801.801 0 0 1 .483-.113.788.788 0 0 1 .58.32c.236.328.127.744-.21.983"/>
        <path fill="#FFFEFE" d="M91.683 70.01l-1.765-3.121c-.833-1.584 2.194-2.53 3.286-3.05 2.276-1.085 3.87-3.153 4.958-.88l1.66 2.998s.644.946-4.046 3.366c-3.879 2.002-4.093.687-4.093.687"/>
        <path fill="#B2B3A8" d="M9.026 81.579a15.98 15.98 0 0 1-1.48-.968l-1.69-4.861c.51.544 1.07 1.06 1.68 1.54l1.49 4.289M.664 60.812l-.566-1.628a1.758 1.758 0 0 1 .404-1.807c.032 1.173.083 2.32.162 3.435"/>
        <path fill="#87674A" d="M7.536 77.29a15.317 15.317 0 0 1-1.68-1.54L.664 60.812a77.625 77.625 0 0 1-.162-3.435c.18-.183.402-.33.659-.423l7.79-2.815 1.475 1.774-7.537 2.724a1.758 1.758 0 0 0-1.063 2.23l5.71 16.424"/>
        <path fill="#6D5B43" d="M10.426 55.913L8.952 54.14l2.106-.761 1.474 1.775-2.106.76"/>
        <path fill="#3D4742" d="M12.532 55.153l-1.474-1.775 2.985-1.079 1.48 1.772-2.991 1.082m23.548-8.51l-1.481-1.771.131-.048a1.762 1.762 0 0 1 1.354.066c.424.203.75.566.904 1.01l.176.505a1.757 1.757 0 0 0-.705.101l-.38.138"/>
        <path fill="#B3B2A8" d="M15.524 54.071L14.043 52.3l4.662-1.684.096.114.306-.26 2.304-.832-2.056 1.745.594.7 3.933-3.338 2.305-.833-4.736 4.019-5.927 2.141m8.397-3.034l4.736-4.018 2.305-.833-4.736 4.018-2.305.833m4.776-1.725l2.859-2.427-.594-.7 3.637-1.313 1.48 1.772-7.382 2.668"/>
        <path fill="#8E9086" d="M18.801 50.729l-.096-.114.402-.145-.306.259M19.949 52.081l-.594-.7 2.056-1.744 2.47-.893-3.932 3.337M21.451 51.93l4.736-4.019 2.47-.892-4.736 4.018-2.47.893M26.226 50.204l4.736-4.019.594.7-2.86 2.427-2.47.892"/>
        <path fill="#F3B787" d="M82.713 56.646c1.04.74 2.546 2.201 3.65 3.364.263.334.54.737.49.972-.472-.372-1.016-.853-1.733-1.487-.196-.174-1.031-.446-1.285-.426a.81.81 0 0 0-.398.142c-.34.236-.012.619.24.932 1.532 1.907 2.771 2.897 3.878 3.339.791.316 1.611.599 2.36.747.401.13.862.68 1.246 1.243.034.018.06.04.076.07.227.415.568.302 2.383-.493 1.572-.688 1.867-1.517 1.795-1.898-.278-.467-.645-1.112-.823-1.754-.416-1.503-1.065-3.338-3.212-6.195l-.016-.02c-.432-.833-.894-1.615-1.343-2.17a.81.81 0 0 0-1.072-.134c-.34.238-.41.684-.157.996.599.74 1.25 1.992 1.8 3.185-.023.009-.048 0-.073-.02-.837-1.344-1.915-2.923-2.848-3.8a.791.791 0 0 0-.605-.206.803.803 0 0 0-.479.205.674.674 0 0 0-.013 1.005c.832.782 1.613 1.815 2.405 3.09.036.165-.081.216-.305.023-1.092-1.407-2.406-2.812-3.568-3.707a.798.798 0 0 0-.55-.158.796.796 0 0 0-.53.256.673.673 0 0 0 .093 1c1.03.793 2.292 2.342 3.333 3.682.102.489-.492-.088-.522-.093-1.101-1.128-2.287-2.222-3.364-2.88a.801.801 0 0 0-.482-.113.789.789 0 0 0-.58.32c-.236.328-.127.744.209.983"/>
        <path fill="#0093D7" d="M2.89 58.637l33.569-12.13a1.757 1.757 0 0 1 2.257 1.076l7.753 22.303a1.758 1.758 0 0 1-1.063 2.23l-33.57 12.13A1.757 1.757 0 0 1 9.58 83.17L1.826 60.867a1.758 1.758 0 0 1 1.063-2.23"/>
        <path fill="#FFFFFE" d="M3.487 60.29l7.753 22.303 33.57-12.13-7.754-22.303-33.57 12.13"/>
        <path fill="#D8D9D7" d="M11.427 72.951a.44.44 0 0 1-.148-.853l9.684-3.47a.44.44 0 0 1 .296.827l-9.683 3.47a.442.442 0 0 1-.149.026M12.23 74.975a.44.44 0 0 1-.149-.853l9.684-3.47a.44.44 0 1 1 .296.828l-9.683 3.47a.442.442 0 0 1-.149.025M13.031 77a.44.44 0 0 1-.148-.853l9.684-3.47a.44.44 0 1 1 .296.827l-9.684 3.47a.436.436 0 0 1-.148.026M12.207 66.465l-.14-.413 6.55-2.225.14.413-6.55 2.225M11.632 64.77l-.14-.414 6.55-2.224.14.413-6.55 2.225M11.006 62.927l-.14-.413 6.55-2.225.14.414-6.55 2.224"/>
        <path fill="#82838A" d="M11.403 60.457c.639-.217 1.383.034 2.136.512l-.35.413c-.665-.416-1.205-.557-1.614-.418l-.172-.507M14.815 62.798a15.615 15.615 0 0 0-.629-.58l.304-.452c.255.22.506.454.748.692l-.423.34M16.485 64.432a4.554 4.554 0 0 1-.634-.562l.395-.362c.128.14.282.279.453.413l-.214.51M18.8 65.584a7.485 7.485 0 0 1-1.285-.517l.359-.419c.382.186.782.34 1.166.446l-.24.49"/>
        <path fill="#AAACAF" d="M13.122 68.744l-1.537-.306 1.033-1.178.137.404 6.424-2.182-.421-1.242.326-.11-.14-.414-.327.111-.435-1.282.327-.11-.14-.414-.327.111-.486-1.43.327-.11-.14-.414-.327.111-.49-1.443-.404.137.305-1.537 1.179 1.033-.404.137 2.483 7.313-7.1 2.411.137.404"/>
        <path fill="#96999E" d="M18.758 64.24l-.14-.413.326-.111.14.413-.326.111M18.182 62.545l-.14-.413.326-.111.14.413-.326.111M17.556 60.703l-.14-.414.327-.11.14.413-.327.11"/>
        <path fill="#FFFFFE" d="M19.59 66.204a.59.59 0 1 1 0-1.181.59.59 0 0 1 0 1.181"/>
        <path fill="#D82749" d="M19.59 64.79a.818.818 0 0 0-.739.46.824.824 0 1 0 .739-.46zm0 .467a.358.358 0 0 1 0 .714.358.358 0 0 1-.115-.695.354.354 0 0 1 .114-.02z"/>
        <path fill="#FFFFFE" d="M13.9 62.29a.59.59 0 1 1-.001-1.18.59.59 0 0 1 0 1.18"/>
        <path fill="#E06938" d="M13.899 60.875a.825.825 0 1 0 .266 1.605.825.825 0 0 0-.266-1.605zm0 .467a.358.358 0 0 1 0 .714.358.358 0 0 1 0-.714z"/>
        <path fill="#FFFFFE" d="M17.304 65.095a.59.59 0 1 1 0-1.182.59.59 0 0 1 0 1.182"/>
        <path fill="#1F85A5" d="M17.303 63.68a.825.825 0 1 0 0 0zm0 .467a.358.358 0 0 1 0 .714.358.358 0 0 1-.115-.695.354.354 0 0 1 .115-.02z"/>
        <path fill="#FFFFFE" d="M15.546 63.805a.59.59 0 1 1 0-1.181.59.59 0 0 1 0 1.181"/>
        <path fill="#83B841" d="M15.545 62.39a.825.825 0 1 0 .265 1.605.825.825 0 0 0-.265-1.604zm0 .468a.358.358 0 0 1 .115.695.358.358 0 1 1-.115-.695z"/>
        <path fill="#FFFFFE" d="M20.573 54.072l7.753 22.303 16.483-5.912-7.753-22.303-16.483 5.912"/>
        <path fill="#F3D646" d="M30.623 53.443c2.424-.89 4.965.316 5.82 2.643a4.472 4.472 0 0 1-2.647 5.753 4.537 4.537 0 0 1-3.457-.13l1.832-4.053-1.548-4.213"/>
        <path fill="#D7552B" d="M29.964 53.056l1.503 4.09-4.165 1.53c-.824-2.243.42-4.796 2.662-5.62"/>
        <path fill="#4EBABD" d="M31.717 57.63l-1.944 3.908c-.876-.362-1.735-1.242-2.162-2.406l4.106-1.502"/>
        <path fill="#B7C6D3" d="M19.388 54.466L27.14 76.77l2.651-.905-7.753-22.303-2.651.905"/>
        <path fill="#D4E4EC" d="M19.109 57.305a.44.44 0 0 1-.14-.856l4.436-1.485a.44.44 0 0 1 .279.834l-4.436 1.485a.434.434 0 0 1-.14.022M20.36 60.405a.44.44 0 0 1-.139-.856l4.436-1.485a.44.44 0 0 1 .279.834L20.5 60.382a.437.437 0 0 1-.14.023M24.2 72.29a.44.44 0 0 1-.14-.856l4.436-1.485a.44.44 0 0 1 .28.834l-4.436 1.484a.44.44 0 0 1-.14.023M25.452 75.39a.44.44 0 0 1-.14-.856l4.436-1.485a.44.44 0 0 1 .28.833l-4.436 1.485a.443.443 0 0 1-.14.023"/>
        <path fill="#D8D9D7" d="M29.312 66.626a.44.44 0 0 1-.149-.854l9.684-3.47a.441.441 0 0 1 .562.266.44.44 0 0 1-.265.562L29.46 66.6a.441.441 0 0 1-.148.026M30.113 68.65a.44.44 0 0 1-.148-.853l9.684-3.47a.44.44 0 0 1 .296.827l-9.684 3.47a.44.44 0 0 1-.148.026M30.915 70.675a.44.44 0 0 1-.148-.854l9.684-3.47a.44.44 0 0 1 .296.828l-9.684 3.47a.44.44 0 0 1-.148.026"/>
        <path fill="#87674A" d="M113.14 55.558l-3.184-1.563-.882-10.35-6.322-20.056 25.487-8.006 2.503 2.657-23.534 7.391 4.655 14.822 1.277 15.105"/>
        <path fill="#8CA73D" d="M118.829 55.647c-.015.027-.041.05-.068.055l-1.878.553a.113.113 0 0 1-.14-.075l-9.688-30.734a.113.113 0 0 1 .074-.143l1.867-.588a.113.113 0 0 1 .142.074l9.699 30.77c.009.03.006.061-.008.088"/>
        <path fill="#E3D7BA" d="M107.208 25.631l9.623 30.64 2.327 2.479 13.916-38.033-2.327-2.478-23.539 7.392"/>
        <path fill="#FFFFFE" d="M109.536 28.11l9.622 30.64 23.539-7.393-9.623-30.64-23.538 7.393"/>
        <path fill="#676867" d="M122.613 28.351l7.407-2.326.608 1.977-14.813 4.652-.609-1.977 7.407-2.326"/>
        <path fill="#18D2A6" d="M121.216 57.75a.102.102 0 0 1-.067.055l-2.095.62-.008.001-.018.002h-.023l-.018-.005-.022-.009-.028-.022-.002-.002-2.394-2.693-.023-.041-9.483-30.085a.113.113 0 0 1 .053-.133l.021-.01a.113.113 0 0 1 .12.033l2.264 2.547 2.061-.65a.113.113 0 0 1 .143.075l9.527 30.23c.01.028.007.06-.008.086"/>
        <path fill="#F7CB27" d="M110.647 25.794l1.95-.167 2.656 31.014-1.953.13-2.653-30.977"/>
        <path fill="#E3D7BA" d="M110.642 26.018l2.61 30.87 1.732 2.927 21.877-34.08-1.634-1.797-12.293 1.04-12.292 1.04"/>
        <path fill="#FFFFFE" d="M112.117 27.785l2.707 32.001 12.292-1.04 12.292-1.04-2.707-32-12.292 1.04-12.292 1.04"/>
        <path fill="#676867" d="M132.722 30.248l.162 2.062-14.537 1.253-.163-2.063 14.538-1.252"/>
        <path fill="#BFBFBB" d="M118.49 37.021l-.104-1.098 14.774-1.39.103 1.097-14.774 1.391M118.848 39.098l-.101-1.097 14.61-1.347.1 1.098-14.61 1.346M119.044 41.221l-.102-1.098 14.61-1.346.101 1.098-14.61 1.346M120.337 43.242l-.101-1.098 13.511-1.245.102 1.098-13.512 1.245M119.984 45.415l-.102-1.098 14.06-1.296.102 1.098-14.06 1.296M124.218 49.306l-.102-1.098 10.218-.942.101 1.098-10.217.942M124.413 51.428l-.101-1.098 10.218-.942.1 1.098-10.217.942M123.51 53.651l-.1-1.098 11.315-1.042.101 1.098-11.315 1.042M123.706 55.774l-.1-1.098 11.315-1.043.1 1.098-11.315 1.043"/>
        <path fill="#FFD702" d="M114.43 27.748l2.752 32.145a.227.227 0 0 1-.158.235l-.053.01-1.953.13-.012-.002-.055-.007-.026-.006a.218.218 0 0 1-.06-.034l-.01-.006a.232.232 0 0 1-.05-.062L113.055 57a.224.224 0 0 1-.028-.091l-2.653-30.977a.227.227 0 0 1 .14-.23l.018-.006a.227.227 0 0 1 .244.073l1.578 1.93 1.83-.157a.227.227 0 0 1 .246.207"/>
        <path fill="#C0BDD0" d="M115.697 56.588a.567.567 0 0 1-.054-1.132l2.058-.2a.567.567 0 1 1 .11 1.128l-2.058.202-.056.002M115.579 54.365a.567.567 0 0 1-.055-1.132l2.058-.2a.567.567 0 1 1 .11 1.129l-2.058.2-.055.003M113.875 35.646a.567.567 0 0 1-.054-1.132l2.057-.201a.567.567 0 1 1 .11 1.129l-2.057.201-.056.003M113.756 33.423a.568.568 0 0 1-.054-1.132l2.057-.201a.566.566 0 1 1 .11 1.129l-2.057.201-.056.003"/>
        <path fill="#FFFFFE" d="M116.644 73.765l-2.937-.99-2.973-1 2.863-8.538 2.976 1 2.934.988-2.863 8.54zm-.812-11.442l1.244.418 1.206.405a.337.337 0 0 1-.218.64l-1.202-.406-1.245-.42a.337.337 0 0 1-.214-.426.34.34 0 0 1 .43-.21zm4.825.766l-3.321-1.117-3.362-1.13a.78.78 0 0 0-.992.49l-4.275 12.731a.78.78 0 0 0 .492.99l3.361 1.132 3.321 1.117c.411.14.854-.08.993-.49l4.275-12.732a.781.781 0 0 0-.492-.99z"/>
        <path fill="#4B515D" d="M118.282 63.146l-1.206-.405-1.244-.418a.34.34 0 0 0-.429.21.337.337 0 0 0 .214.428l1.245.419 1.202.406a.337.337 0 0 0 .218-.64"/>
        <path fill="#00A5A8" d="M116.573 64.237l-2.976-1-2.863 8.538 2.973 1 2.937.99 2.863-8.54-2.934-.988"/>
        <path fill="#4B515D" d="M112.882 75.225l-.02-.005a.855.855 0 0 1-.537-1.081.858.858 0 0 1 1.083-.538l.02.01a.852.852 0 0 1-.546 1.614"/>
    </g>
</svg>
