<svg xmlns="http://www.w3.org/2000/svg" width="146" height="70" viewBox="0 0 186 91">
    <g fill="none" fill-rule="evenodd">
        <path fill="#332A2B" d="M30.286 2.114l.362-.169c-.088-.007-.161-.075-.211-.134a1.328 1.328 0 0 1-.314-.704c-.125-.096-.368-.032-.532.008.008.432.287.721.695.999"/>
        <path fill="#483D3D" d="M31.705.818a1.01 1.01 0 0 0-.183-.58c-.122-.16-.317-.262-.507-.233a.448.448 0 0 0-.367.415.548.548 0 0 0 .212.424c.122.101.27.158.415.213-.155-.11-.372-.434-.297-.507.156-.109.424.168.46.397.1-.017.167-.111.267-.129"/>
        <path fill="#483D3D" d="M31.705 1.6c-.066-.395-.438-.65-.728-.5-.29.152-.422.669-.258 1.014.301-.115.685-.4.986-.514"/>
        <path fill="#BDBDBA" d="M32.17 90.886c-8.434 0-15.26-.94-15.26-2.105-.001-1.167 6.859-2.117 15.322-2.122h.064c8.434 0 15.26.941 15.26 2.105.001 1.168-6.859 2.118-15.322 2.122h-.063"/>
        <path fill="#ECE4D1" d="M46.594 33.169c2.228-1.828.034-3.933-1.029-5.573-1.562-2.41-1.936-4.823-2.36-7.603-.323-2.124-2.428-3.518-4.436-2.96-7.12 1.976 1.065 13.103 3.882 15.72 1.13 1.05 2.549 1.556 3.938.42l.005-.004"/>
        <path fill="#ECE4D1" d="M56.785 22.193a96.23 96.23 0 0 1-4.514 2.311 76.687 76.687 0 0 1-4.449 1.956c-1.352.543-2.904.893-4.18 1.577-1.299.695-1.753 2.25-1.016 3.474 1.873 3.109 6.363-.414 8.368-1.598 2.495-1.473 4.848-3.105 7.131-4.83a5.124 5.124 0 0 1-1.34-2.89"/>
        <path fill="#ED9E92" d="M63.235 19.578a1.125 1.125 0 0 0-1.58-.375l-.014.009a119.88 119.88 0 0 1-2.46 1.539 3.686 3.686 0 0 0 1.366 2.499c.828-.704 1.648-1.421 2.463-2.148.423-.374.53-1.021.225-1.524"/>
        <path fill="#6FA5A9" d="M57.918 21.136c-.282.23-.565.46-.85.687.099 1.3.496 2.555 1.117 3.54.334-.37.666-.744.997-1.121-.7-.741-1.175-1.89-1.264-3.106"/>
        <path fill="#ED9E92" d="M59.212 20.9c.038-.354.158-.802.468-.82.268-.016.443.323.503.623.045.223.063.453.053.68-.015.34-.144.738-.435.802-.243.054-.48-.173-.564-.44-.084-.268-.055-.563-.025-.845"/>
        <path fill="#ECE4D1" d="M17.875 33.17c-2.232-1.824-.038-3.931 1.024-5.571 1.56-2.411 1.933-4.823 2.354-7.603.322-2.124 2.427-3.52 4.437-2.965 7.13 1.97-1.052 13.1-3.87 15.72-1.13 1.05-2.55 1.558-3.94.424l-.005-.004"/>
        <path fill="#ECE4D1" d="M7.677 22.193a95.86 95.86 0 0 0 4.515 2.31c1.46.695 2.943 1.35 4.45 1.953 1.352.542 2.903.891 4.18 1.575 1.299.694 1.755 2.25 1.02 3.477-1.87 3.113-6.362-.408-8.367-1.592-2.496-1.472-4.85-3.104-7.134-4.828a5.133 5.133 0 0 0 1.336-2.895"/>
        <path fill="#ED9E92" d="M2.287 19.58a1.125 1.125 0 0 1 1.579-.378l.014.01c.806.517 1.629 1.03 2.46 1.536A3.688 3.688 0 0 1 4.98 23.25c-.829-.704-1.65-1.42-2.465-2.146a1.21 1.21 0 0 1-.227-1.524"/>
        <path fill="#6FA5A9" d="M6.546 21.136c.283.23.567.46.852.686-.098 1.3-.495 2.555-1.116 3.542-.334-.37-.667-.744-.998-1.12.7-.742 1.175-1.892 1.262-3.108"/>
        <path fill="#ED9E92" d="M6.31 20.899c-.038-.354-.158-.801-.468-.819-.269-.016-.443.323-.503.624a2.842 2.842 0 0 0-.052.68c.015.34.144.737.435.801.243.054.48-.174.564-.441.084-.268.055-.563.024-.845"/>
        <path fill="#E5998D" d="M40.616 44.855c-.307-1.011-.822-1.889-1.66-2.588-1.297-1.083-2.972-1.351-4.405-.701-1.242.562-2.212 1.768-2.63 3.27-.487 1.744-.08 3.29.518 4.95a64.539 64.539 0 0 1 3.27 13.593c.206 1.612.15 3.68 1.828 4.182 1.105.33 2.19-.456 2.424-1.758.74-4.125 1.2-8.34 1.25-12.592.026-2.147-.052-4.3-.245-6.446a9.476 9.476 0 0 0-.35-1.91"/>
        <path fill="#ECECF1" d="M35.008 83.75c.058.475.135.946.207 1.42.083.546.084 1.58.084 1.58.081.541.62.962 1.277.966.715.004 1.3-.489 1.305-1.1v-.045c.01-1.14.097-3 .164-4.14a6.067 6.067 0 0 1-3.17.13c.042.397.084.794.133 1.19"/>
        <path fill="#E5998D" d="M39.262 61.942a2.908 2.908 0 0 0-1.513-.627c-1.728-.19-2.888 1.011-3.116 2.48a70.338 70.338 0 0 0-.49 17.421 5.476 5.476 0 0 0 3.086-.137 72.37 72.37 0 0 1 .95-8.443c.35-2.01.789-4.008 1.32-5.984.427-1.585 1.357-3.408-.237-4.71"/>
        <path fill="#0093D7" d="M37.736 82.171c4.754-15.46 3.421-29.008 2.923-43.069-3.444.738-10.103 2.95-10.01 2.87.327 6.267 3.088 11.805 3.282 19.302.141 5.498-1.591 6.073.302 20.688.976.508 2.526.644 3.503.21"/>
        <path fill="#E5E5E0" d="M42.183 89.41c-.057-.013-.133.003-.191.005a.177.177 0 0 0-.149.08c-.054.094-.187.154-.33.15a37.167 37.167 0 0 1-5.209-.535c-.4-.07-.816-.156-1.13-.337-.184.05-.316.166-.297.305.019.14.184.264.38.287l.488.057c.777.091 1.554.185 2.335.261.75.073 1.507.134 2.266.145.331.005.664 0 .995-.023.149-.01.297-.025.444-.045.188-.025.4-.027.475-.178a.123.123 0 0 0-.033-.15.11.11 0 0 0-.044-.022"/>
        <path fill="#82B3B4" d="M38.097 87.99c.07.094.188.16.303.223l.54.298c.118.064.235.129.366.174.264.093.563.101.853.074-.826-.182-1.554-.458-2.068-1.043-.066.08-.057.19.006.274"/>
        <path fill="#E5E5E0" d="M37.771 85.602c.184.181.297.489.27.749a3.412 3.412 0 0 1-.9.308l-.152-.815c.228-.083.554-.158.782-.242M34.347 86.6c.191-.074.271-.19.292-.302.02-.111-.009-.224.006-.336.017-.126.106-.246.23-.36-.286.02-.556.106-.716.218-.22.153-.277.341-.31.523a2.626 2.626 0 0 0-.03.305c.17.026.385.006.528-.049"/>
        <path fill="#82B3B4" d="M40.121 89.065a.874.874 0 0 0-.408-.543c-.154-.081-.325-.097-.488-.144-.258-.075-.495-.23-.72-.399a6.486 6.486 0 0 1-1.312-1.31c-.05-.057-.088-.22-.138-.276-.531-.072-.768.767-1.411.182-.34-.413-.136-.85-.146-.959a.272.272 0 0 0-.148-.007c-.055.14-.095.288-.103.443-.007.138.007.276-.003.414-.009.137-.045.28-.13.37-.064.067-.16.092-.237.06l-.002.057c.322.32.778.433 1.174.276.24-.096.481-.285.727-.21.105.032.197.11.285.185l1.8 1.547-1.202.65c.79.184 1.586.327 2.387.429l.018-.032c.102-.22.123-.493.057-.733"/>
        <path fill="#6FA5A9" d="M36.892 86.716c-.26-.065-.516.098-.771.181-.42.136-.904.039-1.245-.238-.003.17.004.339.014.508.594.213 1.089.68 1.336 1.257l.015.004c.525.13 1.055.244 1.587.345l1.274-.56a6649.5 6649.5 0 0 0-1.908-1.337.936.936 0 0 0-.302-.16"/>
        <path fill="#82B3B4" d="M33.818 87.716c.012.204.031.407.065.608l-.006.003c.278.24.645.353.998.446a1.89 1.89 0 0 0-1.057-1.057M42.057 88.773a.762.762 0 0 1-.46.156c-.21.007-.42-.032-.628.005-.359.063-.677.372-.81.774.463.052.926.096 1.39.121.155.008.298-.1.356-.27l.002-.005c.027-.079.087-.136.158-.14.069-.005.139-.013.208-.02-.012-.237-.084-.47-.216-.621"/>
        <path fill="#6FA5A9" d="M41.152 89.005c.214-.039.431.003.647-.005a.768.768 0 0 0 .474-.166.484.484 0 0 0-.25-.164c-.518-.13-1.024-.252-1.501-.418-.326.049-.662.035-.96-.131-.146-.082-.279-.197-.41-.311l-.608-.53c-.13-.112-.262-.23-.342-.398a.578.578 0 0 1-.006-.489l-.006-.01c-.03-.452-.169-.604-.337-.78-.248.19-.513.183-.798.275-.125.171-.041.37-.006.596.42.557.84.979 1.367 1.378.235.178.482.34.75.419.17.05.349.066.51.151a.917.917 0 0 1 .425.57c.069.253.046.54-.06.772-.006.013-.012.022-.019.032.098.013.197.022.295.034.138-.428.465-.757.835-.825"/>
        <path fill="#ECE4D1" d="M39.14 87.882c-.005 0-.01 0-.016-.002-.02-.006-.027-.021-.018-.034a.785.785 0 0 1 .436-.26c.188-.048.405-.048.593 0 .02.006.029.02.022.033-.008.013-.03.019-.05.014a1.124 1.124 0 0 0-.537 0 .709.709 0 0 0-.394.235c-.007.009-.02.014-.035.014"/>
        <path fill="#ECE4D1" d="M39.115 87.882h-.005c-.016-.003-.028-.014-.025-.027a.399.399 0 0 0-.035-.275c-.006-.01.002-.024.018-.029.016-.004.033.002.04.014a.437.437 0 0 1 .037.298c-.003.01-.015.019-.03.019M39.14 88.85c-.016 0-.03-.007-.036-.02-.006-.016.005-.033.025-.038.323-.08.66-.11.994-.092.022 0 .038.015.036.032-.002.016-.019.028-.038.028h-.003a3.219 3.219 0 0 0-.966.09h-.011"/>
        <path fill="#ECE4D1" d="M39.086 88.773l-.008-.001c-.02-.006-.032-.035-.028-.064.04-.308.043-.62.012-.929-.003-.03.01-.057.03-.062.02-.006.039.016.042.045.032.322.028.647-.013.967-.003.026-.018.044-.035.044"/>
        <path fill="#ECE4D1" d="M39.139 87.882c-.012 0-.023-.007-.03-.02-.012-.02-.008-.05.009-.064.294-.262.684-.32 1.018-.156.019.01.028.036.02.06-.006.023-.027.035-.046.026a.857.857 0 0 0-.95.145.03.03 0 0 1-.021.009M38.979 87.716a.029.029 0 0 1-.015-.004c-.022-.012-.033-.045-.025-.076l.247-.938c.008-.031.034-.047.054-.035.022.012.034.046.025.076l-.247.938c-.007.024-.022.039-.04.039"/>
        <path fill="#ECE4D1" d="M38.083 87.882c-.013 0-.025-.01-.032-.026-.01-.024-.005-.056.013-.07.3-.246.68-.303 1.012-.156.02.009.03.038.025.066-.007.026-.027.042-.048.033-.313-.14-.668-.085-.95.145a.03.03 0 0 1-.02.008M37.919 87.716a.033.033 0 0 1-.024-.011.07.07 0 0 1-.007-.077c.14-.263.227-.588.245-.918.002-.029.02-.05.04-.05h.002c.021.002.038.028.036.059-.019.35-.112.696-.261.975-.007.014-.02.022-.031.022"/>
        <path fill="#ECE4D1" d="M37.024 87.882c-.014 0-.028-.015-.033-.038-.007-.031.002-.065.02-.076a1.319 1.319 0 0 1 1.004-.186c.019.003.033.033.03.066-.003.032-.018.056-.04.05a1.274 1.274 0 0 0-.968.18.025.025 0 0 1-.013.004M38.014 86.732l-.01-.001a1.729 1.729 0 0 0-.975-.027c-.016.003-.034-.006-.04-.022-.004-.015.006-.032.023-.037.33-.088.69-.078 1.012.028.017.006.025.023.02.039a.032.032 0 0 1-.03.02"/>
        <path fill="#ECE4D1" d="M37.9 86.66c-.004 0-.008-.004-.011-.01a.094.094 0 0 1-.006-.066l.29-.962c.007-.021.02-.026.03-.012.009.016.011.045.005.067l-.29.961c-.005.014-.011.021-.018.021M37.75 86.744a.792.792 0 0 0-.4.111.586.586 0 0 0-.238.236.496.496 0 0 0-.042.362c.037.116.137.192.23.174.086-.018.159-.103.22-.181.159-.204.3-.432.422-.677a.75.75 0 0 0-.193-.025zm-.478.972c-.11 0-.217-.094-.26-.229a.601.601 0 0 1 .048-.446.662.662 0 0 1 .264-.266.834.834 0 0 1 .678-.076l.043.014-.024.051c-.13.27-.283.521-.457.745-.073.094-.155.183-.254.203a.205.205 0 0 1-.038.004zM38.135 87.092c.174.319.41.5.653.5a.46.46 0 0 0 .121-.015c.063-.017.1-.05.118-.104.032-.096-.005-.239-.054-.339-.112-.22-.272-.351-.43-.351-.148 0-.298.115-.408.309zm.653.624c-.27 0-.533-.212-.72-.582l-.023-.043.022-.043c.125-.248.298-.389.476-.389.177 0 .35.141.475.389.062.125.116.327.062.491-.037.115-.11.146-.162.16a.526.526 0 0 1-.13.017z"/>
        <path fill="#ECE4D1" d="M37.016 87.716c-.011 0-.021-.01-.022-.022a2.412 2.412 0 0 1 .145-.997l.014-.038.024.032c.21.288.527.466.847.476.012 0 .022.012.021.025 0 .013-.01.023-.022.023a1.159 1.159 0 0 1-.857-.462c-.105.297-.149.62-.128.937.001.013-.008.025-.02.026h-.002"/>
        <path fill="#E5998D" d="M25.198 44.71c.334-1.003.866-1.864 1.705-2.535 1.301-1.041 2.94-1.25 4.312-.55 1.188.608 2.09 1.85 2.445 3.371.412 1.765-.04 3.301-.678 4.944a66.3 66.3 0 0 0-3.658 13.51c-.258 1.608-.275 3.684-1.927 4.127-1.086.293-2.114-.533-2.296-1.847-.575-4.16-.875-8.4-.775-12.665.05-2.152.202-4.309.464-6.453a9.762 9.762 0 0 1 .408-1.902"/>
        <path fill="#ECECF1" d="M29.417 82.99c-.075.54-.167 1.077-.254 1.616-.1.623-.282 2.047-.282 2.047a1.247 1.247 0 0 1-1.258 1.062c-.683-.02-1.222-.604-1.202-1.305l.001-.05c.036-1.305.165-3.68.146-4.985.95.405 2.021.495 3.023.258-.055.452-.111.905-.174 1.357"/>
        <path fill="#E5998D" d="M25.164 61.88c.385-.33.861-.531 1.357-.575 1.532-.133 2.514 1.102 2.666 2.573a79.142 79.142 0 0 1-.156 17.378 4.313 4.313 0 0 1-2.72-.237 81.112 81.112 0 0 0-.553-8.445c-.24-2.016-.56-4.02-.963-6.008-.323-1.593-1.082-3.44.37-4.686"/>
        <path fill="#0093D7" d="M26.068 83.11c-4.413-15.795-2.58-29.821-1.553-44.008 3.573.873 10.453 3.354 10.36 3.268-.568 6.32-3.654 11.812-4.126 19.379-.346 5.55 1.32 6.709-1.185 21.403-1.038.477-2.491.433-3.496-.042"/>
        <path fill="#E5E5E0" d="M21.226 89.413c.057-.014.132.002.191.005a.178.178 0 0 1 .149.08c.055.093.188.153.33.148a37.304 37.304 0 0 0 5.209-.537c.4-.07.816-.155 1.13-.336.183.05.316.165.297.304-.019.14-.183.263-.38.286l-.488.057c-.777.091-1.553.185-2.334.262-.751.073-1.507.134-2.266.146-.332.005-.665 0-.995-.023a7.288 7.288 0 0 1-.444-.044c-.19-.025-.401-.026-.476-.177a.122.122 0 0 1 .033-.15.107.107 0 0 1 .044-.021"/>
        <path fill="#82B3B4" d="M25.313 87.99c-.07.094-.189.16-.304.223l-.54.297a2.444 2.444 0 0 1-.365.175c-.265.093-.564.101-.854.074.826-.182 1.554-.458 2.068-1.043.066.08.057.19-.005.274"/>
        <path fill="#E5E5E0" d="M25.638 85.602a.982.982 0 0 0-.27.75c.275.148.596.242.9.307l.152-.815c-.228-.084-.554-.159-.782-.242M29.064 86.6c-.191-.074-.272-.19-.292-.301-.022-.112.008-.225-.007-.337-.017-.126-.106-.246-.23-.36.285.02.554.106.714.218.22.153.277.341.31.523.018.101.026.203.032.304a1.13 1.13 0 0 1-.527-.048"/>
        <path fill="#82B3B4" d="M23.287 89.066a.875.875 0 0 1 .409-.543c.153-.081.325-.097.488-.144.257-.075.495-.23.72-.4.505-.38.908-.78 1.311-1.31.05-.056.088-.219.138-.275.531-.072.768.765 1.412.18.34-.413.136-.85.145-.957a.272.272 0 0 1 .148-.008c.056.14.096.288.103.442.007.138-.006.276.003.414.01.137.046.28.131.37.064.066.16.091.237.058l.002.057c-.321.32-.778.434-1.174.277-.241-.095-.482-.283-.728-.209a.84.84 0 0 0-.285.186l-1.798 1.547 1.202.647c-.79.185-1.587.329-2.387.432l-.019-.032a1.097 1.097 0 0 1-.058-.732"/>
        <path fill="#6FA5A9" d="M26.517 86.718c.26-.065.515.098.771.18.42.136.904.038 1.245-.239.004.17-.004.338-.014.507a2.323 2.323 0 0 0-1.335 1.257l-.014.004c-.526.13-1.056.244-1.588.346l-1.275-.559 1.907-1.336a.931.931 0 0 1 .303-.16"/>
        <path fill="#82B3B4" d="M28.534 87.716c-.012.204-.03.406-.064.607l.005.003c-.277.24-.644.353-.998.447a1.89 1.89 0 0 1 1.057-1.057M21.352 88.773c.13.107.299.15.46.155.21.007.42-.032.627.004.36.064.677.373.811.774a23.73 23.73 0 0 1-1.39.123c-.154.009-.297-.1-.356-.27l-.002-.005c-.026-.078-.087-.135-.158-.14-.069-.005-.139-.013-.208-.019.012-.237.083-.47.216-.622"/>
        <path fill="#6FA5A9" d="M22.257 89.007c-.213-.04-.43.003-.646-.005a.767.767 0 0 1-.475-.165c.068-.08.15-.14.25-.164.518-.13 1.024-.253 1.502-.42.325.05.662.034.96-.132.146-.082.278-.197.41-.311l.608-.53c.129-.113.262-.23.34-.398.07-.15.08-.348.007-.489l.006-.01c.03-.452.168-.604.336-.78.249.19.513.182.8.274.124.171.04.37.005.595-.42.557-.84.98-1.366 1.378-.235.179-.482.342-.75.42-.17.05-.349.067-.51.152a.919.919 0 0 0-.425.571c-.068.252-.046.54.06.77l.02.033c-.099.013-.197.022-.296.034-.137-.427-.465-.756-.836-.823"/>
        <path fill="#ECE4D1" d="M24.268 87.882c-.014 0-.028-.005-.035-.015a.707.707 0 0 0-.394-.235 1.12 1.12 0 0 0-.536.001c-.02.006-.042 0-.05-.014-.008-.012.001-.027.021-.032.188-.049.404-.05.593-.002a.786.786 0 0 1 .436.26c.01.013.001.028-.018.034a.056.056 0 0 1-.017.003"/>
        <path fill="#ECE4D1" d="M23.238 87.882c-.015 0-.028-.008-.03-.019a.437.437 0 0 1 .037-.299c.006-.011.024-.017.04-.013.015.005.023.018.017.03a.4.4 0 0 0-.034.274c.002.013-.009.024-.025.027h-.005M24.268 88.85h-.011a3.25 3.25 0 0 0-.966-.09c-.018.002-.04-.01-.04-.027-.003-.017.014-.031.035-.033.33-.02.676.012.994.091.02.006.031.023.025.038-.005.013-.02.022-.037.022M24.324 88.773c-.017 0-.032-.018-.036-.044a4.283 4.283 0 0 1-.013-.966c.003-.03.018-.053.041-.046.02.004.033.032.03.062-.03.31-.026.623.013.929.004.03-.009.059-.028.064h-.007"/>
        <path fill="#ECE4D1" d="M24.27 87.882a.029.029 0 0 1-.02-.009.857.857 0 0 0-.95-.144c-.019.01-.04-.002-.048-.026-.007-.024.002-.05.021-.06.333-.166.723-.107 1.018.155.017.014.02.043.01.064-.008.013-.02.02-.03.02M24.43 87.716c-.017 0-.032-.014-.039-.039l-.247-.938c-.008-.031.002-.065.024-.076.023-.012.046.005.054.035l.248.938c.008.03-.003.065-.025.076a.029.029 0 0 1-.014.004"/>
        <path fill="#ECE4D1" d="M25.326 87.882a.03.03 0 0 1-.019-.007c-.283-.23-.639-.285-.95-.144-.022.008-.042-.007-.048-.034-.007-.028.004-.057.024-.066.333-.148.711-.09 1.012.154.018.015.024.046.014.071-.008.017-.02.026-.033.026M25.49 87.716c-.011 0-.023-.008-.03-.022a2.379 2.379 0 0 1-.262-.975c-.002-.03.015-.057.036-.06h.003c.02 0 .038.023.04.051.017.33.104.655.245.917.013.024.01.06-.008.077a.031.031 0 0 1-.024.012"/>
        <path fill="#ECE4D1" d="M25.328 87.882a.02.02 0 0 1-.012-.004 1.274 1.274 0 0 0-.969-.178h-.005c-.017 0-.033-.021-.035-.05-.003-.033.01-.063.03-.067a1.308 1.308 0 0 1 1.003.184c.02.012.028.045.021.076-.005.024-.018.039-.033.039M25.395 86.732a.032.032 0 0 1-.03-.02.03.03 0 0 1 .02-.038 1.8 1.8 0 0 1 1.012-.03.03.03 0 0 1 .022.038.032.032 0 0 1-.039.02 1.74 1.74 0 0 0-.985.03"/>
        <path fill="#ECE4D1" d="M25.509 86.66c-.007 0-.013-.008-.017-.021l-.29-.962a.094.094 0 0 1 .005-.067c.01-.014.022-.009.029.013l.29.962c.006.021.004.05-.005.065-.004.006-.008.01-.012.01M25.467 86.77c.123.246.265.474.423.676.06.078.133.164.22.18.092.021.193-.057.229-.174a.495.495 0 0 0-.042-.362.6.6 0 0 0-.237-.236.783.783 0 0 0-.593-.084zm.67.946a.2.2 0 0 1-.037-.003c-.1-.02-.181-.11-.254-.204a4.097 4.097 0 0 1-.458-.744l-.024-.051.043-.015a.835.835 0 0 1 .678.075.67.67 0 0 1 .264.266c.073.138.092.31.049.446-.044.135-.15.23-.26.23zM24.866 86.782c-.16 0-.317.13-.43.354-.05.098-.085.24-.054.336.018.055.055.088.118.105.04.01.08.015.12.015.244 0 .48-.182.653-.502-.11-.196-.257-.308-.407-.308zm-.245.934a.52.52 0 0 1-.13-.018c-.051-.013-.125-.044-.162-.16-.054-.162 0-.365.063-.489.124-.247.297-.39.474-.39.178 0 .351.141.475.388l.023.043-.023.044c-.187.369-.45.582-.72.582z"/>
        <path fill="#ECE4D1" d="M25.336 87.716h-.001c-.012-.001-.021-.013-.02-.026.02-.317-.024-.64-.13-.937a1.16 1.16 0 0 1-.855.463h-.001c-.012 0-.022-.01-.022-.023s.01-.024.021-.024c.32-.011.637-.19.847-.478l.023-.032.015.038c.117.314.168.658.146.997-.001.012-.01.022-.023.022"/>
        <path fill="#6FA5A9" d="M31.022 13.686a10.73 10.73 0 0 0 5.966-1.134 4.353 4.353 0 0 1-.792-.927c-2.4 1.453-5.473 1.499-7.899.094a7.084 7.084 0 0 1-.82.97 10.44 10.44 0 0 0 2.333.805c.4.087.805.151 1.212.192"/>
        <path fill="#ECE4D1" d="M43.329 21.136a6.055 6.055 0 0 0-1.013-3.516c-.742-1.128-1.823-1.998-3.099-2.636-.76-.38-1.598-.743-2.286-1.245a12.204 12.204 0 0 1-2.324.706 13.254 13.254 0 0 1-3.673.213 13.019 13.019 0 0 1-1.818-.276 12.162 12.162 0 0 1-1.745-.532c-.682.553-1.5 1.037-2.366 1.511-1.018.557-2.047 1.142-2.796 1.969-.913 1.009-1.147 2.346-1.054 3.71a94.866 94.866 0 0 1 22.174.096"/>
        <path fill="#6FA5A9" d="M43.26 23.25c.04-.4.066-.799.07-1.196a72.598 72.598 0 0 0-22.194-.127c.015.27.038.543.066.814a66.396 66.396 0 0 1 22.059.509M22.193 24.621c.075.17.153.335.232.493 6.857-.486 13.83-.402 20.647.25.09-.163.176-.325.258-.489-6.98-.66-14.116-.746-21.137-.254"/>
        <path fill="#E5E5E0" d="M42.844 24.307l.059-.186c.199-.667.345-1.335.427-2a81.34 81.34 0 0 0-22.194-.42c.095.752.26 1.496.45 2.194a80.93 80.93 0 0 1 21.258.412"/>
        <path fill="#ECE4D1" d="M35.932 13.739a5.969 5.969 0 0 1 0 0"/>
        <path fill="#6FA5A9" d="M27.908 44.111c-1.207-.117-2.444-.29-3.529-.781-.04.432-.067.8-.072 1.07 0 0 2.463 1.109 8.731 1.04 5.815-.064 9.235-.69 9.235-.69-.047-.289-.106-.672-.172-1.118a54.924 54.924 0 0 1-14.193.48"/>
        <path fill="#ECE4D1" d="M40.181 32.201c.077-.493.182-.982.305-1.468.285-1.126.672-2.237 1.062-3.348.25-.708.498-1.416.725-2.128a70.092 70.092 0 0 0-20.08-.423c.056.195.113.386.169.57.246.804.525 1.607.8 2.413.422 1.24 1.234 4.563 1.28 4.967.052.458.083.92.08 1.388-.013 1.63-2.017 8.456-.903 9.112 1.067.525 2.283.709 3.47.833 4.648.486 9.36.313 13.96-.51 1.224-1.18-1.004-7.858-1.014-9.542-.004-.63.05-1.25.146-1.864"/>
        <path fill="#E5998D" d="M35.932 11.686a3.268 3.268 0 0 1-.106-.171c-.553-.969-.698-2.045-.603-3.158.205-2.387.42-6.15-2.825-6.242-3.361-.095-3.228 3.828-2.99 6.253.14 1.418-.22 2.502-.874 3.402 2.272 1.25 5.15 1.209 7.398-.084"/>
        <path fill="#BDBDBA" d="M30.182 13.739a14.67 14.67 0 0 1-2.505-.595c-.065.045-.132.09-.2.134l1.232-1.653.372.165a4.058 4.058 0 0 1-.523.635 6.374 6.374 0 0 1-.88.718 14.67 14.67 0 0 0 2.504.596m.466-.73"/>
        <path fill="#588486" d="M29.26 13.739a9.789 9.789 0 0 1-1.783-.48 4.7 4.7 0 0 0 .627-.577c.211.095.43.18.653.253.271.089.55.161.834.217l-.331.587"/>
        <path fill="#B7B2A4" d="M29.17 14.795l-1.693-.957.157-.1a12.067 12.067 0 0 0 1.957.438l-.42.62M29.591 13.739"/>
        <path fill="#B3786F" d="M30.648 12.682l-.304-.046a9.817 9.817 0 0 1-1.015-.224 8.797 8.797 0 0 1-.795-.26c.173-.166.325-.341.453-.527l1.357.579.304.478"/>
        <path fill="#E5E5E0" d="M29.644 14.795l1.004-2.994-1.939-1.233-1.232 2.362 2.167 1.865"/>
        <path fill="#BDBDBA" d="M34.875 13.739l.032-.007a9.95 9.95 0 0 0 2.002-.658 3.459 3.459 0 0 1-.686-.7 3.749 3.749 0 0 1-.353-.632l.206-.117.913 1.51a5.396 5.396 0 0 1-.08-.061 9.907 9.907 0 0 1-2.002.658l-.032.007"/>
        <path fill="#588486" d="M35.194 13.739l-.319-.563a6.96 6.96 0 0 0 1.508-.494c.168.208.377.383.606.542a9.61 9.61 0 0 1-1.767.51l-.028.005"/>
        <path fill="#B7B2A4" d="M35.326 14.795l-.451-1.219.032-.009a8.452 8.452 0 0 0 .645-.217 8.465 8.465 0 0 0 1.358-.668c.026.027.052.055.079.081l-1.663 2.032M36.025000000000006 13.636000000000001a6.006 6.006 0 0 1 0 0"/>
        <path fill="#B3786F" d="M33.818 12.682l.313-.45 1.429-.607a2.812 2.812 0 0 0 .372.5 9.322 9.322 0 0 1-1.801.506l-.313.05"/>
        <path fill="#E5E5E0" d="M34.858 14.795l-1.04-2.992 2.001-1.235 1.17 2.113-2.13 2.114"/>
        <path fill="#EC9D6C" d="M52.728 33.488l-8.345-3.897L43.33 49.5l10.568 3.34-1.17-19.353"/>
        <path fill="#D8865B" d="M44.386 29.59l-.349.655-1.764 17.607 1.016 1.818 1.097-20.08"/>
        <path fill="#EC9D6C" d="M44.386 29.873l-1.86 16.76-2.367 1.98 3.637-19.022.59.282"/>
        <path fill="#EEA880" d="M43.33 48.348L42.34 46.5l-2.182 2.114 3.17-.266"/>
        <path fill="#CD815A" d="M53.898 52.554l-10.6-3.94-3.139.306 9.558 3.92 4.18-.286"/>
        <path fill="#FFFEFE" d="M47.565 32.143a.528.528 0 1 0 1.04.18.528.528 0 0 0-1.04-.18M49.678 33.2a.528.528 0 1 0 1.04.18.528.528 0 0 0-1.04-.18"/>
        <path fill="#F1D95C" d="M50.63 32.761a.098.098 0 0 1-.095-.094c-.093-1.745-.371-3.692-.851-5.95a2.043 2.043 0 0 0-.254-.675c-.146-.233-.366-.41-.576-.462a.5.5 0 0 0-.532.176c-.111.147-.153.349-.193.578a26.442 26.442 0 0 0-.374 5.068c.001.055-.04.1-.094.101h-.002a.098.098 0 0 1-.096-.097c-.036-1.747.09-3.465.376-5.107.045-.256.093-.482.231-.666a.688.688 0 0 1 .73-.246c.255.064.52.273.69.546.129.205.218.44.282.74.482 2.27.762 4.227.855 5.983a.098.098 0 0 1-.09.105h-.006M45.551 29.59c-.06 0-.108-.043-.108-.097a4.351 4.351 0 0 1 .904-2.592c.119-.156.269-.328.48-.42.215-.094.526-.09.703.095a.09.09 0 0 1-.01.137.117.117 0 0 1-.153-.01c-.106-.11-.309-.106-.445-.047-.166.072-.289.214-.397.355a4.17 4.17 0 0 0-.866 2.483c0 .054-.048.097-.108.097"/>
        <path fill="#A8BFAF" d="M55.445 29.604l-7.888-1.07.712 15.738 9.856.114-2.68-14.782"/>
        <path fill="#87948A" d="M47.887 28.534l-.255.588-.075 14.083 1.057 1.181-.727-15.852"/>
        <path fill="#A8BFAF" d="M46.5 28.641l-.042 14.598-1.015 2.204.766-16.909.291.107"/>
        <path fill="#9CB0A1" d="M48.614 44.504l-.778-1.174-1.336 2.113 2.114-.939"/>
        <path fill="#87948A" d="M57.068 44.48l-9.043-.094-2.582.773 8.178.284 3.447-.962"/>
        <path fill="#EBF3DB" d="M49.672 30.172a.43.43 0 0 0 .489.473.65.65 0 0 0 .565-.578.43.43 0 0 0-.49-.473.65.65 0 0 0-.564.578M51.786 30.172a.43.43 0 0 0 .488.473.65.65 0 0 0 .566-.578.43.43 0 0 0-.49-.473.65.65 0 0 0-.564.578"/>
        <path fill="#EC992F" d="M52.743 29.59a.098.098 0 0 1-.094-.064c-.475-1.474-1.2-2.943-2.153-4.363-.117-.175-.228-.33-.403-.457a1.183 1.183 0 0 0-.69-.217c-.229.01-.43.113-.513.264a.776.776 0 0 0-.072.477c.118.954.423 1.843.744 2.784.122.354.244.712.358 1.079.015.048-.015.098-.067.112-.054.014-.107-.014-.121-.062-.114-.366-.236-.722-.357-1.074-.325-.95-.631-1.847-.751-2.818a.94.94 0 0 1 .091-.58c.116-.21.376-.35.68-.363.266-.014.585.086.819.256.2.145.322.314.45.503.961 1.435 1.693 2.917 2.173 4.407.015.048-.014.099-.066.113a.107.107 0 0 1-.028.004M47.7 28.534a.071.071 0 0 1-.07-.053 2.365 2.365 0 0 1 .175-1.645c.056-.11.15-.266.298-.353.16-.094.36-.08.487.031a.07.07 0 0 1 .005.1.073.073 0 0 1-.101.005c-.094-.083-.23-.067-.317-.016-.118.069-.196.202-.244.296a2.226 2.226 0 0 0-.164 1.548.07.07 0 0 1-.052.085.067.067 0 0 1-.017.002"/>
        <path fill="#DDDBC6" d="M55.456 28.86l-6.842-1.383.99 10.725 8.521.9-2.669-10.241"/>
        <path fill="#C2C0AF" d="M48.792 27.477l-.178.369.239 9.33.817.87-.878-10.569"/>
        <path fill="#DDDBC6" d="M48.324 26.54l.29 10.162-2.114 2.4 1.347-12.682.477.12"/>
        <path fill="#EAE7CF" d="M49.67 37.821l-.674-.832-1.44 2.113 2.114-1.28"/>
        <path fill="#C2C0AF" d="M58.125 39.013l-7.89-.968-2.678 1.456 7.819.658 2.749-1.146"/>
        <path fill="#FFFEFE" d="M50.728 27.99a.518.518 0 0 0 .504.544.539.539 0 0 0 .552-.513.518.518 0 0 0-.504-.544.54.54 0 0 0-.552.514M52.841 29.048a.518.518 0 0 0 .504.543.54.54 0 0 0 .552-.514.518.518 0 0 0-.504-.543.54.54 0 0 0-.552.514"/>
        <path fill="#F0DDCF" d="M51.864 27.477h-.013a.08.08 0 0 1-.066-.092c.007-.04.664-4.09 2.03-4.135.044.004.081.033.083.077a.08.08 0 0 1-.077.082c-1.021.034-1.716 2.974-1.879 4.001a.08.08 0 0 1-.078.067M53.841 28.534h-.014c-.06-.006-.101-.05-.094-.097.021-.136.039-.23.053-.31.033-.177.049-.266.06-.566.001-.047.05-.084.109-.084h.003c.06.001.107.041.105.09-.01.309-.029.407-.062.586-.014.077-.031.17-.052.305-.007.044-.054.076-.108.076M49.747 27.477c-.005 0-.011 0-.016-.002a.077.077 0 0 1-.059-.091 5.557 5.557 0 0 1 .757-1.811l.06-.098c.267-.428.53-.839.647-.937a.922.922 0 0 1 .572-.231c.042 0 .076.034.076.077a.077.077 0 0 1-.076.077.784.784 0 0 0-.474.195c-.114.097-.478.681-.615.901l-.062.099a5.409 5.409 0 0 0-.735 1.76.077.077 0 0 1-.075.061"/>
        <path fill="#D7A93D" d="M60.662 26.024l-7.821-1.717 4.243 14.856 9.496.996-5.918-14.135"/>
        <path fill="#B28733" d="M52.946 25.364l-.105.486 3.003 12.146 1.224 1.106-4.122-13.738"/>
        <path fill="#D7A93D" d="M52.387 25.503l3.624 12.87-1.445 1.786-2.782-14.795.603.139"/>
        <path fill="#DBAE53" d="M57.068 39.795L56 39.102l-1.045 1.057 2.113-.364"/>
        <path fill="#9F7A31" d="M66.58 40.759l-9.209-.6-2.416.378 8.38.679 3.245-.457"/>
        <path fill="#EBF3DB" d="M54.961 26.95a.637.637 0 0 0 .605.527c.288 0 .484-.236.439-.528a.637.637 0 0 0-.604-.529c-.289 0-.485.237-.44.53M58.132 26.95a.637.637 0 0 0 .604.527c.288 0 .485-.236.44-.528a.637.637 0 0 0-.605-.529c-.289 0-.485.237-.44.53"/>
        <path fill="#EC992F" d="M56.215 25.364c-.045 0-.083-.032-.086-.073l-.017-.182c-.088-.905-.293-3.022.366-3.733a.723.723 0 0 1 .498-.24c.043 0 .09.03.092.074.003.044-.033.082-.08.085a.542.542 0 0 0-.378.185c-.613.66-.405 2.806-.327 3.615l.017.183c.004.043-.03.082-.079.085h-.006M58.22 26.42c-.037 0-.068-.02-.072-.047a9.343 9.343 0 0 0-.187-.945c-.008-.03.017-.058.056-.063.037-.006.076.013.084.042a9.6 9.6 0 0 1 .19.954c.004.03-.025.056-.064.059h-.008M53.972 25.364c-.038 0-.07-.035-.071-.08a7.48 7.48 0 0 1 .272-2.235c.052-.188.116-.385.227-.548.129-.19.304-.302.481-.308h.002c.038 0 .07.035.072.08 0 .045-.03.082-.07.084-.132.004-.271.096-.373.245-.091.134-.147.296-.204.497a7.308 7.308 0 0 0-.265 2.18c.002.045-.03.083-.068.085h-.003"/>
        <path fill="#483D3D" d="M34.473 3.17l-.655.272c.804.481.767 3.513.972 3.956.17-1.614.093-2.937-.317-4.228"/>
        <path fill="#332A2B" d="M34.502 3.17s-.684.278-.684.247c.182 0 .498.125.651.365.108.17.17.37.224.571.078.292.127.632.182.931-.022-.784-.14-1.468-.373-2.114"/>
        <path fill="#483D3D" d="M29.73 8.455c.325-.4.998-4.146.96-5.273l-.277-.176.316.07s.157-.388.171-.41c.096-.142.211-.268.339-.374.249-.206.549-.336.857-.358a1.48 1.48 0 0 1 .858.213c.29.173.455.449.691.686.41.413.818.704 1.368.793.3.05.616.071.919.073-.456-.079-1.05-2.467-3.067-2.627-1.442-.115-2.302.425-2.737 1.735-.144.078-.354.093-.498.171-.08.342-.032 1.785.1 5.477"/>
        <path fill="#332A2B" d="M29.606 3.17c.424.13.518.101 1.042.167-.487.124-.627.253-.72.48-.174.425-.26 1.033-.327 1.467-.026-.887.007-1.442 0-2.11l.005-.004M35.932 4.154c-.216-.051-.433-.07-.649-.12-.252-.06-.509-.121-.73-.265-.396-.258-.612-.738-.944-1.087-.45-.474-1.14-.684-1.752-.505-.61.179-1.111.752-1.21 1.42.183-.478.534-.885.996-1.038a1.576 1.576 0 0 1 1.39.21c.354.25.604.634.934.918.535.46 1.303.66 1.965.467"/>
        <path fill="#E5998D" d="M29.59 5.751a.882.882 0 0 1-.2.59 2.587 2.587 0 0 1-.512-.216c-.15-.089-.274-.203-.322-.333a.33.33 0 0 1 .111-.38.676.676 0 0 1 .546-.111c.13.031.231.103.29.185.06.082.082.174.087.265M34.876 5.752a.882.882 0 0 0 .2.589c.182-.06.36-.126.512-.216.151-.09.274-.204.323-.334a.33.33 0 0 0-.113-.38.677.677 0 0 0-.546-.11.505.505 0 0 0-.29.185.483.483 0 0 0-.086.266"/>
        <path fill="#979793" d="M30.674.358a.337.337 0 0 0-.024.161c.01.066.05.097.084.088.034-.01.064-.048.094-.08.137-.148.301-.187.451-.108.117.062.224.195.304.376.03.068.047.202.087.25.062.072.025-.192.011-.252-.108-.484-.393-.82-.655-.791-.136.014-.27.137-.352.356"/>
        <path fill="#332A2B" d="M32.761 2.209a4.539 4.539 0 0 0-1.773.161c-.556.169-1.045.449-1.397.8a1.84 1.84 0 0 1 .687-.679 3.138 3.138 0 0 1 1.195-.357c.431-.045.87-.013 1.288.075M31.705 1.079a.934.934 0 0 0-.854.242.718.718 0 0 0-.14.793c.124-.054.23-.118.353-.173-.088-.199-.089-.426.054-.598a.684.684 0 0 1 .587-.264"/>
        <path fill="#979793" d="M31.488 1.203a.367.367 0 0 0 .145.018c.05-.007.077-.033.07-.055-.006-.023-.037-.043-.069-.06a2.049 2.049 0 0 0-.752-.21.68.68 0 0 0-.143-.003c-.046.006-.088.022-.091.043-.004.026.054.045.105.06l.36.1.375.107M34.628 3.154c.077.026.176.026.224-.037.03-.04.028-.095.01-.14a.395.395 0 0 0-.089-.12 2.537 2.537 0 0 0-1.798-.743c-.08 0-.174.012-.214.078a1.685 1.685 0 0 1 1.381.525c.148.163.273.365.486.437"/>
        <path fill="#483D3D" d="M30.524 4.227l.144 4.272c1.36-.943 3.193-1.083 4.665-.34-.082-1.078-.152-2.184-.234-3.263.108.27.193.425.301.695.415 1.037.22 2.203.492 3.288.23.913-.59 1.823-1.38 2.309-.79.484-1.797.564-2.666.25-.87-.315-1.592-1.008-1.995-1.856-.186-.39-.198-.885-.26-1.314.43-.646.512-1.513.612-2.287.075-.588.245-1.166.321-1.754M30.648 4.393l1.057-.332"/>
        <path fill="#483D3D" d="M30.648 5.208s.038-.254.116-.463c.039-.111.087-.213.143-.293.029-.034.055-.09.088-.108l.095-.078.1-.032c.033-.016.069.002.102.002a.382.382 0 0 1 .193.103c.117.097.21.276.21.276l.01.076-.52.334-.528.26-.01-.077M32.761 4.174l1.057.106M32.764 4.29s.074-.084.179-.14a.615.615 0 0 1 .176-.07c.031-.005.064-.018.097-.016l.1-.003.097.016c.032.004.063.02.093.03.06.023.115.055.161.092.093.07.151.163.151.163l-.003.031-.528-.02-.526-.051.003-.031M31.7 5.747a.528.528 0 1 1-1.048.13.528.528 0 0 1 1.048-.13M34.87 5.747a.528.528 0 1 1-1.048.13.528.528 0 0 1 1.049-.13"/>
        <path fill="#EEE9DE" d="M32.761 7.546l1.057-.148s.006.967-.414 1.051c-.42.085-.643-.903-.643-.903"/>
        <path fill="#DE6756" d="M30.65 6.82a.528.528 0 1 0 1.052.1.528.528 0 0 0-1.052-.1M33.82 5.763a.528.528 0 1 0 1.053.1.528.528 0 0 0-1.052-.1M32.761 8.754s.019.026.048.075c.03.041.068.145.122.189l.082.086c.026.037.064.03.096.056.034.017.067.045.103.035.031.001.08-.004.098.006l.117-.069c.043-.016.067-.06.096-.094.027-.042.062-.05.085-.105l.073-.135c.049-.078.072-.183.098-.243.024-.064.04-.1.04-.1s-.005.046-.017.13l-.023.15a.697.697 0 0 1-.042.182l-.067.196c-.021.075-.061.121-.096.18-.037.053-.077.125-.114.138l-.116.079c-.063.005-.095-.004-.143-.008-.045.007-.085-.042-.124-.072-.04-.038-.078-.057-.108-.12l-.087-.157a.456.456 0 0 1-.056-.15l-.036-.13a2.944 2.944 0 0 1-.029-.119"/>
        <path fill="#D76E65" d="M33.743 6.515l-.239-.819c-.053-.184-.164-.41-.39-.412a.348.348 0 0 0-.305.198c-.05.107-.05.226-.047.341l.015.723c.003.198.01.404.117.58.107.177.347.313.573.26a.465.465 0 0 0 .343-.376c.028-.165-.02-.332-.067-.495"/>
        <path fill="#A8BFAF" d="M12.074 31.308l7.47-1.717 1.592 14.856-9.511.996.45-14.135"/>
        <path fill="#87948A" d="M20.08 29.59l.284.487 1.83 12.147-.726 1.106-1.388-13.74"/>
        <path fill="#A8BFAF" d="M20.08 29.73l2.15 12.87 2.077 1.786-3.736-14.795-.491.14"/>
        <path fill="#9CB0A1" d="M21.136 44.023l.615-.693 1.499 1.056-2.114-.363"/>
        <path fill="#87948A" d="M11.625 43.93l8.94-.6 2.685.377-8.052.68-3.573-.458"/>
        <path fill="#EBF3DB" d="M17.954 30.12c.061.291-.121.528-.407.528-.285 0-.565-.237-.626-.528-.061-.292.121-.53.407-.53.285 0 .565.238.626.53M14.784 31.176c.06.292-.122.529-.407.529s-.566-.237-.627-.53c-.06-.29.122-.527.407-.527s.566.236.627.528"/>
        <path fill="#EC992F" d="M13.826 31.705l-.014-.002a.092.092 0 0 1-.072-.107 16.521 16.521 0 0 1 1.337-4.343c.085-.183.174-.361.333-.517.185-.18.45-.301.691-.315.274-.012.516.093.646.28.1.143.154.326.16.542.023.925-.129 1.798-.29 2.721-.06.342-.12.688-.172 1.041-.007.05-.048.085-.1.077a.092.092 0 0 1-.073-.105c.052-.355.113-.703.173-1.046.16-.914.31-1.777.287-2.683a.78.78 0 0 0-.126-.438c-.094-.135-.292-.217-.495-.204a.957.957 0 0 0-.582.266c-.138.134-.215.289-.295.462a16.341 16.341 0 0 0-1.322 4.293.09.09 0 0 1-.086.078M18.952 29.59h-.007c-.033-.005-.057-.043-.053-.086a2.759 2.759 0 0 0-.318-1.563c-.083-.147-.157-.233-.24-.278-.082-.045-.2-.043-.265.047-.023.031-.06.033-.084.003a.095.095 0 0 1-.003-.11.3.3 0 0 1 .399-.084c.134.073.23.224.29.33.268.476.392 1.086.34 1.673-.003.04-.03.069-.06.069"/>
        <path fill="#C03836" d="M9.745 31.422l7.164-1.831-1.698 15.846-8.87 1.063 3.404-15.078"/>
        <path fill="#932728" d="M17.758 28.534l.208.56-.98 14.016-1.134 1.276 1.906-15.852"/>
        <path fill="#C03836" d="M17.542 29.74L16.91 43.53l1.057 1.914-.086-15.852-.338.15"/>
        <path fill="#C64849" d="M15.852 44.716l.865-1.386 1.249 2.113-2.114-.727"/>
        <path fill="#7A2425" d="M6.34 45.586l9.096-1.2 2.53.756L9.724 46.5l-3.383-.914"/>
        <path fill="#ECE4D1" d="M14.795 30.12a.529.529 0 1 1-1.057 0 .529.529 0 0 1 1.057 0M12.682 31.176a.528.528 0 1 1-1.057 0 .528.528 0 0 1 1.057 0"/>
        <path fill="#EC992F" d="M11.705 30.648l-.018-.003c-.043-.011-.07-.06-.06-.109.32-1.563.819-3.274 1.527-5.23.094-.258.2-.455.333-.618.178-.217.425-.363.644-.38a.574.574 0 0 1 .566.34c.088.186.097.397.098.634a26.491 26.491 0 0 1-.393 4.643c-.01.049-.053.081-.095.072-.043-.01-.072-.058-.063-.107.268-1.549.399-3.099.39-4.607 0-.212-.007-.4-.079-.55a.413.413 0 0 0-.413-.243c-.18.013-.386.137-.537.321-.12.147-.216.326-.302.564-.705 1.947-1.202 3.648-1.52 5.202-.008.042-.04.07-.078.07M16.794 29.59h-.012c-.039-.009-.065-.056-.058-.106a5.312 5.312 0 0 0-.25-2.422c-.052-.147-.114-.295-.213-.386-.08-.075-.211-.108-.293-.021-.03.032-.075.026-.1-.013a.11.11 0 0 1 .01-.129c.139-.145.34-.104.466.014.126.116.201.297.259.459a5.55 5.55 0 0 1 .26 2.529c-.005.044-.035.076-.07.076"/>
        <path fill="#D7A93D" d="M8.032 29.194l7.82-1.717-4.242 14.856-9.496.997 5.918-14.136"/>
        <path fill="#B28733" d="M15.748 27.477l.104.486L12.85 40.11l-1.224 1.106 4.123-13.739"/>
        <path fill="#D7A93D" d="M16.306 28.674l-3.624 12.869 1.445 1.787 2.782-14.796-.603.14"/>
        <path fill="#DBAE53" d="M11.625 42.966l1.068-.693 1.046 1.057-2.114-.364"/>
        <path fill="#9F7A31" d="M2.114 43.93l9.208-.6 2.417.377-8.381.68-3.244-.458"/>
        <path fill="#EBF3DB" d="M13.732 29.063a.637.637 0 0 1-.604.528c-.288 0-.485-.237-.44-.528a.638.638 0 0 1 .605-.529c.288 0 .485.237.44.529M10.562 30.12a.637.637 0 0 1-.605.528c-.288 0-.485-.237-.44-.528a.637.637 0 0 1 .605-.53c.288 0 .485.237.44.53"/>
        <path fill="#EC992F" d="M13.535 28.534h-.007c-.047-.004-.082-.042-.079-.086l.018-.183c.078-.808.286-2.955-.327-3.615a.542.542 0 0 0-.378-.184c-.047-.003-.083-.041-.08-.085.003-.044.044-.077.092-.074a.723.723 0 0 1 .498.24c.659.71.454 2.828.366 3.732l-.017.182c-.003.042-.041.073-.086.073M10.474 29.59h-.008c-.04-.003-.068-.03-.063-.059.049-.33.113-.651.19-.953.007-.03.046-.049.083-.043.039.006.064.034.057.063-.077.3-.14.617-.188.945-.004.028-.035.048-.071.048M14.721 28.534h-.002c-.04-.002-.07-.04-.07-.085a7.306 7.306 0 0 0-.264-2.18c-.056-.2-.113-.362-.204-.497-.102-.149-.24-.24-.373-.245-.04-.001-.07-.039-.07-.084.002-.044.033-.08.072-.08l.002.001c.177.006.352.118.481.308.11.163.175.36.228.547a7.48 7.48 0 0 1 .271 2.236c0 .044-.033.08-.07.08"/>
        <path fill="#AACC3C" d="M6.998 27.477l6.74 1.443-5.714 9.125L0 35.52l6.998-8.042"/>
        <path fill="#97B33D" d="M13.728 28.534l.01.428-4.156 8.644-1.127.44 5.273-9.512"/>
        <path fill="#AACC3C" d="M12.3 28.534l-3.845 8.728.642 2.897 3.585-11.547-.382-.078"/>
        <path fill="#B3CF39" d="M8.455 37.474l1.307-.485.806 3.17-2.113-2.685"/>
        <path fill="#97B33D" d="M0 35.932l7.633 2.199 1.878 2.028-7.443-2.395L0 35.932"/>
        <path fill="#EBF3DB" d="M11.599 28.258c-.091.257-.39.351-.667.211-.277-.139-.428-.46-.337-.716.09-.256.389-.35.666-.211.277.14.428.46.338.716M8.428 27.201c-.09.257-.39.351-.667.212-.277-.14-.428-.46-.337-.717.091-.256.39-.35.667-.21.277.138.428.46.337.715"/>
        <path fill="#EC992F" d="M10.746 28.534c-.012 0-.023 0-.035-.002-.065-.012-.103-.052-.084-.09.452-.903 1.423-3.577.009-3.999-.061-.018-.085-.061-.054-.097.03-.035.106-.05.166-.03 1.893.563.135 4.13.117 4.166-.016.032-.065.052-.119.052M8.35 27.477a.044.044 0 0 1-.02-.004c-.031-.015-.049-.067-.038-.114.03-.135.05-.23.065-.308.037-.18.058-.28.146-.576.013-.046.05-.067.08-.047.031.02.046.074.032.12-.084.286-.103.377-.14.556-.016.08-.036.175-.066.311-.01.038-.033.062-.059.062"/>
        <path fill="#EC992F" d="M12.404 28.534c-.008 0-.016 0-.024-.002-.056-.011-.09-.058-.077-.105a5.2 5.2 0 0 0 .106-2.166l-.019-.125c-.041-.294-.152-1.075-.238-1.23a.98.98 0 0 0-.468-.432c-.051-.021-.073-.073-.05-.117.025-.044.086-.063.139-.042.23.093.436.28.566.516.088.16.175.711.257 1.284l.017.124a5.33 5.33 0 0 1-.109 2.227c-.01.04-.054.068-.1.068"/>
        <path fill="#483D3D" d="M161.011 4.435a1.047 1.047 0 0 0 1.453.722.738.738 0 0 1 .264.765.769.769 0 0 1-.61.555c.259.195.358.521.264.829a.828.828 0 0 1-.722.563c.227.571.092 1.19-.344 1.629a1.692 1.692 0 0 1-1.726.386c-.34.51-1.132.716-1.752.68a1.811 1.811 0 0 1-1.485-.962c-.186.323-.599.432-.977.423a1.075 1.075 0 0 1-.913-.566c-.388.138-.974-.205-1.144-.575-.17-.37-.003-.855.36-1.048-.231-.315-.224-.783-.186-1.17l.396-.213c-.487-.169-.818-1.525-.56-1.964 0 0 1.096.2 1.477 0 .35-.72.783-1.06 1.38-1.598.6-.538 1.424-.883 2.223-.748.57.096 1.078.425 1.48.832.404.407 1 .905 1.122 1.46"/>
        <path fill="#BDBDBA" d="M155.88 90.886c-8.462 0-15.323-.946-15.323-2.113 0-1.168 6.86-2.114 15.324-2.114 8.463 0 15.324.946 15.324 2.114 0 1.167-6.861 2.113-15.324 2.113"/>
        <path fill="#CFD2D4" d="M141.336 32.002c-1.951-1.927.244-3.78 1.35-5.273 1.628-2.194 2.147-4.482 2.737-7.12.45-2.015 2.513-3.192 4.348-2.501 6.508 2.447-1.912 12.503-4.725 14.799-1.129.921-2.489 1.298-3.705.1l-.005-.005"/>
        <path fill="#E5998D" d="M149.607 44.857c.308-1.012.822-1.89 1.66-2.588 1.297-1.085 2.972-1.353 4.406-.704 1.243.561 2.213 1.767 2.633 3.27.488 1.743.08 3.29-.516 4.95a64.529 64.529 0 0 0-3.263 13.593c-.207 1.611-.148 3.68-1.828 4.182-1.105.332-2.19-.454-2.425-1.756-.742-4.124-1.204-8.339-1.258-12.59-.026-2.148.051-4.301.242-6.447a9.47 9.47 0 0 1 .35-1.91"/>
        <path fill="#ECECF1" d="M155.22 84.71c-.058.439-.134.876-.207 1.314l-.128.796c-.081.502-.62.892-1.276.896-.716.004-1.3-.452-1.305-1.02v-.04a58.586 58.586 0 0 0-.122-3.167c1.007.299 2.132.34 3.17.118-.04.368-.083.735-.132 1.102"/>
        <path fill="#E5998D" d="M149.907 63a2.904 2.904 0 0 1 1.51-.628c1.727-.191 2.886 1.01 3.115 2.478a70.366 70.366 0 0 1 .5 17.422 5.464 5.464 0 0 1-3.084-.135 72.36 72.36 0 0 0-.953-8.443c-.35-2.01-.79-4.008-1.323-5.984-.427-1.584-1.358-3.408.235-4.71"/>
        <path fill="#3B455A" d="M152.72 86.343c-4.857-15.627-6.226-29.855-5.725-44.07 3.513.744 12.678.91 12.584.827-.33 6.336-3.145 11.936-3.338 19.514-.142 5.56 1.174 8.87-.75 23.645-.994.514-1.775.523-2.771.084"/>
        <path fill="#583723" d="M149.838 88.688c-.442.063-1.599.105-2.046.075-.341-.023-.687-.153-.894-.368l.01-.021c1.666-.173 3.657-.74 4.622-1.715a3.903 3.903 0 0 1 1.709.55l-.434.43c-.447.443-1.329.812-2.967 1.049"/>
        <path fill="#2B1F17" d="M146.244 88.933c1.528.514 3.035.298 4.637.014 1.462-.26 2.86-.737 4.246-1.231.123.23.21.468.225.686-.703.769-1.78.971-2.893.968-.2-.138-.165-.27-.365-.408-.13.214-.059.333-.188.547-2.104.507-4.01.403-6.065-.242l.17-.387c.051.014.233.053.233.053"/>
        <path fill="#4A311F" d="M146.898 88.5c.125-.202.08-.462.195-.667.204.215.547.345.885.368.443.03 1.589-.012 2.027-.076 1.622-.236 2.495-.605 2.937-1.05.598.184 1.398-.031 1.743-.416.247.192.496.473.667.767-1.318.436-2.65.857-4.041 1.085-1.524.25-2.96.44-4.413-.012"/>
        <path fill="#4A311F" d="M150.068 88.01c.598.06 1.137.36 1.48.763.232-.104.402-.207.634-.31-.383-.438-1.02-.722-1.68-.747-.136.1-.299.193-.434.293"/>
        <path fill="#C7C6C1" d="M148.216 89.83c-.437 0-.874-.216-1.26-.635-.054-.06-.074-.195-.045-.305.03-.109.097-.15.152-.09.547.595 1.206.742 1.806.4.06-.035.121.036.138.154.017.12-.017.244-.077.278a1.435 1.435 0 0 1-.714.198M149.99 89.995c-.04 0-.076-.043-.085-.106-.011-.074.018-.147.065-.165l.157-.057c.047-.016.094.03.105.103.01.074-.019.147-.066.165l-.157.057a.062.062 0 0 1-.02.003M155.145 87.716c-.09 0-.17-.042-.198-.108a1.583 1.583 0 0 0-.585-.684c-.084-.056-.09-.153-.012-.215a.26.26 0 0 1 .293-.009c.328.222.57.505.7.818.033.08-.028.166-.137.191a.282.282 0 0 1-.061.007"/>
        <path fill="#C7C6C1" d="M155.385 87.882c-.052 0-.102-.024-.123-.065l-.065-.124c-.028-.053.004-.113.072-.135.067-.021.145.003.174.056l.065.125c.028.053-.004.113-.073.135a.161.161 0 0 1-.05.008M153.29 86.825a.119.119 0 0 1-.115-.098c0-.003-.006-.009-.009-.01-.06-.013-.103-.071-.091-.13a.11.11 0 0 1 .125-.092.24.24 0 0 1 .204.21c.005.061-.039.111-.1.119h-.014"/>
        <path fill="#E5998D" d="M157.76 46.097c.239-1.022.67-1.919 1.402-2.651 1.134-1.137 2.643-1.476 3.971-.892 1.15.507 2.08 1.667 2.522 3.146.513 1.717.206 3.277-.269 4.957a69.937 69.937 0 0 0-2.413 13.69c-.122 1.615.014 3.675-1.49 4.247-.989.378-2.006-.359-2.271-1.647-.84-4.078-1.43-8.26-1.65-12.496a69.848 69.848 0 0 1-.04-6.436c.027-.677.1-1.32.239-1.918"/>
        <path fill="#ECECF1" d="M165.85 84.617c-.035.446-.086.891-.134 1.336l-.085.81c-.053.511-.57.925-1.224.952-.714.029-1.322-.412-1.359-.986l-.002-.04a60.576 60.576 0 0 0-.296-3.2 6.447 6.447 0 0 0 3.17.008c-.02.374-.042.747-.07 1.12"/>
        <path fill="#E5998D" d="M159.264 63.08a2.548 2.548 0 0 1 1.356-.69c1.572-.263 2.685.895 2.958 2.359a77.497 77.497 0 0 1 1.21 17.464 4.588 4.588 0 0 1-2.828-.01 79.468 79.468 0 0 0-1.237-8.434 73.518 73.518 0 0 0-1.47-5.951c-.46-1.573-1.39-3.365.011-4.738"/>
        <path fill="#3B455A" d="M162.144 86.404c-5.336-15.132-6.687-29.094-6.792-43.074 3.423.575 11.719.386 11.624.31-.056 6.236-2.541 11.858-2.414 19.309.093 5.464 1.5 8.658.255 23.251-.94.548-1.693.592-2.673.204"/>
        <path fill="#583723" d="M160.406 88.688c-.442.063-1.599.105-2.046.075-.341-.023-.687-.153-.894-.368l.01-.021c1.666-.173 3.658-.74 4.622-1.715a3.905 3.905 0 0 1 1.709.55l-.434.43c-.446.443-1.328.812-2.967 1.049"/>
        <path fill="#2B1F17" d="M156.812 88.933c1.528.514 3.035.298 4.637.014 1.462-.26 2.86-.737 4.245-1.231.124.23.21.468.226.686-.703.769-1.78.971-2.893.968-.2-.138-.164-.27-.365-.408-.129.214-.059.333-.188.547-2.104.507-4.009.403-6.065-.242l.17-.387a8 8 0 0 0 .233.053"/>
        <path fill="#4A311F" d="M156.41 88.5c.125-.202.08-.462.194-.667.205.215.547.345.886.368.443.03 1.588-.012 2.026-.076 1.622-.236 2.496-.605 2.938-1.05.597.184 1.397-.031 1.743-.416.247.192.496.473.667.767-1.319.436-2.65.857-4.042 1.085-1.524.25-2.959.44-4.413-.012"/>
        <path fill="#4A311F" d="M160.636 88.01c.598.06 1.137.36 1.48.763.232-.104.403-.207.634-.31-.382-.438-1.02-.722-1.68-.747-.135.1-.298.193-.434.293"/>
        <path fill="#C7C6C1" d="M158.784 89.83c-.437 0-.874-.216-1.26-.635-.054-.06-.074-.195-.045-.305.03-.109.097-.15.152-.09.548.595 1.206.742 1.806.4.059-.035.121.036.138.154.017.12-.018.244-.077.278a1.434 1.434 0 0 1-.714.198M159.5 89.995c-.039 0-.075-.043-.084-.106-.01-.074.018-.147.065-.165l.158-.057c.047-.016.093.03.104.103.01.074-.018.147-.065.165l-.158.057a.06.06 0 0 1-.02.003M165.713 87.716c-.088 0-.17-.042-.199-.108a1.58 1.58 0 0 0-.583-.684c-.085-.056-.09-.153-.012-.215a.259.259 0 0 1 .292-.009c.326.222.569.505.7.818.034.08-.027.166-.137.191a.277.277 0 0 1-.06.007"/>
        <path fill="#C7C6C1" d="M165.953 87.882c-.052 0-.102-.024-.123-.065l-.065-.124c-.028-.053.004-.113.072-.135.067-.021.145.003.174.056l.065.125c.028.053-.004.113-.072.135a.162.162 0 0 1-.05.008M162.801 86.825a.12.12 0 0 1-.115-.098c0-.003-.005-.009-.008-.01-.06-.013-.103-.071-.092-.13.011-.06.066-.102.125-.092a.24.24 0 0 1 .204.21c.006.061-.038.111-.1.119h-.014"/>
        <path fill="#E1D4BC" d="M153.239 13.61c.298-.271.572-.572.792-.928 2.4 1.453 5.474 1.497 7.899.09.238.346.517.665.82.97a10.674 10.674 0 0 1-9.511-.132"/>
        <path fill="#283032" d="M146.734 20.421c.154-.781.434-1.55.871-2.297.746-1.273 1.831-2.258 3.112-2.978.763-.43 1.606-.84 2.296-1.407 2.986 1.4 6.583 1.447 9.604.12.686.625 1.509 1.17 2.378 1.706 1.023.628 2.057 1.288 2.81 2.22 2.8 3.474-.355 7.602-.585 11.216a40.354 40.354 0 0 0 1.862 14.94c.214.65-3.562 1.852-4.325 2.011-2.252.472-4.589.57-6.883.544a70.587 70.587 0 0 1-6.946-.394c-1.869-.206-3.335-.849-5.087-1.566a80.218 80.218 0 0 0 1.289-12.644c.046-2.108.079-4.259-.11-6.36-.157-1.731-.631-3.357-.286-5.11"/>
        <path fill="#E5998D" d="M154.295 11.688c.037-.056.073-.112.107-.171.552-.97.696-2.046.6-3.158-.205-2.387-.422-6.15 2.823-6.244 3.36-.097 3.23 3.827 2.993 6.251-.139 1.419.222 2.502.875 3.402-2.27 1.25-5.15 1.211-7.398-.08"/>
        <path fill="#CFD2D4" d="M160.828 11.625l-1.6 1.042-1.762 4.242 2.014-3.064.579 1.352 1.634-2.253-.865-1.319"/>
        <path fill="#E5E5E0" d="M160.647 15.852l-1.067-2.993 2.057-1.234 1.113 1.561-2.103 2.666"/>
        <path fill="#CFD2D4" d="M153.047 11.625l1.6 1.042 1.762 4.242-2.014-3.064-.579 1.352-1.634-2.253.865-1.319"/>
        <path fill="#E5E5E0" d="M154.284 15.852l1.068-2.993-2.057-1.234-1.113 1.561 2.102 2.666"/>
        <path fill="#E5998D" d="M155.352 13.739l2.165 4.227 2.063-4.156-4.228-.071"/>
        <path fill="#BDBDBA" d="M146.915 46.5c-.006-.23-.07-.875-.07-1.057l.106.017a39.05 39.05 0 0 0-.036 1.04M166.811 45.443c.084-.342.153-.686.207-1.031l.123-.026c.022.233-.17.66-.33 1.057"/>
        <path fill="#E5E5E0" d="M165.501 16.989c-1.875.419-3.073 2.358-2.674 4.33.572 2.835 1.59 5.583 3.14 7.987 1.187 1.839 3.844 5.894 6.327 4.036 2.386-1.786-.023-4.21-.928-5.999a17.02 17.02 0 0 1-1.798-7.114c-.07-2.15-2.03-3.695-4.067-3.24M157.466 29.116a97.174 97.174 0 0 1-5.025-.308 76.545 76.545 0 0 1-4.773-.572c-1.423-.217-2.903-.695-4.34-.756-1.463-.063-2.701 1.014-2.768 2.405-.168 3.534 5.508 2.815 7.826 2.82 2.886.005 5.742-.193 8.59-.503a4.987 4.987 0 0 1 .49-3.086"/>
        <path fill="#E5998D" d="M162.75 30.958c.002-.723-.49-1.31-1.1-1.313h-.017a99.503 99.503 0 0 1-2.768-.054c-.408.974-.45 2.152-.13 3.17 1.024-.155 2.049-.328 3.074-.513.531-.093.94-.635.941-1.29"/>
        <path fill="#CFD2D4" d="M158.523 29.629c-.238-.01-.476-.024-.714-.038a8.187 8.187 0 0 0-.303 3.17c.309-.056.617-.115.926-.178-.224-.949-.194-2.046.09-2.954"/>
        <path fill="#E5998D" d="M181.959 15.285l.318-.315c.09-.09.198-.185.324-.174.164.015.257.217.22.378-.036.161-.159.287-.276.403-.114.112-.237.23-.392.267-.157.036-.352-.046-.377-.204-.022-.137.084-.257.183-.355"/>
        <path fill="#E5E5E0" d="M178.333 19.023a87.623 87.623 0 0 1-3.22 3.618 70.227 70.227 0 0 1-3.3 3.279c-1.025.95-2.309 1.798-3.207 2.848-.914 1.068-.71 2.613.454 3.45 2.96 2.128 5.674-2.563 7.04-4.31 1.702-2.176 3.21-4.443 4.616-6.769-1.004-.46-1.85-1.21-2.383-2.116"/>
        <path fill="#E5998D" d="M182.298 14.997c-.572-.345-1.37-.236-1.781.244l-.01.013c-.62.719-1.255 1.441-1.905 2.16.5.785 1.406 1.378 2.43 1.609.565-.883 1.116-1.774 1.658-2.671.283-.463.127-1.043-.392-1.355"/>
        <path fill="#CFD2D4" d="M179.327 16.91c-.24.303-.481.606-.725.909a5.552 5.552 0 0 0 2.426 2.26c.251-.435.5-.873.745-1.312-1.03-.267-1.944-.952-2.446-1.858"/>
        <path fill="#E5998D" d="M181.902 16.483c-.288-.435-.062-1.07.363-1.37.425-.3.977-.34 1.494-.309.518.032 1.038.124 1.55.047.21-.031.458-.078.604.076.106.112.108.293.044.433s-.18.247-.299.345a5.572 5.572 0 0 1-2.226 1.117c-.27.067-.552.112-.827.072-.276-.04-.549-.176-.703-.41"/>
        <path fill="#483D3D" d="M154.697 4.227l.655.271c-.805.482-.766 3.514-.971 3.957-.171-1.614-.095-2.937.316-4.228"/>
        <path fill="#332A2B" d="M154.667 4.227s.685.278.685.247a.868.868 0 0 0-.65.365c-.109.17-.171.37-.225.57-.078.293-.127.632-.182.932.022-.784.14-1.468.372-2.114"/>
        <path fill="#483D3D" d="M160.37 8.455c-.372-.4-1.148-4.147-1.105-5.273l.319-.177-.363.07s-.181-.388-.198-.41a1.902 1.902 0 0 0-1.375-.732 1.904 1.904 0 0 0-.986.215c-.333.172-.523.449-.795.686-.472.414-.94.704-1.571.794-.345.05-.71.071-1.057.073.524-.078 1.206-2.467 3.524-2.629 1.658-.115 2.648.424 3.148 1.734.166.078.408.093.573.171.092.341.344 1.854-.113 5.478"/>
        <path fill="#332A2B" d="M160.62 4.227c-.423.13-.517.101-1.04.168.486.123.626.252.72.48.173.424.26 1.032.326 1.466.026-.887-.007-1.442 0-2.11l-.006-.004M153.239 4.154c.215-.05.433-.07.648-.12.252-.06.51-.121.73-.265.397-.258.613-.738.944-1.086.45-.475 1.14-.685 1.751-.506.611.178 1.112.75 1.21 1.418-.182-.478-.532-.884-.995-1.037a1.578 1.578 0 0 0-1.39.211c-.354.25-.604.634-.934.918-.534.46-1.303.66-1.964.467"/>
        <path fill="#E5998D" d="M159.58 5.751a.882.882 0 0 0 .2.59c.182-.06.361-.126.512-.216.151-.09.274-.203.323-.333a.33.33 0 0 0-.112-.38.676.676 0 0 0-.546-.111.503.503 0 0 0-.29.185.481.481 0 0 0-.086.265M154.294 5.751a.882.882 0 0 1-.2.59 2.586 2.586 0 0 1-.511-.216c-.151-.09-.275-.203-.323-.333a.33.33 0 0 1 .112-.38.676.676 0 0 1 .546-.111c.13.031.231.103.29.185.06.082.082.174.086.265"/>
        <path fill="#483D3D" d="M154.472 5.75c-.064.486-.125.994.085 1.448.21.454.785.827 1.338.7.274-.062.503-.234.782-.276.376-.057.735.132 1.065.297.33.164.732.313 1.08.179a.777.777 0 0 0 .44-.47c.071-.198.075-.408.078-.614l.027-1.73c.103.038.194.047.298.085.059.899.315 1.76.687 2.6.652 1.475.175 3.115-1.349 4.049-.823.504-1.852.707-2.854.656-.928-.047-1.829-.69-2.356-1.3-.517-.6-.613-1.476-.526-2.197.062-.52.214-1.04.413-1.533.143-.354.49-.577.53-.97l.136-1.348c.055.14.145.278.126.425M159.58 5.45l-1.057-.332M159.57 4.894s-.093.18-.21.278a.373.373 0 0 1-.193.103c-.033 0-.07.02-.102.002l-.1-.034-.095-.077c-.032-.021-.06-.075-.088-.11a1.244 1.244 0 0 1-.142-.292c-.08-.208-.117-.46-.117-.46l.01-.077.528.258.519.334-.01.075M156.41 4.174l-1.058.106M156.41 4.093s-.059.093-.152.163a.594.594 0 0 1-.16.092c-.031.01-.062.027-.094.03l-.098.015-.099-.002c-.032 0-.066-.012-.097-.017a.727.727 0 0 1-.355-.21l-.003-.03.526-.052.528-.02.003.03"/>
        <path fill="#483D3D" d="M157.47 5.748a.529.529 0 1 0 1.05.129.529.529 0 0 0-1.05-.13M155.356 5.747a.529.529 0 1 0 1.05.13.529.529 0 0 0-1.05-.13"/>
        <path fill="#EEE9DE" d="M157.466 8.767l-.528-.312-.529.19s-.005.793.415.862c.42.07.642-.74.642-.74"/>
        <path fill="#DE6756" d="M159.577 7.876a.528.528 0 1 1-1.052.1.528.528 0 0 1 1.052-.1M155.35 6.82a.528.528 0 1 1-1.052.1.528.528 0 0 1 1.052-.1"/>
        <path fill="#363C40" d="M155.308 5.504c-.026 0-.052 0-.076.002-.155.007-.367.039-.495.15-.136.12-.214.313-.217.544-.006.297.113.611.296.782a.767.767 0 0 0 .522.196.754.754 0 0 0 .423-.125c.306-.21.49-.72.4-1.114a.406.406 0 0 0-.028-.086c-.12-.257-.505-.349-.825-.349zm.03 1.894a.997.997 0 0 1-.678-.257c-.227-.213-.37-.585-.364-.945.005-.293.108-.543.292-.703.142-.125.355-.194.634-.207l.086-.002c.188 0 .822.034 1.028.477a.64.64 0 0 1 .045.13c.11.488-.106 1.078-.492 1.342a.968.968 0 0 1-.551.165zM158.438 5.504c-.18 0-.502.032-.643.25a.431.431 0 0 0-.041.083c-.142.378-.03.906.245 1.154.24.217.683.243.948.055.204-.145.365-.44.4-.735.029-.229-.022-.43-.14-.566-.112-.128-.318-.187-.47-.215a1.726 1.726 0 0 0-.299-.026zm.073 1.894a1 1 0 0 1-.664-.245c-.346-.313-.48-.924-.304-1.392a.642.642 0 0 1 .063-.124c.147-.228.443-.353.832-.353.111 0 .228.01.339.03.274.05.476.146.6.289.16.183.229.443.194.734-.044.357-.237.706-.492.887a.986.986 0 0 1-.568.174z"/>
        <path fill="#363C40" d="M156.388 5.45l-1.036-.062.021-.27 1.036.062-.02.27M159.551 5.45l-1.028-.048.028-.284 1.029.048-.029.284M154.262 5.45l-1.023-.04.034-.292 1.022.04-.033.292"/>
        <path fill="#D76E65" d="M156.484 7.131l.239-1.229c.053-.277.164-.615.39-.618.136-.002.254.137.305.297.05.16.05.339.047.511l-.014 1.084c-.003.298-.01.607-.116.872-.107.265-.348.469-.574.39-.191-.068-.315-.316-.343-.564-.029-.248.019-.5.066-.743"/>
        <path fill="#BDBDBA" d="M83.489 90.886c-14.008 0-25.364-.946-25.364-2.113 0-1.168 11.356-2.114 25.364-2.114 14.008 0 25.363.946 25.363 2.114 0 1.167-11.355 2.113-25.363 2.113"/>
        <path fill="#CFD2D4" d="M102.502 65.67c-.372-1.189-.628-2.285-1.014-3.47-1.706-5.24-2.552-10.76-4.65-16.287-1.266-3.335-.78-6.091-3.707-8.924a24.439 24.439 0 0 1-13.566.059c-2.521 3.172-3.319 7.272-4.275 11.191a60.616 60.616 0 0 1-10.74 22.413c-5.245 5.938-1.8 7.467 17.975 2.312 6.908-1.802 11.52 2.288 16.325-1.233 1.883-1.38 3.81-3.554 3.652-6.061"/>
        <path fill="#666" d="M88.514 12.754c-.284.647-.77 1.169-.999 1.842-.258.762-.134 1.673.314 2.313-.741-.335-1.154-1.245-1.306-2.128-.152-.884-.11-1.8-.272-2.681-.222-1.209-.839-2.32-1.706-3.073.948-.8 2.38-.757 3.289.097.909.854 1.205 2.435.68 3.63"/>
        <path fill="#44413F" d="M87.562 26.158c-1.017-.63-1.69-1.798-1.735-3.008-.045-1.21.542-2.427 1.51-3.132.479-.35 1.105-.672 1.166-1.27.06-.574-.451-1.026-.669-1.56-.235-.58-.05-1.278.374-1.723a.538.538 0 0 0-.266.184c.463-1.205.227-2.61-.18-3.75-.44-1.23-1.287-2.099-3.103-2.36-1.14-.164-2.244.407-3.012 1.35.245.352.466.723.557 1.14.116.536-.04 1.174-.507 1.448-.34.2-.856.254-.933.646-.06.302.208.553.352.823.188.353.16.814-.069 1.14a1.07 1.07 0 0 1-1.036.434c-.366-.064-.67-.315-1.004-.478-.335-.163-.787-.216-1.036.065-.295.333-.093.874.204 1.205.297.33.692.608.815 1.038.196.684-.395 1.34-1.002 1.693s-1.325.615-1.683 1.226c-.462.79-.113 1.83.45 2.549.561.719 1.317 1.272 1.818 2.037.912 1.396.711 3.407-.375 4.645.276.108.553.212.832.308 1.678.574 3.448.97 5.222.885 1.775-.084 3.56-.687 4.807-1.884.686-.659 1.19-1.475 1.558-2.335.102-.238.192-.483.27-.731-1.174.107-2.338.026-3.325-.585"/>
        <path fill="#666" d="M88.66 16.441c.216.496.725.917.666 1.451-.062.555-.685.856-1.162 1.18-.963.656-1.547 1.787-1.503 2.913.045 1.126.715 2.213 1.727 2.798.983.568 2.143.643 3.31.544.214-.646.314-1.32.192-1.982-.165-.899-.8-1.769-1.754-2.1-.32-.111-.534-.574-.51-.878.024-.304.233-.57.466-.792.233-.221.5-.418.69-.67.33-.442.379-1.04.125-1.525-.254-.485-.803-.838-1.397-.9-.178-.018-.21-.21-.204-.368.005-.158.111-.297.216-.425.104-.127.215-.262.232-.42.02-.191-.122-.388-.326-.452a.683.683 0 0 0-.396.024c-.422.414-.607 1.063-.372 1.602M78.558 25.892c-.528-.783-1.327-1.35-1.92-2.086-.593-.737-.963-1.802-.474-2.61.378-.626 1.136-.894 1.777-1.256.641-.361 1.265-1.033 1.058-1.732-.13-.44-.547-.725-.86-1.063-.314-.339-.528-.893-.216-1.234.263-.287.74-.234 1.093-.067.354.167.674.425 1.06.49.41.069.853-.11 1.095-.445.243-.334.272-.805.073-1.166-.152-.277-.435-.535-.372-.843.082-.401.627-.457.986-.662.492-.28.658-.933.535-1.481-.096-.429-.33-.808-.588-1.169a4.743 4.743 0 0 0-.982 1.953c-.067.286-.085 1.072-.606.722-.144-.096-.26-.239-.431-.28-.32-.075-.59.268-.586.573.004.305.171.588.234.887.15.72-.267.643-.778.575-.618-.083-1.243-.02-1.746.35-.598.439-.88 1.213-.695 1.903.105.394.351.775.294 1.177-.055.387-.388.695-.758.882-.37.186-.787.28-1.176.43-1.709.66-2.743 2.42-2.71 4.138.031 1.718 1.003 3.35 2.358 4.536 1.127.986 2.501 1.69 3.94 2.234 1.147-1.268 1.358-3.328.395-4.756"/>
        <path fill="#E5998D" d="M104.324 83.385c-1.83-6.517-2.252-12.564-3.836-19.138-.58-2.405-2.253-5.355-2.874-7.749-.101-.389-.203-.778-.306-1.166-1.04-3.935-2.17-7.845-3.483-11.708a53.217 53.217 0 0 0-.043-.124c-.774-2.261-2.978-3.696-5.31-3.264-1.86.345-3.379 1.85-3.785 3.757-.502 2.36.435 4.78 1.167 6.976a44.507 44.507 0 0 0 2.992 6.931c.255.472.517.93.784 1.376.72 1.201 1.478 2.298 2.256 3.224 1.166 1.389 2.113 2.856 2.497 4.666.377 1.779.632 3.491 1.313 5.193.857 2.143 2.017 4.155 3.234 6.097a92.818 92.818 0 0 0 2.91 4.345c.482.68 1.088 1.989 1.73 2.468 1.627 1.216.934-1.24.754-1.884"/>
        <path fill="#E5998D" d="M106.689 86.657c.24.01.488-.011.704-.117a.773.773 0 0 0 .402-.455 5.618 5.618 0 0 1-.632-.258 5.81 5.81 0 0 1-2.604-2.567c-.247-.485-.733-.906-1.295-.816-.264.043-.435.073-.616.272a1.04 1.04 0 0 0-.137.19c.445.842.907 1.683 1.549 2.382.687.748 1.617 1.325 2.629 1.369"/>
        <path fill="#6FA5A9" d="M108.339 86.899a.798.798 0 0 1-.355.489c-.19.113-.41.136-.621.125-.892-.047-1.712-.666-2.319-1.47-.566-.748-.973-1.651-1.365-2.554-.242.522-.028 1.126.077 1.73.243 1.41.316 3.238-.04 4.61.033-.018.243-.058.275-.077.425-1.028.718-1.675.878-2.867.398 1.24 1.576 1.826 2.656 1.84 1.244.018 2.532-.555 3.44-1.597a4.217 4.217 0 0 1-2.626-.23"/>
        <path fill="#E5998D" d="M97.41 33.13c-1.54-.595-3.114-1.55-4.774-2.783-1.35-1.003-3.478-2.628-3.814-4.604-.222-1.307.32-2.535 1.423-3.151 1.532-.857 3.674-.275 4.867 1.2.696.86 1.212 1.79 1.827 2.549.585.72 1.18 1.355 1.78 1.905.54.496 1.084.925 1.63 1.289.105.07 1.361.771 1.368.752 1.602.833.567 3.346-1.209 3.531a10.154 10.154 0 0 1-3.098-.688M102.27 22.607c.11.088.23.192.24.33.012.154-.135.292-.295.31a.54.54 0 0 1-.43-.172 1.412 1.412 0 0 1-.25-.394.614.614 0 0 1-.08-.266c0-.093.055-.192.148-.216.103-.027.203.043.286.107l.38.301"/>
        <path fill="#D6D5D0" d="M100.49 21.925l.621-3.69c.025-.149.179-.27.344-.27h-.09c-.164 0-.318.121-.343.27l-.62 3.69c-.026.148.088.268.253.268h.089c-.165 0-.278-.12-.254-.268"/>
        <path fill="#ACADA9" d="M105.412 17.966h-2.94c-.173 0-.334.12-.36.268l-.654 3.691c-.026.148.093.268.267.268h2.939c.173 0 .335-.12.361-.268l.653-3.69c.027-.149-.093-.27-.266-.27"/>
        <path fill="#D6D5D0" d="M103.562 19.551a.633.633 0 0 1-.601.529c-.289 0-.487-.237-.444-.529a.632.632 0 0 1 .602-.528c.288 0 .487.236.443.528"/>
        <path fill="#E5998D" d="M101.85 25.406c.167-.777.293-1.563.377-2.355.093-.87-.377-1.859.933-1.913 1.083-.045 1.243 1.048 1.345 1.921.242 2.068.09 4.075-.21 6.13-.134.912-.327 1.814-.522 2.715-.147.677-.228 1.391-.66 1.953a2.631 2.631 0 0 1-1.746 1c-1.372.195-2.413-1.27-1.887-2.596l.803-2.022c.625-1.573 1.208-3.166 1.567-4.833"/>
        <path fill="#E5998D" d="M102.592 21.037c-.035.17-.053.346-.065.52-.033.49-.014.985.056 1.469.027.195.047.554.14.717.09.155.148.142.308.205.371.146.786.581 1.155.217.714-.707.378-1.661.224-2.584-.064-.383-.16-.77-.357-1.07-.198-.3-.515-.498-.815-.41-.234.067-.426.298-.537.57-.048.116-.083.24-.11.366M87.131 41.33a4.812 4.812 0 0 0-5.295-.663c-2.126 1.078-3.377 3.339-4.587 5.297a43.64 43.64 0 0 0-3.386 6.721c-.198.498-.381.994-.551 1.485-.458 1.325-.811 2.617-1.022 3.816-.316 1.798-.832 3.47-1.97 4.91-1.119 1.413-2.265 2.688-3.131 4.296-1.09 2.024-1.886 4.207-2.594 6.392a92.866 92.866 0 0 0-1.459 5.038c-.212.809-.825 2.111-.781 2.922.111 2.057 1.547-.032 1.923-.578 3.812-5.538 8.167-9.66 12.18-15.037 1.468-1.967 2.654-5.146 4.087-7.139.233-.324.464-.649.696-.974 2.343-3.29 4.61-6.638 6.724-10.103l.067-.112c1.234-2.031.92-4.685-.9-6.271"/>
        <path fill="#E5998D" d="M62.173 86.156c.167.189.362.36.599.448a.82.82 0 0 0 .637-.02 5.77 5.77 0 0 1-.263-.659 5.926 5.926 0 0 1 .061-3.78c.19-.531.157-1.196-.319-1.555-.224-.17-.37-.277-.653-.272a1.08 1.08 0 0 0-.242.032c-.318.932-.621 1.876-.686 2.855-.07 1.049.166 2.159.866 2.951"/>
        <path fill="#6FA5A9" d="M63.645 86.718a.84.84 0 0 1-.599.017 1.447 1.447 0 0 1-.563-.383c-.658-.68-.88-1.631-.814-2.53.06-.84.346-1.649.644-2.447-.534.119-.77.617-1.092 1.036-.748.976-1.908 2.065-3.096 2.582.038.013.226.144.264.157 1.012-.27 1.669-.422 2.585-.98-.517.993.004 2.188.828 2.987.95.92 2.326 1.54 3.72 1.616a5.315 5.315 0 0 1-1.877-2.055"/>
        <path fill="#E9887A" d="M78.943 36.989a19.616 19.616 0 0 0-.92 1.89c-.466 1.118-.8 2.28-.865 3.502-.134 2.52 1.065 5.221 2.787 7.06l.109.103c2.453 2.33 6.262 2.91 9.326 1.42 3.046-1.482 4.905-5.603 4.654-8.817a10.044 10.044 0 0 0-.271-1.628c-.12-.483-.269-.96-.439-1.43a20.805 20.805 0 0 0-.345-.887c-.13-.313-.287-.63-.448-.953-4.395 1.365-9.253 1.28-13.588-.26"/>
        <path fill="#6FA5A9" d="M91.993 34.055c-3.78 1-7.887.922-11.614-.237.033.726-.172 1.469-.589 2.155-.18.297-.356.598-.529.901 4.383 1.474 9.296 1.556 13.739.25-.521-.984-1.09-2.01-1.007-3.069"/>
        <path fill="#E5998D" d="M88.525 29.59c1.36-1.445 2.023-3.575 2.277-5.488.176-1.33.053-2.67-.15-4.001-.116-.177-.237-.352-.35-.53-.955-1.505-.388-3.113-.574-4.797a8.228 8.228 0 0 0-.493-1.998c-.672-1.754-1.996-3.396-4.046-3.256-1.856.127-3.251 1.64-3.116 3.38.182 2.34-.636 4.623-1.755 6.74 3.82 2.332 6.767 5.896 8.207 9.95"/>
        <path fill="#ECECF1" d="M94.063 25.596c-.698-1.08-1.414-2.153-2.118-3.233-.156-.239-.311-.478-.465-.718-.236-.368-.465-.74-.695-1.112.19 1.31.304 2.629.14 3.938-.236 1.882-.854 3.978-2.122 5.402-1.343-3.99-4.092-7.499-7.653-9.793-.025.051-.05.103-.077.154a28.837 28.837 0 0 1-.686 1.272 48.713 48.713 0 0 1-.72 1.222c-1.03 1.694-2.625 3.025-2.514 5.19.003.056.01.108.015.162.015.162.036.319.066.467.253 1.22 1.032 2.021 1.95 2.926.053.052.101.108.151.162.386.424.648.894.797 1.386.086.286.13.579.143.875a19.512 19.512 0 0 0 11.393.249c.022-.302.087-.607.217-.914.023-.054.041-.107.068-.16.269-.546.665-1.01 1.086-1.455.249-.264.507-.52.753-.785.663-.71 1.277-1.553 1.32-2.519.043-.985-.513-1.885-1.05-2.716"/>
        <path fill="#44413F" d="M82.999 14.765a4.06 4.06 0 0 0 .486-2.116c-.01-.251-.045-.508-.15-.723a.495.495 0 0 0-.48-.3c-.357.652-.884 1.157-1.48 1.434.524.77.894 1.87.568 2.792.034-.008.068-.023.102-.032.378-.256.709-.617.954-1.055"/>
        <path fill="#666" d="M87.716 10.008c-.935-1.423-2.439-1.896-3.959-1.304-1.52.592-2.493 2.515-2.372 4.256l.006.007a3.791 3.791 0 0 0 1.77-1.5c.244-.004.449.089.575.314.126.225.168.493.18.756.037.78-.17 1.57-.582 2.212-.293.458-.69.836-1.142 1.103.973-.244 1.817-1.034 2.162-2.048.36-1.057.456-2.211-.2-3.086.965-.88 2.37-1.16 3.562-.71"/>
        <path fill="#E5998D" d="M83.486 15.006c.023-.353-.087-.725-.394-.985-.308-.26-.839-.372-1.235-.2-.338.146-.512.468-.478.768.035.3.251.574.532.78.282.206.627.352.975.483.354-.207.578-.501.6-.846"/>
        <path fill="#483D3D" d="M84.545 12.682l1.057-1.057M84.545 12.624s.015-.216.078-.41c.03-.102.07-.199.12-.281.027-.037.05-.09.082-.116l.092-.094.102-.06c.032-.023.072-.02.107-.031a.403.403 0 0 1 .212.018c.132.04.247.151.247.151l.017.058-.51.44-.53.383-.017-.058M87.716 11.678l1.057-.106M87.716 10.703s.058-.094.152-.164a.594.594 0 0 1 .162-.093c.03-.008.06-.026.093-.028l.098-.016.099.003c.032 0 .065.012.097.017a.715.715 0 0 1 .353.214l.003.031-.526.05-.528.017-.003-.031M85.602 13.21a.528.528 0 1 0 1.057 0 .528.528 0 0 0-1.057 0M87.716 12.154a.528.528 0 1 0 1.057 0 .528.528 0 0 0-1.057 0"/>
        <path fill="#EEE9DE" d="M87.846 13.896a.801.801 0 0 0 .84-.157c-.095.057-.09.207-.065.32.025.113.086.212.124.32.037.11.045.243-.026.33-.065.08-.177.097-.275.08a.57.57 0 0 1-.408-.319c-.053-.113-.07-.242-.108-.363-.037-.12-.102-.242-.212-.292.048.015.083.062.13.081"/>
        <path fill="#BA5843" d="M89.792 15.852c-.105.342-.446.629-.864.728-.418.098-.896.004-1.212-.238.183.253.334.428.678.52.344.091.747.052 1.031-.13.284-.182.493-.605.367-.88"/>
        <path fill="#DE6756" d="M84.545 14.796a1.057 1.057 0 1 0 2.114-.001 1.057 1.057 0 0 0-2.114 0M87.716 13.739a1.057 1.057 0 1 0 2.113 0 1.057 1.057 0 0 0-2.113 0"/>
        <path fill="#44413F" d="M89.566 12.682c-.12-.87-.52-1.771-1.308-2.177-.803-.413-1.776-.212-2.656-.001a8.598 8.598 0 0 1 1.856-.828c.478-.149 1.01-.253 1.47-.058.533.224.838.807.89 1.376.054.57-.1 1.136-.252 1.688"/>
        <path fill="#ECECF1" d="M102.511 65.802c-.373-1.194-.63-2.295-1.016-3.485-1.711-5.266-2.559-10.81-4.662-16.363-1.27-3.35-.783-6.12-3.716-8.965a24.449 24.449 0 0 1-13.6.06c-2.527 3.186-3.326 7.304-4.285 11.242a60.95 60.95 0 0 1-10.766 22.516c7.752-5.546 11.816 1.652 19.697-2.151 4.83-2.332 4.618-6.65 11.961-7.232.9-.072 5.111.068 6.387 4.378"/>
        <path fill="#EC992F" d="M72.187 35.932c-.037 0-.07-.033-.077-.078a19.635 19.635 0 0 1-.092-5.56c.076-.604.24-1.442.792-1.752.039-.02.086 0 .103.048.018.05 0 .107-.039.129-.482.27-.63 1.045-.701 1.605-.23 1.828-.2 3.676.09 5.492.01.053-.018.103-.06.114a.056.056 0 0 1-.016.002"/>
        <path fill="#E5998D" d="M73.794 33.13c1.54-.595 3.114-1.55 4.774-2.783 1.35-1.003 3.479-2.628 3.815-4.604.222-1.307-.321-2.535-1.423-3.151-1.532-.857-3.675-.275-4.867 1.2-.696.86-1.212 1.79-1.827 2.549a17.85 17.85 0 0 1-1.78 1.905c-.54.496-1.085.925-1.63 1.289-.106.07-1.362.771-1.368.752-1.602.833-.568 3.346 1.209 3.531a10.154 10.154 0 0 0 3.098-.688"/>
        <path fill="#C03836" d="M68.927 35.65l7.164-1.832-1.698 15.847-8.87 1.062 3.404-15.078"/>
        <path fill="#932728" d="M76.94 33.818l.208.56-.981 14.016-1.133 1.276 1.906-15.852"/>
        <path fill="#C03836" d="M76.724 33.968l-.633 13.788 1.057 1.914-.086-15.852-.338.15"/>
        <path fill="#C64849" d="M75.034 50l.865-1.386 1.249 2.113L75.034 50"/>
        <path fill="#7A2425" d="M65.523 49.813l9.095-1.2 2.53.756-8.242 1.358-3.383-.914"/>
        <path fill="#ECE4D1" d="M75.034 35.403a.528.528 0 1 1-1.057 0 .528.528 0 0 1 1.057 0M71.864 36.46a.528.528 0 1 1-1.057 0 .528.528 0 0 1 1.057 0"/>
        <path fill="#EC992F" d="M70.987 36.989a.094.094 0 0 1-.092-.09 27.229 27.229 0 0 1 .197-6.123c.038-.257.081-.506.207-.727.148-.262.402-.437.663-.456.276-.02.559.124.748.377.157.211.23.454.304.726.477 1.776.802 3.602.963 5.426.005.054-.033.102-.083.107-.06.006-.096-.035-.1-.089a31.45 31.45 0 0 0-.958-5.39c-.068-.252-.135-.475-.271-.659-.119-.159-.34-.322-.59-.304-.241.018-.426.2-.518.363-.108.19-.147.41-.182.656a27.035 27.035 0 0 0-.196 6.076.096.096 0 0 1-.084.106h-.008"/>
        <path fill="#E5998D" d="M67.906 21.498c-.115.079-.24.173-.265.318-.03.162.092.326.24.365.146.04.304-.024.422-.128a1.5 1.5 0 0 0 .282-.386.704.704 0 0 0 .107-.27c.01-.098-.03-.21-.114-.247-.093-.041-.195.02-.28.078l-.392.27"/>
        <path fill="#E5998D" d="M68.795 24.959a20.2 20.2 0 0 1-.848-2.16c-.263-.806.043-1.829-1.348-1.64-1.151.156-1.111 1.22-1.053 2.065.14 2.002.683 3.873 1.392 5.763.315.839.69 1.657 1.069 2.473.284.615.506 1.276 1.068 1.728.56.45 1.27.655 2.003.628l.03-.001c1.484-.068 2.303-1.645 1.495-2.803l-1.233-1.767c-.96-1.373-1.88-2.775-2.575-4.286"/>
        <path fill="#E5998D" d="M63.446 22.232c-.083-.172-.019-.385.113-.532.132-.146.32-.238.51-.311 1.027-.395 2.242-.323 3.193.191.112.061.225.13.295.233.131.193.08.45-.012.665a1.433 1.433 0 0 1-.376.541.921.921 0 0 1-.632.23c-.252-.014-.473-.15-.695-.262a4.028 4.028 0 0 0-1.512-.42c-.168-.012-.338-.014-.5-.058-.16-.043-.315-.134-.384-.277"/>
        <path fill="#EC992F" d="M76.004 33.818a.086.086 0 0 1-.085-.066c-.625-2.73-1.412-4.48-2.217-4.93a.813.813 0 0 0-.668-.08.087.087 0 0 1-.11-.055.084.084 0 0 1 .057-.106.995.995 0 0 1 .808.093c1.086.608 1.85 3.077 2.3 5.041a.085.085 0 0 1-.085.103"/>
        <path fill="#BDBDBA" d="M91.943 31.705c.168-.22.357-.428.552-.63.138-.144.28-.285.419-.427l.086.062a7.058 7.058 0 0 1-1.057.995"/>
        <path fill="#B3786F" d="M93.131 30.648L93 30.569c.116-.097.23-.194.343-.292.249-.217.492-.446.714-.686-.27.372-.58.724-.926 1.057"/>
        <path fill="#B6B6BA" d="M86.131 33.818c-2.683 0-5.346-1.42-6.87-3.645a10.84 10.84 0 0 0 6.587 2.24c.38 0 .763-.02 1.142-.063a10.824 10.824 0 0 0 7.067-3.816c-.14.392-.317.769-.527 1.126-.169.228-.354.445-.544.65-.086.093-.173.186-.261.278-.162.17-.326.338-.486.51a8.76 8.76 0 0 0-.64.752 9.325 9.325 0 0 1-4.51 1.907 7.424 7.424 0 0 1-.958.061"/>
        <path fill="#BDBDBA" d="M121.487 90.886c-6.399 0-11.578-.705-11.578-1.579 0-.875 5.204-1.588 11.624-1.591h.049c6.398 0 11.577.705 11.577 1.579 0 .875-5.204 1.588-11.624 1.591h-.048"/>
        <path fill="#161A19" d="M119.41 25.3c-.066 1.139-.4 2.357-.666 3.214-.58 1.862-3.61 9.356-6.146 6.944-1.466-1.403.263-3.28.853-4.632.807-1.85 1.163-3.773 1.312-5.802.113-1.539.925-2.93 2.518-2.825 1.8.118 2.218 1.534 2.128 3.1"/>
        <path fill="#E5E5E0" d="M116.939 33.818a4.54 4.54 0 0 0-3.82-1.623l-.04-.475a5.016 5.016 0 0 1 4.228 1.796l-.368.302"/>
        <path fill="#303848" d="M122.325 65.87c-.245-2.423-.456-5.771-3.976-5.627-3.176.13-3.192 2.5-3.147 4.706.058 2.913.42 5.818.98 8.683.355 1.816 1.37 9.513 3.641 9.844 3.616.524 2.739-15.27 2.502-17.605"/>
        <path fill="#303848" d="M117.654 65.291c1.197.59 2.732.015 3.406-1.273.258-.495.389-1.051.464-1.626-.075-1.271-.092-2.537.12-3.86.444-2.757 1.024-5.473.938-8.3-.048-1.616-.165-3.966-.91-5.691-.411-.953-1.014-1.715-1.904-2.057-4.532-1.744-4.606 7.812-4.57 10.718.034 2.912.986 5.525.882 8.377l.001-.01v.01c-.01.243-.023.487-.049.733l-.018.207c.068 1.172.699 2.31 1.64 2.772"/>
        <path fill="#30312E" d="M118.781 87.09l-1.435-.683a6.052 6.052 0 0 1-.16.42c.456.121.871.38 1.218.732a1.54 1.54 0 0 1-.978.603 1.464 1.464 0 0 1-.906-.16 5.62 5.62 0 0 1-1.327 1.311c.078.51.548.538 1.029.509 1.163-.07 2.296-.629 3.103-1.532.155.406.368.758.523 1.163.202 0 .427-.01.63-.01-.127-1.26-.122-2.551-.053-3.84-.394.664-.956 1.199-1.644 1.487"/>
        <path fill="#E5998D" d="M121.177 85.371c.075-.968.208-1.935.357-2.88-1.37.588-2.95.637-4.227-.06a3.948 3.948 0 0 1 .175 3.427c-.03.071-.068.14-.102.21l1.77.591c.847-.249 1.54-.713 2.027-1.288M118.323 87.703c.427-.047.827-.219 1.097-.47a3.473 3.473 0 0 0-1.367-.574c-.2.327-.45.636-.746.92.313.114.67.162 1.016.124"/>
        <path fill="#3B455A" d="M129.723 65.87c-.245-2.423-.457-5.771-3.976-5.627-3.175.13-3.192 2.501-3.148 4.706.059 2.913.421 5.817.981 8.683.356 1.816 1.37 9.513 3.641 9.844 3.616.524 2.738-15.27 2.502-17.605"/>
        <path fill="#3B455A" d="M124.584 65.208c1.298.68 3.045.222 3.877-1.015.32-.475.5-1.021.62-1.59-.004-1.276.057-2.543.378-3.85.668-2.722 1.485-5.394 1.567-8.227.047-1.618.066-3.976-.656-5.757-.399-.984-1.023-1.791-1.994-2.2-4.942-2.087-5.625 7.46-5.77 10.367-.143 2.915.753 5.599.458 8.442 0-.003 0-.007.002-.01l-.002.01a9.889 9.889 0 0 1-.1.73c-.012.067-.021.136-.033.204.002 1.178.633 2.362 1.653 2.896"/>
        <path fill="#30312E" d="M126.179 87.09l-1.435-.683a6.06 6.06 0 0 1-.16.42c.456.121.87.38 1.218.732-.24.323-.598.543-.978.603a1.462 1.462 0 0 1-.906-.16c-.372.511-.82.959-1.327 1.311.077.51.548.538 1.028.509 1.164-.07 2.296-.629 3.103-1.532.155.406.369.758.524 1.163.202 0 .427-.01.629-.01-.126-1.26-.122-2.551-.052-3.84-.395.664-.957 1.199-1.644 1.487"/>
        <path fill="#E5998D" d="M128.575 85.371c.075-.968.208-1.935.357-2.88-1.37.588-2.95.637-4.227-.06a3.947 3.947 0 0 1 .175 3.427c-.03.07-.068.14-.102.21l1.77.591c.847-.249 1.54-.713 2.027-1.288M125.72 87.703c.428-.047.828-.219 1.098-.471a3.476 3.476 0 0 0-1.367-.573c-.2.327-.45.636-.746.92.313.114.67.162 1.016.124"/>
        <path fill="#483D3D" d="M117.296 12.682c.085 1.206-.34 2.48-1.046 3.17.53-.782.666-2.045.323-3.014.246-.054.478-.102.723-.156"/>
        <path fill="#E5998D" d="M120.96 23.48c.526.448 1.171.862 1.884.824.712-.037 1.304-.515 1.77-1.017a8.385 8.385 0 0 0 2.204-4.988c-1.272-1.771-2.525-3.49-3.33-4.767-.479-.758-.924-1.769-1.529-2.591-2.473-3.365-6.328-.144-5.625 3.017.38 1.703 2.697 4.18 2.123 6.095a9.052 9.052 0 0 0 2.503 3.428"/>
        <path fill="#283032" d="M120.469 44.418c.017-.02.03-.044.046-.063-.053.008-.113.022-.046.063"/>
        <path fill="#283032" d="M120.47 44.376l-.006-.001-.017.023c.05-.008.094-.01.023-.022M129.054 37.29c.969-2.635 2.255-5.316 1.944-8.106-.226-2.023-1.275-3.846-2.3-5.603-.812-1.39-1.866-2.994-2.906-4.558-.141 1.871-.874 3.699-2.095 5.123-.442.516-1.005 1.008-1.682 1.046-.677.038-1.29-.387-1.79-.846a9.299 9.299 0 0 1-2.38-3.521c-.077.28-.21.548-.412.8-2.043 2.553-4.199 5.113-2.905 8.52 1.578 4.157 3.57 7.33 1.88 11.732-.061.161-.11.329-.16.495a7.065 7.065 0 0 0 3.696 1.84 5.957 5.957 0 0 0 1.222-2.471c.426.886.72 1.76 1.147 2.645a17.667 17.667 0 0 0 5.803-1.423c-.25-1.907.287-3.904.938-5.674"/>
        <path fill="#2B354A" d="M118.268 52.82c2.356 2.07 6.041 2.8 8.916 1.45 2.172-1.02 3.748-3.68 3.861-6.136-.218-3.62-1.96-5.12-2.014-5.404-.02-.104-.026-.21-.04-.313a19.09 19.09 0 0 1-6.006 1.398c-.442-.87-.746-1.729-1.188-2.6a5.74 5.74 0 0 1-1.264 2.429 7.466 7.466 0 0 1-3.825-1.808c-.074.227-.134.46-.186.695h-.002c-.637 1.274-1.075 2.71-1.327 4.53.35 2.186 1.375 4.268 3.075 5.76"/>
        <path fill="#E5E5E0" d="M124.705 28.937l4.073-.403.154.674-3.824 1.44-.403-1.711M115.424 26.42l3.996 1.292-1.11 1.879-3.117-2.398.23-.773M120.11 43.33l-.15-.06c-.92-.36-1.811-.838-2.653-1.42l.192-.423c.772.535 1.59.979 2.43 1.323.186-.39.39-.803.595-1.215.233-.47.466-.94.67-1.376l.34.243c-.207.44-.441.913-.676 1.386-.232.469-.465.938-.67 1.374l-.079.168M123.39 26.42c-.471 0-.97-.133-1.431-.39-.616-.344-1.096-.847-1.485-1.293a14.94 14.94 0 0 1-2.11-3.16l.433-.206a14.465 14.465 0 0 0 2.043 3.061c.362.416.806.881 1.357 1.189.551.307 1.155.405 1.657.27.515-.14.935-.517 1.244-.83 1.31-1.327 2.148-3.143 2.297-4.981l.48.037a8.499 8.499 0 0 1-2.43 5.272c-.352.355-.835.785-1.462.955a2.247 2.247 0 0 1-.594.076"/>
        <path fill="#E5E5E0" d="M122.843 43.33c-.095 0-.19-.002-.284-.005l-.117-.003-.065-.104c-1.506-2.42-2.13-5.223-2.504-7.394a32.97 32.97 0 0 1-.45-5.898c.026-2.207.537-4.15 1.479-5.62l.37.275c-.89 1.39-1.374 3.24-1.399 5.35-.023 1.986.13 3.993.443 5.804.362 2.094.957 4.785 2.371 7.11 1.6.02 3.282-.344 5.02-1.1l.168.45c-1.734.753-3.426 1.135-5.032 1.135M123.648 26.949a.528.528 0 1 1-1.057 0 .528.528 0 0 1 1.057 0"/>
        <path fill="#E5E5E0" d="M122.59 33.29a.529.529 0 1 1-1.056 0 .529.529 0 0 1 1.057 0M123.648 37.517a.528.528 0 1 1-1.057 0 .528.528 0 0 1 1.057 0"/>
        <path fill="#283032" d="M130.865 26.24c.134.278.252.566.354.851.875 2.431 2.296 4.42 4.102 6.262l.283.266.13.122c.772.724.797 1.923.056 2.677-1.778 1.81-4.51-1.157-5.701-2.352-1.736-1.742-6.862-7.61-2.798-9.47 1.825-.836 2.91.274 3.574 1.644"/>
        <path fill="#E5E5E0" d="M131.075 34.875c-.099-.912.052-1.876.416-2.646.362-.77.937-1.347 1.576-1.581l.092.49c-.553.204-1.05.702-1.364 1.37-.315.666-.446 1.502-.36 2.29l-.36.077"/>
        <path fill="#E5998D" d="M134.157 33.239c.139-.124.283-.241.428-.35 1.192-.896 2.273-1.948 3.162-3.21.668-.946 1.108-2.258 2.045-2.934.913-.658 1.8-.138 2.757.024.604.103 2.353-.55 2.229.748-.064.664-1.032 1.166-1.518 1.298-.58.158-1.572.202-2.018-.012-.663.807-.782 2.039-1.287 2.958a17.852 17.852 0 0 1-1.878 2.772c-1.016 1.231-3.182 3.793-4.573 1.595-.752-1.187-.156-2.164.653-2.89"/>
        <path fill="#483D3D" d="M123.648 13.464c-.088-.38-.269-.67-.473-.755-.205-.086-.428.034-.584.313.04.249.164.468.203.717.199-.469.605-.635.854-.275"/>
        <path fill="#483D3D" d="M116.378 13.881a5.098 5.098 0 0 1 4.58.303c.447.818.6 1.78.516 2.725.774-.646.87-1.92.478-2.888.382-.31.97-.318 1.286.07.333-.543.495-1.142.364-1.778a2.46 2.46 0 0 0-1.025-1.548c.777-.037 1.148-1.186.994-2.008-.154-.823-.955-1.41-1.73-1.356a1.453 1.453 0 0 0-1.078.576c-.254.352-.324.865-.127 1.256-1.15-.248-2.626.134-3.408 1.078-.782.943-1.207 2.365-.85 3.57"/>
        <path fill="#483D3D" d="M116.204 12.816a.485.485 0 0 0-.678.008c-.204.186-.335.547-.333.915.338-.15.616-.378.953-.528.083-.116.154-.31.058-.395"/>
        <path fill="#483D3D" d="M116.25 12.325c-.17-.504-.643-.803-1.057-.667.295.358.474.621.768.98.122.148.24-.106.289-.313"/>
        <path fill="#E5998D" d="M122.654 13.34a.435.435 0 0 1-.008-.438.435.435 0 0 1 .342-.219.615.615 0 0 1 .385.117c.143.095.27.254.275.445a.498.498 0 0 1-.352.465c-.184.057-.38.017-.569-.023l.017-.026c-.028-.094-.036-.243-.09-.32"/>
        <path fill="#483D3D" d="M117.307 13.904c.121-.203.322-.33.526-.331.205-.002.407.121.53.323"/>
        <path fill="#483D3D" d="M117.307 13.894s.002-.017.011-.044c.019-.025.01-.067.061-.104.047-.038.105-.096.185-.117.077-.033.173-.042.268-.056.08.008.086.012.131.018.032.003.085.02.128.033.096.025.144.079.19.113.048.034.054.086.07.11a.156.156 0 0 1 .013.043l-.016.009-.036-.027c-.025-.014-.05-.046-.1-.064a8.144 8.144 0 0 0-.076-.035c-.026-.014-.06-.017-.091-.027-.06-.021-.142-.02-.212-.027-.071.008-.147.006-.21.029-.031.01-.066.013-.09.028l-.076.034c-.049.02-.074.052-.1.067-.022.018-.036.027-.036.027l-.014-.01M118.364 13.904c.076-.15.249-.269.453-.312a.883.883 0 0 1 .603.086"/>
        <path fill="#483D3D" d="M118.369 14.778s-.005-.043-.005-.11c.009-.067-.016-.164.021-.278.033-.11.069-.277.142-.368.064-.115.155-.183.246-.261.081-.02.09-.012.137-.02a.355.355 0 0 1 .14.016c.104.012.172.118.23.177.062.055.087.178.112.224a.72.72 0 0 1 .028.098l-.012.03-.046-.047c-.03-.022-.067-.085-.124-.105a7.647 7.647 0 0 1-.089-.046c-.03-.02-.065-.01-.1-.018-.068-.023-.15.02-.22.037-.07.053-.145.086-.2.17-.027.04-.06.065-.08.11l-.061.12c-.042.068-.056.158-.075.206l-.026.082-.018-.017M119.42 14.55a.518.518 0 0 0 .111.088.729.729 0 0 0 .131.049c.046.009.091.012.135.01a.551.551 0 0 0 .124-.03l.06-.032a.413.413 0 0 0 .112-.126.462.462 0 0 0 .034-.107.316.316 0 0 0-.01-.108l-.013-.054.055-.024.07-.03.061-.043c.019-.016.035-.034.053-.051.015-.019.024-.04.037-.06.004 0 .006-.024.009-.034l.008-.04c-.001-.024-.002-.046-.001-.071-.005-.025-.014-.05-.02-.076l-.04-.072c.021.018.046.037.067.059.016.024.034.049.049.076.009.028.022.06.025.09v.04c-.001.017.003.022-.003.047-.01.03-.018.062-.033.09-.019.027-.036.054-.057.08l-.077.064-.093.05.042-.078a.412.412 0 0 1 .02.158.425.425 0 0 1-.23.329l-.074.031a.518.518 0 0 1-.339-.018.453.453 0 0 1-.133-.086l-.05-.057-.03-.063M117.273 13.739l.023.122.01.138c.002.093-.002.187-.017.279-.015.089-.037.174-.064.252a.633.633 0 0 1-.108.189l-.062.05a.578.578 0 0 1-.075.026.247.247 0 0 1-.138-.042.482.482 0 0 1-.123-.145 1.083 1.083 0 0 1-.091-.237l.072.053-.082.048-.083.008c-.028-.008-.056-.023-.083-.036-.026-.02-.051-.054-.076-.08-.02-.027-.02-.04-.031-.06l-.027-.054c-.017-.045-.03-.104-.044-.153-.01-.054-.016-.109-.023-.16-.002-.057 0-.113 0-.165l.024.148c.013.043.025.087.038.126l.045.096.03.045c.009.01.024.04.027.034.02.012.039.029.059.036.02 0 .041.005.062.005l.061-.019.057-.045.046-.036.027.089a.805.805 0 0 0 .065.157.506.506 0 0 0 .087.102.196.196 0 0 0 .098.036.199.199 0 0 1 .044-.004c.017-.01.044-.027.053-.03.03-.03.06-.064.087-.112.026-.052.048-.112.067-.18a2.12 2.12 0 0 0 .04-.226c.007-.077.008-.166.005-.255"/>
        <path fill="#EEE9DE" d="M118.364 16.278l.951-.426c.11.261.152.532.036.791a.453.453 0 0 1-.59.23c-.211-.094-.354-.337-.397-.595"/>
        <path fill="#DE6756" d="M120.477 15.324a.528.528 0 1 1-1.056 0 .528.528 0 0 1 1.056 0M117.307 15.324a.528.528 0 1 1-1.057 0 .528.528 0 0 1 1.057 0"/>
        <path fill="#BA5843" d="M118.471 15.843c-.087-.118-.137-.338-.125-.549.012-.21.085-.402.183-.477-.159-.094-.324.135-.33.47-.008.335.11.62.272.556M119.38 16.91c-.037.279-.185.53-.383.651a.562.562 0 0 1-.633-.029c.074.312.357.487.604.42.248-.067.437-.375.448-.701.005-.142.016-.217-.036-.342"/>
        <path fill="#E5E5E0" d="M120.477 24.832l5.034-7.923 4.496 4.916c3.427 4.465-2.114 6.093-9.53 3.007"/>
        <path fill="#E5E5E0" d="M114.291 24.748l3.805-5.725 3.438 5.63c-4.79 2.539-8.175 2.138-7.243.095"/>
        <path fill="#E5998D" d="M116.808 34.41c.156.402.276.825.383 1.204 1.043 3.712 3.907 6.156 5.547 9.493.354.707.58 1.344.709 1.798.07.226.108.409.136.532l.043.19c.099.431-.15.865-.556.97-.934.241-1.845-2.26-2.331-2.927-1.01-1.386-11.404-11.188-6.217-12.816 1.239-.389 1.88.512 2.286 1.557"/>
    </g>
</svg>
