<svg xmlns="http://www.w3.org/2000/svg" width="150" height="98" viewBox="0 0 180 128">
    <g fill="none" fill-rule="evenodd">
        <path fill="#E7F7FE" d="M2.667 84.453s9.519 41.32 46.361 39.267c36.843-2.053 85.761-7.043 106.248-2.04 20.488 5.005 39.926-51.527 7.108-75.049C129.567 23.11 139.291-9.234 86.24 2.476 33.19 14.186-11.548 27.583 2.667 84.453"/>
        <path fill="#BF4D4D" d="M77.741 27.133h15.99v-6.32h-15.99z"/>
        <path fill="#942D2D" d="M78.907 26.296h1.208v-5.782h-1.208zM82.02 26.296h1.207v-5.782H82.02zM85.132 26.296h1.208v-5.782h-1.208zM88.245 26.296h1.207v-5.782h-1.207zM91.357 26.296h1.208v-5.782h-1.208z"/>
        <path fill="#FFDF69" d="M114.998 38.25a7.66 7.66 0 0 1-7.24 1.968 7.674 7.674 0 0 1-3.509-12.921 7.672 7.672 0 0 1 11.258.554 7.67 7.67 0 0 1-.51 10.399m8.928-9.042a14.654 14.654 0 0 0-1.528-3.793l1.617-2.383-2.193-2.232-1.155-1.18-1.036-1.055-2.412 1.572a14.69 14.69 0 0 0-3.764-1.6l-.542-2.828-3.13-.029-3.128-.03-.594 2.82a14.57 14.57 0 0 0-3.793 1.528l-2.381-1.617-2.234 2.192-2.233 2.193 1.572 2.413a14.649 14.649 0 0 0-1.599 3.763l-2.83.542-.057 6.26 2.819.595a14.671 14.671 0 0 0 1.527 3.794l-1.615 2.382 4.383 4.468 2.41-1.572a14.857 14.857 0 0 0 3.764 1.599l.543 2.828 3.128.03 3.13.03.595-2.82a14.638 14.638 0 0 0 3.791-1.529l2.382 1.617 4.466-4.384-1.57-2.413a14.61 14.61 0 0 0 1.597-3.764l2.83-.541.057-6.261-2.817-.595"/>
        <path fill="#DBBC46" d="M115.288 23.535a.632.632 0 0 1-.315-.084 10.639 10.639 0 0 0-3.507-1.267.63.63 0 0 1 .215-1.242c1.383.239 2.702.715 3.92 1.416a.63.63 0 0 1-.313 1.177m-11.37.025a.63.63 0 0 1-.318-1.175 11.905 11.905 0 0 1 3.914-1.434.63.63 0 0 1 .22 1.241 10.65 10.65 0 0 0-3.5 1.283.627.627 0 0 1-.317.085m16.387 5.92a.63.63 0 0 1-.591-.412 10.71 10.71 0 0 0-1.876-3.224.63.63 0 1 1 .963-.813 11.973 11.973 0 0 1 2.095 3.602.63.63 0 0 1-.59.848m-21.379.048a.628.628 0 0 1-.592-.845 11.966 11.966 0 0 1 2.08-3.613.63.63 0 1 1 .967.81 10.697 10.697 0 0 0-1.862 3.232.631.631 0 0 1-.593.416m21.39 7.766a.63.63 0 0 1-.592-.846c.427-1.176.644-2.412.644-3.675v-.035a.63.63 0 1 1 1.26 0v.025c0 1.42-.242 2.802-.72 4.116a.631.631 0 0 1-.592.415m-21.378.016a.631.631 0 0 1-.592-.414 11.987 11.987 0 0 1-.726-4.105.63.63 0 0 1 1.26-.002c.002 1.263.22 2.5.65 3.674a.63.63 0 0 1-.592.847m16.378 5.945a.63.63 0 0 1-.316-1.175 10.757 10.757 0 0 0 2.856-2.401.63.63 0 0 1 .966.81 12.016 12.016 0 0 1-3.19 2.681.625.625 0 0 1-.316.085m-11.371.008a.627.627 0 0 1-.315-.085 12.008 12.008 0 0 1-3.193-2.677.63.63 0 1 1 .963-.812c.81.963 1.773 1.77 2.86 2.398a.63.63 0 0 1-.315 1.176m5.68 1.517c-.698 0-1.395-.06-2.075-.179a.63.63 0 1 1 .216-1.242c1.222.214 2.509.213 3.732-.002a.63.63 0 0 1 .218 1.241c-.686.12-1.39.182-2.092.182"/>
        <path fill="#FFEBA3" d="M121.545 45.023a40.99 40.99 0 0 0-2.836-4.4l.113-.133a.63.63 0 0 0-.89-.886 40.977 40.977 0 0 0-2.044-2.397 7.648 7.648 0 0 0 1.408-4.438 7.641 7.641 0 0 0-1.789-4.918l5.159-8.23 1.155 1.179 2.193 2.232-1.617 2.383a14.654 14.654 0 0 1 1.528 3.793l2.817.595-.057 6.26-2.83.542a14.61 14.61 0 0 1-1.596 3.764l1.57 2.413-2.233 2.191-.051.05m-.547-12.915a.63.63 0 0 0-.63.63v.036c0 1.263-.217 2.5-.644 3.675a.63.63 0 1 0 1.184.431c.478-1.314.72-2.696.72-4.116v-.025a.63.63 0 0 0-.63-.63m-2.68-7.302a.63.63 0 0 0-.481 1.037 10.71 10.71 0 0 1 1.876 3.224.63.63 0 1 0 1.182-.435 11.973 11.973 0 0 0-2.095-3.602.629.629 0 0 0-.482-.224"/>
        <path fill="#E9D68E" d="M118.709 40.623a39.492 39.492 0 0 0-.778-1.019.63.63 0 0 1 .89.886c-.036.045-.074.089-.112.133m1.607-3.328a.63.63 0 0 1-.592-.846c.427-1.176.644-2.412.644-3.675v-.035a.63.63 0 1 1 1.26 0v.025c0 1.42-.242 2.802-.72 4.116a.631.631 0 0 1-.592.415m-.012-7.814a.63.63 0 0 1-.591-.413 10.71 10.71 0 0 0-1.876-3.224.63.63 0 1 1 .963-.813 11.973 11.973 0 0 1 2.095 3.602.63.63 0 0 1-.59.848"/>
        <path fill="#FFDF69" d="M134.893 19.213a3.68 3.68 0 0 1-5.21-.048 3.686 3.686 0 0 1 5.259-5.162 3.683 3.683 0 0 1-.048 5.21m4.286-4.341a7.019 7.019 0 0 0-.734-1.822l.776-1.144-1.052-1.073-.555-.566-.498-.507-1.158.755a7.06 7.06 0 0 0-1.807-.768l-.261-1.358-1.502-.014-1.503-.015-.285 1.354a6.98 6.98 0 0 0-1.821.735l-1.145-.777-1.073 1.052-1.072 1.054.756 1.158a7.02 7.02 0 0 0-.768 1.808l-1.36.26-.013 1.503-.014 1.504 1.354.285c.156.63.4 1.244.733 1.822l-.775 1.144 1.051 1.072 1.054 1.073 1.158-.755a6.968 6.968 0 0 0 1.807.768l.26 1.359 1.502.014 1.503.014.286-1.354a7.039 7.039 0 0 0 1.821-.734l1.144.777 2.145-2.106-.755-1.159c.344-.57.6-1.18.767-1.807l1.36-.26.013-1.504.014-1.503-1.353-.285"/>
        <path fill="#DBBC46" d="M135.032 12.147a.299.299 0 0 1-.15-.04 5.118 5.118 0 0 0-1.685-.609.302.302 0 1 1 .102-.597 5.717 5.717 0 0 1 1.884.681.303.303 0 0 1-.151.565m-5.46.012a.302.302 0 0 1-.153-.564 5.716 5.716 0 0 1 1.88-.689.303.303 0 0 1 .106.596 5.116 5.116 0 0 0-1.682.616.297.297 0 0 1-.151.041m7.869 2.844a.302.302 0 0 1-.284-.199 5.161 5.161 0 0 0-.9-1.548.302.302 0 1 1 .462-.39 5.752 5.752 0 0 1 1.007 1.73.303.303 0 0 1-.285.407m-10.266.023a.303.303 0 0 1-.285-.406 5.764 5.764 0 0 1 1-1.735.303.303 0 0 1 .464.388c-.389.464-.69.987-.895 1.553a.303.303 0 0 1-.284.2m10.272 3.73a.303.303 0 0 1-.285-.406c.205-.566.31-1.16.31-1.766v-.017a.302.302 0 1 1 .605 0v.012c0 .682-.117 1.346-.346 1.977a.303.303 0 0 1-.284.2m-10.266.007a.303.303 0 0 1-.285-.2 5.744 5.744 0 0 1-.349-1.97.303.303 0 0 1 .606-.001c0 .606.105 1.2.311 1.764a.302.302 0 0 1-.283.407m7.865 2.855a.303.303 0 0 1-.152-.565 5.18 5.18 0 0 0 1.372-1.153.302.302 0 1 1 .463.39c-.433.516-.949.95-1.532 1.287a.302.302 0 0 1-.15.04m-5.462.004a.302.302 0 0 1-.152-.04 5.785 5.785 0 0 1-1.534-1.286.303.303 0 0 1 .464-.39c.389.463.852.85 1.374 1.152a.303.303 0 0 1-.152.564m2.727.73c-.334 0-.67-.03-.996-.087a.303.303 0 1 1 .104-.596 5.245 5.245 0 0 0 1.792-.001.303.303 0 0 1 .104.596c-.33.058-.667.087-1.004.087"/>
        <path fill="#F0FAFE" d="M134.87300000000002 19.257l.029-.026-.029.026"/>
        <path fill="#FFEBA3" d="M133.738 24.807l-1.503-.014-1.502-.014-.26-1.359a7.112 7.112 0 0 1-.906-.31l1.849-2.951.013.003h.001l.015.004c.284.068.576.103.867.103h.003c.919 0 1.836-.342 2.548-1.026l.021-.02.01-.01a3.673 3.673 0 0 0 1.103-2.626c0-.841-.285-1.684-.86-2.367l2.478-3.953.555.566 1.052 1.073-.776 1.144c.333.576.578 1.19.734 1.822l1.353.285-.014 1.503-.014 1.504-1.359.26a6.987 6.987 0 0 1-.767 1.807l.755 1.159-2.145 2.106-1.144-.777a7.039 7.039 0 0 1-1.82.734l-.287 1.354m-2.371-3.144a.303.303 0 0 0-.05.601 5.817 5.817 0 0 0 2-.001.303.303 0 0 0-.105-.596 5.212 5.212 0 0 1-1.792 0 .306.306 0 0 0-.053-.004m5.13-1.87a.301.301 0 0 0-.231.107 5.18 5.18 0 0 1-1.372 1.153.303.303 0 0 0 .303.524 5.765 5.765 0 0 0 1.532-1.288.302.302 0 0 0-.232-.497m1.278-3.528a.302.302 0 0 0-.303.303v.017c0 .606-.105 1.2-.31 1.765a.303.303 0 0 0 .57.207 5.775 5.775 0 0 0 .345-1.977v-.012a.302.302 0 0 0-.302-.303m-1.288-3.506a.302.302 0 0 0-.23.498c.39.462.692.983.9 1.548a.302.302 0 1 0 .569-.209 5.752 5.752 0 0 0-1.007-1.73.302.302 0 0 0-.232-.107"/>
        <path fill="#E9D68E" d="M132.312 22.35c-.334 0-.67-.029-.996-.086a.303.303 0 1 1 .104-.596 5.207 5.207 0 0 0 1.792-.001.303.303 0 0 1 .105.596c-.33.058-.668.087-1.005.087m2.734-.732a.303.303 0 0 1-.152-.565 5.18 5.18 0 0 0 1.372-1.153.301.301 0 0 1 .426-.037.302.302 0 0 1 .037.426c-.433.517-.949.95-1.532 1.288a.302.302 0 0 1-.15.04m2.4-2.862a.303.303 0 0 1-.285-.406c.205-.565.31-1.159.31-1.765v-.017a.302.302 0 1 1 .605 0v.012c0 .682-.117 1.346-.346 1.977a.303.303 0 0 1-.284.2m-.006-3.753a.302.302 0 0 1-.284-.199 5.161 5.161 0 0 0-.9-1.548.302.302 0 1 1 .462-.39 5.752 5.752 0 0 1 1.007 1.73.303.303 0 0 1-.285.407"/>
        <path fill="#4BA2F4" d="M78.943 59.917h26.692V33.219H78.943zM52.131 44.56s-.014 9.627-2.27 17.788l-4.81 3.01H28.098c3.221-8.574 3.24-20.799 3.24-20.799h20.794"/>
        <path fill="#375EAB" d="M45.052 65.359v-3.08h4.809l-4.81 3.08"/>
        <path fill="#FFF" d="M41.026 58.785a.483.483 0 0 1-.484-.483v-6.686a.483.483 0 1 1 .967 0v6.686a.483.483 0 0 1-.483.483"/>
        <path fill="#FFF" d="M44.368 55.442h-6.684a.483.483 0 0 1 0-.966h6.684a.483.483 0 0 1 0 .966"/>
        <path fill="#D96A57" d="M126.71 64.957c0 22.636-18.344 40.987-40.974 40.987a40.79 40.79 0 0 1-24.175-7.891c-10.185-7.456-16.8-19.503-16.8-33.096 0-22.634 18.345-40.984 40.975-40.984 9.478 0 18.207 3.22 25.148 8.627 9.631 7.497 15.826 19.203 15.826 32.357"/>
        <path fill="#E8F0FF" d="M122.065 64.957c0 20.07-16.265 36.338-36.33 36.338-20.063 0-36.328-16.268-36.328-36.338 0-20.068 16.265-36.337 36.329-36.337s36.33 16.269 36.33 36.337"/>
        <path fill="#8B84AB" d="M85.232 35.997h1.008v-3.66h-1.008zM85.232 97.579h1.008v-3.66h-1.008zM114.69 65.462h3.659v-1.008h-3.66zM53.124 65.462h3.659v-1.008h-3.66zM105.853 85.792l.713-.712 2.587 2.587-.712.713-2.588-2.588M62.32 42.248l.712-.713 2.587 2.588-.712.713-2.588-2.588M64.907 85.08l.712.712-2.587 2.588-.713-.713 2.588-2.587M108.44 41.535l.713.713-2.587 2.588-.713-.713 2.588-2.588"/>
        <path fill="#8B84AB" d="M85.736 34.214C68.788 34.214 55 48.006 55 64.957c0 16.953 13.788 30.744 30.736 30.744s30.736-13.791 30.736-30.744c0-16.951-13.788-30.743-30.736-30.743m0 61.582c-8.235 0-15.977-3.208-21.8-9.032-5.823-5.825-9.03-13.57-9.03-21.807 0-8.236 3.207-15.98 9.03-21.805 5.823-5.824 13.565-9.032 21.8-9.032 8.235 0 15.977 3.208 21.8 9.032 5.823 5.825 9.03 13.569 9.03 21.805 0 8.238-3.207 15.982-9.03 21.807-5.823 5.824-13.565 9.032-21.8 9.032"/>
        <path fill="#857DAB" d="M86.8 70.813h-2.137l.54-32.528h1.057l.54 32.528"/>
        <path fill="#DBD7E8" d="M85.983 70.209h-.503a.255.255 0 0 1-.254-.258l.25-21.749a.255.255 0 0 1 .51 0l.25 21.75a.254.254 0 0 1-.253.257"/>
        <path fill="#857DAB" d="M81.795 67.154l-.383-1.601 24.448-5.435.19.792-24.255 6.244"/>
        <path fill="#DBD7E8" d="M82.101 66.433l-.09-.377a.196.196 0 0 1 .147-.236l16.327-3.716a.196.196 0 0 1 .092.38l-16.238 4.093a.195.195 0 0 1-.238-.144"/>
        <path fill="#B5ABD6" d="M87.931 64.957a2.195 2.195 0 1 1-4.39.002 2.195 2.195 0 0 1 4.39-.002"/>
        <path fill="#766AAB" d="M87.058 64.957a1.322 1.322 0 1 1-2.644 0 1.322 1.322 0 0 1 2.644 0"/>
        <path fill="#FFF" d="M69.476 69.592c-.619 0-1.21.091-1.756.259-.72-1.745-2.506-2.981-4.596-2.981-2.324 0-4.272 1.527-4.796 3.583a3.673 3.673 0 0 0-1.297-.236c-1.934 0-3.503 1.491-3.503 3.33H74.41c0-2.184-2.209-3.955-4.934-3.955"/>
        <path fill="#EAA091" d="M85.736 105.944a40.79 40.79 0 0 1-24.175-7.891l2.797-3.712a36.153 36.153 0 0 0 21.378 6.954c20.064 0 36.33-16.268 36.33-36.338 0-11.637-5.47-21.996-13.978-28.647l2.796-3.71c9.631 7.497 15.826 19.203 15.826 32.357 0 22.636-18.344 40.987-40.974 40.987m36.403-57.595c-.803.032-1.65.073-2.519.122l.02.359c.866-.049 1.712-.09 2.514-.121l-.015-.36"/>
        <path fill="#F2F6FF" d="M85.736 101.295c-7.992 0-15.38-2.58-21.378-6.954l3.308-4.39c5.09 3.7 11.17 5.74 17.566 5.84v1.788h1.008V95.79c7.878-.125 15.278-3.19 20.937-8.674l1.264 1.263.712-.713-1.263-1.262c5.483-5.662 8.547-13.062 8.672-20.943h1.787v-1.008h-1.787c-.126-7.881-3.19-15.282-8.672-20.943l1.263-1.263-.712-.713-1.264 1.264a31.323 31.323 0 0 0-2.397-2.098l3.308-4.391c8.509 6.65 13.977 17.01 13.977 28.647 0 20.07-16.265 36.338-36.33 36.338m29.92-52.561c-.846.063-1.685.13-2.513.197l.029.359c.827-.067 1.665-.134 2.512-.197l-.027-.36M85.232 95.698a30.56 30.56 0 0 1-17.499-5.835l16.988-22.543-.058 3.494H86.8l-.065-3.9a2.204 2.204 0 0 0 1.102-1.314l18.213-4.69-.19-.79-18.087 4.02a2.18 2.18 0 0 0-.28-.498l17.22-22.852c.831.655 1.628 1.351 2.387 2.087l-1.247 1.247.713.713 1.247-1.248c5.248 5.424 8.524 12.77 8.655 20.866h-1.778v1.008h1.778c-.131 8.095-3.407 15.442-8.655 20.866l-1.247-1.248-.713.712 1.247 1.248c-5.422 5.25-12.766 8.526-20.86 8.657v-1.778h-1.008v1.778m17.483-46.007c-.918.039-1.74.059-2.513.062l.001.36a64.936 64.936 0 0 0 2.527-.062l-.015-.36m6.47-.434c-.855.07-1.693.136-2.512.196l.026.36c.82-.06 1.659-.127 2.515-.196l-.03-.36"/>
        <path fill="#B9B4CE" d="M86.357 97.579h-1.125V95.79a41.556 41.556 0 0 0 1.125 0v1.788m-.563-1.878c-.187 0-.374 0-.562-.004v-1.778h1.125v1.778c-.187.003-.374.004-.563.004M118.349 65.579h-1.787a41.58 41.58 0 0 0 0-1.125h1.787v1.125m-1.881 0h-1.778v-1.125h1.778a41.556 41.556 0 0 1 0 1.125M108.44 88.38l-1.263-1.263a28.347 28.347 0 0 0 .713-.712l1.263 1.262-.712.713m-1.34-1.34l-1.248-1.248.713-.712 1.247 1.248a31.48 31.48 0 0 1-.713.712M106.566 44.836l-.713-.713 1.247-1.247c.242.233.48.47.713.712l-1.247 1.248m1.324-1.325a28.906 28.906 0 0 0-.713-.712l1.264-1.264.712.713-1.263 1.263"/>
        <path fill="#B9B4CE" d="M85.736 95.796c-.167 0-.336-.002-.504-.005-6.396-.1-12.476-2.14-17.566-5.84l.067-.09a30.56 30.56 0 0 0 18.507 5.836c8.094-.131 15.438-3.408 20.86-8.657.242-.234.48-.47.713-.712 5.248-5.424 8.524-12.77 8.655-20.866a33.361 33.361 0 0 0 0-1.008c-.131-8.096-3.407-15.442-8.655-20.866a30.99 30.99 0 0 0-3.1-2.799l.067-.088a31.323 31.323 0 0 1 3.11 2.81c5.482 5.661 8.546 13.062 8.672 20.943a33.342 33.342 0 0 1 0 1.008c-.125 7.881-3.19 15.28-8.672 20.943a35.332 35.332 0 0 1-.713.712c-5.66 5.484-13.059 8.549-20.937 8.674-.168.003-.335.005-.504.005"/>
        <path fill="#B5B0CE" d="M86.8 70.813h-2.137l.058-3.494.233-.309c.099.037.2.068.305.091l-.033 2.85a.255.255 0 0 0 .254.258h.503a.254.254 0 0 0 .254-.258l-.033-2.847c.187-.042.366-.106.531-.19l.065 3.899"/>
        <path fill="#EBE8F2" d="M85.983 70.209h-.503a.255.255 0 0 1-.254-.258l.033-2.85a2.221 2.221 0 0 0 .945.003l.033 2.847a.254.254 0 0 1-.254.258"/>
        <path fill="#B5B0CE" d="M87.837 65.599c.041-.138.07-.28.084-.429l10.656-2.685a.196.196 0 0 0-.092-.381l-10.599 2.412a2.108 2.108 0 0 0-.113-.377l18.087-4.02.19.79-18.213 4.69"/>
        <path fill="#EBE8F2" d="M87.921 65.17a2.217 2.217 0 0 0-.035-.654l10.6-2.412a.195.195 0 0 1 .234.145.196.196 0 0 1-.143.236L87.92 65.17"/>
        <path fill="#D5CEE8" d="M85.736 67.154a2.221 2.221 0 0 1-.782-.144l.564-.748a1.323 1.323 0 0 0 1.411-1.874l.564-.747a2.18 2.18 0 0 1 .428 1.53 2.204 2.204 0 0 1-1.717 1.933c-.15.032-.308.05-.468.05"/>
        <path fill="#A9A0CE" d="M85.736 66.28c-.074 0-.147-.007-.218-.018l1.411-1.874a1.322 1.322 0 0 1-1.194 1.891"/>
        <path fill="#4BA2F4" d="M125.002 87.832s-.012 8.201-1.934 15.153l-4.096 2.564H104.53c2.744-7.304 2.76-17.717 2.76-17.717h17.713"/>
        <path fill="#326CA3" d="M118.972 105.55v-2.624h4.096l-4.096 2.623"/>
        <path fill="#FFF" d="M114.129 99.043l-3.005-3.433a.446.446 0 0 1 .67-.586l2.423 2.768 5-4.307a.445.445 0 1 1 .582.675l-5.67 4.883"/>
        <path fill="#C2BEBC" d="M78.363 33.625a9.297 9.297 0 0 1-.007-.34c0-.865.133-1.63.386-2.212l.33.143c-.233.537-.356 1.253-.356 2.07 0 .106.002.215.007.326l-.36.013m1.88 6.247a17.024 17.024 0 0 1-1.053-2.32l.338-.123c.28.766.625 1.53 1.03 2.27l-.316.173m4.095 5.074a18.715 18.715 0 0 1-1.8-1.795l.27-.237a18.451 18.451 0 0 0 1.766 1.76l-.236.272m5.563 3.395a20.774 20.774 0 0 1-2.29-1.099l.176-.314c.715.4 1.472.763 2.25 1.079l-.136.334m38.733.296a105.287 105.287 0 0 0-2.516-.02l-.002-.36c.171-.002.342-.002.513-.002.684 0 1.361.007 2.012.022l-.007.36m-8.993.193l-.02-.36c.868-.048 1.716-.09 2.519-.121l.015.36c-.802.031-1.648.072-2.514.12m15.454.23a62.89 62.89 0 0 0-2.503-.235l.027-.36c.855.065 1.702.144 2.517.238l-.041.358m-21.923.23l-.029-.36c.828-.066 1.667-.133 2.514-.196l.027.359c-.847.063-1.685.13-2.512.197m-6.472.521l-.026-.359c.82-.06 1.657-.126 2.512-.196l.029.36c-.856.07-1.695.135-2.515.195m-10.479.106a26.15 26.15 0 0 1-2.502-.408l.076-.352c.796.17 1.626.306 2.467.402l-.041.358m3.983.195l-.001-.36a64.554 64.554 0 0 0 2.513-.062l.015.36c-.923.039-1.75.059-2.527.062m41.256.083a44.906 44.906 0 0 0-2.451-.54l.067-.354c.84.16 1.673.344 2.472.545l-.088.35m6.099 2.099a33.194 33.194 0 0 0-2.32-.946l.123-.338c.805.293 1.594.615 2.345.956l-.148.328m5.531 3.279c-.656-.5-1.348-.978-2.057-1.422l.19-.305c.72.45 1.42.934 2.086 1.44l-.219.287m4.602 4.485a26.837 26.837 0 0 0-1.655-1.874l.258-.25c.583.6 1.147 1.238 1.678 1.898l-.28.226m3.438 5.437a31.3 31.3 0 0 0-1.195-2.2l.31-.185c.424.712.83 1.46 1.207 2.226l-.322.159m2.278 6.029a31.465 31.465 0 0 0-.744-2.393l.34-.121c.285.807.538 1.621.752 2.42l-.348.094m.929 6.367a25.764 25.764 0 0 0-.18-2.497l.36-.042c.1.844.161 1.695.18 2.53l-.36.009m-.346 6.463l-.35-.086c.198-.807.356-1.632.47-2.453l.357.05c-.116.833-.276 1.67-.477 2.489m-2.34 6.076l-.318-.169c.395-.74.755-1.5 1.073-2.258l.332.139a27.5 27.5 0 0 1-1.086 2.288m-3.665 5.385l-.276-.232c.542-.645 1.06-1.31 1.539-1.977l.292.21a33.329 33.329 0 0 1-1.555 1.999m-4.609 4.602l-.232-.275a40.845 40.845 0 0 0 1.863-1.68l.25.26a41.625 41.625 0 0 1-1.88 1.695m-5.253 3.849l-.193-.304a50.647 50.647 0 0 0 2.086-1.399l.209.294c-.677.478-1.384.953-2.102 1.409m-5.693 3.156l-.156-.324c.756-.365 1.51-.748 2.239-1.14l.17.317c-.734.394-1.492.78-2.253 1.147m-6.003 2.518l-.122-.338c.79-.287 1.58-.59 2.348-.9l.136.334c-.772.313-1.566.617-2.362.904m-6.219 1.907l-.09-.349c.81-.206 1.624-.43 2.424-.666l.102.346a67.89 67.89 0 0 1-2.436.669m-6.379 1.307l-.055-.357a66.993 66.993 0 0 0 2.48-.432l.069.354c-.825.16-1.664.305-2.494.435m-6.474.682l-.02-.36a63.603 63.603 0 0 0 2.508-.187l.033.359c-.84.08-1.688.142-2.521.188"/>
        <path fill="#D6D6D6" d="M95.561 119.203l16.944-4.209-4.961-1.713-11.983 5.922"/>
        <path fill="#E8E8E8" d="M95.561 119.203l6.51-6.043 3.823.936-10.333 5.107"/>
        <path fill="#C2C2C2" d="M108.609 115.962l-.211 1.934-12.837 1.307 13.048-3.24"/>
        <path fill="#D6D6D6" d="M24.963 71.37L10.778 61.19l5.243.245 8.942 9.936"/>
        <path fill="#E8E8E8" d="M24.963 71.37l-3.813-8.023-3.898-.546 7.711 8.57"/>
        <path fill="#C2C2C2" d="M14.04 63.53l-.519 1.874 11.442 5.966-10.923-7.84"/>
        <path fill="#C2BEBC" d="M87.876 16.404l-.138-.332c1.562-.653 2.373-1.19 2.382-1.196l.2.3c-.034.022-.845.56-2.444 1.228zm-39.661.424l-.007-.36a92.431 92.431 0 0 1 2.707-.013l-.003.36a91.998 91.998 0 0 0-2.697.013zm9.347.288a95.033 95.033 0 0 0-2.69-.178l.019-.36c.901.047 1.81.107 2.7.179l-.03.359zm-15.995.104l-.036-.358c.882-.09 1.79-.165 2.7-.225l.023.36a78.36 78.36 0 0 0-2.687.223zm22.6.692c-.843-.14-1.74-.272-2.664-.39l.045-.357c.93.119 1.83.25 2.679.392l-.06.355zm-29.183.295l-.072-.353c.865-.176 1.763-.339 2.669-.483l.056.356c-.9.143-1.793.304-2.653.48zm46.456.05l-.063-.355a34.682 34.682 0 0 0 2.622-.579l.091.349c-.854.224-1.746.42-2.65.584zm-10.644.519a52.584 52.584 0 0 1-2.697-.256l.043-.358a52.14 52.14 0 0 0 2.678.254l-.024.36zm3.982.109l-.005-.36a43.21 43.21 0 0 0 2.685-.123l.028.359c-.885.069-1.797.11-2.708.124zm-46.204 1.068l-.12-.34c.83-.291 1.7-.567 2.586-.819l.099.347c-.879.25-1.742.523-2.565.812zm-6.028 2.75l-.182-.311c.76-.445 1.567-.872 2.4-1.268l.155.326c-.824.391-1.623.813-2.373 1.252zm-5.217 4.038l-.26-.25a22.738 22.738 0 0 1 2.008-1.835l.226.28a22.366 22.366 0 0 0-1.974 1.805zm-3.735 5.404l-.326-.152c.381-.82.823-1.62 1.313-2.379l.303.196a19.44 19.44 0 0 0-1.29 2.335zm-1.784 6.329l-.357-.045c.114-.912.28-1.81.493-2.67l.35.087c-.21.846-.373 1.73-.486 2.628zm-.38 6.648a32.803 32.803 0 0 1-.174-2.71l.36-.007c.019.869.076 1.77.172 2.68l-.358.037zm1.252 6.574c-.238-.89-.45-1.777-.63-2.636l.353-.074c.178.853.388 1.733.625 2.617l-.348.093zm2.082 6.287a67.643 67.643 0 0 1-.911-2.48l.34-.117c.28.808.584 1.638.907 2.466l-.336.131z"/>
        <path fill="#4BA2F4" d="M73.64 11.536s-.018 11.132-2.626 20.568l-5.56 3.481H45.848c3.725-9.914 3.747-24.049 3.747-24.049H73.64"/>
        <path fill="#326CA3" d="M65.453 35.585v-3.562h5.56l-5.56 3.562"/>
        <path fill="#FFF" d="M59.573 26.247l-3.284-3.753a.487.487 0 0 1 .732-.641l2.648 3.027 5.467-4.709a.486.486 0 1 1 .635.738l-6.198 5.338"/>
        <path fill="#C1DEEB" d="M48.031 26.95c-.42 0-.822.061-1.193.174-.488-1.185-1.701-2.024-3.121-2.024-1.578 0-2.902 1.037-3.257 2.434a2.489 2.489 0 0 0-.881-.16c-1.314 0-2.379 1.012-2.379 2.261h14.182c0-1.483-1.5-2.686-3.351-2.686"/>
        <path fill="#EEA987" d="M123.315 124.335c.732-.051 2.806-.257 3.965-.207 1.16.05 1.6-.133 1.48-.883a2.408 2.408 0 0 0-.023-.124c-.142-.732-.514-1.641-.553-1.949-.04-.325-1.492-.067-1.492-.067s-.712 1.07-1.122 1.302c-.41.232-1.662.727-2.14.95a2.091 2.091 0 0 1-.114.047c-.508.186-1.38.254-1.494.513-.122.278.76.468 1.493.418"/>
        <path fill="#342F40" d="M126.258 121.545s-1.123 1.23-2.119 1.29c-.996.059-3.025.499-2.468 1.195.474.592 2.863.37 3.757.312.894-.056 3.853.515 3.428-1.155-.425-1.67-.337-1.934-.337-1.934l-2.26.292"/>
        <path fill="#F8BB66" d="M125.675 46.256c1.325-9.46 10.066-16.054 19.523-14.729 9.458 1.325 16.05 10.069 14.726 19.53-1.325 9.46-10.066 16.054-19.523 14.728-9.458-1.325-16.052-10.068-14.726-19.529"/>
        <path fill="#F8BB66" d="M141.425 65.898l4.79-34.198c8.91 1.787 14.987 10.239 13.71 19.356-1.278 9.117-9.443 15.573-18.5 14.842M125.675 46.256c1.123-8.018 7.574-13.978 15.273-14.8l-4.654 33.23c-7.177-2.907-11.742-10.411-10.62-18.43"/>
        <path fill="#F89829" d="M129.784 46.832c1.007-7.19 7.651-12.202 14.84-11.195 7.187 1.008 12.198 7.653 11.191 14.843-1.007 7.19-7.651 12.202-14.84 11.195-7.187-1.007-12.198-7.653-11.191-14.843"/>
        <path fill="#F8C681" d="M145.218 53c.088-.556-.068-1.011-.466-1.365-.397-.354-.976-.708-1.737-1.06l-.59 3.755c.81.115 1.457.061 1.939-.161.482-.223.767-.612.854-1.168m-4.49-7.16c-.083.532.04.96.371 1.284.331.324.86.647 1.587.968l.587-3.736c-.777-.083-1.374.007-1.791.272-.417.265-.668.67-.754 1.213m6.335.49a2.647 2.647 0 0 0-.439-.486 5.872 5.872 0 0 0-.702-.538 6.44 6.44 0 0 0-.904-.492 5.594 5.594 0 0 0-1.043-.349l-.617 3.926.349.133c.656.272 1.244.552 1.762.84.517.29.944.61 1.277.96.333.35.572.754.714 1.21.141.456.165.988.07 1.595-.106.67-.316 1.223-.63 1.66-.316.436-.71.78-1.182 1.029-.474.25-1.004.409-1.592.478-.587.07-1.204.06-1.85-.029l-.314 1.992-.985-.155.318-2.03a9.68 9.68 0 0 1-2.513-.949 8.284 8.284 0 0 1-2.06-1.597l1.253-1.669c.115.174.291.37.529.59.238.218.52.437.848.657.328.22.695.427 1.098.62.403.193.83.35 1.276.473l.617-3.926a2.73 2.73 0 0 0-.226-.104 2.534 2.534 0 0 1-.226-.104 16.223 16.223 0 0 1-1.667-.835c-.469-.275-.845-.577-1.13-.907a2.821 2.821 0 0 1-.596-1.094c-.112-.4-.125-.866-.043-1.397.098-.619.292-1.152.582-1.6a3.66 3.66 0 0 1 1.106-1.098 4.381 4.381 0 0 1 1.503-.6 6.485 6.485 0 0 1 1.793-.097l.3-1.915.987.155-.301 1.915c.814.18 1.546.464 2.198.851.652.388 1.212.82 1.681 1.295l-1.241 1.593"/>
        <path fill="#FAD89D" d="M149.847 33.377l-.044-.044.044.044m-.082-.082c-.021-.02-.04-.042-.062-.062.022.02.044.042.062.062m-.081-.083"/>
        <path fill="#FAD89D" d="M144.275 65.893l.596-4.252c5.555-.884 10.123-5.299 10.944-11.16.821-5.863-2.358-11.363-7.457-13.74l.596-4.252a14.637 14.637 0 0 1 .202.078l.017.006.01.004.012.005.012.005.009.004.015.006.006.002.018.007h.002c7.204 2.895 11.793 10.414 10.667 18.45-1.142 8.148-7.784 14.17-15.649 14.837"/>
        <path fill="#FAC262" d="M144.87 61.641l.814-5.804.034-.017c.473-.25.866-.593 1.182-1.03.314-.436.524-.989.63-1.66.095-.606.071-1.138-.07-1.594a3.05 3.05 0 0 0-.714-1.21 4.148 4.148 0 0 0-.255-.247l.532-3.804.04.058 1.241-1.593a7.738 7.738 0 0 0-.952-.815l1.006-7.185c5.099 2.378 8.278 7.878 7.457 13.74-.82 5.862-5.389 10.277-10.944 11.161"/>
        <path fill="#FADFB2" d="M145.684 55.837l.807-5.758c.09.08.175.163.255.246.333.351.572.755.714 1.21.141.457.165.989.07 1.596-.106.67-.316 1.223-.63 1.66-.316.436-.71.78-1.182 1.029l-.034.017m1.379-9.504a.959.959 0 0 0-.04-.058l.33-2.35c.35.256.667.527.951.815l-1.241 1.593"/>
        <path fill="#F2FAFE" d="M138.009 65.288l-.013-.004c.003.002.009.003.013.004m-.02-.006l-.024-.006.024.006m-.049-.014c-.01-.003-.02-.005-.028-.009l.028.01m-.027-.01l-.03-.007.03.008m-.025-.008a.257.257 0 0 1-.032-.009l.032.01m-.024-.007l-.033-.01.033.01M136.512 64.782l-.03-.012.03.011m-.027-.01l-.029-.011.029.011m-.03-.011l-.018-.008.018.008m-.023-.01l-.021-.009.021.01m4.829-33.311l.028-.003-.028.003m.026-.002l.026-.003-.026.003m.027-.003l.024-.002a.984.984 0 0 1-.024.002m.019-.001l.076-.007-.076.007M141.437 31.425l.016-.001-.016.001m.028-.002l.014-.001h-.014"/>
        <path fill="#FAD89D" d="M141.425 65.898a17.392 17.392 0 0 1-3.358-.604h-.002l-.045-.013c-.002 0-.004 0-.006-.002-.007-.001-.014-.004-.02-.006l-.01-.002-.012-.004-.018-.005a.041.041 0 0 0-.01-.003c-.005 0-.01-.003-.015-.004l-.007-.002-.02-.007-.007-.001-.022-.006-.003-.002-.024-.007a.875.875 0 0 0-.025-.007l-.002-.001c-.45-.134-.892-.287-1.324-.455l-.001-.001-.023-.009a.014.014 0 0 0-.004-.001l-.021-.009-.007-.002-.013-.006-.01-.004-.017-.006-.013-.006-.003-.001-.09-.036.6-4.282a13.129 13.129 0 0 0 5.11 1.375l-.578 4.12m4.213-30.08a13.432 13.432 0 0 0-2.855-.31c-.828 0-1.642.078-2.435.228l.6-4.282a18.926 18.926 0 0 1 .302-.03l.022-.001h.005l.019-.002.007-.001a.738.738 0 0 0 .018-.002h.007l.058-.005.012-.001.013-.001.014-.001.012-.001.016-.001.01-.001.018-.002h.008l.025-.002h.002l.056-.004h.002l.025-.002h.004l.026-.002h.001a17.208 17.208 0 0 1 3.568.131c.343.048.682.106 1.017.173l-.577 4.12"/>
        <path fill="#FAC262" d="M142.002 61.779a13.129 13.129 0 0 1-5.109-1.374l.836-5.964c.331.253.682.482 1.053.686a9.68 9.68 0 0 0 2.513.95l-.318 2.029.985.155.314-1.992c.165.023.328.04.49.053l-.764 5.457m1.036-7.393a5.82 5.82 0 0 1-.613-.056l.59-3.755c.184.085.358.17.521.256l-.498 3.555m-1.312-.185a7.54 7.54 0 0 1-1.276-.473c-.403-.193-.77-.4-1.098-.62-.327-.22-.61-.439-.848-.658a3.992 3.992 0 0 1-.432-.455l.602-4.302c.11.223.248.434.42.632.285.33.661.632 1.13.907.469.275 1.024.553 1.667.835.071.038.147.072.226.104.079.032.155.066.226.104l-.617 3.926m2.124-5.615l-.143-.06-.35-.133.618-3.926c.148.034.293.073.435.118l-.56 4.001m-1.164-.493c-.726-.321-1.256-.644-1.587-.968-.33-.324-.454-.752-.371-1.283.086-.544.337-.948.754-1.213.317-.201.739-.302 1.264-.302.166 0 .342.01.527.03l-.587 3.736m-3.497-4.074l1.16-8.282a13.059 13.059 0 0 1 4.274-.1c.343.049.682.11 1.015.183l-.957 6.835a8.84 8.84 0 0 0-.256-.06l.301-1.916-.986-.155-.301 1.915a7.431 7.431 0 0 0-.566-.022c-.43 0-.839.04-1.227.12a4.381 4.381 0 0 0-1.503.599c-.372.238-.69.533-.954.883"/>
        <path fill="#FADFB2" d="M141.962 58.261l-.985-.155.318-2.03a9.68 9.68 0 0 1-2.513-.949 8.438 8.438 0 0 1-1.053-.686l.343-2.446c.109.139.253.29.432.455.238.219.52.438.848.658.328.22.695.427 1.098.62.403.193.83.35 1.276.473l.617-3.926a2.73 2.73 0 0 0-.226-.104 2.534 2.534 0 0 1-.226-.104 16.223 16.223 0 0 1-1.667-.835c-.469-.275-.845-.577-1.13-.907a2.915 2.915 0 0 1-.42-.632l.515-3.674c.263-.35.582-.645.954-.883a4.381 4.381 0 0 1 1.503-.6c.388-.08.797-.119 1.227-.119.185 0 .373.008.566.022l.3-1.915.987.155-.301 1.915.256.061-.27 1.93a5.72 5.72 0 0 0-.436-.118l-.617 3.926.349.133.143.06-.314 2.245a11.961 11.961 0 0 0-.521-.256l-.59 3.755c.216.03.42.05.613.056l-.271 1.936a8.146 8.146 0 0 1-.491-.053l-.314 1.992m.784-13.934c-.525 0-.947.1-1.264.302-.417.265-.668.67-.754 1.213-.083.53.04.959.371 1.283.331.324.86.647 1.587.968l.587-3.736a4.953 4.953 0 0 0-.527-.03"/>
        <path fill="#FAB99B" d="M131.213 63.433s.156-.913.63-1.227c.475-.314 1.297-1.005 1.426-1.73.128-.725-.738.304-1.067.579-.328.274-1.76-.4-1.872-.35-.113.05-.311.616-.314 1.052-.002.437-.17 1.25-.17 1.25s-.223.017 1.367.426"/>
        <path fill="#4BA2F4" d="M128.022 69.74c.135 1.346.99 7.4 1.291 9.52l.105.737s-.116.993 1.72.105c0 0 .916-.916.922-1.992.007-1.076-.6-2.277-.743-2.716-.142-.439-.986-4.941-.943-5.1.044-.16.59-2.553.691-4.096.1-1.543.649-3.47.649-3.47l-1.909-.374s-1.937 5.85-1.783 7.386"/>
        <path fill="#A1A1A1" d="M129.313 79.26l.105.737 2.13-2.15c-.045.02-1.509.71-2.235 1.412"/>
        <path fill="#342F40" d="M139.082 121.426s-.082.914-.21 1.168c-.129.255-.452 1.535-.616 1.78-.165.244-.461 2.03.116 2.213.576.183 1.925.467 2.335-.263.41-.73.433-1.44.334-1.978-.099-.538-.766-2.996-.771-3.242-.006-.247-1.188.322-1.188.322"/>
        <path fill="#1C4054" d="M135.835 90.752s1.429 1.638 1.96 2.743c.532 1.105 1.448 3.539 1.443 5.462-.005 1.923-.447 5.554-.22 6.359.225.805.497 2.477.724 3.043.227.568 1.102 2.208 1.271 3.938.17 1.73-.073 9.367.016 10.074.09.706-2.28.395-2.28.395s-.417-6.853-.741-8.02c-.325-1.17-.85-5.172-1.1-5.448-.252-.277-1.075-3.29-1.143-3.784-.067-.48-3.31-8.663-3.54-10.074-.233-1.41-3.58-4.257-3.58-4.257s3.051-1.538 7.19-.43"/>
        <path fill="#1C4054" d="M128.695 121.617c.495-.104 1.431-7.857 1.202-9.214-.229-1.358-.538-4.262-.153-5.469.253-.792 1.876-4.84 2.963-7.68.154-.4.296-.777.424-1.117.343-.923.568-1.577.568-1.71 0-.526 1.313-9.66-5.241-5.282 0 0-.106.715-.17.982-.066.267-1.529 7.06-1.578 9.643-.05 2.584-.409 4.792-.458 5.346-.051.554.203 2.384.385 2.849.182.465-.443 11.201-.509 11.468-.065.267 2.073.29 2.567.184"/>
        <path fill="#FAB99B" d="M146.96 66.772s.309-.874.048-1.379c-.262-.505-.644-1.51-.403-2.205.24-.696.496.626.65 1.025.153.4 1.73.51 1.804.608.075.098-.027.689-.238 1.071-.21.383-.458 1.175-.458 1.175s.185.123-1.403-.295"/>
        <path fill="#4BA2F4" d="M134.14 76.997s-1.7.424-2.146.434c-.445.01-2.143 1.826-2.576 2.566-.433.74-.35 1.98.005 3.482.355 1.501-.295 1.865-.267 3.309.03 1.444-.788 4.38-.976 5.146-.19.765 7.664 2.126 9.515.998 0 0-1.513-2.607-1.658-2.988-.145-.382.359-2.228.634-2.677.275-.449 2.257-4.065 2.257-4.065s1.593-3.226.79-4.115c-.698-.772-2.864-1.387-3.235-1.595-.372-.207-1.513-.472-2.343-.495"/>
        <path fill="#FAB99B" d="M137.262 68.476c-.69-.39-3.284-1.506-4.534 1.843-1.25 3.348.224 6.149 2.096 5.805 1.872-.343 3.38-2.544 3.807-4.35.427-1.808-.497-2.806-1.37-3.298"/>
        <path fill="#252E3B" d="M132.728 70.319s.392-2.985 3.354-2.567c2.962.418 3.324 2.982 2.77 4.706-.554 1.725-1.937 2.44-1.937 2.44s.359-1.41-.146-1.882c-.506-.473-2.665-1.619-3.358-3.518 0 0-.56.462-.683.82"/>
        <path fill="#252E3B" d="M136.87 71.642c-.5 1.158-.083 2.45.929 2.886 1.012.437 2.237-.148 2.736-1.306.498-1.158.083-2.45-.93-2.887-1.012-.436-2.237.15-2.735 1.307"/>
        <path fill="#FAB99B" d="M133.801 75.462s-.155 2.318-.338 3.05c0 0 1.06 1.519 3.02-1.02 0 0-.412-1.262.33-2.75.742-1.49-3.012.72-3.012.72"/>
        <path fill="#EEA886" d="M133.463 78.512l-.21 1.18 1.68-.846-1.47-.334"/>
        <path fill="#FAB99B" d="M136.584 72.337c.155-.252.526-.265.705-.074.179.192.218.678-.216 1.223-.435.545-1.662.76-.49-1.149"/>
        <path fill="#4BA2F4" d="M135.505 84.298s1.45 1.814 2.666.263c1.284-1.636 1.93-2.452 2.37-3.193.416-.7 3.282-4.694 3.418-4.884.136-.19 1.625-2.813 2.068-3.808.336-.758 2.713-5.4 2.826-5.58.113-.181-2.161-.938-2.161-.938s-2.431 4.597-2.681 5.061c-.251.465-1.36 2.835-1.892 3.445-.625.718-3.006 3.767-3.422 3.806-.49.044-4.208 4.788-3.192 5.828"/>
        <path fill="#A77860" d="M133.763 75.972l-.037.456s.99.38 2.619-1.016c0 0-1.155.99-2.582.56"/>
        <path fill="#4BA2F4" d="M136.38 76.905s-1.393.322-2.674-.25l-.23.646-.474 2.673s2.785-1.391 2.797-1.482c.01-.092.764-.96.764-.96l-.182-.627"/>
        <path fill="#C1DEEB" d="M165.788 40.749a6.01 6.01 0 0 0-1.756.258c-.719-1.745-2.505-2.981-4.596-2.981-2.323 0-4.272 1.527-4.796 3.583a3.661 3.661 0 0 0-1.296-.235c-1.935 0-3.503 1.49-3.503 3.33h20.882c0-2.184-2.21-3.955-4.935-3.955"/>
        <path fill="#323657" d="M58.573 73.477s.293 5.31-.681 6.088c-.45.36-1.512.473-2.659.474-.378 0-.764-.01-1.142-.03h-.001a36.136 36.136 0 0 1-2.86-.266s-3.908.197-3.717-2.228c0 0 .455-.733 1.038-.901.54-.155 3 .27 3.427.289.47.02 3.806.762 3.95.71.142-.054.526-1.361.55-2.239.033-1.266.028-2.433.028-2.433l2.067.536"/>
        <path fill="#EFAA88" d="M56.906 71.73s-.204.903-.008 1.154c.195.25.287-.071.287-.071s-.096.316.151.422c.247.107.334-.276.334-.276s-.008.26.271.275c.279.013.278-.321.278-.321s.195.375.42.115c.382-.438.23-1.104.23-1.104s-.051-.156-.32-.152c0 0-.101-.393-.534-.233 0 0-.348-.316-.56.002 0 0-.39-.314-.55.189"/>
        <path fill="#F8BB66" d="M41.526 67.376c-1.1-6.274 3.093-12.253 9.365-13.354 6.273-1.1 12.25 3.093 13.35 9.367 1.1 6.274-3.092 12.253-9.364 13.353-6.273 1.102-12.25-3.092-13.35-9.366"/>
        <path fill="#F8BB66" d="M55.55 76.604l-3.978-22.68c6.018-.696 11.609 3.418 12.67 9.465 1.06 6.047-2.796 11.82-8.692 13.215M41.527 67.376c-.933-5.318 1.937-10.424 6.653-12.527l3.866 22.04c-5.15-.372-9.586-4.195-10.52-9.513"/>
        <path fill="#F89829" d="M44.123 65.154a8.765 8.765 0 1 1 17.522.456 8.765 8.765 0 1 1-17.522-.456"/>
        <path fill="#F8C681" d="M55.719 65.346c-.273-.258-.582-.343-.927-.258-.344.087-.757.272-1.237.559l1.845 1.737c.369-.403.582-.78.64-1.128.06-.35-.048-.652-.321-.91m-5.63-.219c.261.246.543.339.846.278.303-.06.68-.23 1.13-.51l-1.836-1.728c-.338.396-.513.76-.524 1.089-.011.329.117.62.384.871m2.653-3.305a1.779 1.779 0 0 0-.433.059c-.174.041-.36.103-.56.184-.2.082-.404.186-.611.313a3.725 3.725 0 0 0-.585.444l1.93 1.816.204-.142c.396-.26.772-.478 1.126-.654.353-.177.69-.292 1.008-.344.318-.052.63-.031.934.062.305.094.607.28.905.562.33.31.555.634.677.97.121.338.162.685.122 1.039-.04.354-.152.707-.335 1.056-.183.35-.42.686-.712 1.009l.979.921-.456.485-.998-.939a6.434 6.434 0 0 1-1.467 1.027 5.526 5.526 0 0 1-1.655.536l-.447-1.319a2.21 2.21 0 0 0 .523-.07c.21-.048.437-.122.682-.22.244-.098.495-.222.753-.371.259-.15.505-.325.74-.526l-1.929-1.816a1.573 1.573 0 0 0-.142.086c-.048.032-.095.06-.142.086-.397.247-.76.45-1.087.604a2.968 2.968 0 0 1-.924.281 1.883 1.883 0 0 1-.827-.084c-.262-.088-.523-.256-.784-.501a2.694 2.694 0 0 1-.662-.922 2.44 2.44 0 0 1-.19-1.022c.01-.354.09-.705.235-1.053.147-.349.354-.69.621-1.025l-.941-.886.456-.485.941.887c.405-.381.837-.678 1.296-.891.458-.213.906-.36 1.344-.44l.41 1.283"/>
        <path fill="#FAD89D" d="M57.357 76.015l-.494-2.82a8.764 8.764 0 0 0 4.782-7.585 8.766 8.766 0 0 0-7.679-8.927l-.495-2.822c5.257.264 9.822 4.124 10.77 9.528.948 5.404-2.03 10.589-6.884 12.626"/>
        <path fill="#FAC262" d="M56.863 73.195l-.77-4.385.842.792.456-.485-.979-.921c.292-.323.53-.659.712-1.009.183-.35.294-.702.335-1.056.04-.354 0-.7-.122-1.038-.122-.337-.348-.66-.677-.97-.298-.282-.6-.47-.905-.563a2.021 2.021 0 0 0-.596-.09h-.002l-1.19-6.787a8.766 8.766 0 0 1 7.678 8.927 8.764 8.764 0 0 1-4.782 7.585m-1.1-6.273l-.31-1.767c.092.047.18.11.266.191.273.258.38.56.322.91a1.791 1.791 0 0 1-.279.666"/>
        <path fill="#FADFB2" d="M56.935 69.602l-.841-.792-.332-1.888c.15-.232.243-.454.279-.666.059-.35-.049-.652-.322-.91a1.14 1.14 0 0 0-.267-.19l-.295-1.686h.002c.202 0 .4.03.596.09.305.094.607.28.905.562.33.31.555.634.677.97.121.338.162.685.122 1.039-.04.354-.152.707-.335 1.056-.183.35-.42.686-.712 1.009l.979.921-.456.485"/>
        <path fill="#F2F6FF" d="M53.784 77.848c.362-.204.728-.533 1.093-.987.03-.036.06-.072.09-.114-.03.042-.06.078-.09.114-.366.454-.73.783-1.093.987m1.202-1.107l.014-.018-.014.018"/>
        <path fill="#FAD89D" d="M52.87 76.918c-.276 0-.551-.01-.824-.03l-.499-2.841a8.858 8.858 0 0 0 3.524-.173l.48 2.73c-.187.044-.376.084-.566.119l-.012.002-.005.001-.091.016a11.62 11.62 0 0 1-2.006.176"/>
        <path fill="#EAA091" d="M48.361 55.081l.05-.022-.05.022m.045-.024l.02-.008-.02.008M49.561 54.478l.02-.006-.02.006m.012-.007l.062-.02-.062.02m.058-.021l.015-.005-.015.005m.04-.017l.013-.004-.013.004m1.348-.426l.03-.005-.03.005m.026-.005l.02-.004a1.133 1.133 0 0 0-.02.004m.012-.004l.056-.01-.056.01"/>
        <path fill="#F2F6FF" d="M51.092 54.216c.205-.047.41-.092.614-.137l-.614.137m.643-.142c.04-.01.08-.017.12-.026l-.12.026m.19-.04l.09-.02-.09.02"/>
        <path fill="#FAD89D" d="M48.678 57.69l-.498-2.84c.04-.019.08-.036.12-.053l.017-.008.005-.002a.924.924 0 0 0 .02-.009l.011-.005.038-.016.003-.001.015-.006.002-.001a11.478 11.478 0 0 1 1.138-.409l.016-.004h.001l.047-.015.006-.001a2.09 2.09 0 0 0 .011-.004l.008-.002a.513.513 0 0 1 .011-.003l.01-.003.01-.003.012-.003.006-.002.02-.006.006-.002c.005 0 .009-.002.014-.003a.224.224 0 0 0 .007-.002l.013-.004.006-.002.017-.005h.003l.042-.012c.351-.097.71-.178 1.076-.242l.084-.014.004-.001.014-.002.008-.001.008-.002.022-.004h.003l.015-.002.043-.007.066-.01h.003a.682.682 0 0 1 .013-.003h.007l.01-.002.019-.003h.003c.12-.018.24-.034.359-.048l.479 2.732a8.705 8.705 0 0 0-3.373 1.035"/>
        <path fill="#FAC262" d="M52.888 74.148c-.077 0-.154 0-.232-.002a8.858 8.858 0 0 1-1.109-.099l-1.245-7.098a1.857 1.857 0 0 0 .54.012c.289-.033.597-.127.924-.281.328-.155.69-.357 1.087-.604.047-.026.094-.054.142-.086.047-.032.095-.06.142-.086l.642.605.327 1.86c-.181.096-.36.178-.533.248a4.638 4.638 0 0 1-.682.22c-.202.047-.371.07-.508.07h-.015l.447 1.319a5.518 5.518 0 0 0 1.533-.476l.723 4.124c-.698.179-1.43.274-2.183.274m.78-8.419l-.113-.082.085-.04.027.122m-2.91-.306c-.236 0-.458-.099-.668-.296a1.473 1.473 0 0 1-.13-.14l-.189-1.071c.08-.235.233-.484.459-.75l1.836 1.729c-.45.28-.827.45-1.13.51a.916.916 0 0 1-.177.018m1.725-.785l-1.93-1.816c.183-.169.377-.317.585-.444.207-.127.41-.231.61-.313.2-.081.387-.143.56-.184.165-.04.303-.059.414-.059h.02l-.41-1.282c-.439.08-.887.226-1.345.439-.459.213-.89.51-1.296.89l-.335-.315-.678-3.864a8.705 8.705 0 0 1 3.373-1.035l1.303 7.432c-.215.122-.437.259-.667.41l-.204.141"/>
        <path fill="#FADFB2" d="M52.815 70.226l-.447-1.319h.015c.137 0 .306-.023.508-.07.21-.048.437-.122.682-.22.174-.07.352-.152.533-.249l.242 1.382c-.49.234-1 .392-1.533.476m-2.205-3.251c-.104 0-.207-.009-.308-.026l-.344-1.962c.04.048.083.095.131.14.21.197.432.296.669.296a.916.916 0 0 0 .177-.018c.303-.06.68-.23 1.13-.51l-1.836-1.728c-.226.265-.379.514-.459.749l-.414-2.362.335.316c.405-.381.837-.678 1.296-.891.458-.213.906-.36 1.344-.44l.41 1.283h-.019c-.111 0-.25.02-.413.059-.174.041-.36.103-.56.184-.2.082-.404.186-.611.313a3.725 3.725 0 0 0-.585.444l1.93 1.816.204-.142c.23-.15.452-.287.667-.41l.267 1.522-.066.039.088.082.136.78-.642-.605a1.573 1.573 0 0 0-.142.086c-.048.032-.095.06-.142.086-.397.247-.76.45-1.087.604a2.968 2.968 0 0 1-.924.281c-.078.01-.156.014-.232.014"/>
        <path fill="#252840" d="M37.864 123.904s-.328.791-.605 1.105c-.276.313-1.335.874-1.341 1.805-.006 1.01 1.785.73 2.486.693.7-.037.754-.577 1.049-1.149.295-.571.592-.474.648-.935.055-.462-.226-1.494-.226-1.494l-2.01-.025M51.891 124.085s.977 1.026 1.967 1.24c.991.215 1.685.49 1.692 1.077.007.588-2.852.977-3.986.383-1.692-.885-1.864-.618-2.052-1.06-.187-.443.226-1.626.213-1.767-.015-.174 2.166.127 2.166.127"/>
        <path fill="#292C47" d="M51.775 94.481s1.026 7.449 1.444 9.967c.49 2.944.656 5.377.792 6.9.172 1.917-1.625 12.229-1.504 12.789.12.56-3.235-.233-3.235-.233s1.054-12.269.542-14.31c-.476-1.9-2.194-10.255-2.629-9.736-.434.52-3.163 9.686-3.485 11.186-.322 1.499-3.425 13.235-3.425 13.235s-2.32.498-2.91.029c0 0 2.025-10.782 2.23-13.593.078-1.07.712-12.769 2.523-17.507.957-2.505 9.657 1.273 9.657 1.273"/>
        <path fill="#4D9AF6" d="M38.29 94.358s1.272.387 1.805.289c.534-.098.264-6.64.285-8.002.016-1.104.62-4.019.62-4.019v.005l.002.004v.005c.06.218.875 3.243.904 4.696.03 1.509-.197 7.279-.197 7.279l2.247.219 6.457.158 1.347-.158s-.161-2.469-.221-3.64c-.037-.745-.182-2.079-.145-3.378 0 0-.023-1.37.113-1.959.014-2.603.172-5.18.172-5.18.087-1.181.148-2.284.183-3.314-.285-.15-.627-.326-.901-.457-.848-.404-2.028-.947-2.786-1.295-.444-.203-.878-.352-.878-.352s-3.028-.29-3.274-.275c-.078.005-.456.137-.953.326-1.074.408-3.144 1.237-3.474 1.475-.483.346-1.505 8.573-1.551 9.15-.084 1.036.245 8.423.245 8.423"/>
        <path fill="#1D2033" d="M51.565 93.802s-4.431.378-8.313 0v1.274s5.83.842 8.508-.242l-.195-1.032"/>
        <path fill="#323657" d="M47.786 75.444s.72 1.694 1.261 5.48c.208 1.455.593 3.903.873 6.401v.001c.22 1.969.725 3.99.885 5.498.165 1.562.665 6.164.665 6.164l1.212-.765c.173-.16.416-.368.346-.593-.334-1.076-.972-4.635-1.348-7.737l-.001-.007-.053-.444-.002-.024c-.071-.62-.13-1.214-.172-1.76a5.546 5.546 0 0 1 .054-1.223c.169-2.784.253-5.72.253-5.72.089-1.201.309-2.756.343-3.803a6.642 6.642 0 0 1-1.074-.214s-2.39-.894-3.242-1.254"/>
        <path fill="#CAC7D1" d="M47.558 76.328s.081 1.158-.9 1.186c-.98.027-1.758-.915-1.758-.915l1.627.42.99-.84.041.149"/>
        <path fill="#EEA987" d="M46.234 67.447s2.25.38 1.868 3.901c-.382 3.52-2.367 3.21-2.5 3.206-.132-.005-1.996.042-2.094-4.263 0 0-.029-3.184 2.726-2.844"/>
        <path fill="#EEA987" d="M47.22 73.533s0 1.45.059 1.764c.064.338-1.806 1.314-3.012.177 0 0 .243-1.584.168-2.143-.076-.56 2.785.202 2.785.202M48.11 70.528s.25-.26.338.007c.087.268-.317 1.4-.369 1.508 0 0-.046.103-.105.045-.058-.057.136-1.56.136-1.56M43.534 70.258s-.239-.271-.337-.007c-.099.264.26 1.449.306 1.522 0 0 .077.122.138.066.06-.055-.107-1.581-.107-1.581"/>
        <path fill="#292C47" d="M48.291 70.053c-.077.482-.15.84-.15.84l-.328.427s.02-.945-.03-1.093a2.793 2.793 0 0 1-.065-.264c-.037-.178-.076-.38-.102-.446-.042-.107-1.927-.658-3.606.116 0 0 .014.145.013.307 0 .189-.021.4-.108.432-.16.059-.094 1.106-.094 1.106l-.261-.302s-.076-.547-.15-1.176l-.001-.004-.05-.448c-.038-.632.025-1.78.848-2.455.555-.238 1.443-.44 2.922.012 0 0 .339.023.434.114.92 1.014.728 2.834.728 2.834"/>
        <path fill="#C78D71" d="M44.589 74.082s.359.5 1.193.48c.833-.018 1.196-.453 1.196-.453s-.395.826-1.2.816c-.805-.008-1.19-.843-1.19-.843"/>
        <path fill="#A09EA6" d="M47.366 76.399l-.839.62s.701-1.495.716-2.094l.123 1.474"/>
        <path fill="#EAE6F2" d="M47.243 74.925l.574.532.6 1.79-1.051-.848-.123-1.474"/>
        <path fill="#EEA987" d="M47.138 75.46s-.231.814-.61 1.559c0 0-.881-.772-1.158-1.047-.277-.275 1.768-.512 1.768-.512"/>
        <path fill="#A09EA6" d="M45.606 76.156l.921.863s-1.089-.072-1.292-.254l.37-.609"/>
        <path fill="#EAE6F2" d="M44.384 74.567s.737 1.198 1.222 1.59l-.818 1.357-1.31-2.382.906-.565"/>
        <path fill="#323657" d="M40.472 86.708c-.093 1.263.44 8.253-.092 8.351-.533.098-2.493-.333-2.493-.333s-.246-7.538-.167-8.328c.057-.575.973-9.202 1.456-9.548.28-.2 2.348-.935 3.363-1.334.185-.074.773-.32.939-.384.215.24 2.09 4.643 2.27 8.076.054 1.045-.191 3.252-.378 5.055-.198 1.924-.418 3.425-.58 5.033-.318 3.17-.54 5.692-.54 5.692l-3.153-1.404c-.51-.256-1.217-1.304-1.025-1.84.729-2.043 1.647-5.532 1.648-7.325 0 0-.352-4.388-.63-5.353 0 0-.498 2.035-.618 3.642"/>
        <path fill="#EFAA88" d="M37.88 98.316s-.107-.26-.098-.398c0 0 .035-.247.05-.425.004-.056.006-.105.005-.137-.007-.134-.062-.424.011-.75.074-.325.449-1.446.449-1.446l1.012.15.88-.12s.656 1.915.623 2.226a.745.745 0 0 1-.015.088c-.053.26-.203.431-.246.565-.017.049-.212.524-.359.57-.203.063-.37.024-.483-.068 0 0-.404.107-.66-.01 0 0-.369.11-.646-.126 0 0-.387.07-.523-.119"/>
        <path fill="#323657" d="M40.555 90.241l-.032 5.555s-1.108-.049-2.636-.613l-.106-7.834 2.774 2.892"/>
        <path fill="#3A4066" d="M46.322 95.434h2.09v-1.553h-2.09z"/>
    </g>
</svg>
