<svg xmlns="http://www.w3.org/2000/svg" width="146" height="70" viewBox="0 0 180 108">
    <g fill="none" fill-rule="evenodd">
        <path fill="#E7F7FE" d="M83.105 87.71c-5.243.015-10.485.141-15.718.723-1.974.22-3.905.703-5.883.897-3.95.39-7.83 1.115-11.794 1.45-3.192.27-6.398.428-9.581.77-2.984.32-6.288.247-9.25-.283-2.192-.392-4.394-.613-6.55-1.243-2.411-.704-5.03-1.208-7.543-1.19-3.582.026-7.071.03-10.5 1.273-1.203.437-2.677 1.155-3.59 2.071-2.093 2.098-2.376 7.332-.287 9.508 3.519 3.662 11.028 5.099 15.96 5.167 5.404.074 10.654-.327 16.066-.563 5.03-.22 10.046-.531 15.083-.52 10.288.023 20.578 0 30.848-.687 9.649-.646 19.321-.424 28.991-.424 9.916 0 19.765.078 29.61 1.396 4.289.574 8.659.775 12.97 1.177 3.86.36 7.57-.007 11.416-.34 3.229-.28 6.437-1.109 9.37-2.51 2.322-1.11 6.462-4.558 7.174-7.207 1.997-7.426-28.135-7.247-32.76-7.23-5.176.018-10.392.188-15.564-.009-2.175-.083-4.318-.508-6.441-.974-2.115-.464-4.245-.346-6.39-.54-8.943-.814-17.905-.695-26.876-.695-2.92 0-5.84-.026-8.761-.017"/>
        <path fill="#AA6755" d="M108.391 1.844a.705.705 0 0 1 .14.143c.336.507.207.972.39 1.55.08.257.75.441.391.876-.132.16-.513.509-.798.848-.417.496-.646 1.376-.699 2.107-.207 2.876.374 5.73 1.037 8.533.038.16.08.326.187.45.192.223.523.243.817.253 1.364.043 2.723.213 4.055.507 1.188.262 2.384.638 3.343 1.387.96.749 1.648 1.935 1.53 3.146a2.89 2.89 0 0 1-1.44 2.2c-1.972 1.104-4.575-.927-6.3-1.81a39.212 39.212 0 0 1-4.702-2.84c-.186-.13-.374-.266-.493-.459-.127-.205-.162-.452-.193-.691-.4-3.08-.527-6.177-.59-9.293-.018-.857.416-1.613.393-2.405-.015-.505-.39-.89-.51-1.364a4.71 4.71 0 0 1-.091-1.593c.123-.944.985-1.418 1.697-1.907.177-.121.297-.204.497-.227.325-.038.598.125.875.277.164.09.322.193.464.312"/>
        <path fill="#FFD702" d="M111.905 21.873l.89-5.41c-.019.116 8.265.846 8.757.907 1.876.23 3.819.483 5.427 1.476 3.435 2.12 2.575 7.364-1.561 7.94-4.49.624-9.596-.414-13.54-2.625a.571.571 0 0 1-.226-.185c-.07-.116-.05-.262-.028-.395l.281-1.708"/>
        <path fill="#E2B596" d="M113.452 93.695c-.55-.062-1.06-.262-1.59-.39.504-5.38 1.83-10.901 2.836-16.233l4.082.823a48.473 48.473 0 0 0-3.33 8.52c-.132.466-1.92 7.289-1.998 7.28"/>
        <path fill="#3B455A" d="M111.847 92.244c-.33-.11-.551.012-.807.185-.149.1-.263.257-.434.32-.17.062-.328.056-.519.047-1.003-.046-3.277-.421-2.305 1.411.882 1.665 3.899 1.496 5.65 1.336.115-.01.235-.01.33-.084a.803.803 0 0 0 .22-.31c.297-.68.69-1.523-.136-1.947-.352-.18-.73.015-1.102-.18-.305-.158-.567-.668-.897-.778M111.82 81.13l8.415 1.069c3.842-10.439 9.704-18.95 10.738-31.591.07-.86.516-1.68.393-2.534-.232-1.615-1.76-2.74-3.303-3.27-2.397-.822-7.021-.846-8.661 1.532-1.734 2.513-2.22 7.384-2.983 10.33a183.875 183.875 0 0 0-4.599 24.464"/>
        <path fill="#E2B596" d="M136.273 94.408c-.543.114-1.089.082-1.634.126-1.202-5.267-1.67-10.926-2.381-16.305l4.134-.495a48.461 48.461 0 0 0-.498 9.135c.02.484.456 7.523.379 7.54"/>
        <path fill="#3B455A" d="M134.295 93.532c-.348-.001-.52.183-.71.428-.11.142-.169.326-.311.439-.143.112-.294.156-.478.207-.968.27-3.245.625-1.749 2.062 1.359 1.305 4.171.202 5.785-.498.106-.046.22-.083.287-.183.066-.1.1-.231.112-.364.07-.737.18-1.662-.738-1.807-.391-.061-.689.242-1.103.175-.34-.055-.748-.458-1.095-.459M129.754 81.968l8.326-1.616c.386-11.117.493-22.243.321-33.365-.013-.862-.036-1.757-.42-2.53-.725-1.46-2.528-2.052-4.16-2.072-2.534-.032-6.933 1.392-7.747 4.164-.86 2.928.201 7.707.397 10.744a183.882 183.882 0 0 0 3.283 24.675"/>
        <path fill="#FFD702" d="M133.354 21.466c2.267 2.157 3.964 4.928 4.987 7.798 1.81 5.082 1.845 10.508 1.862 15.826l.016 5.31c.006 1.74-.148 2.115-2.04 1.886-3.507-.426-7.153-1.149-10.33-2.707-1.512-.741-2.925-1.678-4.51-2.262-2.306-.85-4.67-.465-6.952-1.017.579-1.75 1.444-3.347 1.847-5.182.402-1.837.592-3.715.72-5.59.22-3.279.629-6.537.874-9.803.177-2.34-.132-4.255 2.357-5.79 1.354-.835 3.818-2.264 5.73-1.878 2.027.41 4.173 2.203 5.44 3.41"/>
        <path fill="#AA6755" d="M125.177 14.01c.428.936 1.128 1.715 1.699 2.571.555.833.755 1.586.902 2.551.107.698.356 1.242 1.196 1.362 1.584.225 1.13-1.084 1.49-2.036.412-1.088 1.289-1.948 1.902-2.92 1.77-2.806 1.265-8.354-2.416-9.537-4.024-1.295-6.072 5.17-4.773 8.01"/>
        <path fill="#2A3444" d="M131.593 11.294c.457.019.96.055 1.298.362.339.307.302.976-.145 1.048-.406.066-.93-.357-1.178-.048-.145.18-.018.444.092.655.422.81.548 1.75.35 2.613.168.155.428-.006.575-.167a8.407 8.407 0 0 0 1.668-2.74c.146.244.36.451.613.594-.151-.379-.055-.793.038-1.18.344-1.42.578-3.083-.413-4.243-.53-.62-1.337-.978-2.149-1.128-.81-.15-1.638-.114-2.455-.077-.35.016-.781.091-.865.415.767.308 1.56.907 1.945 1.633.118.224.58 2.261.626 2.263"/>
        <path fill="#3B455A" d="M129.972 7.883l.082.061c.348.265.674.587 1.095.704.606.17 1.258-.123 1.855.084.668.23 1.106 1.029 1.594 1.501a7.06 7.06 0 0 0 2.853 1.668 7.14 7.14 0 0 0 1.673.3c.257.014.6.063.851-.005.337-.09.325-.243-.033-.358-1.124-.36-1.476-1.938-1.391-2.985.067-.825.352-1.689.037-2.455-.24-.585-.757-.887-1.257-1.222-.55-.37-1.148-.27-1.773-.448-.653-.185-1.184-.699-1.85-.83-.703-.138-1.405.173-2.108.31a4.363 4.363 0 0 1-1.763-.022c-.518-.114-1.024-.324-1.554-.319-.782.008-1.501.496-1.958 1.13-.645.9-1.063 2.437-.835 3.62-.036-.184.582-.849.71-.992.267-.302.591-.585 1-.634.928-.11 2.026.35 2.772.892M43.933 92.724c.07-.218.187-.417.359-.561.09-.076.192-.135.28-.214.412-.37.372-.733.968-.64.678.104 1.353.241 2.028.362.027.004.055.01.076.028.03.026.036.07.04.11l.071.706c.065.636.63.831 1.092 1.09l.367.203c.523.289 2.114.939 1.31 1.753-.333.336-.899.326-1.334.363-.421.036-.843-.072-1.256-.137-1.324-.274-2.543-.688-3.735-1.35-.427-.237-.388-.887-.342-1.348.013-.123.038-.247.076-.365"/>
        <path fill="#3B455A" d="M46.537 51.505l-1.446 5.28 1.245 15.138-2.107 20.076 3.963.404 5.476-19.146 4.42-20.975-11.551-.777M62.337 94.645c.017-.228.082-.45.213-.631.07-.095.155-.177.221-.275.311-.459.185-.8.786-.854.683-.062 1.37-.092 2.055-.137a.15.15 0 0 1 .08.01c.036.017.052.059.066.097l.24.667c.215.602.81.655 1.321.796.131.035.267.07.405.108.578.154 2.278.403 1.693 1.386-.241.407-.793.533-1.207.674-.4.136-.835.132-1.252.169-1.351.053-2.634-.056-3.95-.411-.471-.128-.59-.768-.656-1.227a1.767 1.767 0 0 1-.015-.372"/>
        <path fill="#3B455A" d="M54.944 54.011l-1.906 3.833 6.625 16.033 2.788 19.993 3.943-.562.707-19.901-.758-21.422-11.4 2.026"/>
        <path fill="#18D2A6" d="M41.975 51.544c.157-.975.32-1.787.365-2.079.616-3.96 2.39-7.746 3.533-11.57a143.616 143.616 0 0 1 4.745-13.421c.668-1.628 1.516-3.395 3.15-4.05 1.877-.754 3.686-2.278 5.56-1.177.383.225.852.332 1.253.532 2.38 1.191 3.58 3.132 4.105 5.737l1.268 6.287c.347 1.721.694 3.443.964 5.179.707 4.543.879 9.154.851 13.75a270.287 270.287 0 0 1-.15 6.913c-.047 1.472-.709.766-1.525.21-1.408-.958-2.8-1.956-4.453-2.447-.803-.239-1.637-.352-2.47-.446-5.06-.571-10.226-.465-15.192.667-.296.067-.596.14-.851.304-.34.218-.831.75-1.236.388-.252-.225-.236-.882-.25-1.18-.053-1.198.143-2.419.333-3.597"/>
        <path fill="#3B455A" d="M62.144 10.14c.377.883.499 1.867.437 2.828-.017.256-.031.552.155.725.2.184-.03.516.158.32.189-.198.829-.884.883-1.153.128-.63.196-1.272.204-1.915.007-.559-.042-1.15-.352-1.61-.184-.273-.447-.48-.706-.68-.375-.292-.763-.587-1.215-.725-.78-.238-1.3-.001-.659.64.46.46.836.964 1.095 1.57"/>
        <path fill="#EFC9AF" d="M56.023 20.463l3.252.673c.271-.945.474-1.912.608-2.889.972-.062 2.128-.252 2.564-1.233.137-.31.178-.657.218-.997l.486-4.222c.056-.487.111-.989-.004-1.458-.202-.825-.882-1.378-1.567-1.754-1.748-.96-3.884-1.164-5.69-.27-.48.239-.944.562-1.257 1.035-.483.73-.536 1.69-.57 2.59l-.095 2.49c-.037.956-.014 2.062.655 2.642.356.308.847.411 1.14.791.52.67.136 1.72.26 2.602"/>
        <path fill="#3B455A" d="M59.393 17.096c-.534.286-1.083.244-1.62.013-.227-.098-.084-.489.145-.39.443.19.877.234 1.322-.003.223-.12.376.261.153.38zm3.668-1.604c.013-.263-.017-1.04-.455-.602-.115.115-.159.29-.183.457-.024.166-.035.34-.104.491-.158.35-.57.47-.92.426a.833.833 0 0 1-.395-.142 1.284 1.284 0 0 1-.276-.321l-.59-.863c-.339-.494-1.127-.382-1.656-.37-.61.013-1.23.132-1.765.48-.054.035-.107.073-.16.11-.13.09-.26.18-.405.234-.489.178-1.038-.124-1.317-.59-.127-.213-.24-.482-.467-.54-.179-.046-.37.067-.48.229-.112.162-.16.365-.194.563-.124.723-.106 1.484.134 2.163.521 1.473 1.803 1.787 3.112 1.899l1.553.133c.947.08 1.949.15 2.804-.32.755-.416 1.262-1.208 1.527-2.065.138-.443.214-.907.237-1.372zM64.082 7.882c.128-.33.233-.671.314-1.018a2.007 2.007 0 0 1-1.011-.022c.02-.203.042-.405.063-.608.017-.169-2.21-.532-2.391-.567-1.689-.33-3.233-.636-4.874.126-1.402.65-2.374 1.744-2.743 3.266-.352 1.454-.085 3.434.621 4.75.038-.393-.084-1.344.047-1.707a3.39 3.39 0 0 1 .473-1.029 4.388 4.388 0 0 1 1.695-1.457c1.067-.527 2.265-.737 3.443-.774 1.079-.034 2.389-.03 3.407.37.49.194.56.332.922-.153.063-.085.606-1.105.564-1.11l-.53-.067"/>
        <path fill="#E2B596" d="M167.694 92.926c.554.068 1.074-.098 1.617-.128a27.724 27.724 0 0 0-.325-5.646c-.891.883-1.566.302-1.636 2.052-.023.567.502 2.867.344 3.722"/>
        <path fill="#3B455A" d="M169.486 91.858c.645-.19.703 1.327.687 1.683-.009.213-.047.43-.004.64.047.23.186.429.322.621l.853 1.207c.128.18.258.366.32.579.153.526-.183 1.122-.686 1.342-1.746.761-3.18-1.403-3.47-2.794-.044-.214-.073-.43-.102-.646-.06-.447-.34-1.429-.14-1.85.233-.493.832-.093 1.25-.26.386-.154.71-.445.97-.522M159.136 60.97c1.339 4.398 2.926 8.715 3.713 13.284.97 5.643 2.737 11.193 3.486 16.837.687.061 1.378.071 2.066.03.788-.05 2.044-.19 2.375-1.03.17-.429.056-1.149.06-1.604.012-1.459-.01-2.918-.035-4.377-.07-4.127-.042-8.299-.569-12.393a599.721 599.721 0 0 1-1.532-12.93 78.73 78.73 0 0 0-.984-6.632c-.11-.565-1.254-6.395-1.546-6.366-3.456.352-6.724 1.305-9.807 2.905-.3.155-.59.344-.709.645-.118.3-.042.57.036.852.742 2.7 1.79 5.251 2.59 7.944.28.936.563 1.873.856 2.835"/>
        <path fill="#E2B596" d="M156.496 91.313c-.531.17-1.073.105-1.612.177a27.753 27.753 0 0 1-.74-5.606c1.04.7 1.594.003 1.992 1.708.129.552.045 2.91.36 3.72"/>
        <path fill="#3B455A" d="M154.371 90.91c-.06 1.032-.935 2.098-1.437 3-.059.107-.12.217-.129.338-.013.18.088.347.186.499.135.211.282.433.51.538.224.102.483.072.727.033.407-.066.81-.15 1.21-.252a.825.825 0 0 0 .284-.113c.099-.071.162-.18.222-.286.309-.543.567-.926.587-1.548.021-.644-.022-1.313.131-1.943.076-.306.175-.696-.08-.88-.197-.143-.582.016-.806.04-.397.042-.758-.003-1.132.183a.527.527 0 0 0-.2.153.439.439 0 0 0-.073.238M158.9 58.318c-.489 4.57-1.237 9.11-1.151 13.744.106 5.726-.587 11.51-.262 17.193-.663.19-1.34.328-2.024.416-.783.101-2.043.199-2.526-.564-.247-.39-.271-1.118-.36-1.564-.286-1.431-.539-2.869-.788-4.306-.707-4.067-1.517-8.16-1.77-12.28a600.71 600.71 0 0 0-.922-12.986 78.511 78.511 0 0 1-.28-6.7c.002-.575.031-6.517.323-6.543 3.46-.304 6.85.018 10.178 1.011.323.097.645.228.818.5.172.273.147.552.124.845-.221 2.79-.771 5.493-1.052 8.288-.098.973-.201 1.946-.308 2.946"/>
        <path fill="#5E8DDE" d="M162.909 21.643c.055.022.109.045.163.07.901.401 1.65 1.075 2.381 1.738 1.1.995 1.643 1.435 2.01 2.837.342 1.309.525 2.68.704 4.018.92 6.871.789 13.654 1.337 20.555.15 1.879.222 4.081-1.229 5.284-2.338-2.043-5.407-2.327-8.373-2.497-2.083-.12-4.082-.91-6.184-.795-2.008.109-3.723-.488-5.756-.471-.49.004-1.112-.037-1.28-.497.82-2.062.936-4.322 1.22-6.522.734-5.692 2.937-11.068 4.022-16.7.37-1.915.689-5.11 2.266-6.486 1.713-1.495 5.418-1.318 7.487-.89a7.2 7.2 0 0 1 1.232.356"/>
        <path fill="#E2B596" d="M161.097 22.553a.714.714 0 0 1-.146.175c-.244.216-.573.327-.894.355-.423.036-.846-.058-1.258-.161-.557-.14-.518-.468-.57-.983-.03-.282-.042-.565-.047-.848-.003-.155.089-.705-.004-.819-.063-.077-.336-.067-.451-.136-.184-.11-.332-.3-.435-.483-.167-.295-.25-.63-.33-.959l-.419-1.719c-.142-.585-.286-1.175-.308-1.778-.034-.907.184-2.173.903-2.795.655-.567 1.574-.726 2.412-.786 1.11-.078 2.24.188 3.158.826.37.258.717.585.92 1.019.313.668.24 1.477.16 2.232l-.222 2.091c-.086.802-.239 1.723-.866 2.125-.333.214-.754.24-1.044.52-.364.353-.373.912-.414 1.383-.024.27-.018.525-.145.741"/>
        <path fill="#3B455A" d="M156.299 16.489c.023.16.044.323.055.492.096 1.436-.127 2.817.161 4.257-1.294-.63-2.453-1.627-3.357-2.884-.155-.216-.306-.445-.383-.715-.073-.257-.076-.536-.073-.81.02-1.746.232-3.493.628-5.185.157-.672.346-1.344.67-1.929.98-1.764 2.943-2.354 4.711-2.372 1.024-.011 2.096.14 2.923.83.894.746 1.136 2.034 1.092 3.133-.01.27-.03.551-.166.784-.282.484-.931.579-1.49.606-.787.04-1.58.052-2.35.22-.768.17-1.525.51-2.043 1.103-.727.831-.507 1.592-.378 2.47"/>
        <path fill="#3B455A" d="M165.446 9.926c.241.482.43.998.578 1.538.52 1.907 1.01 3.712.728 5.733-.039.282-.09.564-.195.822-.14.348-.37.635-.604.906a16.572 16.572 0 0 1-3.104 2.813c.475-2.435.942-5.046.183-7.347-.59-1.788-1.825-3.055-3.176-4.03-.755-.544-2.787-1.646-2.266-2.86.718-1.675 4.651-.61 5.741.065.962.595 1.64 1.41 2.115 2.36"/>
        <path fill="#E2B596" d="M39.141 18.63a.58.58 0 0 0-.157.048c-.44.234-.528.62-.886.964-.16.154-.713.024-.625.478.033.167.17.567.244.923.106.52-.073 1.243-.321 1.79-.334.737-.704 1.508-1.14 2.181a28.473 28.473 0 0 1-3.263 4.1c-2.092-1.843-5.252-2.373-7.83-1.314-.27.11-.543.244-.727.469-.157.19-.238.431-.288.673-.53 2.551 1.91 2.943 3.864 3.342 1.218.248 2.472.423 3.714.49 1.741.092 2.885-.88 3.91-2.234 1.087-1.436 2.162-2.91 2.921-4.55.37-.797.562-1.606.822-2.437.256-.82.607-.66 1.016-1.321.228-.369.53-.701.687-1.108.28-.728-.155-1.406-.477-2.037-.08-.157-.134-.263-.269-.358-.22-.154-.48-.144-.739-.143-.153.001-.307.014-.456.044"/>
        <path fill="#4AFFC4" d="M28.806 33.646c.137.046.273.086.408.117.739.17 1.62.109 2.375.12 1.357.022 2.834.005 3.895-.84.41-.325.724-.752 1.032-1.175a148.434 148.434 0 0 0 4.218-6.124 12.913 12.913 0 0 0-3.056-2.41c-.318-.18-.675-.352-1.034-.286-.534.098-.831.658-1.051 1.155l-1.074 2.425c-.116.262-.255.548-.52.658-.173.072-.369.054-.555.032a28.193 28.193 0 0 1-4.467-.909c-.674-.193-1.464-.344-2.044-.741-.593-.406-1.014-.997-1.378-1.607-.398-.669-.749-1.375-1.271-1.952-.522-.577-1.263-1.018-2.039-.96-.572.044-1.087.348-1.578.644-.963.581-2.01 1.27-2.279 2.363-.23.935.189 1.912.74 2.703 1.17 1.682 2.917 2.858 4.623 3.994 1.186.79 2.38 1.584 3.672 2.192.435.204.911.44 1.383.6"/>
        <path fill="#3B455A" d="M10.248 93.06l-.093 1.578 3.064 1.763 1.67-1.485-1.485-1.67-3.064-1.764-.092 1.578"/>
        <path fill="#CCD2D9" d="M8.084 45.137l-.281 4.792 5.171 21.142-2.861 21.47 3.093.81 8.788-25.759.21-7.769-2.022-15.989-12.098 1.303"/>
        <path fill="#CCD2D9" d="M27.913 47.716l2.2 20.056-1.25 26.26-2.909.285-4.177-23.708-6.32-23.499 12.456.606"/>
        <path fill="#3B455A" d="M25.937 93.969l.154 1.573 3.3 1.265 1.42-1.727-1.727-1.42-3.147.309"/>
        <path fill="#4AFFC4" d="M5.314 47.678c-.207 1.83-.375 4.305.321 4.46.13.029.263-.025.384-.077 1.278-.554 2.225-1.411 3.484-1.944 1.32-.558 2.792-.785 4.226-.907a39.834 39.834 0 0 1 6.479-.077c1.693.125 3.378.424 5.049.717 1.39.245 2.655.779 4.091.81a9.208 9.208 0 0 0 4.273-.939c.048-.024.1-.051.123-.1.026-.053.011-.116-.004-.173-.224-.846-.365-1.676-.845-2.403-.537-.812-.88-1.813-1.239-2.715-.748-1.879-1.436-3.84-1.9-5.81-.726-2.689-1.596-5.322-2.29-8.016-.48-1.867-.901-3.761-1.62-5.556-.565-1.405-1.608-3.477-3.027-4.203-.48-.245-1.029-.313-1.564-.378l-4.874-.586c-.592-.07-1.208-.14-1.772.056-.845.292-1.38 1.102-1.854 1.86-2.123 3.4-3.619 7.138-4.622 11.042a139.845 139.845 0 0 0-1.454 6.142c-.481 2.297-.879 4.613-1.131 6.945-.028.26-.136.983-.234 1.852"/>
        <path fill="#FFF" d="M17.975 29.012c-.023.929-.24 1.84-.454 2.744l-3.925 16.517 13.13 1.082.097-6.313c.02-1.35.041-2.704-.122-4.044-.262-2.163-.996-4.243-1.724-6.303l-4.039-11.421c-.072-.204-.148-.414-.3-.57-.184-.187-.45-.268-.704-.336-1.23-.332-2.625-.644-3.898-.574-.419 1.115.559 3.209.891 4.312.484 1.605 1.09 3.21 1.048 4.906"/>
        <path fill="#E2B596" d="M19.507 21.13l-2.708-.367c.017-.726.092-1.451.224-2.166-.016.087-1.397-.81-1.51-.995-.323-.533-.29-1.376-.39-1.984-.211-1.296-.389-2.749.382-3.811.8-1.1 2.334-1.362 3.69-1.274 1.704.11 3.556.779 4.297 2.317.67 1.39-.503 3.24-.915 4.607-.203.674-.488 1.438-1.152 1.67-.353.123-.763.07-1.085.258-.568.334-.523 1.163-.833 1.744"/>
        <path fill="#3B455A" d="M26.4 10.576l.56-2.79c.069-.346.138-.704.056-1.047-.137-.57-.667-.966-1.216-1.17-.55-.203-1.142-.263-1.7-.44-.597-.19-1.163-.515-1.788-.544-1.188-.056-2.194.959-3.38 1.039-1.643.111-3.063-.766-4.214 1.05-.212.334-.298.733-.49 1.078-.247.447-.653.78-.982 1.17-1.447 1.716-1.287 4.534.123 6.229.684.821.93 1.53 1.944 1.866-.386-1.008.591-4.795 1.93-5.108.355-.083 1.35.433 1.727.523.833.2 1.642.411 2.407.813 1.135.596 2.383 1.059 3.651 1.27.162.027.344.05.477-.046.125-.091.165-.257.195-.409l.7-3.484M25.485 71.188L0 61.787l12.468-33.808 25.486 9.4-12.469 33.809"/>
        <path fill="#2C3545" d="M25.069 70.172l-22.25-8.995-.382-.141 22.299 8.225L36.27 37.982 25.07 70.172"/>
        <path fill="#FFF" d="M24.736 69.261L1.82 60.81l11.536-31.28 22.914 8.453-11.535 31.28"/>
        <path fill="#384156" d="M8.162 43.147l5.114-13.783 6.606 2.437-.044.12-6.481-2.391L8.36 43.076l-.2.07"/>
        <path fill="#F2F2F2" d="M8.36 43.076l4.997-13.546 6.48 2.39-.28.764 8.818 3.253-12.494 4.456-2.71-1a.19.19 0 0 0-.24.11l-.825 2.237-3.745 1.336m4.203-1.5l.653-1.77 2.119.782-2.772.989"/>
        <path fill="#343D4F" d="M29.79 35.591l-.22-.08.188-.067-9.876-3.643.017-.046 9.952 3.671-.061.165"/>
        <path fill="#E0E0E0" d="M29.508 36.355l-1.133-.418 1.196-.426.219.08-.282.764"/>
        <path fill="#31394C" d="M29.57 35.51l-9.732-3.59.044-.12 9.876 3.644-.187.067"/>
        <path fill="#D5D5D5" d="M28.375 35.937l-8.819-3.253.282-.764 9.733 3.59-1.196.427"/>
        <path fill="#E4EAE9" d="M27.207 31.306l-2.622-.967a.52.52 0 0 1-.309-.665.52.52 0 0 1 .666-.304l2.622.967a.52.52 0 0 1 .309.664.52.52 0 0 1-.666.305zm1.64.559l-.154-.057.038-.104c.36-.975-.262-2.102-1.389-2.518l-1.484-.547c-1.126-.416-2.331.038-2.69 1.013l-.039.104-.154-.058c-1.127-.415-2.332.038-2.691 1.014l-.728 1.972 9.952 3.67.728-1.971c.36-.975-.262-2.103-1.389-2.518z"/>
        <path fill="#C8CDCF" d="M15.239 44.34a.191.191 0 0 1-.066-.013l-3.365-1.24a.19.19 0 0 1-.11-.24l.408-1.107.458-.163-.452 1.225 3.014 1.112 1.105-2.996-.895-.33.545-.195.654.241a.189.189 0 0 1 .11.24l-1.233 3.344a.17.17 0 0 1-.091.1l-.005.003-.008.003a.168.168 0 0 1-.07.016"/>
        <path fill="#C2C6C8" d="M12.106 41.74l.825-2.237a.19.19 0 0 1 .24-.11l2.71 1-.545.195-2.12-.782-.652 1.77-.458.164"/>
        <path fill="#C8CDCF" d="M12.958 50.523a.191.191 0 0 1-.066-.012L9.528 49.27a.189.189 0 0 1-.111-.239c.41-1.115.822-2.23 1.233-3.344a.19.19 0 0 1 .24-.11l3.364 1.241a.19.19 0 0 1 .111.239L13.131 50.4a.17.17 0 0 1-.09.101l-.005.003-.008.003a.166.166 0 0 1-.07.015m-2.022-4.533l-1.105 2.996 3.014 1.112 1.105-2.996-3.014-1.112M10.678 56.707a.192.192 0 0 1-.067-.013l-3.364-1.24a.189.189 0 0 1-.11-.24L8.37 51.87a.19.19 0 0 1 .24-.11l3.364 1.242a.189.189 0 0 1 .11.239l-1.233 3.344a.17.17 0 0 1-.091.101l-.005.002-.008.004a.164.164 0 0 1-.07.015m-2.021-4.533L7.551 55.17l3.014 1.111 1.105-2.996-3.014-1.111"/>
        <path fill="#FFD702" d="M13.837 41.077l.867.029.146.927 4.671-1.285.398.244-5.587 1.917-.495-1.832M11.218 47.314l.868.029.146.927 4.67-1.285.399.244-5.588 1.917-.495-1.832M8.99 53.14l.867.03.146.927 4.671-1.285.398.244-5.587 1.917-.496-1.833"/>
        <path fill="#DADDDE" d="M24.885 61.208L13.017 56.83l.616-1.673 11.869 4.378-.617 1.673M27.3 54.658L15.433 50.28l.617-1.672 11.868 4.378-.616 1.672M29.716 48.109L17.848 43.73l.616-1.672 11.869 4.378-.617 1.672"/>
        <path fill="#E2B596" d="M7.88 37.692c-.077.207-.077.498.126.589.121.054.261.008.392-.015a1.148 1.148 0 0 1 1.223.673c.226.548-.035 1.207-.49 1.586-.455.38-1.062.525-1.652.577-.37.032-.785.018-1.056-.236-.14-.13-.223-.31-.295-.486-.372-.91-.681-2.095.037-2.921.565-.65 2.24-1.174 1.716.233"/>
        <path fill="#4AFFC4" d="M3.636 37.507c.074-.093.16-.18.257-.26.788-.638 1.807-1.25 2.856-.926a9.672 9.672 0 0 0 .847 5.75c.069.14.141.302.078.444-.119.267-.98.458-1.239.47-1.141.05-2.318-.519-2.813-1.36-.29-.495-.354-1.045-.41-1.581-.085-.83-.124-1.854.424-2.537"/>
        <path fill="#0093D7" d="M50.711 90.559h45.106V47.003H50.71z"/>
        <path fill="#0C5F85" d="M95.817 90.559l11.154-11.154V35.849L95.817 47.003v43.556"/>
        <path fill="#0781B9" d="M95.817 47.003l11.154-11.154H61.865L50.711 47.003h45.106"/>
        <path fill="#0C5F85" d="M81.211 35.849L70.057 47.003v8.779h6.406v-8.78h.008L87.625 35.85H81.21"/>
        <path fill="#FFF" d="M82.634 58.43l-6.167 7.96h3.743v12.753h4.849V66.391H88.8l-6.167-7.961M57.727 66.39h3.742v12.753h4.85V66.391h3.742l-6.167-7.961-6.167 7.96M56.681 82.262h33.166v-.655H56.68zM56.681 84.216h33.166v-.656H56.68zM56.681 86.17h33.166v-.656H56.68z"/>
        <path fill="#8EC3CB" d="M106.734 48.508c0-9.766 7.918-17.684 17.684-17.684 9.767 0 17.685 7.918 17.685 17.684 0 9.767-7.918 17.685-17.685 17.685-9.766 0-17.684-7.918-17.684-17.685"/>
        <path fill="#D6D6D6" d="M142.103 48.498a17.605 17.605 0 0 0-1.964-8.096v-.022a17.604 17.604 0 0 1 1.964 8.107v.01"/>
        <path fill="#C59439" d="M140.14 40.402a17.765 17.765 0 0 0-6.449-6.955l-.02-.032a17.77 17.77 0 0 1 6.468 6.965v.022"/>
        <path fill="#77A4AA" d="M124.418 66.172c-6.259 0-11.759-3.252-14.902-8.16a17.6 17.6 0 0 0 9.253 2.612c9.766 0 17.684-7.917 17.684-17.684 0-3.493-1.013-6.75-2.762-9.493a17.765 17.765 0 0 1 6.448 6.955 17.605 17.605 0 0 1 1.964 8.096c-.006 9.762-7.921 17.674-17.685 17.674"/>
        <path fill="#95B84C" d="M128.636 31.331c.315.078.627.163.936.257l-.936-.257"/>
        <path fill="#FFF" d="M130.633 31.948a5.14 5.14 0 0 0-1.502.022c.22-.154.361-.28.44-.382-.308-.094-.62-.18-.935-.257a1.803 1.803 0 0 0-.068.023c-.427.15-.49.165-.42.435a3.121 3.121 0 0 1-.47-.234h-2.048c1.297 1.434-1.217 1.34-2.135 1.343-.168 0-.207-.336-.112-.425.046-.042 1.153 0 .86 0 .864 0 .756-.058.756-.918-.831.613-.802 0-1.745 0-.884 0-1.317.049-2.092.397l.757.645c-.318-.072-1.355-.478-1.638-.358-.132.057-.166.408-.33.408-.658 0-2.45.36-2.45-.395 0-.003-.012-.006-.032-.01a17.68 17.68 0 0 0-4.458 2.755c.852-.14 1.747-.091 1.923-.091.08 0 .62 1.397.625 1.505.03.61-.386.85-.694 1.43-.562 1.056-.81 2.438-.747 3.624.003.043.707.677.707.928 0 1.052.11 1.07.833 1.845v-1.291c.431 1.13.952 1.565 1.341 2.67.442 1.255 2.188.291 2.78 1.118.262.364.75.197.982.552l.632.964c.38.581.844.38 1.525.38.653 0-.595 2.257-.595 2.447 0 .783 1.068 2.565 1.062 2.878-.02.93 1.14 1.06 1.77 1.632.505.462.145 1.77.13 2.35-.037 1.35.826 2.321 1.048 3.597.083.475-.1.989.006 1.444.109.469.51.76.505 1.278-.01.8 2.238.95 2.674.95-.002-.002-1.641-.852-1.641-.75 0-.759.39-.706.39-1.169 0-.55-.499-1.002-.187-1.78.337-.84.299-.815 1.21-.815a5.442 5.442 0 0 0-.176-1.142c.814-1.27 2.709-2.49 3.21-2.833.681-.466.3-1.722.595-2.392.259-.588 1.044-1.132 1.082-1.856.029-.552-.46-.687-.863-.673-.403.014-.443-.66-.747-.66-.846 0-1.724-.144-2.457-.687-.122-.09-.258-1.17-.465-1.437-.297-.383-1.247.29-1.616-.232-.14-.197-.47-.97-.695-.97-.306 0-1.996-.328-2.351-.007.054-.049-.577-.24-.666-.24.038 0-2.171 1.144-2.171.55 0-.77.375-1.767-.539-1.767-1.469 0-.219-.382-.219-1.055 0-.863-1.423.237-2.172.238.02 0-.844-1.416-.43-1.416.297 0 .344-.606.564-.864.58-.678 1.571-.75 2.269-.622.282.052 1.306 1.24 1.309 1.485 0-.059.417-.326.474-.413.202-.31.087-.443.138-.753.17-1.04.212-1.246 1.042-1.878.61-.465 1.462-.998 1.94-1.6.366-.458.708-.696 1.238-.957-.054.027.504.34.62.34.48 0 .596-.406.86-.77h-.834c.94-.719-.762-1.092 1.124-1.092.925 0 1.011.013 1.577-.645-.9 0-.681-.006-.681-.923 0-.153-.255-.713-.498-.474-.664.653-.64-.12-.931-.554-.376-.562-.782.017-.939.357-.195.422-1.793 1.083-1.789 1.634.002.323-.526.31-.516-.05.014-.54-1.854-1.057-1.885-1.268-.04-.279.925-1.03 1.765-1.03.385 0 .196-.447.315-.447.8 0 1.743-.248 2.18-.893-.109 0-1.136.007-1.136-.006 0-.366-.156-.59.264-.59.986 0 1.279.77 2.362.77l-1.161.843c.543 0 1.357.903 1.775.623.772-.517.252-.99.893-1.097a.764.764 0 0 0 .315.196c.2.071.923.2 1.045.383.148.221.524 1.53.248 1.643-.448.185-1.761 1.607-.757 1.962.776.274.975-.072 1.666-.504.642-.401.816-.254 1.539.002.007.002.75-.025 1.03.074.609.215.564-.17.629-.147.254.09.744.154 1.063.015a17.717 17.717 0 0 0-7.094-4.916"/>
        <path fill="#FFF" d="M123.293 44.26l-.358.359c1.114 0 1.792.36 2.78.36-.663-1.04-1.183-.72-2.422-.72M126.97 45.16c-.895-.027-.936.108-1.484.72l1.414.002c.409 0 .352-.714.07-.723M128.238 46.091c0-1.253-1.275 0 0 0"/>
        <path fill="#A8D8DD" d="M109.138 50.374c0-9.068 7.35-16.419 16.419-16.419 5.3 0 10.012 2.512 13.015 6.41-2.836-4.922-8.15-8.235-14.238-8.235-9.067 0-16.418 7.35-16.418 16.419 0 3.767 1.27 7.238 3.403 10.008a16.344 16.344 0 0 1-2.181-8.183"/>
        <path fill="#A2C14B" d="M129.148 32.848c.075.023.151.047.226.072l.068-.05a2.02 2.02 0 0 1-.294-.022"/>
        <path fill="#F4F4F4" d="M128.28 33.714c.544 0 1.358.903 1.776.623.575-.385.433-.746.589-.949-.415-.173-.839-.33-1.27-.468l-1.094.794"/>
        <path fill="#A2C14B" d="M129.148 32.848a16.127 16.127 0 0 0-.52-.15c.154.068.324.122.52.15"/>
        <path fill="#F4F4F4" d="M135.986 36.981a16.487 16.487 0 0 0-3.49-2.68c.136.463.247 1.084.061 1.161a.59.59 0 0 0-.059.029c.855.4 1.669.87 2.436 1.405l.071.026c.006.002.673-.022.98.06M125.66 33.957c.102-.129.025-.367.112-.367.8 0 1.743-.248 2.18-.893-.109 0-1.136.007-1.136-.006 0-.152-.026-.28-.028-.377a16.15 16.15 0 0 0-.795-.1c.044.743-1.753.681-2.498.684-.168 0-.207-.336-.112-.425.046-.042 1.153 0 .86 0 .597 0 .73-.028.755-.329a16.518 16.518 0 0 0-3.367.208l.288.245c-.125-.028-.36-.107-.617-.187-2.3.43-4.43 1.338-6.285 2.619.175.343.538 1.294.542 1.382.03.61-.386.85-.694 1.43-.021.04-.039.083-.059.123a16.355 16.355 0 0 1 10.75-4.009l.104.002"/>
        <path fill="#F2F2F2" d="M126.339 62.98c.109.468.51.76.505 1.277-.01.8 2.238.95 2.674.95-.002-.002-1.641-.852-1.641-.75 0-.759.39-.706.39-1.169 0-.55-.499-1.002-.187-1.78.337-.84.299-.815 1.21-.815a5.442 5.442 0 0 0-.176-1.142c.814-1.27 2.709-2.49 3.21-2.833.681-.466.3-1.722.595-2.392.259-.588 1.044-1.132 1.082-1.856a.608.608 0 0 0-.094-.384 17.749 17.749 0 0 1-8.381 7.2c.263.744.666 1.435.807 2.249.083.475-.1.989.006 1.444"/>
        <path fill="#EAEAEA" d="M87.93 4.374l-.23-.015h.003c.018 0 .101-.001.22-.023l.008.038"/>
        <path fill="#F5F5F5" d="M103.37 1.525c-.471-.003-1.096-.234-1.455-.307a46.112 46.112 0 0 1-2.366-.536c-.6-.155-1.195-.326-1.788-.505 1.788.47 3.776.89 5.609 1.348"/>
        <path fill="#EFC9AF" d="M60.395 52.448a.963.963 0 0 0-.033-.208c-.186-.597-.55-.758-.85-1.26-.135-.225.04-.926-.406-.866-.165.022-.563.152-.913.204-.512.075-1.193-.244-1.7-.63-.68-.52-1.393-1.09-2.003-1.736-1.282-1.354-2.598-3.05-3.666-4.709 1.967-2.483 2.763-6.502 1.972-9.963-.083-.362-.187-.73-.388-.996a1.431 1.431 0 0 0-.624-.452c-2.416-.99-3.013 2.116-3.573 4.592a42.779 42.779 0 0 0-.806 4.743c-.246 2.239.59 3.834 1.806 5.322 1.288 1.576 2.615 3.142 4.13 4.321.737.573 1.501.92 2.28 1.354.768.43.583.865 1.184 1.473.335.339.63.77 1.007 1.02.679.45 1.372-.031 2.01-.371.158-.085.266-.142.37-.305.168-.265.182-.603.204-.938a4.074 4.074 0 0 0-.001-.595"/>
        <path fill="#18D2A6" d="M46.753 37.245a58.39 58.39 0 0 0-.408 3.611c-.142 1.75-.258 3.662.462 5.136.278.568.662 1.025 1.043 1.473a163.836 163.836 0 0 0 5.534 6.188c.998-1.035 1.878-2.274 2.6-3.661.202-.389.4-.83.369-1.302-.046-.702-.56-1.153-1.02-1.497l-2.245-1.679c-.243-.182-.506-.396-.589-.751-.054-.232-.019-.483.019-.72.716-4.497 1.965-8.048 3.502-12.12.678-1.795 1.37-3.661 1.425-5.67.12-4.292-3.723-6.636-5.932-3.32-2.518 3.78-4.016 9.162-4.76 14.312"/>
        <path fill="#AA6755" d="M125.4 41.392a.64.64 0 0 1 .04-.18c.219-.509.638-.643.987-1.072.156-.19-.04-.794.472-.738.19.02.645.137 1.048.185.586.07 1.372-.196 1.957-.523.786-.438 1.608-.92 2.315-1.467a31.712 31.712 0 0 0 4.248-4.002c-2.24-2.151-3.122-5.609-2.186-8.57.098-.31.22-.624.453-.85.197-.191.457-.304.72-.382 2.783-.824 3.445 1.848 4.068 3.979.39 1.33.7 2.704.889 4.078.264 1.923-.708 3.283-2.117 4.546-1.492 1.34-3.028 2.67-4.778 3.665-.851.483-1.731.772-2.629 1.137-.887.361-.677.736-1.372 1.251-.388.288-.73.654-1.166.865-.782.379-1.575-.041-2.305-.34-.182-.074-.305-.124-.422-.265-.192-.23-.205-.52-.227-.807a2.586 2.586 0 0 1 .006-.51"/>
        <path fill="#FFD702" d="M138.96 31.063a7.45 7.45 0 0 0-1.257.478c-.275.13-3.388 1.512-3.402 1.459-.22-.848-1.034-1.66-1.435-2.465a12.955 12.955 0 0 1-1.062-3.026c-.373-1.728-1.184-3.41-1.81-5.064-.792-2.089.659-3.57 2.782-2.88 1.812.589 3.25 2.17 4.568 3.473 1.064 1.053 2.116 2.146 2.847 3.453.731 1.306 1.117 2.865.758 4.319-.8.038-1.383.089-1.99.253"/>
        <path fill="#D34E4E" d="M148.265 35.835l19.913-.032c1.325-.002 2.402 1.107 2.404 2.476l.02 14.096c.003 1.37-1.07 2.482-2.396 2.484l-19.912.032c-1.326.002-2.402-1.107-2.405-2.476l-.02-14.096c-.003-1.37 1.07-2.482 2.396-2.484"/>
        <path fill="#FFF" d="M163.193 45.996l4.745-.008c.358 0 .647-.3.646-.67l-.007-4.902c0-.37-.29-.669-.648-.668l-4.746.007c-.357 0-.646.3-.646.67l.007 4.903c.001.37.291.668.649.668M163.243 53.412l4.745-.008c.358 0 .647-.3.647-.67l-.008-4.903a.658.658 0 0 0-.648-.667l-4.745.007c-.358 0-.647.3-.647.67l.008 4.903c0 .37.29.668.648.668M155.784 46.008l4.745-.008c.358 0 .647-.3.646-.67l-.007-4.903c0-.37-.29-.668-.648-.667l-4.746.007c-.357 0-.647.3-.646.67l.007 4.903c.001.37.291.668.649.668M155.834 53.423l4.745-.007c.358 0 .647-.3.647-.67l-.008-4.903c0-.37-.29-.668-.648-.667l-4.745.007c-.358 0-.647.3-.647.67l.008 4.903c0 .369.29.668.648.667M148.375 46.02l4.745-.008c.358 0 .647-.3.646-.67l-.007-4.903a.658.658 0 0 0-.648-.668l-4.746.008c-.357 0-.647.3-.646.67l.007 4.903c.001.37.291.668.649.668M148.425 53.435l4.746-.007c.357 0 .646-.3.646-.67l-.008-4.903c0-.37-.29-.668-.648-.668l-4.745.008c-.358 0-.647.3-.647.67l.008 4.903c0 .369.29.668.648.667"/>
        <path fill="#EBB044" d="M165.533 33.778l.692-.001c.379 0 .686.316.686.707l.004 2.647c.001.391-.305.709-.684.71h-.692a.697.697 0 0 1-.686-.706l-.004-2.648c0-.391.306-.708.684-.709M150.03 33.803l.692-.001c.378 0 .685.315.686.706l.004 2.648a.697.697 0 0 1-.684.709l-.692.001a.697.697 0 0 1-.686-.707l-.004-2.647c-.001-.391.305-.709.684-.71"/>
        <path fill="#E2B596" d="M171.954 46.263c.217-.508.382-1.033.546-1.56a75.771 75.771 0 0 0-2.413-.518c-.016.149-.032.297-.045.442-.07.743-.022 1.5-.168 2.234-.075.378-.195.782-.423 1.098-.202.278-.388.394-.45.774-.057.351.4.47.22.836-.197.398-.785.11-1.09.396a.8.8 0 0 0-.18.306c-.111.287-.188.62-.047.893.43.832 1.547.424 2.056-.02.346-.3.805-.537 1.06-.93.521-.807.134-1.87.423-2.747.136-.414.34-.803.511-1.204"/>
        <path fill="#5E8DDE" d="M165.205 32.544c.935 1.47 2.767 2.51 3.97 3.844 2.35 2.604.844 7.382.54 10.563l2.046.808 2.838-9.71-4.308-9.31a11.62 11.62 0 0 0-6.257-5.92l-1.946-.772c.764.308 1.66 5.773 1.9 6.608.32 1.108.494 2.523 1.022 3.55a4.3 4.3 0 0 0 .195.339"/>
        <path fill="#E2B596" d="M148.85 37.922c-.075-.99-1.055-1.789-2.048-1.762-.316.009-.637.091-.89.282-.251.19-.425.498-.408.813l.255-.233-.01.023a7.742 7.742 0 0 0-.49 1.592c-.05.259-.085.53-.007.783.084.27.288.482.486.684.156.16.322.325.537.384.216.059.49-.037.545-.254.045-.179-.067-.387.029-.545.112-.185.387-.133.599-.18.278-.063.466-.319.712-.462.101-.058.213-.098.31-.162.301-.2.408-.602.38-.963"/>
        <path fill="#5E8DDE" d="M146.099 37.314c.245-.44.744-.773 1.239-.68.156.03.313.1.467.061.222-.055.335-.324.293-.548-.041-.225-.195-.41-.353-.577-.34-.358-.741-.686-1.222-.8-.597-.14-1.242.08-1.704.482-.464.402-.762.965-.95 1.55-.262.818-.542 3.195.803 3.247 1.484.057.972-1.92 1.427-2.735"/>
    </g>
</svg>
