<svg xmlns="http://www.w3.org/2000/svg" width="150" height="98" viewBox="0 0 164 114">
    <g fill="none" fill-rule="evenodd">
        <path fill="#D4EAF2" d="M89.355 94.762L67.29 82.022c-1.354-.781-1.184-2.147.38-3.05l21.306-12.3c1.563-.904 3.929-1.002 5.283-.22l22.066 12.74c1.354.78 1.184 2.147-.38 3.05l-21.306 12.3c-1.563.904-3.929 1.002-5.284.22"/>
        <path fill="#3B6397" d="M123.644 69.488v-9.534l-21.377-.012-7.39-4.266c-1.695-.979-4.658-.856-6.616.274l-6.894 3.98-21.396-.011v9.805c-.049.662.32 1.302 1.135 1.773l27.631 15.952c1.696.98 4.658.856 6.617-.274l26.68-15.404c1.129-.652 1.674-1.496 1.61-2.283"/>
        <path fill="#3B6397" d="M91.808 55.02c-1.241.03-2.53.343-3.547.93l-6.894 3.98-21.396-.011v9.805c-.049.662.32 1.302 1.135 1.773l27.631 15.952c.815.47 1.923.684 3.071.656V55.02"/>
        <path fill="#5589BB" d="M62.392 59.92l-2.421-.001v9.805c-.049.662.32 1.302 1.135 1.773l1.286.742v-12.32M89.163 87.658c1.462.626 3.578.591 5.289-.061V76.464h-5.289v11.194"/>
        <path fill="#D4EAF2" d="M88.737 77.68l-27.63-15.953c-1.696-.98-1.484-2.69.474-3.82l26.68-15.403c1.958-1.131 4.92-1.254 6.617-.275l27.63 15.953c1.696.979 1.483 2.69-.474 3.82l-26.68 15.403c-1.959 1.13-4.92 1.254-6.617.275"/>
        <path fill="#5589BB" d="M89.235 74.808L66.08 61.44c-1.421-.82-1.243-2.254.398-3.201L88.836 45.33c1.64-.947 4.123-1.05 5.544-.23l23.155 13.37c1.421.82 1.243 2.253-.398 3.2L94.779 74.578c-1.64.948-4.123 1.05-5.544.23"/>
        <path fill="#D4EAF2" d="M113.482 72.004c0 .712-.5 1.577-1.116 1.933-.617.356-1.117.068-1.117-.644s.5-1.577 1.117-1.933c.616-.356 1.116-.068 1.116.644M117.072 69.93c0 .712-.5 1.578-1.116 1.934-.616.356-1.116.067-1.116-.644 0-.712.5-1.578 1.116-1.934.616-.355 1.116-.067 1.116.645M120.663 67.858c0 .711-.5 1.577-1.116 1.933-.617.356-1.116.067-1.116-.645 0-.71.5-1.577 1.116-1.933.616-.356 1.116-.067 1.116.645"/>
        <path fill="#3B6397" d="M123.644 54.253v-9.535l-21.377-.011-7.39-4.266c-1.695-.98-4.658-.857-6.616.274l-6.894 3.98-21.396-.012v9.805c-.049.663.32 1.302 1.135 1.773l27.631 15.953c1.696.979 4.658.855 6.617-.275l26.68-15.403c1.129-.653 1.674-1.497 1.61-2.283"/>
        <path fill="#3B6397" d="M91.808 39.784c-1.241.03-2.53.343-3.547.931l-6.894 3.98-21.396-.012v9.805c-.049.663.32 1.302 1.135 1.773l27.631 15.953c.815.47 1.923.684 3.071.655V39.784"/>
        <path fill="#5589BB" d="M62.392 44.685l-2.421-.002v9.805c-.049.663.32 1.302 1.135 1.773l1.286.742V44.685M89.163 72.422c1.462.627 3.578.592 5.289-.06V61.229h-5.289v11.193"/>
        <path fill="#D4EAF2" d="M88.737 62.444L61.107 46.49c-1.696-.979-1.484-2.689.474-3.82l26.68-15.403c1.958-1.131 4.92-1.254 6.617-.274l27.63 15.952c1.696.98 1.483 2.69-.474 3.82L95.354 62.17c-1.959 1.13-4.92 1.253-6.617.274"/>
        <path fill="#5589BB" d="M89.235 59.573L66.08 46.204c-1.421-.82-1.243-2.253.398-3.2l22.358-12.91c1.64-.947 4.123-1.05 5.544-.23l23.155 13.37c1.421.82 1.243 2.253-.398 3.2L94.779 59.344c-1.64.947-4.123 1.05-5.544.23"/>
        <path fill="#D4EAF2" d="M113.482 56.768c0 .712-.5 1.577-1.116 1.934-.617.355-1.117.067-1.117-.645 0-.711.5-1.577 1.117-1.933.616-.356 1.116-.067 1.116.644M117.072 54.695c0 .712-.5 1.578-1.116 1.933-.616.356-1.116.068-1.116-.644s.5-1.577 1.116-1.933c.616-.356 1.116-.067 1.116.644M120.663 52.622c0 .712-.5 1.577-1.116 1.933-.617.356-1.116.067-1.116-.644 0-.712.5-1.577 1.116-1.933.616-.356 1.116-.067 1.116.644"/>
        <path fill="#3B6397" d="M123.644 39.017v-9.534l-21.377-.012-7.39-4.266c-1.695-.98-4.658-.856-6.616.274l-6.894 3.98-21.396-.011v9.805c-.049.662.32 1.302 1.135 1.772l27.631 15.953c1.696.98 4.658.856 6.617-.274l26.68-15.404c1.129-.652 1.674-1.497 1.61-2.283"/>
        <path fill="#3B6397" d="M91.808 24.55c-1.241.03-2.53.342-3.547.93l-6.894 3.98-21.396-.012v9.805c-.049.662.32 1.302 1.135 1.772l27.631 15.953c.815.47 1.923.684 3.071.656V24.549"/>
        <path fill="#5589BB" d="M62.392 29.449l-2.421-.001v9.805c-.049.662.32 1.302 1.135 1.772l1.286.742V29.45M89.163 57.186c1.462.627 3.578.592 5.289-.06V45.993h-5.289v11.193"/>
        <path fill="#D4EAF2" d="M88.737 47.208l-27.63-15.953c-1.696-.978-1.484-2.688.474-3.819l26.68-15.404c1.958-1.13 4.92-1.253 6.617-.274l27.63 15.952c1.696.98 1.483 2.69-.474 3.82l-26.68 15.404c-1.959 1.13-4.92 1.254-6.617.274"/>
        <path fill="#5589BB" d="M106.767 36.422L87.546 24.55l-5.981 11.44 1.66 6.16 6.476 4.189 17.066-9.916"/>
        <path fill="#FFFFFE" d="M122.034 29.654l-26.68 15.404c-1.959 1.13-4.92 1.253-6.617.275l-27.63-15.954a2.552 2.552 0 0 1-.847-.75c-.583.937-.318 1.955.846 2.626l27.631 15.953c1.696.98 4.658.856 6.617-.274l26.68-15.404c1.52-.878 1.983-2.105 1.32-3.069-.265.428-.707.839-1.32 1.193"/>
        <path fill="#D4EAF2" d="M113.482 41.533c0 .712-.5 1.577-1.116 1.933-.617.356-1.117.067-1.117-.644 0-.712.5-1.578 1.117-1.934.616-.355 1.116-.067 1.116.645M117.072 39.46c0 .711-.5 1.577-1.116 1.933-.616.355-1.116.067-1.116-.645 0-.711.5-1.577 1.116-1.933.616-.356 1.116-.067 1.116.644M120.663 37.387c0 .711-.5 1.577-1.116 1.932-.617.357-1.116.068-1.116-.644 0-.711.5-1.577 1.116-1.933.616-.356 1.116-.067 1.116.645M87.916 50.438c0 .497-.349.698-.779.45-.43-.249-.779-.853-.779-1.35 0-.496.349-.697.78-.45.43.25.778.853.778 1.35"/>
        <path fill="#5589BB" d="M85.5 49.052c0 .497-.35.698-.78.45-.43-.249-.778-.853-.778-1.35 0-.496.349-.697.779-.45.43.25.779.853.779 1.35"/>
        <path fill="#D4EAF2" d="M87.916 53.355c0 .496-.349.697-.779.45-.43-.25-.779-.853-.779-1.35 0-.497.349-.698.78-.45.43.248.778.852.778 1.35M85.5 51.968c0 .497-.35.698-.78.45-.43-.248-.778-.852-.778-1.349s.349-.698.779-.45c.43.249.779.852.779 1.35"/>
        <path fill="#FFFFFE" d="M87.916 65.542c0 .497-.349.698-.779.45-.43-.248-.779-.853-.779-1.35 0-.496.349-.698.78-.449.43.248.778.852.778 1.35"/>
        <path fill="#5589BB" d="M85.5 64.156c0 .497-.35.698-.78.45-.43-.248-.778-.853-.778-1.349 0-.497.349-.698.779-.45.43.248.779.852.779 1.349"/>
        <path fill="#D4EAF2" d="M87.916 68.458c0 .497-.349.699-.779.45-.43-.249-.779-.853-.779-1.35 0-.496.349-.697.78-.448.43.248.778.852.778 1.348M85.5 67.073c0 .496-.35.697-.78.45-.43-.25-.778-.853-.778-1.35 0-.497.349-.698.779-.45.43.248.779.852.779 1.35"/>
        <path fill="#FFFFFE" d="M87.916 80.807c0 .497-.349.698-.779.45-.43-.249-.779-.853-.779-1.35 0-.497.349-.698.78-.45.43.25.778.853.778 1.35"/>
        <path fill="#5589BB" d="M85.5 79.42c0 .498-.35.699-.78.45-.43-.248-.778-.852-.778-1.349s.349-.698.779-.45c.43.25.779.853.779 1.35"/>
        <path fill="#FFFFFE" d="M87.916 83.723c0 .497-.349.698-.779.45-.43-.249-.779-.853-.779-1.35 0-.496.349-.697.78-.45.43.25.778.853.778 1.35"/>
        <path fill="#D4EAF2" d="M85.5 82.337c0 .497-.35.698-.78.45-.43-.249-.778-.853-.778-1.35 0-.496.349-.697.779-.45.43.25.779.853.779 1.35"/>
        <path fill="#263764" d="M106.121 36.799L79.025 21.154c-.316-.182-.276-.5.089-.71.364-.211.916-.234 1.232-.052l27.096 15.645c.316.181.276.5-.089.71-.364.211-.916.234-1.232.052"/>
        <path fill="#D4EAF2" d="M.093 74.181l16.942-9.864c3.356-1.938 6.521-2.244 8.913-.865 2.39 1.38 3.707 4.275 3.707 8.15v1.242c-.12.081-.245.16-.374.238v-1.48c0-3.736-1.25-6.515-3.52-7.826-2.271-1.31-5.303-1.004-8.54.864L.282 74.505a.186.186 0 0 1-.256-.069.186.186 0 0 1 .068-.255M52.927 62.43V24.252c0-7.642 5.384-16.969 12.002-20.79 3.242-1.87 6.299-2.167 8.609-.834 2.31 1.333 3.581 4.129 3.581 7.872v2.662l-.373.374V10.5c0-3.604-1.206-6.285-3.395-7.548-2.19-1.264-5.114-.968-8.235.834C58.601 7.547 53.3 16.728 53.3 24.252V62.43c0 6.334-3.728 13.831-8.781 18.343v-.502c4.854-4.46 8.408-11.705 8.408-17.84"/>
        <path fill="#3B6397" d="M77.12 14.33c.613-.582 3.473-3.106 7.647-3.744 4.727-.723 6.681 4.806 6.681 4.806s.547 2.871.528 4.57c-.02 1.7-.142 7.873-.142 7.873L76.85 19.202v-.003a.184.184 0 0 1-.103-.164v-4.382c.124-.124.249-.198.373-.323"/>
        <path fill="#D4EAF2" d="M87.742 10.817l-14.204-8.19.055.205c-2.189-1.414-5.498-1.567-9.923 1.679-8.79 6.446-9.847 15.42-10.295 17.102-.448 1.683-.264 12.337-.264 12.337s-.03 25.698-.058 28.687c-.03 2.989-.9 6.341-2.58 9.963-1.678 3.62-5.992 8.014-5.992 8.014v5.23c.69 5.655 3.092 6.974 6.667 7.297 2.885.26 5.959-1.824 8.415-4.094l-.149.155v5.23c.689 5.655 3.092 6.973 6.667 7.296 3.575.322 7.44-2.952 10.06-5.724 2.62-2.77 4.828-7.004 6.056-10.822 1.227-3.818.82-8.751.82-8.751s.03-28.091.059-33.63c.03-5.538.205-4.57 2.022-10.138 1.817-5.568 6.632-9.465 6.632-9.465l11.556-3.441-15.544-8.94"/>
        <path fill="#3B6397" fill-rule="nonzero" d="M57.614 26.392l2.395-4.149-.855-.493-2.395 4.148.855.494zm1.715.99l1.575-2.73.088 3.69.855.494 2.395-4.149-.852-.492-1.579 2.736-.087-3.698-.855-.493-2.395 4.148.855.494zm5.313 3.067l3.84-3.314-.952-.55-2.742 2.577.867-3.66-.949-.547-.956 4.98.892.514zm3.48 2.085c.347.2.703.295 1.069.283.365-.012.708-.13 1.03-.354.322-.225.601-.541.837-.95l.107-.185c.235-.406.368-.807.4-1.203a1.898 1.898 0 0 0-.21-1.075 1.982 1.982 0 0 0-.779-.782c-.345-.2-.7-.294-1.065-.283-.365.011-.71.13-1.037.355-.327.226-.608.543-.844.951l-.118.205c-.228.4-.357.797-.386 1.189-.029.392.044.749.218 1.07.174.32.433.58.777.779zm.404-.7c-.293-.17-.45-.416-.47-.74-.021-.323.09-.697.335-1.12l.117-.203c.25-.43.519-.711.803-.845.285-.133.57-.117.857.049.29.167.446.408.471.724.026.316-.087.691-.338 1.126l-.117.203c-.251.43-.518.713-.802.85-.284.135-.57.12-.856-.045zm2.987 2.582l2.395-4.148-.855-.494-2.395 4.149.855.493zm2.414 1.47c.486.28.952.378 1.397.294.445-.085.813-.341 1.103-.77l-.855-.493c-.165.242-.347.386-.547.431-.2.046-.431-.008-.695-.16-.293-.17-.447-.396-.464-.682-.016-.285.105-.652.364-1.1l.181-.314c.252-.427.507-.702.767-.824.26-.123.531-.102.816.063.262.151.423.324.481.519.059.194.021.432-.113.712l.855.493c.222-.49.261-.947.117-1.373-.145-.425-.456-.776-.935-1.052a1.95 1.95 0 0 0-1.051-.282c-.355.012-.69.129-1.007.351-.316.223-.589.534-.82.933l-.146.254c-.36.624-.492 1.204-.393 1.738.098.534.413.955.945 1.262zm5.112 2.875l.396-.686-1.926-1.112.642-1.111 1.641.947.387-.67-1.642-.947.571-.989 1.92 1.109.4-.692-2.775-1.603-2.395 4.149 2.78 1.605z"/>
        <path fill="#2D4774" d="M63.015 101.258c-.195-.265-2.726-1.962-3.37-4.95-.36-1.663-.323-4.19-.323-4.19s.01-1.407.044-2.685l.085-.072v-.502l-.07.062c.01-.289.02-.56.033-.79.074-1.327-.907-4.16-.907-4.16s-1.393-3.795-5.54-3.941c-3.68-.13-7.555 2.518-8.38 3.115V81.43c-.055.037-.113.073-.17.11l.016-.695.086-.073v-.502l-.07.062c.009-.288.02-.56.032-.788.074-1.33-.908-4.162-.908-4.162s-1.392-3.795-5.538-3.94c-3.681-.131-7.556 2.517-8.38 3.114v-1.713c-.12.08-.245.16-.374.238v3c0 3.634 1.211 6.366 3.41 7.722l.009.011.077.044.06.038.041.02 15.203 8.753-.019-.02 14.953 8.608"/>
        <path fill="#D4EAF2" d="M40.88 72.04s-.114-.058-.314-.14c-.062-.03-.122-.065-.184-.093l-14.434-8.355s-2.653-1.393-5.86-.22C16.88 64.406.072 74.49.072 74.49l15.016 8.65h.002l.04.01 14.89 8.579s8.425-5.22 14.253-8.586l.374-.215c2.382-1.37 4.275-2.394 4.868-2.551 3.593-.952 6.094.208 6.745.565L40.88 72.04M56.26 80.942l.174.1s-.064-.04-.174-.1"/>
        <path fill="#3B6397" d="M92.052 22.918c.613-.583 3.474-3.106 7.648-3.744 4.728-.723 6.681 4.805 6.681 4.805s.547 2.872.528 4.572c-.02 1.7-.142 7.871-.142 7.871L91.781 27.79v-.002a.184.184 0 0 1-.102-.164V23.24c.124-.125.249-.198.373-.323"/>
        <path fill="#3B6397" d="M65.935 101.938c1.652 0 3.481-.552 5.374-1.645 6.57-3.793 11.916-13.052 11.916-20.64V41.477c0-7.523 5.3-16.705 11.816-20.467 3.121-1.801 6.045-2.097 8.235-.834 2.189 1.264 3.394 3.944 3.394 7.548v8.536a.187.187 0 0 0 .374 0v-8.536c0-3.743-1.272-6.538-3.581-7.871-2.31-1.334-5.368-1.037-8.609.834-6.619 3.821-12.003 13.148-12.003 20.79v38.178c0 7.468-5.262 16.581-11.73 20.316-3.097 1.788-6 2.082-8.172.828-2.173-1.255-3.37-3.916-3.37-7.493v-4.479c0-3.875-1.316-6.77-3.707-8.15-2.391-1.38-5.556-1.073-8.912.865l-16.942 9.864a.187.187 0 0 0 .187.323l16.941-9.864c3.236-1.868 6.269-2.176 8.539-.865 2.27 1.312 3.52 4.09 3.52 7.827v4.48c0 3.715 1.264 6.491 3.557 7.815.944.545 2.016.817 3.173.817"/>
        <path fill="#5589BB" d="M68.917 14.458l-1.788-1.033c-.11-.064-.112-.207-.004-.32l1.468-1.545c.108-.114.284-.154.394-.091l1.789 1.033c.11.063.111.207.004.32l-1.468 1.545c-.108.113-.285.154-.395.09"/>
        <path fill="#3B6397" d="M72.765 16.68l-1.79-1.032c-.11-.063-.111-.207-.003-.32l1.468-1.545c.107-.113.284-.154.393-.09l1.79 1.032c.109.064.111.207.003.32l-1.468 1.545c-.108.114-.284.154-.393.09"/>
        <path fill="#FFFFFE" d="M76.611 18.904l-1.788-1.033c-.11-.063-.112-.206-.004-.32l1.468-1.545c.107-.113.284-.154.393-.09l1.79 1.033c.11.063.11.206.003.32l-1.468 1.545c-.107.113-.284.153-.394.09"/>
        <path fill="#5589BB" d="M80.458 21.127l-1.789-1.032c-.11-.064-.11-.207-.003-.32l1.467-1.545c.108-.114.284-.154.395-.09l1.788 1.032c.11.063.112.206.004.32l-1.468 1.545c-.107.113-.284.154-.394.09M68.007 50.16l-2.504-1.446c-.233-.135-.425-.496-.43-.809-.006-.311.179-.456.412-.321l2.504 1.445c.232.135.425.496.43.808.005.312-.18.457-.412.322M73.973 53.604L70.28 51.47c-.232-.133-.425-.495-.43-.807-.005-.312.18-.457.411-.322l3.693 2.132c.233.134.425.496.43.808.006.312-.178.456-.411.322M66.766 63.515l-2.504-1.446c-.233-.134-.425-.496-.43-.808-.005-.312.179-.456.412-.322l2.504 1.446c.232.134.425.496.43.808.005.312-.18.456-.412.322M72.084 66.586l-3.692-2.133c-.233-.134-.425-.496-.43-.808-.006-.311.178-.456.411-.322l3.693 2.132c.232.134.425.496.43.809.005.31-.18.455-.412.322M61.14 48.54l-1.565-.903c-.232-.135-.425-.496-.43-.808-.005-.312.18-.456.412-.322l1.564.903c.233.134.425.495.43.808.006.312-.178.456-.411.322M66.483 53.97l-4.78-2.76c-.233-.134-.426-.496-.43-.808-.006-.312.179-.456.411-.322l4.78 2.76c.233.134.426.496.43.808.005.312-.18.456-.411.322M63.343 56.848l-1.564-.903c-.232-.134-.425-.496-.43-.808-.005-.312.18-.456.411-.322l1.565.904c.233.133.425.495.43.807.005.312-.18.456-.412.322M73.93 72.342l-4.178-2.413c-.233-.134-.425-.495-.43-.808-.005-.311.179-.456.412-.322l4.178 2.413c.233.134.425.496.43.808.005.312-.179.456-.411.322M62.86 61.26l-1.004-.58c-.233-.134-.425-.496-.43-.808-.005-.312.179-.457.412-.322l1.003.58c.233.134.425.496.43.807.006.313-.179.457-.41.323M63.18 66.135l-1.247-.72c-.233-.134-.425-.496-.43-.809-.006-.311.179-.455.411-.321l1.247.72c.233.134.425.496.43.808.006.312-.179.456-.411.322M68.032 68.936l-3.289-1.899c-.232-.133-.424-.495-.43-.807-.005-.312.18-.456.412-.322l3.288 1.898c.232.134.425.496.43.808.005.312-.18.456-.411.322M64.335 69.147l-2.364-1.365c-.233-.134-.425-.496-.43-.808-.005-.311.18-.456.412-.322l2.364 1.365c.232.135.425.496.43.808.005.312-.18.456-.412.322M69.163 60.209l-4.178-2.414c-.233-.133-.425-.495-.43-.807-.005-.312.179-.456.411-.323l4.179 2.413c.233.134.425.496.43.808.005.312-.179.456-.412.323M69.024 57.782l-7.283-4.205c-.233-.134-.425-.495-.43-.807-.005-.313.179-.457.411-.323l7.283 4.205c.233.135.425.496.43.808.005.312-.179.457-.411.322M65.996 60.725l-4.178-2.413c-.233-.134-.425-.495-.43-.807-.006-.313.179-.457.411-.322l4.179 2.412c.232.134.425.496.43.808.005.312-.18.456-.412.322M72.333 62.038l-1.519-.877c-.232-.133-.424-.495-.43-.807-.004-.312.18-.456.412-.322l1.519.876c.232.134.425.496.43.808.004.312-.18.457-.412.322M66.917 65.948l-5.023-2.9c-.232-.135-.425-.497-.43-.808-.005-.313.18-.457.412-.322l5.023 2.9c.233.134.425.496.43.807.005.312-.18.457-.412.323M63.23 47.401l-3.693-2.132c-.233-.134-.425-.496-.43-.808-.005-.311.18-.456.412-.322l3.693 2.133c.232.133.425.495.43.807.005.312-.18.456-.412.322M64.198 71.413l-4.277-2.47c-.232-.133-.425-.495-.43-.807-.005-.312.18-.457.411-.322l4.277 2.47c.233.134.425.495.43.807.005.312-.179.456-.411.322M19.168 73.775l-1.79-1.032c-.109-.064-.095-.175.031-.248l1.728-.997c.127-.073.318-.08.428-.017l1.79 1.032c.11.064.095.174-.031.247l-1.728.998c-.127.073-.318.081-.428.017"/>
        <path fill="#3B6397" d="M23.014 75.998l-1.789-1.032c-.11-.064-.096-.175.031-.248l1.727-.997c.128-.073.32-.081.429-.018l1.789 1.033c.11.063.096.174-.031.247l-1.727.997c-.127.074-.319.082-.429.018"/>
        <path fill="#FFFFFE" d="M26.861 78.221l-1.789-1.033c-.11-.063-.096-.174.031-.247l1.727-.997c.127-.074.319-.082.429-.018l1.789 1.033c.11.063.095.174-.031.247l-1.727.997c-.128.073-.32.081-.429.018"/>
        <path fill="#5589BB" d="M30.708 80.444l-1.79-1.033c-.11-.064-.095-.174.031-.247l1.728-.998c.127-.073.318-.081.428-.018l1.79 1.034c.109.063.095.173-.032.247l-1.727.997c-.127.073-.319.081-.428.018M149.817 27.722L131.6 17.203c-.36-.207-.687-.215-.942-.075l.001-.012-1.767 1.022 1.242.453v13.268c0 1.079.656 2.333 1.466 2.8l17.413 10.054v1.557l1.785-1.028-.01-.004c.303-.184.496-.587.496-1.168V30.523c0-1.08-.656-2.333-1.466-2.801"/>
        <path fill="#D4EAF2" d="M148.018 46.216l-18.219-10.52c-.81-.467-1.466-1.72-1.466-2.8V19.349c0-1.079.657-1.576 1.466-1.108l18.219 10.519c.81.467 1.466 1.721 1.466 2.8v13.547c0 1.08-.656 1.576-1.466 1.109"/>
        <path fill="#FFFFFE" d="M135.926 31.028c0 .784-.55 1.102-1.23.71-.679-.392-1.229-1.345-1.229-2.129s.55-1.102 1.23-.71c.678.392 1.229 1.345 1.229 2.13M139.65 33.179c0 .784-.55 1.101-1.23.71-.679-.393-1.229-1.346-1.229-2.13 0-.784.55-1.102 1.23-.71.678.392 1.228 1.346 1.228 2.13M143.374 35.329c0 .783-.551 1.101-1.23.71-.679-.393-1.23-1.346-1.23-2.13 0-.784.551-1.101 1.23-.71.679.393 1.23 1.346 1.23 2.13"/>
        <path fill="#5589BB" d="M139.449 10.69L121.23.17c-.36-.208-.686-.216-.941-.075V.083l-1.766 1.022s.782.284 1.241.453v13.267c0 1.08.657 2.334 1.466 2.801l17.414 10.054v1.557l1.785-1.028-.009-.004c.301-.184.495-.588.495-1.168V13.49c0-1.08-.656-2.333-1.466-2.8"/>
        <path fill="#D4EAF2" d="M137.65 29.182l-18.22-10.518c-.809-.468-1.465-1.722-1.465-2.801V2.316c0-1.08.656-1.576 1.466-1.108l18.218 10.518c.81.468 1.466 1.722 1.466 2.801v13.547c0 1.08-.656 1.575-1.466 1.108"/>
        <path fill="#FFFFFE" d="M125.557 13.995c0 .784-.55 1.102-1.229.71-.679-.392-1.229-1.345-1.229-2.13 0-.783.55-1.1 1.23-.709.678.392 1.228 1.345 1.228 2.13M129.281 16.146c0 .783-.55 1.101-1.229.709-.68-.392-1.23-1.345-1.23-2.13 0-.783.55-1.1 1.23-.709.68.392 1.23 1.346 1.23 2.13M133.005 18.295c0 .784-.55 1.102-1.229.71-.679-.392-1.229-1.345-1.229-2.129s.55-1.101 1.23-.71c.678.392 1.228 1.345 1.228 2.13"/>
        <path fill="#D4EAF2" d="M102.299 109.644l6.412-3.703 6.412 3.703-6.412 3.702-6.412-3.702M115.91 101.68l6.413-3.703 6.413 3.702-6.413 3.702-6.413-3.702M129.48 93.905l6.414-3.702 6.412 3.702-6.412 3.703-6.413-3.703"/>
        <path fill="#AF3C2B" d="M122.323 101.68V81.932l-6.413-3.702v19.746l6.413 3.702"/>
        <path fill="#0093D7" d="M122.323 81.933l6.413-3.702v19.746l-6.413 3.702V81.933M122.323 101.68V81.932l-6.413-3.702v19.746l6.413 3.702M108.711 109.643V98.536l-6.412-3.702v11.107l6.412 3.702M108.711 98.536l6.412-3.702v11.107l-6.412 3.702V98.536"/>
        <path fill="#0172A6" d="M102.299 94.834l6.412-3.703 6.412 3.703-6.412 3.702-6.412-3.702"/>
        <path fill="#0093D7" d="M135.894 93.905v-27.15l-6.413-3.703v27.15l6.413 3.703M135.894 66.754l6.412-3.702v27.15l-6.412 3.703v-27.15"/>
        <path fill="#DA3685" d="M129.48 63.052l6.414-3.702 6.412 3.702-6.412 3.702-6.413-3.702"/>
        <path fill="#0172A6" d="M115.91 78.231l6.413-3.702 6.413 3.702-6.413 3.702-6.413-3.702"/>
        <path fill="#263764" d="M147.223 100.31s2.066-1.042 3.334.51c1.269 1.55 3.083 5.212 3.139 7.687.056 2.474-1.958 2.307-3.156 1.722-1.197-.586-4.695-5.66-4.907-6.654-.212-.994.25-2.339.586-2.601.337-.264 1.004-.664 1.004-.664"/>
        <path fill="#D4EAF2" d="M146.772 99.812l-.095 2.14c-.02.455.209.889.604 1.114.361.204.885.361 1.594.248 1.556-.25 1.695-.695 1.806-2.835.112-2.14-3.909-.667-3.909-.667"/>
        <path fill="#263764" d="M154.785 96.195s2.066-1.042 3.334.51c1.269 1.55 3.082 5.212 3.139 7.687.055 2.474-1.958 2.307-3.156 1.721-1.197-.585-4.696-5.659-4.907-6.653-.212-.994.25-2.339.586-2.602.337-.263 1.004-.663 1.004-.663"/>
        <path fill="#D4EAF2" d="M154.334 95.697l-.095 2.14c-.021.455.208.889.604 1.113.361.205.885.362 1.594.248 1.556-.25 1.695-.694 1.806-2.834.111-2.14-3.91-.667-3.91-.667"/>
        <path fill="#263764" d="M135.9 56.404c.612-9.948 10.775 1.463 10.775 1.463l6.955 6.818 6.263 6.88a6.172 6.172 0 0 1 1.556 4.96l-2.534 19.292a1.896 1.896 0 0 1-1.901 1.648 6.454 6.454 0 0 1-.939-.082c-2.26-.353-2.093-2.501-2.093-2.501l.464-18.044-13.154-7.929s-6.002-2.556-5.391-12.505"/>
        <path fill="#263764" d="M128.339 60.194c.612-9.948 10.774 1.464 10.774 1.464l6.955 6.817 6.263 6.88a6.17 6.17 0 0 1 1.556 4.96l-2.533 19.293a1.897 1.897 0 0 1-1.902 1.648 6.522 6.522 0 0 1-.939-.083c-2.26-.352-2.093-2.5-2.093-2.5l.464-18.045L133.73 72.7s-6.002-2.556-5.391-12.505"/>
        <path fill="#4AFFC4" d="M134.351 28.26c-7.704 3.194-7.55 7.749-7.55 7.749s1.51 16.696.994 27.847c-.215 4.661 24.767 5.017 21.04-7.419-4.392-14.664-2.745-26.534-4.802-28.324-2.056-1.79-7.689-.679-9.682.147"/>
        <path fill="#F3BCA9" d="M131.872 32.298c.403 1.565 2.453 2.389 4.578 1.842 2.126-.548 3.521-2.26 3.119-3.824-.403-1.564-2.453-2.389-4.578-1.841-2.125.547-3.521 2.26-3.119 3.823"/>
        <path fill="#FFFFFE" d="M136.307 28.673c.526 0 1.03.09 1.48.272.755.303 1.26.822 1.424 1.462.166.641-.026 1.34-.539 1.969-.54.662-1.362 1.161-2.314 1.407-.951.245-1.912.206-2.705-.114-.754-.303-1.259-.822-1.424-1.462-.165-.64.027-1.34.54-1.969.54-.662 1.362-1.16 2.314-1.406a4.927 4.927 0 0 1 1.224-.16zm-1.171 6.005c.461 0 .935-.06 1.406-.182 1.103-.284 2.063-.872 2.7-1.654.666-.816.908-1.745.683-2.618-.225-.873-.886-1.57-1.862-1.962-.937-.378-2.06-.428-3.164-.144-1.103.284-2.063.872-2.7 1.655-.666.815-.908 1.744-.683 2.617.225.873.886 1.57 1.862 1.962a4.714 4.714 0 0 0 1.758.326z"/>
        <path fill="#F3BCA9" d="M137.44 27.912s-.066.31.067 2.751c.042.768-2.645 1.485-3.34.79-.695-.695-.417-1.417-.584-4.03-.167-2.611 3.857.49 3.857.49"/>
        <path fill="#E09689" d="M133.583 27.423s.662 2.422 3.924 3.352l-.049-2.202-3.875-1.15"/>
        <path fill="#F3BCA9" d="M131.517 21.27A5.93 5.93 0 1 0 143 24.24a5.93 5.93 0 0 0-11.483-2.97"/>
        <path fill="#E09689" d="M135.896 22.972s3.265 1.399 5.526 1.415c2.261.016 1.763-1.877 1.763-1.877l-6.712-.97-.577 1.432"/>
        <path fill="#666" d="M142.096 23.34s-2.844-1.207-5.339-.703a2.617 2.617 0 0 0-1.508.896c-.124.151-.28.29-.457.33-.442.1-1.166-1.736-2.026-1.777-.86-.042-1.435.566-.73 1.696.706 1.129.468 2.392.143 2.573-.324.181-3.766-2.454-.73-8.468 3.036-6.014 10.746-2.775 11.946-1.556 0 0 1.264 1.101 2.291.121 0 0 1.152 8.628-3.59 6.889"/>
        <path fill="#F3BCA9" d="M131.124 48.207v4.511c0 .518.217 1.01.6 1.359l9.267 8.45-1.053 1.61-12.24-8.877a2.488 2.488 0 0 1-1.013-1.753l-.827-7.868 5.266 2.568"/>
        <path fill="#4AFFC4" d="M127.454 33.753s-2.812 4.228-3.86 15.359c0 0 4.804 1.553 7.53.671 2.725-.881-3.67-16.03-3.67-16.03"/>
        <path fill="#21B182" d="M131.637 39.1s1.1 5.89 1.163 8.66a1.768 1.768 0 0 1-1.163 1.706V39.1"/>
        <path fill="#5589BB" d="M134.041 68.393l2.048-.27 13.224-7.635c.423-.244 1.164-.214 1.653.069l9.37 5.408 1.239-.164v1.233h-.001c.008.162-.085.319-.285.434l-14.985 8.652c-.424.245-1.165.214-1.654-.068l-10.204-5.89c-.275-.159-.413-.363-.405-.556v-1.213"/>
        <path fill="#3B6397" d="M143.977 63.569l.94-.543h10.327l5.092 2.939 1.239-.164v1.233h-.001c.008.162-.085.319-.285.434l-14.985 8.652c-.224.13-.537.181-.854.16l-1.473-12.711"/>
        <path fill="#5589BB" d="M161.025 65.873l.55-.072v1.233h-.001c.008.162-.085.319-.285.434l-.264.153v-1.748"/>
        <path fill="#FFFFFE" d="M146.153 76.19c-.402.153-.976.12-1.406-.087v-2.098h1.406v2.185"/>
        <path fill="#FFFFFE" d="M146.304 74.888l14.985-8.652c.424-.244.371-.672-.118-.955l-10.205-5.89c-.49-.282-1.23-.313-1.653-.068l-14.986 8.652c-.424.245-.371.672.119.955l10.204 5.89c.49.282 1.23.313 1.654.068"/>
        <path fill="#D4EAF2" d="M146.557 73.577l12.46-7.194c.353-.204.309-.56-.098-.794l-5.468-3.076c-.407-.234-1.023-.26-1.375-.056l-12.46 7.194c-.353.203-.31.559.098.793l5.468 3.076c.407.235 1.023.26 1.375.057"/>
        <path fill="#F3BCA9" d="M150.387 59.108l.155 1.034c.132.88.11 1.778-.067 2.65l-.185.912c-.104.514-.51.913-1.026 1.007a.707.707 0 0 1-.83-.617l-.247-2.21s-.566.74-.838.74c-.273 0 .305-2.213.923-3.466.618-1.253 2.115-.05 2.115-.05"/>
        <path fill="#F3BCA9" d="M145.307 42.674l1.608 3.183c.38.752.604 1.574.658 2.416l.699 10.885 2.115-.05.96-12.225c.03-.377.012-.757-.054-1.13l-1.097-6.199-4.889 3.12"/>
        <path fill="#263764" d="M146.811 75.719l1.257-1.64 13.214-7.65c.423-.246.766-.903.765-1.468l-.011-10.819.76-.992-.714-.413v.001c-.138-.088-.319-.086-.519.03l-14.975 8.67c-.423.245-.767.903-.766 1.468l.013 11.781c0 .319.11.54.28.628l.696.404"/>
        <path fill="#3B6397" d="M155.95 69.516l.938-.544 5.154-8.951-.006-5.879.76-.992-.714-.413v.001c-.138-.088-.319-.086-.519.03l-14.975 8.67c-.224.13-.424.375-.564.66l9.926 7.418"/>
        <path fill="#5589BB" d="M162.458 53.59l.337-.44-.713-.413v.001c-.138-.088-.319-.086-.519.03l-.264.153 1.16.67"/>
        <path fill="#2B4876" d="M146.451 61.534c-.332.272-.59.787-.625 1.261l1.463.845.702-1.218-1.54-.888"/>
        <path fill="#0093D7" d="M147.3 61.851l14.976-8.67c.424-.245.768.014.769.58l.012 11.781c0 .565-.342 1.222-.766 1.467l-14.975 8.67c-.424.246-.768-.013-.768-.579l-.013-11.781c0-.566.342-1.222.766-1.468"/>
        <path fill="#F3BCA9" d="M139.938 64.137l.24.497c.276.573.71 1.054 1.252 1.388l1.487.916a1.482 1.482 0 0 0 1.519.036l.05-.03c.473-.297.516-.976.126-1.376l-1.554-1.598s.873.67 1.118.4c.18-.198-.847-1.161-1.635-1.193-.788-.032-1.55-.65-1.55-.65l-1.053 1.61"/>
        <path fill="#4AFFC4" d="M143.879 28.09s5.698 6.2 7.997 11.887c0 0-1.948 3.511-6.718 4.889-4.77 1.377-1.279-16.776-1.279-16.776"/>
        <path fill="#21B182" d="M146.231 44.498l-.924-8.922 2.177 8.359c-.388.202-.808.39-1.253.563"/>
        <path fill="#FFFFFE" d="M139.611 26.838l1.531-.42s-.73 1.15-1.798 1.442c-1.067.294-1.233-.61-1.233-.61l1.5-.412M131.433 24.387a.853.853 0 1 0 1.705 0 .853.853 0 0 0-1.705 0"/>
    </g>
</svg>
