<svg xmlns="http://www.w3.org/2000/svg" xmlns:xlink="http://www.w3.org/1999/xlink" width="360" height="160" viewBox="0 0 1220 534">
    <defs>
        <path id="a" d="M130.373 64.59c0 35.516-29.018 64.308-64.816 64.308S.74 100.106.74 64.59C.74 29.074 29.76.283 65.557.283c35.798 0 64.816 28.791 64.816 64.307"/>
        <path id="c" d="M37.604 18.75c0 10.292-8.343 18.635-18.635 18.635C8.677 37.385.333 29.042.333 18.75.333 8.457 8.677.114 18.97.114S37.604 8.457 37.604 18.75"/>
        <linearGradient id="d" x1="70.849%" x2="34.249%" y1="123.469%" y2="-5.5%">
            <stop offset="0%" stop-color="#3F67A2"/>
            <stop offset="100%" stop-color="#359FCD"/>
        </linearGradient>
        <path id="f" d="M130.373 64.59c0 35.516-29.018 64.308-64.815 64.308-35.8 0-64.818-28.792-64.818-64.308C.74 29.074 29.76.283 65.558.283c35.797 0 64.815 28.791 64.815 64.307"/>
        <path id="h" d="M130.373 64.59c0 35.516-29.018 64.308-64.815 64.308-35.8 0-64.818-28.792-64.818-64.308C.74 29.074 29.76.282 65.558.282c35.797 0 64.815 28.792 64.815 64.308"/>
        <path id="j" d="M37.604 18.75c0 10.292-8.343 18.635-18.635 18.635C8.677 37.385.333 29.042.333 18.75.333 8.457 8.677.114 18.97.114S37.604 8.457 37.604 18.75"/>
        <linearGradient id="k" x1="70.849%" x2="34.249%" y1="123.468%" y2="-5.501%">
            <stop offset="0%" stop-color="#3F67A2"/>
            <stop offset="100%" stop-color="#359FCD"/>
        </linearGradient>
        <path id="m" d="M57.113 29.021c0 15.661-12.697 28.355-28.357 28.355S.401 44.682.401 29.021C.401 13.361 13.096.666 28.756.666s28.357 12.695 28.357 28.355"/>
        <path id="o" d="M60.111 30.858c0 16.85-13.44 30.508-30.016 30.508C13.518 61.366.08 47.708.08 30.858.08 14.01 13.518.35 30.095.35c16.577 0 30.016 13.659 30.016 30.508"/>
    </defs>
    <g fill="none" fill-rule="evenodd">
        <path fill="#4AFFC4" d="M187.54 534C-45.17 469.818-60.35 412.906 142 363.264c303.524-74.464 444.881 36.619 674.288-41.387C1045.695 243.872 943.268 123 1042 46.281c65.822-51.146 134.155-59.789 205-25.93v522.904L187.54 534z" opacity=".1"/>
        <path stroke="#BDE3EE" stroke-width="2" d="M893.823 243a20.563 20.563 0 0 1-.646-1"/>
        <path stroke="#BDE3EE" stroke-dasharray="4.002,4.002" stroke-width="2" d="M891.361 237.54c-6.056-25.745 8.63-55.362 33.476-65.265 27.063-10.786 57.577.699 83.573 13.836 25.996 13.139 53.257 28.53 82.244 25.474 25.878-2.728 47.838-19.766 72.66-27.549 19.985-6.265 42.59-6.146 61.111 3.608 10.882 5.73 19.971 14.545 26.844 24.72 21.649 32.046 19.187 78.271-5.743 107.855-20.31 24.103-51.368 35.72-79.985 49.041-27.432 12.77-55.697 30.155-67.173 57.74"/>
        <path stroke="#BDE3EE" stroke-width="2" d="M1097.843 430c-.238.33-.466.664-.686 1"/>
        <path fill="#E7A98E" d="M913.603 246.302c.77-1.242 1.833-2.286 2.522-3.576 1.006-1.88 1.123-4.192.462-6.224-.533-1.642.376-1.399-.972-2.485-2.034-1.64-4.721-.922-6.87-.42-9.16 2.142-2.285 13.069-2.025 13.403"/>
        <path fill="#4986B9" d="M904.135 241.215l2.329 4.209a1.14 1.14 0 0 0 1.571.418L923 237.007 919.708 232l-15.106 7.725a1.08 1.08 0 0 0-.467 1.49"/>
        <path fill="#E15E41" d="M906.396 206.557L907.1 208l7.9-4.455-.703-1.441c-1-2.051-3.58-2.717-5.761-1.487s-3.14 3.89-2.14 5.94M897 213.361L917.825 229l9.175-4.848-.925-26.152L897 213.361"/>
        <path fill="#CF4F38" d="M897 213.917L916.375 228l3.625-1.87L906.53 209l-9.53 4.917"/>
        <path fill="#62B1D7" d="M925.293 238.505c.741 1.457 2.65 1.93 4.266 1.056l1.564-.845c1.615-.874 2.324-2.764 1.583-4.221-.74-1.458-2.65-1.93-4.266-1.056l-1.562.844c-1.616.875-2.325 2.764-1.585 4.222"/>
        <path fill="#4986B9" d="M926.726 233.174l-1.69.878c-1.756.912-2.52 2.876-1.718 4.392.803 1.516 2.87 2.01 4.623 1.098l1.691-.877a3.53 3.53 0 0 0 .368-.221c-1.65.654-3.48.128-4.224-1.276-.743-1.405-.139-3.195 1.344-4.168a3.365 3.365 0 0 0-.394.174"/>
        <path fill="#62B1D7" d="M896.177 211.167c.446.812 1.6 1.075 2.574.589l27.116-13.567c.975-.487 1.403-1.542.956-2.355-.447-.813-1.6-1.077-2.574-.59l-27.116 13.566c-.975.489-1.403 1.543-.956 2.357"/>
        <path fill="#4986B9" d="M926.997 197l-22.59 11.618c-.974.5-2.126.23-2.574-.607a1.484 1.484 0 0 1-.166-.622l-4.534 2.332c-.975.502-1.403 1.586-.956 2.422.447.836 1.6 1.107 2.575.605l27.123-13.949c.745-.383 1.162-1.105 1.122-1.799"/>
        <path fill="#62B1D7" d="M917.564 233.281l.966 1.878c1.423 2.77 5.093 3.668 8.198 2.008l2.663-1.425c3.105-1.661 4.468-5.254 3.045-8.023l-.966-1.878c-1.423-2.77-5.093-3.668-8.198-2.008l-2.663 1.426c-3.105 1.661-4.468 5.253-3.045 8.022"/>
        <path fill="#4986B9" d="M920.56 225l-3.544 2.088c-.872.514-1.26 1.625-.857 2.486l3.988 8.547c.4.856 1.436 1.136 2.307.62l3.546-2.087c-.872.514-1.908.235-2.307-.623l-3.989-8.546c-.402-.86-.016-1.971.857-2.485"/>
        <path fill="#E7A98E" d="M908.041 235.734c1.405-1.629 3.232-2.598 5.13-2.72.653-.041 1.312.014 1.97.08.316.032.644.071.931.274.446.316.708.973.837 1.623.139.7.141 1.485-.15 2.063-.485.961-1.547.976-2.42.701-.09-.028-.185-.059-.27-.023-.13.054-.195.236-.253.4-.236.677-.56 1.335-1.058 1.672a1.08 1.08 0 0 1-1.565-.358c-.15-.25-.31-.615-.534-.545-.074.023-.133.094-.19.158-.405.458-.937.714-1.48.711-.135 0-.277-.02-.391-.124a.96.96 0 0 1-.199-.314 5.21 5.21 0 0 1-.399-1.372"/>
        <path fill="#E7A98E" d="M913.427 246c.578-.637 1.477-1.733 2.136-2.298 1.785-1.527 2.774-3.888 2.332-6.104-.036-.183-.09-.377-.244-.496-.195-.15-.497-.123-.712.002-.214.125-.36.328-.494.528-.422.634-.807 2.266-1.623 2.505-1.219.358-2.452.847-3.405 1.657-.843.717-1.907 2.216-1.169 3.284"/>
        <path stroke="#DF5335" stroke-linecap="round" stroke-linejoin="round" stroke-width="1.578" d="M916 178l-1.125 13.389m-13.187-8.808l5.517 12.163M889 192.568L899.801 200"/>
        <path fill="#E7A98E" d="M959.088 261.836c-5.648-.495-11.223 1.366-16.457 3.515-12.81 5.259-14.792 8.754-24.674 13.996-.273-7.592-3.196-33.744-3.235-33.816-.815-1.527-6.972.727-6.972.727-.068.384-1.196 2.495-1.263 2.88-9.057 18.992-18.146 49.748-10.8 58.346 7.344 8.599 47.378-6.891 68.028-15.737L972 271.12c-1.536-5.371-7.264-8.786-12.912-9.283"/>
        <path fill="#3684B9" d="M927.727 271.447c-1.377 1.73-2.025 5.79-1.596 7.986 1.907 9.763 6.394 18.407 14.393 24.567 0 0 16.127-9.091 18.357-8.045 2.23 1.047 20.866-23.529 9.44-31.287-16.47-11.185-40.594 6.78-40.594 6.78"/>
        <path fill="#41609D" d="M959.651 297.01c-3.525-.176-7.417 1.936-10.613 3.302-2.619 1.12-5.423 2.61-7.812 3.816-.51.258-.066 1.079.441.823 2.292-1.158 5.177-2.357 7.66-3.494 3.08-1.41 6.905-3.645 10.324-3.658.467-.002.463-.765 0-.789"/>
        <path fill="#F4C0A5" d="M908.376 511s.234 6.38-.045 6.99c-.978 2.143-7.229 6.026-7.98 6.566-.75.541-11.327 5.352-11.839 6.277-.512.923-1.827 2.819 3.7 1.94 5.527-.877 24.096-4.402 25.9-4.688 1.803-.287.397-5.938-.183-8.094-.383-1.426-.685-4.531-.077-7.517"/>
        <path fill="#BDDEEA" d="M918.852 528.96c.2-.03.213-.732-.054-1.698a12.854 12.854 0 0 0-.22-2.063c-.362-1.898-.14-3.157-.462-5.029-.247-1.437-1.377-.372-2.115-.004-.636.318-3.074.893-3.79 1-.894.134-1.817.1-2.698-.105-.256-.06-.521-.14-.71-.322-.36-.348-.329-.927-.524-1.387-.07-.167-.197-.336-.377-.351-.177-.014-.326.124-.448.253-.63.653-1.229 1.393-1.913 1.988-.548.479-1.193.89-1.775 1.333-1.156.88-2.317 1.804-3.605 2.483-.802.42-12.161 6.25-12.161 6.25s.048.947.282 1.794c.18.65.883 1.09 2.638.814 5.424-.853 26.162-4.676 27.932-4.955"/>
        <path fill="#4986B9" d="M918.742 527.882c.408-.065.245-2.385.1-3.145-.362-1.898-.713-3.695-1.035-5.568-.246-1.436-1.374-.372-2.109-.003-.634.318-1.158.736-1.872.844-.892.134-3.72.254-4.6.05-.255-.059-.52-.139-.708-.322-.36-.347-.328-.926-.523-1.388-.07-.166-.196-.334-.376-.349-.177-.014-.325.124-.447.252-.627.654-1.225 1.393-1.907 1.99-.548.477-1.19.889-1.771 1.332-1.153.878-2.31 1.803-3.597 2.482-.798.421-9.401 3.735-11.035 5.559-.686.766-2.214 3.936 1.818 3.3 5.41-.854 26.297-4.755 28.062-5.034"/>
        <path fill="#BDDEEA" d="M901.002 524.19c.084.387.538.594.8.874.285.304.447.784.865.923.115.038.264-.008.305-.13.24-.71-1.141-2.12-1.888-1.814-.055.022-.094.09-.082.146M903.375 521.135c1.007.282 1.812 1.307 2.379 2.111.46.655.682 1.347 1.434 1.712.26.127.612-.05.708-.3.727-1.918-2.53-4.783-4.394-4.654-.589.041-.696.97-.127 1.13"/>
        <path fill="#BDDEEA" d="M904.27 519.803c1.06.518 2.006 1.234 2.649 2.163.45.65.54 1.479 1.228 1.962.175.123.467.084.592-.083.67-.904-.087-2.04-.733-2.799-.858-1.007-2.082-1.615-3.399-2.017-.578-.179-.848.525-.336.774M909.074 517.245c.351.201.338.822.66 1.1.47.407 1.254.526 1.925.608.831.103 3.56.027 4.383-.138.993-.198 1.544-.844 2.595-.953.57-.059.428-.737-.139-.66-.587.08-.959.209-1.483.44-1.196.528-3.584.86-4.998.736-.405-.036-.96-.073-1.32-.212-.918-.355-.418-.348-.775-.716-.256-.264-.228-.334-.674-.442-.194-.048-.344.14-.174.237"/>
        <path fill="#CF4F38" d="M997 376.36c-7.03 13.207-18.347 15.346-28.79 17.497-9.053 9.52-24.845 37.781-31.24 47.215.677 5.048 2.408 13.482.677 21.613-2.602 12.212-15.311 42.555-18.282 52.772 0 0-2.202.721-5.265.501-2.243-.16-4.957-1.028-4.957-1.028-7.193-25.684-7.14-61.697-4.543-83.332 2.142-17.829 11.61-50.006 20.107-65.419 10.062-18.251 16.012-33.347 37.97-39.179"/>
        <path fill="#F4C0A5" d="M1016.846 502.616s4.007 4.898 4.152 5.55c.509 2.29-2.113 9.17-2.383 10.057-.27.884-5.76 11.138-5.612 12.18.149 1.043.243 3.343 4.09-.723 3.849-4.064 16.433-18.177 17.689-19.503 1.255-1.327-3.24-4.934-4.991-6.284-1.157-.894-3.254-3.162-4.562-5.893"/>
        <path fill="#BDDEEA" d="M1035.974 510.11c.138-.151-.275-.737-1.07-1.366a13.291 13.291 0 0 0-1.418-1.56c-1.433-1.334-2.017-2.509-3.403-3.849-1.063-1.027-1.313.562-1.673 1.33-.311.662-1.891 2.67-2.393 3.21a7.243 7.243 0 0 1-2.197 1.613c-.238.112-.495.212-.756.182-.495-.06-.819-.557-1.251-.814-.157-.092-.359-.152-.51-.05-.149.1-.182.307-.202.49-.102.935-.13 1.921-.31 2.842-.146.74-.407 1.484-.6 2.215-.383 1.452-.742 2.945-1.351 4.316-.38.85-5.84 12.804-5.84 12.804s.609.748 1.305 1.3c.535.423 1.358.342 2.578-.99 3.772-4.12 17.859-20.329 19.09-21.672"/>
        <path fill="#4986B9" d="M1034.965 508.919c.288-.31-1.264-2.118-1.846-2.651-1.454-1.336-2.837-2.594-4.242-3.932-1.078-1.028-1.332.56-1.697 1.329-.316.662-.48 1.336-.989 1.876-.634.674-2.834 2.558-3.666 2.947-.242.112-.503.213-.767.182-.501-.06-.83-.557-1.268-.814-.16-.093-.365-.151-.518-.05-.15.1-.185.307-.205.49-.104.934-.132 1.922-.315 2.842-.147.74-.412 1.484-.608 2.215-.389 1.452-.752 2.945-1.37 4.315-.385.85-5.272 9.011-5.468 11.546-.082 1.064.631 4.638 3.483 1.568 3.826-4.117 18.227-20.519 19.476-21.863"/>
        <path fill="#BDDEEA" d="M1017.082 517.534c.578.25 1.499.15 2.22.215.782.07 1.586.348 2.373.215.217-.036.385-.157.304-.275-.474-.686-4.19-.98-4.948-.316-.056.049-.035.123.051.16M1017.706 514.669c.89-.148 2.056-.011 2.924.111.705.1 1.258.269 2.011.207.26-.021.414-.162.34-.264-.566-.785-4.552-.927-5.826-.444-.402.152.048.473.55.39M1018.509 511.028c1.043-.14 2.122-.098 3.116.227.697.227 1.25.738 2.013.745.194.002.375-.159.361-.327-.066-.91-1.263-1.32-2.16-1.53-1.191-.278-2.4-.122-3.553.213-.508.148-.28.74.223.672M1020.194 507.163c.473 0 1.002.696 1.519.801.753.153 1.522-.212 2.165-.545.796-.412 3.052-2.224 3.609-2.93.67-.848.577-1.913 1.378-2.699.433-.426-.277-1.087-.692-.643-.43.46-.635.839-.88 1.427-.558 1.343-2.3 3.221-3.611 3.98-.375.217-.88.528-1.306.601-1.09.188-.659-.12-1.283-.302-.448-.13-.485-.226-.957-.065-.207.071-.17.375.058.375"/>
        <path fill="#E15E41" d="M1009.327 359.403c2.43 14.792-5.256 23.38-12.241 31.448-1.411 13.087-4.793 34.56-8.675 47.465 4.128 2.129 9.628 3.356 17.213 13.286 7.584 9.93 17.537 39.304 21.376 49.245 0 0-.666 1.633-3.23 3.32-1.878 1.237-5.137 1.833-5.137 1.833-21.287-16.068-50.6-36.727-61.66-55.528-9.114-15.495-11.185-36.277-13.789-53.716-3.083-20.65-4.931-37.752 8.961-55.756"/>
        <path fill="#F4C0A5" d="M945.969 216c-2.717.526-5.61 1.144-7.563 3.14-1.394 1.425-2.122 3.379-2.555 5.307-.476 2.122-1.118 4.187-1.72 6.3a114.015 114.015 0 0 0-2.98 13.486c-.257 1.62-.331 3.614 1.002 4.534.826.572 1.912.496 2.906.4l8.246-.804-.55 15.637A615.106 615.106 0 0 0 969 259.855c-.301-6.83-4.717-12.665-6.97-19.105-.302-.863-.568-1.76-.534-2.674.044-1.177.575-2.267.901-3.397 1.396-4.83-1.205-10.155-5.145-13.192-3.94-3.038-6.394-4.78-11.283-5.487"/>
        <path fill="#7E4739" d="M968.863 237.766a138.225 138.225 0 0 0-1.938-11.265c-.604-2.806-1.346-5.697-3.153-7.921-1.98-2.438-5.029-3.783-8.097-4.411-3.068-.63-6.225-.626-9.348-.856-3.257-.24-6.638-.725-9.707.397-1.065.389-2.086.986-2.786 1.881-.701.895-1.043 2.12-.705 3.207.323 1.044 1.234 1.839 2.262 2.2 1.027.36 2.156.327 3.222.105 1.443-.3 3.17-.863 4.213.181.43.432.615 1.046.779 1.633a97.71 97.71 0 0 1 1.79 7.553c.317 1.622.552 3.456-.41 4.796-.892 1.241-2.767 2.601-4.28 2.433-1.513-.17-2.924-.82-4.358-1.334-1.65-.593-3.34-.715-5.076-.633-.562.027-1.18.18-1.487.654-.119.183-.178.397-.234.609a28.671 28.671 0 0 0-.38 1.605c-.061.297-.114.629.042.89.194.325.65.404 1.006.28.355-.122.635-.398.901-.664.331.442.778.822 1.316.947.537.124 1.164-.059 1.456-.527.63.512 1.388.863 2.184 1.009.539.099 1.097.108 1.614.289 1.17.411 1.594 1.025 1.056 2.05-.317.606-.911 1.033-1.556 1.252-2.443.83-5.008-1.11-7.582-.947-.213.013-.435.045-.603.177-.216.169-.29.46-.35.729l-1.17 5.201c-.24 1.07-.996 2.903.073 3.74.599.47 1.554.388 2.066-.176a2.019 2.019 0 0 0 2.05.58c.32-.097.617-.276.948-.328 1.005-.155 1.853.883 2.87.898.653.01 1.23-.405 1.859-.586.626-.18 1.29-.123 1.94-.123 3.11-.004 6.152-1.483 8.164-3.85 2.317-2.726 2.871-6.4 2.916-9.874.014-1.192.011-2.423.467-3.525.456-1.102 1.502-2.054 2.688-1.995 1.168.06 2.105 1.073 2.489 2.183.384 1.11.342 2.314.371 3.489.03 1.174.154 2.403.807 3.378 1.028 1.535 3.143 2.012 4.945 1.626 1.8-.385 3.366-1.463 4.88-2.516.716-.499 1.469-1.044 1.793-1.855.278-.696.194-1.479.1-2.224l-.047-.362"/>
        <path fill="#4986B9" d="M931.751 310.734c.16 5.029.285 10.252-1.76 14.864-1.336 3.01-3.523 5.575-5.122 8.46-5.34 9.62-9.011 26.978-2.024 36.607 18.722 9.563 62.133 17.282 82.291 4.987 3.01-1.836 5.352-5.027 5.812-8.48.285-2.143-.677-10.582-1.144-12.695-3.977-17.952-5.247-23.486-9.352-38.073-12.383-43.997-31.7-62.404-31.7-62.404s-4.525 2.11-15.612 3.214c-6.099 2.786-6.815 6.76-11.42 11.58-5.468 5.722-8.226 9.828-11.229 17.104-3.003 7.275-1.482 17.462 1.26 24.836"/>
        <path fill="#41609D" d="M934.419 328.98c8.39-3.151 16.682-3.78 25.345-3.89.324-.003.305-.604 0-.653-8.458-1.345-17.397.564-25.525 3.676-.42.16-.241 1.027.18.867M942.4 320.93c4.113.144 8.33.105 12.372-.491.35-.052.279-.46-.086-.438-4.118.25-8.144.497-12.286.352-.534-.02-.532.558 0 .577"/>
        <path fill="#F4C0A5" d="M966 282.983c-13.577 17.428-40.688 49.76-51.096 45.661-10.406-4.098-17.186-35.32-18.406-56.213a188.514 188.514 0 0 1-4.337-14.69c-.572-2.273.478-5.325 1.657-7.317 1.149-1.941 3.203-3.51 5.454-3.42.144.005.297.02.41.108.266.208.15.623.062.949-.503 1.875.884 3.708 1.144 5.633.122.909-.012 1.833.038 2.748.283 5.22 5.74 8.352 4.357 13.99 5.041 10.38 11.594 16.585 15.435 23.112 6.019-9.225 6.066-13.218 14.597-23.829 3.485-4.334 7.401-8.577 12.498-10.788 5.098-2.211 11.652-1.9 15.525 2.09"/>
        <path fill="#4986B9" d="M926.067 282.04c-.389 2.226.975 6.187 2.4 7.948 6.331 7.831 14.4 13.396 24.382 15.012 0 0 9.876-16.048 12.34-16.198 2.463-.152 7.173-31.324-6.588-32.701-19.84-1.984-32.534 25.939-32.534 25.939"/>
        <path fill="#41609D" d="M966.442 289.043c-3.243 1.62-5.793 5.371-8.051 8.135-1.85 2.263-3.704 4.94-5.305 7.16-.344.476.431.935.77.465 1.16-1.605 3.593-4.587 5.16-6.606 2.18-2.81 4.666-6.73 7.799-8.497.42-.238.05-.869-.373-.657"/>
        <path fill="#4986B9" d="M901.243 266.639c-1.303 1.074-2.727-.485-3.237-1.585l-6.758-14.569c-.683-1.472.15-2.86 1.23-3.908.583-.566 1.221-1.075 1.854-1.587.548-.446 1.088-1.098 1.89-.975 1.008.153 1.764 1.038 2.16 1.876l6.265 13.269c.284.615.433 1.325.31 1.995-.104.562-3.203 5.063-3.714 5.484"/>
        <path fill="#62B1D7" d="M902.945 264.721c-1.06.828-2.217-.372-2.632-1.22 0 0-7.11-14.502-7.111-14.507-.556-1.134.12-2.202 1-3.01.474-.436.993-.828 1.507-1.222.446-.343.884-.845 1.536-.75.82.118 1.434.8 1.755 1.445.002 0 6.712 13.505 6.712 13.505.232.474.353 1.02.252 1.537-.085.433-2.604 3.9-3.019 4.222"/>
        <path fill="#F4C0A5" d="M896 263.599c.09-2.262.602-4.504 1.498-6.575.259-.599.882-1.29 1.413-.92.33.228.332.714.3 1.12l-.2 2.48c-.026.326-.052.666.057.975.12.345.39.61.64.873a12.286 12.286 0 0 1 3.184 6.42c.14.85.186 1.749-.124 2.55-.31.803-1.05 1.48-1.894 1.478M952.053 234.837c-.327-1.615.893-3.368 2.614-3.755 1.722-.389 3.671.65 4.178 2.225.404 1.25-.037 2.607-.691 3.763-.82 1.45-2.19 2.836-3.95 2.93M936.443 227a51.598 51.598 0 0 0-6.143 5.19c-.406.402-.812.819-1.076 1.33-.166.323-.274.695-.2 1.053.136.667.828 1.048 1.473 1.22 2.148.573 4.399-.154 6.503-.873"/>
        <path fill="#EA9E7D" d="M920.031 294.278c1.831 2.442 3.283 5.065 4.061 7.9.8 2.914.58 5.652.643 8.59.005.273.451.319.548.063 2.11-5.566-.71-12.46-4.917-16.774-.155-.159-.465.048-.335.22M953.036 240.135c1.218 1.535 4.926.902 4.964-.921.003-.15-.249-.275-.429-.182-.603.312-.992.784-1.65 1.052-.809.328-1.804.33-2.474-.183-.206-.158-.56.045-.411.234M953.858 232c-.71-.016-.909.954-.847 1.895.053.796.265 1.523.374 2.299.15 1.07-.078 1.618-.273 2.56-.03.148.067.273.159.24 1.909-.667-.722-5.697.626-6.551.146-.093.14-.438-.039-.443"/>
        <path fill="#7FC5E2" d="M1132 201.5c0 35.622-28.877 64.5-64.5 64.5-35.622 0-64.5-28.878-64.5-64.5 0-35.623 28.878-64.5 64.5-64.5 35.623 0 64.5 28.877 64.5 64.5"/>
        <g transform="translate(1000 137)">
            <mask id="b" fill="#fff">
                <use xlink:href="#a"/>
            </mask>
            <path fill="#F2C1C9" d="M14.548 105.954L9.53 148.269l35.96 14.935 5.854-51.442L34.62 94.337" mask="url(#b)"/>
            <path fill="#E15E41" d="M85.804 67.062c-4.542-4.71-12.835-2.737-19.34-3.651l-15.168-2.133c-1.205-.17-2.432-.339-3.634-.152-1.747.27-3.281 1.262-4.755 2.231l-12.66 8.319c-4.51 2.962-4.094 9.406-4.704 14.271-.716 5.724-1.25 11.47-1.668 17.222-.823 11.322-1.202 22.676-1.292 34.026-.088 10.864.626 21.622 1.385 32.453.05.737.103 1.485-.046 2.21-.284 1.398-1.276 2.56-1.685 3.928-.833 2.79.91 5.696 2.957 7.78 8.694 8.848 24.127 7.113 35.44 6.979a96.504 96.504 0 0 0 32.396-6.003c3.818-1.42 11.552-3.432 14.16-6.8 2.665-3.444.9-11.109.794-15.297l-1.965-77.32c-.128-5.004-6.636-9.76-10.14-13.247" mask="url(#b)"/>
            <path fill="#F2C1C9" d="M100.826 210.736c-2.336 4.16-.968 7.397.217 11 .808-1.058 1.726-1.61 3.092-1.964 1.441.841 1.782 2.41-.071 3.268-1 .616-1.375 2.018-1.175 2.628.223.68 2.115 1.042 2.844-.403.428.999 2.492.713 2.856-.552.385.964 2.046.368 2.429-.783.748.605 1.306.495 1.882-.274.574-.77.655-1.437.65-2.394-.012-3.823-1.192-7.513-1.516-11.304-.637-7.457 8.606-32.935 8.606-60.742 0-19.23-8.025-46.077-8.025-46.077s-16.883 5.353-26.196 6.018c3.02 19.122 11.253 41.072 11.872 45.448-.207 5.913-.957 9.463-.885 13.087.16 8.001 5.857 29.523 5.958 33.523.108 4.319-.413 5.735-2.538 9.52" mask="url(#b)"/>
            <path fill="#E15E41" d="M81.916 89.236c-.122 8.705 2.737 23.873 5.215 34.117 13.024 4.293 24.197-.578 30.65-5.537-.203-5.344-5.126-32.238-14.25-43.017-8.256-9.75-20.36-11.074-31.806-14.318M56.122 59.645c-5.667.502-21.608 4.042-25.415 7.418-7.089 6.285-17.24 25.386-21.176 43.039 0 0 5.499 7.717 18.16 6.434 2.644-2.92 5.295-9.803 12.099-18.425" mask="url(#b)"/>
            <path fill="#E7A98E" d="M71.778 40.48a290.407 290.407 0 0 1 3.191 21.66c.227 2.118-5.167 3.89-6.67 4.454-5.72 2.146-13.197 1.822-16.873-3.777-1.474-2.245-.087-4.797.51-7.277.845-3.504 1.665-7.013 2.518-10.514" mask="url(#b)"/>
            <path fill="#372A20" d="M48.042 20.215c-2.718.909-5.08 3.055-5.519 5.904-.201 1.305-.142 2.632-.1 3.95.011.368.021.745-.09 1.095-.14.45-.463.818-.7 1.228-.608 1.05-.631 2.324-.622 3.535.01 1.41.049 2.846.508 4.18.46 1.333 1.414 2.57 2.755 3.035.542.19 1.152.242 1.686.034.426-.166.773-.48 1.089-.808a10.675 10.675 0 0 0 2.32-3.714" mask="url(#b)"/>
            <path fill="#F4C0A5" d="M44.206 40.708c.462-4.248-.12-8.552.67-12.786.958-5.125 3.752-9.242 8.885-10.85 5.493-1.72 11.956-.642 16.698 2.555 7.668 5.172 8.555 16.323 3.738 24.184-4.816 7.859-8.006 10.734-10.553 11.717-4.554 1.759-16.088.41-17.908-2.142-1.679-2.353-1.777-10.409-1.53-12.678" mask="url(#b)"/>
            <path fill="#372A20" d="M83.7 31.037c-.166-1.616-.93-3.113-2.502-4.112.883-1.675.91-3.702.401-5.524-.509-1.82-1.518-3.465-2.63-5-2.21-3.047-5.858-2.684-5.858-2.684s-.634-2.35-2.57-3.4c-2.09-1.137-4.4-1.774-6.755-2.121-2.659-.393-5.873-.091-7.882 1.773-.485-1.134-3.236-1.084-4.458-.87-3.21.562-3.633.5-5.438 3.211-3.75-.757-8.343 3.416-5.64 6.581-1.077.877-.915 2.688.037 3.697.812.86 2.966 1.906 4.042 1.129-.03.872.443 1.657 1.176 2.122.713.452 1.58.6 2.425.643a11.28 11.28 0 0 0 5.715-1.239c1.635 1.771 4.109 2.598 6.526 2.733 2.419.134 4.824-.35 7.196-.83-.417.948-.843 1.936-.806 2.97.036 1.035.68 2.126 1.703 2.327-.977.89-1.12 2.54-.309 3.582 1.277 1.643 4.019.103 3.469 2.93-.444 2.27-1.552 6.703.931 8.318 1.869 1.215 5.234.16 6.523-1.398 1.68-2.034 2.352-4.88 1.478-7.394-.018-.055 1.494-1.615 1.636-1.817 1.141-1.618 1.789-3.707 1.59-5.627" mask="url(#b)"/>
            <path fill="#F4C0A5" d="M70.056 38.04c.486-.443.983-.893 1.585-1.159.603-.265 1.34-.319 1.9.027.454.28.728.774.93 1.265.607 1.47.751 3.156.214 4.651-.538 1.496-1.808 2.756-3.367 3.113-1.56.357-3.35-.3-4.154-1.673" mask="url(#b)"/>
            <path fill="#863D27" d="M80.327 99.941c.71 4.181 1.617 8.298 2.793 12.376 1.066 3.697 2.063 7.85 4.09 11.154.201.33.686.11.61-.254-.832-3.93-2.676-7.747-3.843-11.603a153.47 153.47 0 0 1-3.06-11.835c-.082-.388-.654-.218-.59.162M27.534 87.374c-1.692 4.062-2.51 8.561-3.198 12.886-.653 4.093-1.11 8.31-1.02 12.458.007.401.565.378.612 0 .54-4.36.925-8.728 1.63-13.069.662-4.08 1.71-8.102 2.29-12.19.029-.207-.232-.28-.314-.085" mask="url(#b)"/>
            <path fill="#DA7F99" d="M58.44 48.207c-.898.841-4.218-.004-5.258-.177-1.277-.215-3.634-.321-4.6-1.257-.167-.161-.461-.045-.461.19-.002 1.624 3.733 1.74 4.827 1.909 1.37.21 4.785.959 5.811-.349.174-.222-.101-.52-.318-.316" mask="url(#b)"/>
        </g>
        <g transform="translate(1091 144)">
            <mask id="e" fill="#fff">
                <use xlink:href="#c"/>
            </mask>
            <path fill="url(#d)" d="M37.604 18.75c0 10.292-8.343 18.635-18.635 18.635C8.677 37.385.333 29.042.333 18.75.333 8.457 8.677.114 18.97.114S37.604 8.457 37.604 18.75" mask="url(#e)"/>
        </g>
        <path fill="#FFFFFE" d="M1109 170c-.55 0-1-.63-1-1.4v-11.2c0-.77.45-1.4 1-1.4s1 .63 1 1.4v11.2c0 .77-.45 1.4-1 1.4"/>
        <path fill="#FFFFFE" d="M1116 163c0 .55-.63 1-1.401 1H1103.4c-.77 0-1.4-.45-1.4-1s.63-1 1.4-1h11.199c.771 0 1.401.45 1.401 1"/>
        <path fill="#7FC5E2" d="M1262 303.5c0 35.622-28.877 64.5-64.499 64.5-35.624 0-64.501-28.878-64.501-64.5 0-35.623 28.877-64.5 64.501-64.5 35.622 0 64.499 28.877 64.499 64.5"/>
        <g transform="translate(1132 239)">
            <mask id="g" fill="#fff">
                <use xlink:href="#f"/>
            </mask>
            <path fill="#4986B9" d="M59.847 64.07c-8.708.85-18.553 4.826-24.83 10.15-13.666 11.587-15.576 29.153-17.982 44.996-1.853 12.2.455 25 3.393 36.844 1.588 6.397 5.34 22.946 7.557 29.155 1.418 1.406 6.943 3.525 9.243-1.36.388-32.93 5.184-73.42 14.906-104.907M79.965 91.115c-7.136 17.915 3.022 32.16-4.529 49.907-8.149 19.158-11.529 48.251-11.529 48.251s3.77 3.125 7.329 3.156c2.38-2.457 10.767-15.25 17.374-24.778 6.605-9.53 12.494-19.91 14.325-31.33.697-4.345.792-8.76.834-13.159.092-9.788-.098-19.755-3.143-29.068C95.968 79.85 84.422 67.996 70.234 62.89" mask="url(#g)"/>
            <path fill="#4986B9" d="M32.29 103.178c-.482 3.996-.693 8.074.102 12.02.64 3.177 1.915 6.194 2.697 9.34 2.097 8.437.559 17.287-.798 25.871-.313 1.982-.98 4.15-.142 5.977 4.575 9.986 35.47 8.9 47.263 6.311 7.192-1.579 2.85-2.073 6.03-8.615 1.914-3.937 2.323-8.403 2.704-12.758l1.666-19.106c1.768-20.256-.548-41.28-17.352-54.916-.44-.357-.9-.719-1.446-.878-.867-.252-1.788.043-2.653.3a31.16 31.16 0 0 1-15.092.615c-.795-.165-1.649-.357-2.4-.044-.406.171-.739.476-1.058.778-5.09 4.844-8.056 11.042-12.396 16.444-4.392 5.467-6.292 11.75-7.125 18.66" mask="url(#g)"/>
            <path fill="#CF4F38" d="M56.851 36.417c-.602 3.068-.474 6.234-.92 9.329-.448 3.094-1.605 6.292-4.127 8.166-1.737 1.292-3.964 1.818-6.134 1.792-2.17-.026-4.301-.57-6.361-1.247.975-.977 1.145-2.476 1.176-3.85.138-5.876-1.225-11.7-1.262-17.576-.018-2.902.462-7.385 1.89-9.918 1.607-2.851 4.267-5.947 9.073-7.157" mask="url(#g)"/>
            <path fill="#E7A98E" d="M58.666 55.898c.02 2.517-2.577 8.199-4.468 9.878 0 2.949.082 5.137 4.657 5.137s11.39-1.804 14.761-6.194c-1.63-4.073-3.18-17.31-2.472-19.418" mask="url(#g)"/>
            <path fill="#F4C0A5" d="M47.32 26.142c-2.903 3.327-2.336 10.626-1.272 14.659.733 2.774.624 5.691.995 8.535.37 2.844 1.357 5.818 3.668 7.538 1.968 1.464 4.587 1.778 7.038 1.574 5.719-.479 11.152-3.632 14.374-8.343 3.224-4.71 4.172-10.885 2.508-16.334-.6-1.966-1.517-3.827-2.611-5.571-2.814-4.481-7.104-8.34-12.326-9.347-5.224-1.006-11.294 1.55-13.115 6.51" mask="url(#g)"/>
            <path fill="#CF4F38" d="M79.569 18.846c-1.8-2.9-4.243-5.46-7.44-7.117-3.486-1.806-7.694-2.415-11.619-1.683-2.657.496-6.332 1.95-8.447 3.491a18.13 18.13 0 0 0-2.553 2.284l-.1-.078c-.259.26-.527.545-.826.874-.738.815-1.156 1.594-1.33 2.334-.472.895-.887 1.84-1.194 2.898-1.283 4.434 3.81 7.134 7.215 8.426 1.274.484 2.55.968 3.862 1.334.983.274 1.987.482 2.95.818 2.449.854 4.582 2.548 5.997 4.707 1.412 2.158 2.103 4.766 1.984 7.337a11.62 11.62 0 0 0 2.244-6.877A31.943 31.943 0 0 1 71.49 48.27c-.099 1.657-.194 3.041-.818 4.6-.188.468-1.953 4.464-2.458 4.325 4.16 1.147 8.856-.313 11.936-3.114 9.728-8.843 5.404-25.594-.581-35.235" mask="url(#g)"/>
            <path fill="#F4C0A5" d="M69.936 41.243c-.29-.208-.021-.654.249-.89.543-.473 1.098-.954 1.761-1.238.664-.285 1.467-.346 2.09.017.59.343.922.999 1.122 1.647.7 2.278.056 4.911-1.62 6.615-.676.687-1.575 1.248-2.539 1.193-.963-.054-1.9-.94-1.718-1.88" mask="url(#g)"/>
            <path fill="#E15E41" d="M52.298 50.057c-.169.534.222 3.074 2.48 3.562 1.893.41 5.384-.978 4.964-2.848-.325-.714-7.275-1.248-7.444-.714" mask="url(#g)"/>
            <path fill="#41609D" d="M35.4 89.26c-2.681 4.15-4.324 8.781-4.758 13.698-.479 5.432.845 10.408 2.653 15.483a78.997 78.997 0 0 1 4.012 17c.718 5.918.306 11.654.141 17.574-.011.387.581.466.68.092 1.3-4.959 1.015-10.43.548-15.49-.49-5.32-1.475-10.634-3.035-15.75-1.647-5.4-3.899-10.364-3.998-16.11-.097-5.695 1.394-11.279 4.238-16.217.18-.31-.288-.578-.48-.28M74.172 99.098c-2.04 10.82.717 21.556.76 32.402.046 11.689-4.645 22.881-6.259 34.374-.06.436.543.632.684.187 1.75-5.52 2.832-11.27 4.11-16.91 1.19-5.241 2.399-10.46 2.508-15.853.233-11.39-3.059-22.688-1.315-34.066.048-.313-.427-.456-.488-.134M55.553 76.965c-2.002 11.863-3.19 23.977-2.702 36.013.007.194.299.196.303 0 .269-12.039.945-23.98 2.872-35.884.049-.306-.42-.439-.473-.13M50.724 84.1l.044.116c.25.651.863.897 1.501.605a.8.8 0 0 0 .367-.364c.294-.632.047-1.242-.611-1.488a5.715 5.715 0 0 0-.117-.044c-.66-.248-1.434.52-1.184 1.174M49.418 91.711c.056.293.182.56.326.82.348.633 1.262.72 1.76.226.495-.491.413-1.405-.227-1.746-.264-.142-.534-.265-.83-.32-.65-.12-1.154.371-1.029 1.02M49.812 101.409c1.298 0 1.3-2 0-2-1.297 0-1.299 2 0 2M49.744 110.024c-.1-.054-.193-.13-.29-.196-.554-.363-1.296.119-1.296.739s.742 1.101 1.295.738c.098-.065.19-.142.29-.195.412-.225.412-.862 0-1.086" mask="url(#g)"/>
        </g>
        <path fill="#7FC5E2" d="M1171 432.5c0 35.622-28.877 64.5-64.499 64.5-35.624 0-64.501-28.878-64.501-64.5s28.877-64.5 64.501-64.5c35.622 0 64.499 28.878 64.499 64.5"/>
        <g transform="translate(1040 368)">
            <mask id="i" fill="#fff">
                <use xlink:href="#h"/>
            </mask>
            <path fill="#E7A98E" d="M22.16 86.433c-5.132 5.866-16.716 24.935-17.107 24.962-5.575-4.59-11.34-8.994-26.126-20.077-.595 1.461-1.022 4.632-2.313 5.547 9.4 21.123 22.247 38.383 31.69 36.387 9.446-1.996 21.3-18.977 28.134-29.023 1.233-1.813 3.62-5.948 4.247-8.044" mask="url(#i)"/>
            <path fill="#E15E41" d="M63.44 57.41c-4.843-.943-15.876 1.908-20.677 3.039-3.068.722-15.492 12.932-27.45 33.145 6.896 6.274 16.381 10.785 23.604 10.978 1.744-4.7 4.534-9.08 6.112-13.788 1.558-4.657 3.72-8.986 6.143-13.317" mask="url(#i)"/>
            <path fill="#E15E41" d="M99.908 172.598c-9.908 4.154-24.97 2.268-31.508 1.985-18.573-.78-38.097-7.125-41.022-11.208-1.307-1.839 9.1-69.45 11.193-73.719 1.165-2.43 2.591-4.743 3.614-7.243 2.95-7.079 2.901-15.642 8.086-21.283.452-.494 1.688-.188 1.142.19l8.584 2.95c4.424-.85 15.147-1.58 18.501-5.497 3.805 2.382 9.94 10.734 12.841 14.155a48.427 48.427 0 0 1 3.045 4.01c4.327 23.357 8.298 63.631 5.524 95.66" mask="url(#i)"/>
            <path fill="#9D4E2C" d="M41.116 82.409c-3.176 7.577-4.539 16.067-6.146 24.073-1.591 7.936-3.452 16-4.17 24.073-.042.48.718.565.837.112 4.124-15.814 4.902-32.515 10.237-48.05.167-.487-.569-.657-.758-.208" mask="url(#i)"/>
            <path fill="#E7A98E" d="M75.401 37.702a282.548 282.548 0 0 1 3.104 21.072c-1.733 2.758-6.588 7.001-10.7 7.133-13.085.418-13.085-6.438-13.085-8.067.671-2.35 2.55-10.477 3.826-15.715" mask="url(#i)"/>
            <path fill="#2A2A5F" d="M54.02 16.632c-3.016.596-5.389 3.047-6.676 5.818-1.288 2.77-1.665 5.858-2.028 8.887-.094.794-.188 1.604-.026 2.386.25 1.202 1.89 4.518 3.057 4.925 1.167.405 1.82-2.136 2.698-3.002.485-.48.8-1.097 1.109-1.704 1.079-2.13 2.16-4.26 3.237-6.39" mask="url(#i)"/>
            <path fill="#F4C0A5" d="M47.732 35.927c.981-4.04.964-8.265 2.261-12.252 1.571-4.825 4.787-8.45 9.941-9.363 5.516-.977 11.616.865 15.788 4.54 6.744 5.942 6.193 16.811.553 23.797-5.639 6.984-9.08 9.36-11.662 9.993-4.615 1.13-15.572-1.605-17.006-4.293-1.322-2.48-.4-10.262.125-12.422" mask="url(#i)"/>
            <path fill="#2A2A5F" d="M50.296 8.428c1.244 1.132 3.036 1.396 4.282 1.234 4.897-.634 9.924-.746 14.727.392 4.803 1.14 9.387 3.616 12.435 7.47 2.332 2.947 3.704 6.83 2.906 10.492 1.458 6.847-.864 10.919-1.692 12.909-.671 1.614-3.55 3.677-5.196 4.295-1.646.618-2.043.683-4.574.683 0-1.54.22-3.085.309-4.622.114-1.969 1.196-3.6 1.219-5.624-.675.08-1.275.385-1.703.908-.54.66-2.702 2.618-3.131 2.506-.997-.26-.113-1.599.158-2.1 1.557-2.88 3.324-5.977 2.807-9.204-.057-.354-.147-.715-.358-1.006-.471-.645-1.373-.758-2.168-.862-2.79-.359-5.472-1.244-8.088-2.24-1.08-.412-2.032-.622-3.141-.854-1.216-.255-2.392-1.061-3.422-1.725-1.984-1.278-3.815-2.914-4.847-5.028-.798-1.635-1.807-6.33-.523-7.624" mask="url(#i)"/>
            <path fill="#E15E41" d="M58.667 43.12c.064-.022.092-.113.052-.169l-6.724-2.302c-.066-.023-.15-.042-.2.007-.03.032-.033.08-.036.124-.025.453-.05.906-.077 1.36-.029.518-.055 1.052.11 1.544.149.435.44.811.782 1.122.945.862 2.303 1.253 3.57 1.04.528-.089 1.05-.284 1.45-.64.398-.354 1.177-1.726 1.125-2.255" mask="url(#i)"/>
            <path fill="#F4C0A5" d="M73.009 36.565c.524-.366 1.06-.738 1.676-.92.614-.18 1.332-.14 1.83.263.403.325.604.837.737 1.335.399 1.494.325 3.14-.382 4.515-.708 1.376-2.092 2.434-3.641 2.584-1.55.15-3.194-.706-3.797-2.13" mask="url(#i)"/>
            <path fill="#E7A98E" d="M118.187 140.121c-1.26 3.516-4.946 5.544-8.419 6.936-7.18 2.856-35.028.967-39.546.85l-1.783-5.427c6.99-3.444 13.816-5.498 20.855-8.776.737-.33 10.416-3.964 10.416-4.483-4.519-7.739-5.85-15.95-8.466-24.088l19.952-10.145a157.651 157.651 0 0 1 7.419 39.683c.119 1.84.19 3.728-.428 5.45" mask="url(#i)"/>
            <path fill="#E15E41" d="M78.505 58.774c5.542 1.147 22.838 7.093 28.338 15.408 1.69 2.553 8.757 26.05 9.71 35.52-6.918 7.243-12.637 7.69-23.9 5.337-2.465-3.903-3.611-20.418-5.437-29.622" mask="url(#i)"/>
            <path fill="#9D4E2C" d="M87.906 96.253c.56 3.422 1.244 6.807 2.163 10.153.83 3.02 1.637 6.371 3.258 9.081.269.45.955.15.838-.35-.746-3.193-2.277-6.255-3.246-9.4-.977-3.168-1.78-6.39-2.508-9.621-.075-.332-.559-.187-.505.137" mask="url(#i)"/>
        </g>
        <g transform="translate(1143 387)">
            <mask id="l" fill="#fff">
                <use xlink:href="#j"/>
            </mask>
            <path fill="url(#k)" d="M37.604 18.75c0 10.292-8.343 18.635-18.635 18.635C8.677 37.385.333 29.042.333 18.75.333 8.457 8.677.114 18.97.114S37.604 8.457 37.604 18.75" mask="url(#l)"/>
        </g>
        <path fill="#FFFFFE" d="M1163 413c-.55 0-1-.63-1-1.4v-11.199c0-.771.45-1.401 1-1.401s1 .63 1 1.401V411.6c0 .77-.45 1.4-1 1.4"/>
        <path fill="#FFFFFE" d="M1170 406c0 .55-.63 1-1.401 1H1157.4c-.77 0-1.4-.45-1.4-1s.63-1 1.4-1h11.199c.771 0 1.401.45 1.401 1"/>
        <path fill="#B9E1ED" d="M1110 316.5c0 15.74-12.76 28.5-28.5 28.5s-28.5-12.76-28.5-28.5 12.76-28.5 28.5-28.5 28.5 12.76 28.5 28.5"/>
        <g transform="translate(1053 288)">
            <mask id="n" fill="#fff">
                <use xlink:href="#m"/>
            </mask>
            <path fill="#7CCCE7" d="M52.222 60.735c-.075-6.67-3.679-17.015-6.242-21.783-1.276-2.376-3.117-3.922-5.304-4.981.008-.17-.003-.34-.033-.51-.25-1.336-1.192-2.696-1.702-3.963-.165-.413-.334-.841-.314-1.286.05-1.12 1.204-1.829 1.728-2.82a2.718 2.718 0 0 0-.086-2.64c-.493-.802-1.38-1.302-1.864-2.108-.542-.9-.496-2.016-.617-3.06-.42-3.61-2.669-7.896-6.302-9.08-1.751-.57-3.893-.555-5.287.546-1.101-.713-2.57-.774-3.797-.29-1.305.516-2.346 1.572-3.059 2.78-.913 1.545-1.184 3.133-1.506 4.849-.321 1.705-.114 3.873-.934 5.427-.56 1.064-1.702 1.86-1.842 3.055-.082.701.217 1.404.659 1.955.662.825 1.673 1.447 1.931 2.474.293 1.163-.506 2.283-1.175 3.278-.671.994-1.251 2.337-.58 3.33.12.175.267.319.432.439-2.012 2.053-3.62 4.584-5.405 7.067C9.151 45.88 5.96 53.008 3.27 55.403c-1.172 1.045-14.304 12.429-14.816 13.275-.186.932-.104 2.144.7 2.718 6.321-1.587 19.435-8.045 20.345-8.554 1.54-.862 4.584-3.89 7.632-7.429a43.293 43.293 0 0 0 1.242 2.871c.845 1.755 1.29 5.16 1.057 7.951a40.354 40.354 0 0 1-.222 2.009c8.087 2.73 17.058 1.615 22.371.49-2.202 7.777-4.194 19.63-4.194 19.63l.28.13c-.341.471-.846.871-1.243 1.358-.895 1.094-1.348 2.473-1.784 3.817-.042.13-.079.285.007.39.12.145.355.062.506-.05a2.13 2.13 0 0 0 .63-.748c.04-.08.09-.174.178-.183.344-.03.223.87.183 1.04-.091.373-.9.538-1.228.655-.396.142-.46.311-.452.528.003.068-.009.172.058.183.614.115 1.572-.055 1.95-.15.374.237.658.286 1.01.258.319-.026.603-.216.83-.441.227-.226.413-.49.635-.72.17-.175.365-.335.475-.553.09-.177.116-.38.14-.578.158-1.286.361-2.568.523-3.853 1.001-1.527 12.251-18.898 12.14-28.712" mask="url(#n)"/>
        </g>
        <path fill="#7CCCE7" d="M1112 301.5a8.5 8.5 0 1 1-17 0 8.5 8.5 0 0 1 17 0"/>
        <path fill="#FFFFFE" d="M1103.5 304c-.275 0-.5-.315-.5-.7v-5.6c0-.385.225-.7.5-.7s.5.315.5.7v5.6c0 .385-.225.7-.5.7"/>
        <path fill="#FFFFFE" d="M1107 301.5c0 .275-.315.5-.7.5h-5.6c-.384 0-.7-.225-.7-.5s.316-.5.7-.5h5.6c.385 0 .7.225.7.5"/>
        <path fill="#B9E1ED" d="M1233 175c0 16.569-13.432 30-30 30-16.569 0-30-13.431-30-30 0-16.569 13.431-30 30-30 16.568 0 30 13.431 30 30"/>
        <g transform="translate(1173 145)">
            <mask id="p" fill="#fff">
                <use xlink:href="#o"/>
            </mask>
            <path fill="#7CCCE7" d="M61.839 91.846c0-5.689-1.17-12.512-2.328-17.875.24-.172.471-.346.693-.52-.115-3.13-2.93-18.885-8.149-25.2-4.29-5.19-10.398-6.306-16.387-7.892a174.848 174.848 0 0 0-1.078-8.093c1.096.453 2.761-.121 3.435-.958.962-1.192 1.346-2.859.847-4.332-.011-.032.853-.946.935-1.064.652-.948 1.022-2.172.909-3.297-.095-.946-.532-1.823-1.431-2.408.505-.981.52-2.169.23-3.236-.292-1.067-.87-2.03-1.504-2.928-1.264-1.786-3.35-1.574-3.35-1.574s-.363-1.376-1.47-1.992c-1.195-.665-2.516-1.038-3.863-1.242-1.52-.23-3.358-.053-4.506 1.04-.278-.665-1.851-.636-2.55-.51-1.836.328-2.078.293-3.11 1.88-2.144-.444-4.77 2.002-3.224 3.856-.616.513-.523 1.575.02 2.165.329.357 1.042.76 1.649.809a3.79 3.79 0 0 0-.438 1.26c-.114.764-.08 1.542-.056 2.314.007.215.012.435-.051.641-.08.264-.265.48-.401.72-.347.615-.36 1.36-.356 2.07.007.826.028 1.667.29 2.449.253.747.766 1.438 1.48 1.737-.01 1.95.194 4.981.932 6.041.434.624 1.833 1.124 3.506 1.421-.233.91-.61 1.835-.625 2.717-4.05.785-9.805 2.357-11.474 3.874C6.359 47.4.554 58.59-1.696 68.932c0 0 .75 1.068 2.348 2.08l-2.348 20.279 7.69 3.272a481.7 481.7 0 0 0 .565 9.25c.03.433.059.87-.025 1.295-.164.82-.73 1.5-.964 2.302-.476 1.634.521 3.336 1.69 4.556 4.973 5.184 13.797 4.168 20.266 4.09a54.03 54.03 0 0 0 18.525-3.517c.968-.37 2.377-.806 3.775-1.351.954 4.79 2.1 9.737 2.133 11.117.063 2.532-.235 3.36-1.45 5.578-1.336 2.437-.554 4.333.124 6.444.462-.62.987-.942 1.768-1.15.824.493 1.02 1.412-.04 1.915-.573.36-.786 1.182-.673 1.538.128.4 1.21.611 1.627-.236.244.586 1.424.418 1.632-.323.221.565 1.171.215 1.39-.458.428.354.746.289 1.076-.162.329-.45.374-.84.372-1.402-.007-2.239-.681-4.4-.867-6.622-.364-4.368 4.92-19.293 4.92-35.581" mask="url(#p)"/>
        </g>
        <path fill="#7CCCE7" d="M1234 153.5a8.5 8.5 0 1 1-17 0 8.5 8.5 0 0 1 17 0"/>
    </g>
</svg>
